<?xml version="1.0" encoding="utf-8"?>
<svg xmlns="http://www.w3.org/2000/svg" xmlns:xlink="http://www.w3.org/1999/xlink" width="600" height="400" viewBox="0 0 2400 1600">
<defs>
  <clipPath id="clip580">
    <rect x="0" y="0" width="2400" height="1600"/>
  </clipPath>
</defs>
<path clip-path="url(#clip580)" d="M0 1600 L2400 1600 L2400 0 L0 0  Z" fill="#ffffff" fill-rule="evenodd" fill-opacity="1"/>
<defs>
  <clipPath id="clip581">
    <rect x="480" y="0" width="1681" height="1600"/>
  </clipPath>
</defs>
<defs>
  <clipPath id="clip582">
    <rect x="223" y="47" width="1450" height="1377"/>
  </clipPath>
</defs>
<path clip-path="url(#clip580)" d="M223.03 1423.18 L1671.71 1423.18 L1671.71 47.2441 L223.03 47.2441  Z" fill="#ffffff" fill-rule="evenodd" fill-opacity="1"/>
<polyline clip-path="url(#clip582)" style="stroke:#000000; stroke-linecap:round; stroke-linejoin:round; stroke-width:2; stroke-opacity:0.1; fill:none" points="264.03,1423.18 264.03,47.2441 "/>
<polyline clip-path="url(#clip582)" style="stroke:#000000; stroke-linecap:round; stroke-linejoin:round; stroke-width:2; stroke-opacity:0.1; fill:none" points="537.366,1423.18 537.366,47.2441 "/>
<polyline clip-path="url(#clip582)" style="stroke:#000000; stroke-linecap:round; stroke-linejoin:round; stroke-width:2; stroke-opacity:0.1; fill:none" points="810.702,1423.18 810.702,47.2441 "/>
<polyline clip-path="url(#clip582)" style="stroke:#000000; stroke-linecap:round; stroke-linejoin:round; stroke-width:2; stroke-opacity:0.1; fill:none" points="1084.04,1423.18 1084.04,47.2441 "/>
<polyline clip-path="url(#clip582)" style="stroke:#000000; stroke-linecap:round; stroke-linejoin:round; stroke-width:2; stroke-opacity:0.1; fill:none" points="1357.37,1423.18 1357.37,47.2441 "/>
<polyline clip-path="url(#clip582)" style="stroke:#000000; stroke-linecap:round; stroke-linejoin:round; stroke-width:2; stroke-opacity:0.1; fill:none" points="1630.71,1423.18 1630.71,47.2441 "/>
<polyline clip-path="url(#clip580)" style="stroke:#000000; stroke-linecap:round; stroke-linejoin:round; stroke-width:4; stroke-opacity:1; fill:none" points="223.03,1423.18 1671.71,1423.18 "/>
<polyline clip-path="url(#clip580)" style="stroke:#000000; stroke-linecap:round; stroke-linejoin:round; stroke-width:4; stroke-opacity:1; fill:none" points="264.03,1423.18 264.03,1404.28 "/>
<polyline clip-path="url(#clip580)" style="stroke:#000000; stroke-linecap:round; stroke-linejoin:round; stroke-width:4; stroke-opacity:1; fill:none" points="537.366,1423.18 537.366,1404.28 "/>
<polyline clip-path="url(#clip580)" style="stroke:#000000; stroke-linecap:round; stroke-linejoin:round; stroke-width:4; stroke-opacity:1; fill:none" points="810.702,1423.18 810.702,1404.28 "/>
<polyline clip-path="url(#clip580)" style="stroke:#000000; stroke-linecap:round; stroke-linejoin:round; stroke-width:4; stroke-opacity:1; fill:none" points="1084.04,1423.18 1084.04,1404.28 "/>
<polyline clip-path="url(#clip580)" style="stroke:#000000; stroke-linecap:round; stroke-linejoin:round; stroke-width:4; stroke-opacity:1; fill:none" points="1357.37,1423.18 1357.37,1404.28 "/>
<polyline clip-path="url(#clip580)" style="stroke:#000000; stroke-linecap:round; stroke-linejoin:round; stroke-width:4; stroke-opacity:1; fill:none" points="1630.71,1423.18 1630.71,1404.28 "/>
<path clip-path="url(#clip580)" d="M233.781 1469.4 Q233.781 1461.96 235.659 1457.91 Q238.277 1451.88 244.453 1451.88 Q245.762 1451.88 247.121 1452.26 Q248.504 1452.6 250.234 1453.96 Q251.988 1455.32 253.05 1457.54 Q255.076 1461.84 255.076 1469.4 Q255.076 1476.79 253.198 1480.81 Q250.456 1486.69 244.404 1486.69 Q242.131 1486.69 239.809 1485.53 Q237.511 1484.37 236.054 1481.58 Q233.781 1477.4 233.781 1469.4 M237.981 1468.78 Q237.981 1476.41 238.524 1479.45 Q239.142 1482.74 240.822 1484.17 Q242.526 1485.58 244.404 1485.58 Q246.429 1485.58 248.109 1484.07 Q249.814 1482.54 250.332 1479.26 Q250.901 1476.02 250.876 1468.78 Q250.876 1461.74 250.382 1458.92 Q249.715 1455.64 247.936 1454.33 Q246.182 1453 244.404 1453 Q243.737 1453 243.02 1453.19 Q242.329 1453.39 241.316 1453.96 Q240.303 1454.53 239.512 1455.94 Q238.747 1457.34 238.376 1459.47 Q237.981 1462.21 237.981 1468.78 Z" fill="#000000" fill-rule="nonzero" fill-opacity="1" /><path clip-path="url(#clip580)" d="M262.165 1484.76 Q261.4 1483.95 261.4 1482.89 Q261.4 1481.82 262.165 1481.06 Q262.931 1480.27 264.092 1480.27 Q265.204 1480.27 265.945 1481.01 Q266.711 1481.73 266.711 1482.91 Q266.711 1484.07 265.896 1484.84 Q265.105 1485.58 264.092 1485.58 Q262.931 1485.58 262.165 1484.76 Z" fill="#000000" fill-rule="nonzero" fill-opacity="1" /><path clip-path="url(#clip580)" d="M273.282 1463.27 Q273.282 1460.58 274.072 1458.75 Q274.863 1456.9 276.518 1455.07 Q279.557 1451.88 283.954 1451.88 Q285.831 1451.88 287.486 1452.67 Q289.166 1453.47 290.747 1455.27 Q292.353 1457.05 293.316 1460.58 Q294.28 1464.09 294.28 1468.93 Q294.28 1476.76 290.475 1481.73 Q286.696 1486.69 281.582 1486.69 Q278.346 1486.69 276.444 1485.23 Q274.542 1483.75 274.542 1481.23 Q274.542 1479.92 275.283 1479.38 Q276.024 1478.81 276.864 1478.81 Q277.778 1478.81 278.494 1479.43 Q279.211 1480.02 279.211 1481.13 Q279.211 1482.05 278.618 1482.76 Q278.05 1483.46 276.567 1483.46 Q278.025 1485.28 281.533 1485.28 Q282.793 1485.28 284.053 1484.72 Q285.312 1484.12 286.671 1482.71 Q288.054 1481.28 288.894 1478.29 Q289.734 1475.3 289.734 1471.1 L289.734 1469.5 Q287.709 1474.56 283.41 1474.56 Q279.161 1474.56 276.222 1471.3 Q273.282 1468.04 273.282 1463.27 M277.827 1463.32 Q277.827 1468.34 278.741 1470.19 Q280.298 1473.38 283.46 1473.38 Q286.548 1473.38 288.079 1470.63 Q289.636 1467.87 289.636 1464.29 Q289.636 1459.32 288.82 1457.15 Q287.313 1453.14 283.954 1453.14 Q280.619 1453.14 278.89 1456.33 Q277.827 1458.21 277.827 1463.32 Z" fill="#000000" fill-rule="nonzero" fill-opacity="1" /><path clip-path="url(#clip580)" d="M508.303 1456.7 L508.303 1455.12 Q514.38 1455.12 517.517 1451.88 Q518.382 1451.88 518.53 1452.08 Q518.678 1452.28 518.678 1453.19 L518.678 1481.58 Q518.678 1483.08 519.419 1483.55 Q520.161 1484.02 523.397 1484.02 L525.002 1484.02 L525.002 1485.58 Q523.224 1485.43 516.801 1485.43 Q510.378 1485.43 508.624 1485.58 L508.624 1484.02 L510.23 1484.02 Q513.417 1484.02 514.182 1483.58 Q514.948 1483.11 514.948 1481.58 L514.948 1455.37 Q512.305 1456.7 508.303 1456.7 Z" fill="#000000" fill-rule="nonzero" fill-opacity="1" /><path clip-path="url(#clip580)" d="M534.167 1484.76 Q533.402 1483.95 533.402 1482.89 Q533.402 1481.82 534.167 1481.06 Q534.933 1480.27 536.094 1480.27 Q537.206 1480.27 537.947 1481.01 Q538.713 1481.73 538.713 1482.91 Q538.713 1484.07 537.898 1484.84 Q537.107 1485.58 536.094 1485.58 Q534.933 1485.58 534.167 1484.76 Z" fill="#000000" fill-rule="nonzero" fill-opacity="1" /><path clip-path="url(#clip580)" d="M545.136 1469.4 Q545.136 1461.96 547.013 1457.91 Q549.632 1451.88 555.807 1451.88 Q557.117 1451.88 558.475 1452.26 Q559.859 1452.6 561.588 1453.96 Q563.342 1455.32 564.404 1457.54 Q566.43 1461.84 566.43 1469.4 Q566.43 1476.79 564.552 1480.81 Q561.81 1486.69 555.758 1486.69 Q553.485 1486.69 551.163 1485.53 Q548.866 1484.37 547.408 1481.58 Q545.136 1477.4 545.136 1469.4 M549.335 1468.78 Q549.335 1476.41 549.879 1479.45 Q550.496 1482.74 552.176 1484.17 Q553.881 1485.58 555.758 1485.58 Q557.784 1485.58 559.464 1484.07 Q561.168 1482.54 561.687 1479.26 Q562.255 1476.02 562.23 1468.78 Q562.23 1461.74 561.736 1458.92 Q561.069 1455.64 559.291 1454.33 Q557.537 1453 555.758 1453 Q555.091 1453 554.375 1453.19 Q553.683 1453.39 552.67 1453.96 Q551.657 1454.53 550.867 1455.94 Q550.101 1457.34 549.73 1459.47 Q549.335 1462.21 549.335 1468.78 Z" fill="#000000" fill-rule="nonzero" fill-opacity="1" /><path clip-path="url(#clip580)" d="M782.676 1456.7 L782.676 1455.12 Q788.753 1455.12 791.891 1451.88 Q792.755 1451.88 792.904 1452.08 Q793.052 1452.28 793.052 1453.19 L793.052 1481.58 Q793.052 1483.08 793.793 1483.55 Q794.534 1484.02 797.77 1484.02 L799.376 1484.02 L799.376 1485.58 Q797.597 1485.43 791.174 1485.43 Q784.752 1485.43 782.998 1485.58 L782.998 1484.02 L784.603 1484.02 Q787.79 1484.02 788.556 1483.58 Q789.322 1483.11 789.322 1481.58 L789.322 1455.37 Q786.678 1456.7 782.676 1456.7 Z" fill="#000000" fill-rule="nonzero" fill-opacity="1" /><path clip-path="url(#clip580)" d="M808.541 1484.76 Q807.775 1483.95 807.775 1482.89 Q807.775 1481.82 808.541 1481.06 Q809.307 1480.27 810.468 1480.27 Q811.579 1480.27 812.32 1481.01 Q813.086 1481.73 813.086 1482.91 Q813.086 1484.07 812.271 1484.84 Q811.481 1485.58 810.468 1485.58 Q809.307 1485.58 808.541 1484.76 Z" fill="#000000" fill-rule="nonzero" fill-opacity="1" /><path clip-path="url(#clip580)" d="M822.029 1456.7 L822.029 1455.12 Q828.106 1455.12 831.243 1451.88 Q832.108 1451.88 832.256 1452.08 Q832.404 1452.28 832.404 1453.19 L832.404 1481.58 Q832.404 1483.08 833.145 1483.55 Q833.886 1484.02 837.123 1484.02 L838.728 1484.02 L838.728 1485.58 Q836.95 1485.43 830.527 1485.43 Q824.104 1485.43 822.35 1485.58 L822.35 1484.02 L823.956 1484.02 Q827.142 1484.02 827.908 1483.58 Q828.674 1483.11 828.674 1481.58 L828.674 1455.37 Q826.031 1456.7 822.029 1456.7 Z" fill="#000000" fill-rule="nonzero" fill-opacity="1" /><path clip-path="url(#clip580)" d="M1055.25 1456.7 L1055.25 1455.12 Q1061.32 1455.12 1064.46 1451.88 Q1065.33 1451.88 1065.47 1452.08 Q1065.62 1452.28 1065.62 1453.19 L1065.62 1481.58 Q1065.62 1483.08 1066.36 1483.55 Q1067.1 1484.02 1070.34 1484.02 L1071.95 1484.02 L1071.95 1485.58 Q1070.17 1485.43 1063.74 1485.43 Q1057.32 1485.43 1055.57 1485.58 L1055.57 1484.02 L1057.17 1484.02 Q1060.36 1484.02 1061.13 1483.58 Q1061.89 1483.11 1061.89 1481.58 L1061.89 1455.37 Q1059.25 1456.7 1055.25 1456.7 Z" fill="#000000" fill-rule="nonzero" fill-opacity="1" /><path clip-path="url(#clip580)" d="M1081.11 1484.76 Q1080.35 1483.95 1080.35 1482.89 Q1080.35 1481.82 1081.11 1481.06 Q1081.88 1480.27 1083.04 1480.27 Q1084.15 1480.27 1084.89 1481.01 Q1085.66 1481.73 1085.66 1482.91 Q1085.66 1484.07 1084.84 1484.84 Q1084.05 1485.58 1083.04 1485.58 Q1081.88 1485.58 1081.11 1484.76 Z" fill="#000000" fill-rule="nonzero" fill-opacity="1" /><path clip-path="url(#clip580)" d="M1092.62 1485.58 Q1092.62 1484.67 1092.7 1484.39 Q1092.8 1484.12 1093.19 1483.7 L1102.9 1472.88 Q1108.21 1466.9 1108.21 1461.69 Q1108.21 1458.31 1106.43 1455.89 Q1104.68 1453.47 1101.44 1453.47 Q1099.22 1453.47 1097.34 1454.82 Q1095.46 1456.18 1094.6 1458.6 Q1094.75 1458.55 1095.27 1458.55 Q1096.53 1458.55 1097.22 1459.34 Q1097.93 1460.14 1097.93 1461.2 Q1097.93 1462.56 1097.04 1463.22 Q1096.18 1463.87 1095.32 1463.87 Q1094.97 1463.87 1094.5 1463.79 Q1094.06 1463.72 1093.34 1463.03 Q1092.62 1462.31 1092.62 1461.05 Q1092.62 1457.52 1095.29 1454.7 Q1097.98 1451.88 1102.08 1451.88 Q1106.73 1451.88 1109.77 1454.65 Q1112.83 1457.39 1112.83 1461.69 Q1112.83 1463.2 1112.36 1464.58 Q1111.92 1465.94 1111.3 1467 Q1110.71 1468.07 1109.08 1469.77 Q1107.44 1471.47 1106.14 1472.68 Q1104.83 1473.9 1101.89 1476.46 L1096.53 1481.68 L1105.64 1481.68 Q1110.09 1481.68 1110.43 1481.28 Q1110.93 1480.57 1111.55 1476.79 L1112.83 1476.79 L1111.4 1485.58 L1092.62 1485.58 Z" fill="#000000" fill-rule="nonzero" fill-opacity="1" /><path clip-path="url(#clip580)" d="M1328.38 1456.7 L1328.38 1455.12 Q1334.46 1455.12 1337.6 1451.88 Q1338.46 1451.88 1338.61 1452.08 Q1338.76 1452.28 1338.76 1453.19 L1338.76 1481.58 Q1338.76 1483.08 1339.5 1483.55 Q1340.24 1484.02 1343.48 1484.02 L1345.08 1484.02 L1345.08 1485.58 Q1343.31 1485.43 1336.88 1485.43 Q1330.46 1485.43 1328.71 1485.58 L1328.71 1484.02 L1330.31 1484.02 Q1333.5 1484.02 1334.26 1483.58 Q1335.03 1483.11 1335.03 1481.58 L1335.03 1455.37 Q1332.39 1456.7 1328.38 1456.7 Z" fill="#000000" fill-rule="nonzero" fill-opacity="1" /><path clip-path="url(#clip580)" d="M1354.25 1484.76 Q1353.48 1483.95 1353.48 1482.89 Q1353.48 1481.82 1354.25 1481.06 Q1355.02 1480.27 1356.18 1480.27 Q1357.29 1480.27 1358.03 1481.01 Q1358.79 1481.73 1358.79 1482.91 Q1358.79 1484.07 1357.98 1484.84 Q1357.19 1485.58 1356.18 1485.58 Q1355.02 1485.58 1354.25 1484.76 Z" fill="#000000" fill-rule="nonzero" fill-opacity="1" /><path clip-path="url(#clip580)" d="M1365.37 1478.76 Q1365.37 1477.25 1366.23 1476.54 Q1367.1 1475.82 1368.21 1475.82 Q1369.37 1475.82 1370.18 1476.59 Q1371.02 1477.33 1371.02 1478.64 Q1371.02 1480.05 1370.03 1480.84 Q1369.07 1481.63 1367.69 1481.43 Q1368.9 1483.46 1371.12 1484.37 Q1373.37 1485.28 1375.44 1485.28 Q1377.62 1485.28 1379.37 1483.41 Q1381.15 1481.53 1381.15 1476.93 Q1381.15 1473.03 1379.62 1470.78 Q1378.11 1468.53 1375.12 1468.53 L1372.9 1468.53 Q1372.13 1468.53 1371.91 1468.46 Q1371.69 1468.39 1371.69 1467.97 Q1371.69 1467.47 1372.46 1467.37 Q1373.22 1467.37 1374.43 1467.23 Q1377.37 1467.13 1378.93 1464.58 Q1380.34 1462.21 1380.34 1458.83 Q1380.34 1455.74 1378.85 1454.45 Q1377.4 1453.14 1375.49 1453.14 Q1373.72 1453.14 1371.76 1453.89 Q1369.81 1454.63 1368.75 1456.28 Q1371.89 1456.28 1371.89 1458.83 Q1371.89 1459.94 1371.17 1460.68 Q1370.48 1461.4 1369.32 1461.4 Q1368.21 1461.4 1367.47 1460.7 Q1366.72 1459.99 1366.72 1458.78 Q1366.72 1455.89 1369.29 1453.89 Q1371.89 1451.88 1375.69 1451.88 Q1379.45 1451.88 1382.21 1453.86 Q1385.01 1455.84 1385.01 1458.88 Q1385.01 1461.86 1383.03 1464.31 Q1381.05 1466.76 1377.92 1467.77 Q1381.77 1468.53 1384.07 1471.15 Q1386.36 1473.75 1386.36 1476.93 Q1386.36 1480.89 1383.25 1483.8 Q1380.14 1486.69 1375.59 1486.69 Q1371.39 1486.69 1368.38 1484.42 Q1365.37 1482.15 1365.37 1478.76 Z" fill="#000000" fill-rule="nonzero" fill-opacity="1" /><path clip-path="url(#clip580)" d="M1601.36 1456.7 L1601.36 1455.12 Q1607.44 1455.12 1610.58 1451.88 Q1611.44 1451.88 1611.59 1452.08 Q1611.74 1452.28 1611.74 1453.19 L1611.74 1481.58 Q1611.74 1483.08 1612.48 1483.55 Q1613.22 1484.02 1616.46 1484.02 L1618.06 1484.02 L1618.06 1485.58 Q1616.28 1485.43 1609.86 1485.43 Q1603.44 1485.43 1601.68 1485.58 L1601.68 1484.02 L1603.29 1484.02 Q1606.48 1484.02 1607.24 1483.58 Q1608.01 1483.11 1608.01 1481.58 L1608.01 1455.37 Q1605.36 1456.7 1601.36 1456.7 Z" fill="#000000" fill-rule="nonzero" fill-opacity="1" /><path clip-path="url(#clip580)" d="M1627.23 1484.76 Q1626.46 1483.95 1626.46 1482.89 Q1626.46 1481.82 1627.23 1481.06 Q1627.99 1480.27 1629.15 1480.27 Q1630.27 1480.27 1631.01 1481.01 Q1631.77 1481.73 1631.77 1482.91 Q1631.77 1484.07 1630.96 1484.84 Q1630.17 1485.58 1629.15 1485.58 Q1627.99 1485.58 1627.23 1484.76 Z" fill="#000000" fill-rule="nonzero" fill-opacity="1" /><path clip-path="url(#clip580)" d="M1637.63 1477.23 L1637.63 1475.67 L1653.17 1451.93 Q1653.56 1451.32 1654.18 1451.34 Q1654.75 1451.34 1654.87 1451.56 Q1654.99 1451.79 1654.99 1452.65 L1654.99 1475.67 L1660.06 1475.67 L1660.06 1477.23 L1654.99 1477.23 L1654.99 1481.63 Q1654.99 1483.08 1655.59 1483.55 Q1656.2 1484.02 1658.82 1484.02 L1659.88 1484.02 L1659.88 1485.58 Q1657.81 1485.43 1653.02 1485.43 Q1648.25 1485.43 1646.17 1485.58 L1646.17 1484.02 L1647.24 1484.02 Q1649.86 1484.02 1650.47 1483.58 Q1651.09 1483.11 1651.09 1481.63 L1651.09 1477.23 L1637.63 1477.23 M1639.06 1475.67 L1651.39 1475.67 L1651.39 1456.8 L1639.06 1475.67 Z" fill="#000000" fill-rule="nonzero" fill-opacity="1" /><path clip-path="url(#clip580)" d="M966.036 1529.06 Q966.036 1532.06 964.522 1537.85 Q963.91 1540.37 963.073 1542.65 Q962.268 1544.91 961.076 1547.1 Q959.885 1549.29 958.5 1550.86 Q957.115 1552.41 955.312 1553.38 Q953.508 1554.34 951.511 1554.34 Q948.355 1554.34 946.487 1552.47 Q944.651 1550.57 944.072 1547.32 Q939.756 1554.34 933.991 1554.34 Q930.416 1554.34 928.742 1551.8 Q927.067 1549.22 927.067 1544.91 Q927.067 1541.27 928.033 1537.5 Q929.869 1530.35 933.444 1525.36 Q933.927 1524.78 934.635 1524.78 Q935.054 1524.78 935.247 1524.91 Q935.827 1525.26 935.827 1525.84 Q935.827 1526.26 935.505 1526.68 Q933.251 1529.8 931.769 1532.48 Q930.288 1535.15 929.611 1537.85 Q929.096 1540.17 929.096 1542.14 Q929.096 1545.45 930.513 1547.52 Q931.962 1549.58 934.829 1549.58 Q937.469 1549.58 939.788 1547.93 Q942.107 1546.26 943.814 1543.46 Q943.911 1540.4 944.651 1537.5 Q945.328 1534.41 946.906 1534.41 Q948.162 1534.41 948.162 1536.11 Q948.162 1536.69 947.904 1537.85 Q947.196 1540.91 945.907 1543.65 Q946.358 1546.32 948.033 1547.97 Q949.708 1549.58 952.381 1549.58 Q954.861 1549.58 957.051 1547.77 Q959.273 1545.97 960.69 1543.33 Q962.139 1540.66 962.944 1537.5 Q963.202 1536.44 963.202 1535.08 Q963.202 1531.48 960.69 1529.25 Q959.981 1528.55 959.981 1527.61 Q959.981 1526.52 960.883 1525.52 Q961.946 1524.46 963.202 1524.46 Q964.136 1524.46 964.716 1525.04 Q966.036 1526.19 966.036 1529.06 Z" fill="#000000" fill-rule="nonzero" fill-opacity="1" /><polyline clip-path="url(#clip582)" style="stroke:#000000; stroke-linecap:round; stroke-linejoin:round; stroke-width:2; stroke-opacity:0.1; fill:none" points="223.03,1397.8 1671.71,1397.8 "/>
<polyline clip-path="url(#clip582)" style="stroke:#000000; stroke-linecap:round; stroke-linejoin:round; stroke-width:2; stroke-opacity:0.1; fill:none" points="223.03,1075.3 1671.71,1075.3 "/>
<polyline clip-path="url(#clip582)" style="stroke:#000000; stroke-linecap:round; stroke-linejoin:round; stroke-width:2; stroke-opacity:0.1; fill:none" points="223.03,752.801 1671.71,752.801 "/>
<polyline clip-path="url(#clip582)" style="stroke:#000000; stroke-linecap:round; stroke-linejoin:round; stroke-width:2; stroke-opacity:0.1; fill:none" points="223.03,430.301 1671.71,430.301 "/>
<polyline clip-path="url(#clip582)" style="stroke:#000000; stroke-linecap:round; stroke-linejoin:round; stroke-width:2; stroke-opacity:0.1; fill:none" points="223.03,107.801 1671.71,107.801 "/>
<polyline clip-path="url(#clip580)" style="stroke:#000000; stroke-linecap:round; stroke-linejoin:round; stroke-width:4; stroke-opacity:1; fill:none" points="223.03,1423.18 223.03,47.2441 "/>
<polyline clip-path="url(#clip580)" style="stroke:#000000; stroke-linecap:round; stroke-linejoin:round; stroke-width:4; stroke-opacity:1; fill:none" points="223.03,1397.8 235.885,1397.8 "/>
<polyline clip-path="url(#clip580)" style="stroke:#000000; stroke-linecap:round; stroke-linejoin:round; stroke-width:4; stroke-opacity:1; fill:none" points="223.03,1075.3 235.885,1075.3 "/>
<polyline clip-path="url(#clip580)" style="stroke:#000000; stroke-linecap:round; stroke-linejoin:round; stroke-width:4; stroke-opacity:1; fill:none" points="223.03,752.801 235.885,752.801 "/>
<polyline clip-path="url(#clip580)" style="stroke:#000000; stroke-linecap:round; stroke-linejoin:round; stroke-width:4; stroke-opacity:1; fill:none" points="223.03,430.301 235.885,430.301 "/>
<polyline clip-path="url(#clip580)" style="stroke:#000000; stroke-linecap:round; stroke-linejoin:round; stroke-width:4; stroke-opacity:1; fill:none" points="223.03,107.801 235.885,107.801 "/>
<path clip-path="url(#clip580)" d="M126.383 1398.9 Q126.383 1391.46 128.261 1387.41 Q130.879 1381.39 137.055 1381.39 Q138.364 1381.39 139.723 1381.76 Q141.107 1382.1 142.836 1383.46 Q144.59 1384.82 145.652 1387.04 Q147.678 1391.34 147.678 1398.9 Q147.678 1406.29 145.8 1410.31 Q143.058 1416.19 137.006 1416.19 Q134.733 1416.19 132.411 1415.03 Q130.114 1413.87 128.656 1411.08 Q126.383 1406.9 126.383 1398.9 M130.583 1398.28 Q130.583 1405.92 131.126 1408.95 Q131.744 1412.24 133.424 1413.67 Q135.128 1415.08 137.006 1415.08 Q139.031 1415.08 140.711 1413.57 Q142.416 1412.04 142.935 1408.76 Q143.503 1405.52 143.478 1398.28 Q143.478 1391.24 142.984 1388.43 Q142.317 1385.14 140.538 1383.83 Q138.784 1382.5 137.006 1382.5 Q136.339 1382.5 135.622 1382.69 Q134.931 1382.89 133.918 1383.46 Q132.905 1384.03 132.115 1385.44 Q131.349 1386.85 130.978 1388.97 Q130.583 1391.71 130.583 1398.28 Z" fill="#000000" fill-rule="nonzero" fill-opacity="1" /><path clip-path="url(#clip580)" d="M154.768 1414.27 Q154.002 1413.45 154.002 1412.39 Q154.002 1411.33 154.768 1410.56 Q155.533 1409.77 156.694 1409.77 Q157.806 1409.77 158.547 1410.51 Q159.313 1411.23 159.313 1412.41 Q159.313 1413.57 158.498 1414.34 Q157.707 1415.08 156.694 1415.08 Q155.533 1415.08 154.768 1414.27 Z" fill="#000000" fill-rule="nonzero" fill-opacity="1" /><path clip-path="url(#clip580)" d="M165.736 1398.9 Q165.736 1391.46 167.613 1387.41 Q170.232 1381.39 176.408 1381.39 Q177.717 1381.39 179.076 1381.76 Q180.459 1382.1 182.188 1383.46 Q183.942 1384.82 185.004 1387.04 Q187.03 1391.34 187.03 1398.9 Q187.03 1406.29 185.153 1410.31 Q182.411 1416.19 176.358 1416.19 Q174.086 1416.19 171.763 1415.03 Q169.466 1413.87 168.009 1411.08 Q165.736 1406.9 165.736 1398.9 M169.935 1398.28 Q169.935 1405.92 170.479 1408.95 Q171.096 1412.24 172.776 1413.67 Q174.481 1415.08 176.358 1415.08 Q178.384 1415.08 180.064 1413.57 Q181.768 1412.04 182.287 1408.76 Q182.855 1405.52 182.831 1398.28 Q182.831 1391.24 182.336 1388.43 Q181.669 1385.14 179.891 1383.83 Q178.137 1382.5 176.358 1382.5 Q175.691 1382.5 174.975 1382.69 Q174.283 1382.89 173.27 1383.46 Q172.257 1384.03 171.467 1385.44 Q170.701 1386.85 170.331 1388.97 Q169.935 1391.71 169.935 1398.28 Z" fill="#000000" fill-rule="nonzero" fill-opacity="1" /><path clip-path="url(#clip580)" d="M126.927 1076.4 Q126.927 1068.96 128.804 1064.91 Q131.423 1058.89 137.599 1058.89 Q138.908 1058.89 140.267 1059.26 Q141.65 1059.6 143.379 1060.96 Q145.133 1062.32 146.195 1064.54 Q148.221 1068.84 148.221 1076.4 Q148.221 1083.79 146.344 1087.81 Q143.602 1093.69 137.549 1093.69 Q135.277 1093.69 132.954 1092.53 Q130.657 1091.37 129.2 1088.58 Q126.927 1084.4 126.927 1076.4 M131.126 1075.78 Q131.126 1083.42 131.67 1086.45 Q132.287 1089.74 133.967 1091.17 Q135.672 1092.58 137.549 1092.58 Q139.575 1092.58 141.255 1091.07 Q142.959 1089.54 143.478 1086.26 Q144.046 1083.02 144.022 1075.78 Q144.022 1068.74 143.527 1065.93 Q142.86 1062.64 141.082 1061.33 Q139.328 1060 137.549 1060 Q136.882 1060 136.166 1060.2 Q135.474 1060.39 134.461 1060.96 Q133.449 1061.53 132.658 1062.94 Q131.892 1064.35 131.522 1066.47 Q131.126 1069.21 131.126 1075.78 Z" fill="#000000" fill-rule="nonzero" fill-opacity="1" /><path clip-path="url(#clip580)" d="M155.311 1091.77 Q154.545 1090.95 154.545 1089.89 Q154.545 1088.83 155.311 1088.06 Q156.077 1087.27 157.238 1087.27 Q158.349 1087.27 159.091 1088.01 Q159.856 1088.73 159.856 1089.91 Q159.856 1091.07 159.041 1091.84 Q158.251 1092.58 157.238 1092.58 Q156.077 1092.58 155.311 1091.77 Z" fill="#000000" fill-rule="nonzero" fill-opacity="1" /><path clip-path="url(#clip580)" d="M166.823 1092.58 Q166.823 1091.67 166.897 1091.4 Q166.996 1091.12 167.391 1090.7 L177.099 1079.88 Q182.411 1073.91 182.411 1068.69 Q182.411 1065.31 180.632 1062.89 Q178.878 1060.47 175.642 1060.47 Q173.419 1060.47 171.541 1061.83 Q169.664 1063.18 168.799 1065.61 Q168.947 1065.56 169.466 1065.56 Q170.726 1065.56 171.418 1066.35 Q172.134 1067.14 172.134 1068.2 Q172.134 1069.56 171.245 1070.22 Q170.38 1070.87 169.515 1070.87 Q169.17 1070.87 168.7 1070.79 Q168.256 1070.72 167.539 1070.03 Q166.823 1069.31 166.823 1068.05 Q166.823 1064.52 169.491 1061.7 Q172.183 1058.89 176.284 1058.89 Q180.928 1058.89 183.967 1061.65 Q187.03 1064.39 187.03 1068.69 Q187.03 1070.2 186.561 1071.58 Q186.116 1072.94 185.498 1074 Q184.906 1075.07 183.275 1076.77 Q181.645 1078.48 180.335 1079.69 Q179.026 1080.9 176.086 1083.47 L170.726 1088.68 L179.841 1088.68 Q184.288 1088.68 184.634 1088.28 Q185.128 1087.57 185.746 1083.79 L187.03 1083.79 L185.597 1092.58 L166.823 1092.58 Z" fill="#000000" fill-rule="nonzero" fill-opacity="1" /><path clip-path="url(#clip580)" d="M125.815 753.901 Q125.815 746.465 127.693 742.413 Q130.311 736.386 136.487 736.386 Q137.796 736.386 139.155 736.756 Q140.538 737.102 142.268 738.461 Q144.022 739.82 145.084 742.043 Q147.109 746.341 147.109 753.901 Q147.109 761.287 145.232 765.313 Q142.49 771.193 136.438 771.193 Q134.165 771.193 131.843 770.032 Q129.545 768.871 128.088 766.079 Q125.815 761.904 125.815 753.901 M130.015 753.283 Q130.015 760.916 130.558 763.955 Q131.176 767.24 132.856 768.673 Q134.56 770.081 136.438 770.081 Q138.463 770.081 140.143 768.574 Q141.848 767.043 142.366 763.757 Q142.935 760.521 142.91 753.283 Q142.91 746.242 142.416 743.426 Q141.749 740.141 139.97 738.831 Q138.216 737.498 136.438 737.498 Q135.771 737.498 135.054 737.695 Q134.363 737.893 133.35 738.461 Q132.337 739.029 131.546 740.437 Q130.781 741.845 130.41 743.97 Q130.015 746.712 130.015 753.283 Z" fill="#000000" fill-rule="nonzero" fill-opacity="1" /><path clip-path="url(#clip580)" d="M154.199 769.266 Q153.434 768.451 153.434 767.389 Q153.434 766.326 154.199 765.561 Q154.965 764.77 156.126 764.77 Q157.238 764.77 157.979 765.511 Q158.745 766.228 158.745 767.413 Q158.745 768.574 157.93 769.34 Q157.139 770.081 156.126 770.081 Q154.965 770.081 154.199 769.266 Z" fill="#000000" fill-rule="nonzero" fill-opacity="1" /><path clip-path="url(#clip580)" d="M164.599 761.732 L164.599 760.175 L180.138 736.435 Q180.533 735.818 181.151 735.842 Q181.719 735.842 181.842 736.065 Q181.966 736.287 181.966 737.152 L181.966 760.175 L187.03 760.175 L187.03 761.732 L181.966 761.732 L181.966 766.129 Q181.966 767.586 182.559 768.056 Q183.176 768.525 185.795 768.525 L186.857 768.525 L186.857 770.081 Q184.782 769.933 179.99 769.933 Q175.222 769.933 173.147 770.081 L173.147 768.525 L174.209 768.525 Q176.828 768.525 177.445 768.08 Q178.063 767.611 178.063 766.129 L178.063 761.732 L164.599 761.732 M166.032 760.175 L178.359 760.175 L178.359 741.302 L166.032 760.175 Z" fill="#000000" fill-rule="nonzero" fill-opacity="1" /><path clip-path="url(#clip580)" d="M126.532 431.401 Q126.532 423.965 128.409 419.914 Q131.028 413.886 137.203 413.886 Q138.513 413.886 139.871 414.257 Q141.255 414.602 142.984 415.961 Q144.738 417.32 145.8 419.543 Q147.826 423.841 147.826 431.401 Q147.826 438.787 145.948 442.814 Q143.206 448.693 137.154 448.693 Q134.881 448.693 132.559 447.532 Q130.262 446.371 128.804 443.579 Q126.532 439.405 126.532 431.401 M130.731 430.783 Q130.731 438.416 131.275 441.455 Q131.892 444.74 133.572 446.173 Q135.277 447.581 137.154 447.581 Q139.18 447.581 140.86 446.074 Q142.564 444.543 143.083 441.257 Q143.651 438.021 143.626 430.783 Q143.626 423.743 143.132 420.926 Q142.465 417.641 140.687 416.332 Q138.933 414.998 137.154 414.998 Q136.487 414.998 135.771 415.195 Q135.079 415.393 134.066 415.961 Q133.053 416.529 132.263 417.937 Q131.497 419.345 131.126 421.47 Q130.731 424.212 130.731 430.783 Z" fill="#000000" fill-rule="nonzero" fill-opacity="1" /><path clip-path="url(#clip580)" d="M154.916 446.766 Q154.15 445.951 154.15 444.889 Q154.15 443.826 154.916 443.061 Q155.682 442.27 156.843 442.27 Q157.954 442.27 158.695 443.011 Q159.461 443.728 159.461 444.913 Q159.461 446.074 158.646 446.84 Q157.855 447.581 156.843 447.581 Q155.682 447.581 154.916 446.766 Z" fill="#000000" fill-rule="nonzero" fill-opacity="1" /><path clip-path="url(#clip580)" d="M166.032 431.598 Q166.032 423.644 170.084 418.777 Q174.135 413.886 179.347 413.886 Q182.386 413.886 184.066 415.442 Q185.77 416.974 185.77 419.345 Q185.77 420.655 185.004 421.223 Q184.239 421.791 183.448 421.791 Q182.534 421.791 181.818 421.173 Q181.101 420.556 181.101 419.444 Q181.101 417.172 183.893 417.172 Q182.583 415.146 179.446 415.146 Q178.483 415.146 177.495 415.442 Q176.506 415.714 175.222 416.653 Q173.937 417.591 172.949 419.074 Q171.961 420.556 171.269 423.347 Q170.578 426.139 170.578 429.77 L170.578 430.981 Q172.653 425.966 176.902 425.991 Q181.151 425.991 184.09 429.227 Q187.03 432.463 187.03 437.255 Q187.03 442.171 183.967 445.432 Q180.904 448.693 176.605 448.693 Q174.678 448.693 172.924 447.878 Q171.195 447.087 169.565 445.259 Q167.959 443.431 166.996 439.923 Q166.032 436.415 166.032 431.598 M170.676 436.144 Q170.676 441.109 171.59 443.481 Q171.739 443.876 172.06 444.419 Q172.406 444.963 172.974 445.679 Q173.567 446.371 174.53 446.84 Q175.494 447.285 176.605 447.285 Q179.99 447.285 181.62 443.999 Q182.485 442.171 182.485 437.206 Q182.485 432.142 181.571 430.289 Q180.014 427.152 176.852 427.152 Q174.728 427.152 173.246 428.609 Q171.788 430.067 171.22 432.018 Q170.676 433.97 170.676 436.144 Z" fill="#000000" fill-rule="nonzero" fill-opacity="1" /><path clip-path="url(#clip580)" d="M126.532 108.901 Q126.532 101.465 128.409 97.4137 Q131.028 91.3861 137.203 91.3861 Q138.513 91.3861 139.871 91.7566 Q141.255 92.1025 142.984 93.4611 Q144.738 94.8198 145.8 97.0431 Q147.826 101.342 147.826 108.901 Q147.826 116.287 145.948 120.314 Q143.206 126.193 137.154 126.193 Q134.881 126.193 132.559 125.032 Q130.262 123.871 128.804 121.079 Q126.532 116.905 126.532 108.901 M130.731 108.283 Q130.731 115.916 131.275 118.955 Q131.892 122.241 133.572 123.673 Q135.277 125.081 137.154 125.081 Q139.18 125.081 140.86 123.575 Q142.564 122.043 143.083 118.757 Q143.651 115.521 143.626 108.283 Q143.626 101.243 143.132 98.4265 Q142.465 95.141 140.687 93.8317 Q138.933 92.4977 137.154 92.4977 Q136.487 92.4977 135.771 92.6953 Q135.079 92.893 134.066 93.4611 Q133.053 94.0293 132.263 95.4374 Q131.497 96.8455 131.126 98.97 Q130.731 101.712 130.731 108.283 Z" fill="#000000" fill-rule="nonzero" fill-opacity="1" /><path clip-path="url(#clip580)" d="M154.916 124.266 Q154.15 123.451 154.15 122.389 Q154.15 121.327 154.916 120.561 Q155.682 119.77 156.843 119.77 Q157.954 119.77 158.695 120.511 Q159.461 121.228 159.461 122.413 Q159.461 123.575 158.646 124.34 Q157.855 125.081 156.843 125.081 Q155.682 125.081 154.916 124.266 Z" fill="#000000" fill-rule="nonzero" fill-opacity="1" /><path clip-path="url(#clip580)" d="M166.032 117.448 Q166.032 111.791 173.32 108.135 Q170.182 106.01 169.614 105.393 Q167.391 102.923 167.391 99.8346 Q167.391 96.302 170.059 93.8564 Q172.752 91.3861 176.556 91.3861 Q180.187 91.3861 182.929 93.4858 Q185.671 95.5856 185.671 98.9206 Q185.671 103.614 179.545 106.776 Q183.596 109.296 184.56 110.358 Q187.03 113.1 187.03 116.583 Q187.03 120.635 183.917 123.426 Q180.805 126.193 176.506 126.193 Q172.307 126.193 169.17 123.747 Q166.032 121.302 166.032 117.448 M168.552 117.448 Q168.552 120.585 170.899 122.685 Q173.27 124.785 176.556 124.785 Q179.743 124.785 182.114 122.957 Q184.51 121.129 184.51 118.412 Q184.51 117.349 184.14 116.435 Q183.794 115.521 183.078 114.805 Q182.386 114.064 181.941 113.743 Q181.521 113.397 180.706 112.829 L174.481 108.901 Q168.552 112.186 168.552 117.448 M169.614 97.8583 Q169.614 100.279 172.159 101.959 L178.433 106.01 Q183.448 103.071 183.448 98.9206 Q183.448 96.2279 181.398 94.4493 Q179.347 92.6459 176.506 92.6459 Q173.715 92.6459 171.665 94.1281 Q169.614 95.5856 169.614 97.8583 Z" fill="#000000" fill-rule="nonzero" fill-opacity="1" /><path clip-path="url(#clip580)" d="M73.3055 903.651 L54.5359 891.481 L79.4417 886.531 L83.9794 885.603 Q82.7934 885.397 80.7824 884.778 Q78.7198 884.108 78.2041 884.004 L15.4498 867.658 Q15.0373 867.555 14.367 867.401 Q13.6451 867.194 13.3873 867.091 Q13.1294 866.988 12.6138 866.833 Q12.0981 866.679 11.9434 866.576 Q11.7372 866.472 11.3762 866.318 Q11.0153 866.163 10.9121 865.957 Q10.809 865.751 10.6028 865.493 Q10.3965 865.235 10.3449 864.926 Q10.2934 864.565 10.2418 864.204 Q10.1902 863.843 10.1902 863.327 L10.1902 854.097 Q10.1902 850.848 12.3044 850.848 Q14.4186 850.848 14.4186 853.994 L14.4186 863.018 L95.8393 884.314 Q97.0253 884.623 97.4893 884.881 Q97.9534 885.087 98.3659 885.809 Q98.7785 886.531 98.7785 887.82 L98.7785 888.852 L65.2098 895.607 L75.0071 901.949 L73.3055 903.651 Z" fill="#000000" fill-rule="nonzero" fill-opacity="1" /><path clip-path="url(#clip580)" d="M14.4507 854.316 L14.4507 566.773 L10.0639 566.773 L10.0639 854.316  Z" fill="#000000" fill-rule="evenodd" fill-opacity="1"/>
<path clip-path="url(#clip580)" d="M83.8526 813.363 Q88.0072 814.2 90.3904 815.328 Q94.0297 817.163 94.0297 820.223 Q94.0297 822.349 92.8381 823.959 Q91.6142 825.537 89.5853 826.084 Q90.3904 826.696 90.9379 827.244 Q91.4854 827.759 92.3228 828.758 Q93.1279 829.756 93.5788 831.109 Q94.0297 832.429 94.0297 833.943 Q94.0297 835.102 93.8042 836.165 Q93.611 837.228 93.0635 838.355 Q92.4838 839.45 91.6142 840.255 Q90.7447 841.028 89.3276 841.543 Q87.9106 842.059 86.107 842.059 Q83.8526 842.059 80.7931 841.189 Q77.7335 840.287 72.2585 838.226 Q69.36 837.099 67.7497 837.099 Q67.009 837.099 66.5259 837.26 Q66.0428 837.421 65.8818 837.743 Q65.6885 838.033 65.6563 838.226 Q65.5919 838.419 65.5919 838.741 Q65.5919 840.738 67.6209 842.477 Q69.6498 844.216 73.7722 845.408 Q74.5773 845.666 74.7706 845.827 Q74.9638 845.988 74.9638 846.471 Q74.9316 847.276 74.2875 847.276 Q74.0298 847.276 73.0315 846.986 Q72.0009 846.696 70.4872 846.02 Q68.9413 845.311 67.5565 844.345 Q66.1394 843.379 65.141 841.865 Q64.1426 840.319 64.1426 838.548 Q64.1426 836.133 65.7207 834.651 Q67.2666 833.137 69.5532 833.137 Q70.9703 833.137 73.7078 834.265 Q83.2085 837.84 87.1698 837.84 Q92.5482 837.84 92.5482 833.749 Q92.5482 832.397 92.0007 831.141 Q91.4532 829.852 90.6803 829.015 Q89.9073 828.178 89.07 827.534 Q88.2326 826.857 87.6851 826.568 Q87.1376 826.245 87.0088 826.213 L67.17 821.286 Q66.3971 821.093 65.8818 820.738 Q65.3343 820.352 65.141 819.901 Q64.9478 819.45 64.9156 819.192 Q64.8512 818.935 64.8512 818.709 Q64.8512 817.904 65.3343 817.357 Q65.8173 816.777 66.6547 816.777 Q66.8157 816.777 67.5887 816.97 Q68.3294 817.131 69.4244 817.389 Q70.4872 817.646 71.0669 817.775 Q75.1248 818.806 75.5435 818.903 L82.661 820.738 Q83.0797 820.835 84.4323 821.157 Q85.785 821.447 86.4935 821.608 Q87.1698 821.769 88.1038 821.93 Q89.0056 822.059 89.5209 822.059 Q91.1312 822.059 91.8397 821.576 Q92.5482 821.093 92.5482 820.03 Q92.5482 819.031 91.8719 818.258 Q91.1634 817.453 89.8107 816.841 Q88.4259 816.229 87.2987 815.875 Q86.1714 815.521 84.4001 815.07 Q83.6272 814.909 83.434 814.78 Q83.2085 814.619 83.2085 814.168 Q83.2085 813.363 83.8526 813.363 Z" fill="#000000" fill-rule="nonzero" fill-opacity="1" /><path clip-path="url(#clip580)" d="M55.6403 809.923 L53.5791 809.923 Q53.5791 802 49.3601 797.91 Q49.3601 796.783 49.6178 796.59 Q49.8754 796.396 51.0671 796.396 L88.0716 796.396 Q90.0362 796.396 90.6481 795.43 Q91.26 794.464 91.26 790.245 L91.26 788.152 L93.2889 788.152 Q93.0957 790.47 93.0957 798.844 Q93.0957 807.217 93.2889 809.504 L91.26 809.504 L91.26 807.411 Q91.26 803.256 90.6803 802.258 Q90.0684 801.259 88.0716 801.259 L53.9012 801.259 Q55.6403 804.705 55.6403 809.923 Z" fill="#000000" fill-rule="nonzero" fill-opacity="1" /><path clip-path="url(#clip580)" d="M58.9116 781.32 Q58.0775 781.32 57.8295 781.253 Q57.5815 781.162 57.1982 780.802 L47.3239 771.942 Q41.8683 767.095 37.1115 767.095 Q34.0229 767.095 31.8136 768.718 Q29.6043 770.319 29.6043 773.272 Q29.6043 775.301 30.8442 777.014 Q32.0841 778.728 34.2934 779.517 Q34.2484 779.381 34.2484 778.908 Q34.2484 777.758 34.9698 777.127 Q35.6912 776.473 36.6606 776.473 Q37.9005 776.473 38.5092 777.285 Q39.0953 778.074 39.0953 778.863 Q39.0953 779.179 39.0277 779.607 Q38.9601 780.013 38.3288 780.666 Q37.6751 781.32 36.5253 781.32 Q33.3015 781.32 30.7315 778.885 Q28.1614 776.428 28.1614 772.686 Q28.1614 768.448 30.6864 765.675 Q33.1888 762.879 37.1115 762.879 Q38.4866 762.879 39.7491 763.307 Q40.989 763.713 41.9584 764.277 Q42.9278 764.818 44.4834 766.306 Q46.0389 767.794 47.1436 768.989 Q48.2482 770.183 50.5928 772.866 L55.3496 777.758 L55.3496 769.439 Q55.3496 765.382 54.9889 765.066 Q54.3351 764.615 50.8859 764.051 L50.8859 762.879 L58.9116 764.187 L58.9116 781.32 Z" fill="#000000" fill-rule="nonzero" fill-opacity="1" /><path clip-path="url(#clip580)" d="M77.6047 731.599 Q77.6047 733.113 76.7995 733.113 Q75.9944 733.113 75.9944 731.535 Q75.9944 731.341 76.0266 731.019 Q76.0588 730.665 76.0588 730.601 L76.0588 712.018 L57.4116 712.018 Q57.3472 712.018 57.0574 712.05 Q56.7353 712.082 56.5421 712.082 Q54.964 712.082 54.964 711.309 Q54.964 710.504 56.5421 710.504 L76.0588 710.504 L76.0588 691.889 Q76.0588 691.825 76.0266 691.503 Q75.9944 691.181 75.9944 690.988 Q75.9944 689.474 76.7995 689.474 Q77.6047 689.442 77.6047 691.052 Q77.6047 691.245 77.5725 691.535 Q77.5403 691.825 77.5403 691.889 L77.5403 710.504 L97.1214 710.504 Q98.6351 710.504 98.6351 711.309 Q98.6351 712.082 97.057 712.082 Q96.8638 712.082 96.5417 712.05 Q96.2519 712.018 96.1875 712.018 L77.5403 712.018 L77.5403 730.601 Q77.5403 730.665 77.5725 731.052 Q77.6047 731.406 77.6047 731.599 Z" fill="#000000" fill-rule="nonzero" fill-opacity="1" /><path clip-path="url(#clip580)" d="M68.7481 635.043 Q69.5854 635.043 71.2279 635.268 Q72.8704 635.494 75.2537 636.041 Q77.6369 636.589 80.149 637.394 Q82.661 638.167 85.1731 639.391 Q87.6529 640.614 89.6175 642.064 Q91.582 643.513 92.8059 645.542 Q94.0297 647.571 94.0297 649.857 Q94.0297 650.92 93.8687 651.951 Q93.7076 652.981 93.1923 654.27 Q92.677 655.558 91.8397 656.492 Q90.9701 657.426 89.4242 658.07 Q87.8784 658.714 85.8494 658.714 Q83.756 658.714 80.9541 657.941 Q78.12 657.136 72.3229 654.946 Q69.3278 653.819 67.6853 653.819 Q66.9446 653.819 66.4937 653.98 Q66.0106 654.141 65.8496 654.463 Q65.6563 654.785 65.6241 654.978 Q65.5919 655.139 65.5919 655.461 Q65.5919 657.233 67.4276 659.036 Q69.2634 660.84 73.7722 662.128 Q74.5773 662.386 74.7706 662.547 Q74.9638 662.708 74.9638 663.191 Q74.9316 663.996 74.2875 663.996 Q74.0943 663.996 73.3535 663.77 Q72.5806 663.545 71.4212 663.126 Q70.2295 662.708 69.0057 661.967 Q67.7497 661.226 66.6547 660.324 Q65.5597 659.39 64.8512 658.07 Q64.1426 656.75 64.1426 655.268 Q64.1426 652.853 65.7207 651.371 Q67.2666 649.857 69.5532 649.857 Q70.8093 649.857 72.8382 650.663 Q76.5097 652.015 78.281 652.627 Q80.0523 653.239 82.5644 653.883 Q85.0765 654.495 86.8156 654.495 Q89.4564 654.495 91.0023 653.271 Q92.5482 652.047 92.5482 649.6 Q92.5482 647.41 90.9701 645.445 Q89.3598 643.449 87.0732 642.128 Q84.7544 640.808 82.1779 639.809 Q79.5692 638.811 77.6047 638.36 Q75.6079 637.877 74.674 637.877 Q71.4212 637.877 69.2956 640.099 Q68.6837 640.711 68.2972 640.936 Q67.9107 641.162 67.2988 641.162 Q66.1716 641.162 65.1732 640.164 Q64.1426 639.133 64.1426 637.941 Q64.1426 636.846 65.2376 635.945 Q66.3326 635.043 68.7481 635.043 Z" fill="#000000" fill-rule="nonzero" fill-opacity="1" /><path clip-path="url(#clip580)" d="M55.6403 632.321 L53.5791 632.321 Q53.5791 624.398 49.3601 620.308 Q49.3601 619.181 49.6178 618.987 Q49.8754 618.794 51.0671 618.794 L88.0716 618.794 Q90.0362 618.794 90.6481 617.828 Q91.26 616.862 91.26 612.643 L91.26 610.55 L93.2889 610.55 Q93.0957 612.868 93.0957 621.242 Q93.0957 629.615 93.2889 631.902 L91.26 631.902 L91.26 629.809 Q91.26 625.654 90.6803 624.656 Q90.0684 623.657 88.0716 623.657 L53.9012 623.657 Q55.6403 627.103 55.6403 632.321 Z" fill="#000000" fill-rule="nonzero" fill-opacity="1" /><path clip-path="url(#clip580)" d="M58.9116 603.718 Q58.0775 603.718 57.8295 603.651 Q57.5815 603.56 57.1982 603.2 L47.3239 594.34 Q41.8683 589.493 37.1115 589.493 Q34.0229 589.493 31.8136 591.116 Q29.6043 592.717 29.6043 595.67 Q29.6043 597.699 30.8442 599.412 Q32.0841 601.126 34.2934 601.915 Q34.2484 601.779 34.2484 601.306 Q34.2484 600.156 34.9698 599.525 Q35.6912 598.871 36.6606 598.871 Q37.9005 598.871 38.5092 599.683 Q39.0953 600.472 39.0953 601.261 Q39.0953 601.576 39.0277 602.005 Q38.9601 602.411 38.3288 603.064 Q37.6751 603.718 36.5253 603.718 Q33.3015 603.718 30.7315 601.283 Q28.1614 598.826 28.1614 595.084 Q28.1614 590.845 30.6864 588.073 Q33.1888 585.277 37.1115 585.277 Q38.4866 585.277 39.7491 585.705 Q40.989 586.111 41.9584 586.675 Q42.9278 587.216 44.4834 588.704 Q46.0389 590.192 47.1436 591.387 Q48.2482 592.581 50.5928 595.264 L55.3496 600.156 L55.3496 591.837 Q55.3496 587.779 54.9889 587.464 Q54.3351 587.013 50.8859 586.449 L50.8859 585.277 L58.9116 586.585 L58.9116 603.718 Z" fill="#000000" fill-rule="nonzero" fill-opacity="1" /><polyline clip-path="url(#clip582)" style="stroke:#009af9; stroke-linecap:round; stroke-linejoin:round; stroke-width:8; stroke-opacity:1; fill:none" points="264.03,1313.92 273.203,1311.26 282.375,1308.42 291.548,1305.38 300.72,1302.13 309.892,1298.64 319.065,1294.88 328.237,1290.84 337.409,1286.46 346.582,1281.73 355.754,1276.59 364.926,1271.01 374.099,1264.92 383.271,1258.28 392.443,1251.01 401.616,1243.06 410.788,1234.33 419.96,1224.77 429.133,1214.29 438.305,1202.82 447.477,1190.31 456.65,1176.72 465.822,1162.04 474.994,1146.29 484.167,1129.54 493.339,1111.89 502.512,1093.47 511.684,1074.41 520.856,1054.89 530.029,1035.05 539.201,1015.02 548.373,994.932 557.546,974.878 566.718,954.939 575.89,935.174 585.063,915.628 594.235,896.331 603.407,877.305 612.58,858.563 621.752,840.11 630.924,821.948 640.097,804.076 649.269,786.49 658.441,769.182 667.614,752.147 676.786,735.375 685.958,718.86 695.131,702.591 704.303,686.561 713.476,670.761 722.648,655.182 731.82,639.816 740.993,624.656 750.165,609.693 759.337,594.921 768.51,580.332 777.682,565.919 786.854,551.676 796.027,537.598 805.199,523.678 814.371,509.91 823.544,496.29 832.716,482.812 841.888,469.472 851.061,456.266 860.233,443.188 869.405,430.235 878.578,417.403 887.75,404.688 896.922,392.087 906.095,379.597 915.267,367.213 924.44,354.935 933.612,342.758 942.784,330.679 951.957,318.698 961.129,306.81 970.301,295.014 979.474,283.308 988.646,271.69 997.818,260.158 1006.99,248.711 1016.16,237.348 1025.34,226.066 1034.51,214.866 1043.68,203.747 1052.85,192.708 1062.02,181.75 1071.2,170.873 1080.37,160.079 1089.54,149.37 1098.71,138.752 1107.89,128.231 1117.06,117.82 1126.23,107.541 1135.4,97.4428 1144.58,87.6668 "/>
<polyline clip-path="url(#clip582)" style="stroke:#e26f46; stroke-linecap:round; stroke-linejoin:round; stroke-width:8; stroke-opacity:1; fill:none" points="649.269,1161.55 658.441,1194.52 667.614,1215.91 676.786,1232 685.958,1244.91 695.131,1255.65 704.303,1264.8 713.476,1272.74 722.648,1279.72 731.82,1285.92 740.993,1291.48 750.165,1296.49 759.337,1301.05 768.51,1305.21 777.682,1309.02 786.854,1312.53 796.027,1315.77 805.199,1318.78 814.371,1321.58 823.544,1324.2 832.716,1326.64 841.888,1328.93 851.061,1331.08 860.233,1333.1 869.405,1335.01 878.578,1336.82 887.75,1338.52 896.922,1340.14 906.095,1341.68 915.267,1343.14 924.44,1344.53 933.612,1345.85 942.784,1347.11 951.957,1348.32 961.129,1349.47 970.301,1350.57 979.474,1351.63 988.646,1352.64 997.818,1353.61 1006.99,1354.55 1016.16,1355.44 1025.34,1356.31 1034.51,1357.14 1043.68,1357.94 1052.85,1358.71 1062.02,1359.45 1071.2,1360.17 1080.37,1360.86 1089.54,1361.53 1098.71,1362.18 1107.89,1362.81 1117.06,1363.42 1126.23,1364 1135.4,1364.57 1144.58,1365.13 1153.75,1365.66 1162.92,1366.18 1172.09,1366.68 1181.27,1367.17 1190.44,1367.65 1199.61,1368.11 1208.78,1368.56 1217.95,1369 1227.13,1369.43 1236.3,1369.84 1245.47,1370.24 1254.64,1370.64 1263.82,1371.02 1272.99,1371.39 1282.16,1371.76 1291.33,1372.11 1300.51,1372.46 1309.68,1372.8 1318.85,1373.13 1328.02,1373.45 1337.2,1373.76 1346.37,1374.07 1355.54,1374.37 1364.71,1374.66 1373.88,1374.95 1383.06,1375.23 1392.23,1375.51 1401.4,1375.78 1410.57,1376.04 1419.75,1376.3 1428.92,1376.55 1438.09,1376.8 1447.26,1377.04 1456.44,1377.27 1465.61,1377.51 1474.78,1377.73 1483.95,1377.96 1493.13,1378.17 1502.3,1378.39 1511.47,1378.6 1520.64,1378.81 1529.81,1379.01 1538.99,1379.21 1548.16,1379.4 1557.33,1379.59 1566.5,1379.78 1575.68,1379.96 1584.85,1380.15 1594.02,1380.32 1603.19,1380.5 1612.37,1380.67 1621.54,1380.84 1630.71,1381 "/>
<polyline clip-path="url(#clip582)" style="stroke:#3da44d; stroke-linecap:round; stroke-linejoin:round; stroke-width:8; stroke-opacity:1; fill:none" stroke-dasharray="32, 20" points="649.269,1010.71 658.441,960.326 667.614,921.787 676.786,888.805 685.958,859.262 695.131,832.133 704.303,806.825 713.476,782.958 722.648,760.27 731.82,738.573 740.993,717.724 750.165,697.612 759.337,678.148 768.51,659.262 777.682,640.894 786.854,622.994 796.027,605.522 805.199,588.44 814.371,571.717 823.544,555.326 832.716,539.244 841.888,523.448 851.061,507.92 860.233,492.643 869.405,477.602 878.578,462.783 887.75,448.173 896.922,433.76 906.095,419.535 915.267,405.487 924.44,391.608 933.612,377.889 942.784,364.323 951.957,350.902 961.129,337.62 970.301,324.47 979.474,311.446 988.646,298.543 997.818,285.755 1006.99,273.077 1016.16,260.504 1025.34,248.031 1034.51,235.653 1043.68,223.365 1052.85,211.163 1062.02,199.041 1071.2,186.994 1080.37,175.016 1089.54,163.1 1098.71,151.237 1107.89,139.415 1117.06,127.62 1126.23,115.825 1135.4,103.978 1144.58,91.934 "/>
<polyline clip-path="url(#clip582)" style="stroke:#c271d2; stroke-linecap:round; stroke-linejoin:round; stroke-width:4; stroke-opacity:1; fill:none" stroke-dasharray="16, 10" points="264.03,1381.68 270.864,1293.56 277.697,1295.31 284.531,1319.99 291.364,1298.34 298.197,1307.01 305.031,1298.21 311.864,1299.29 318.698,1294.46 325.531,1292.11 332.364,1289.23 339.198,1285.52 346.031,1282 352.865,1278.37 359.698,1274.4 366.531,1270.13 373.365,1265.57 380.198,1260.72 387.032,1255.55 393.865,1250.03 400.698,1244.14 407.532,1237.82 414.365,1231.02 421.199,1223.71 428.032,1215.84 434.865,1207.65 441.699,1198.87 448.532,1189.33 455.366,1179.17 462.199,1168.71 469.032,1157.4 475.866,1145.47 482.699,1133.23 489.533,1120.25 496.366,1106.87 503.199,1093.25 510.033,1078.74 516.866,1064.89 523.7,1049.68 530.533,1035.3 537.366,1020.24 544.2,1005.21 551.033,990.472 557.867,975.255 564.7,960.726 571.533,945.484 578.367,931.417 585.2,916.171 592.034,902.3 598.867,887.904 605.7,873.133 612.534,860.476 619.367,845.37 626.201,832.69 633.034,818.772 639.867,805.504 646.701,792.549 653.534,779.187 660.368,766.772 667.201,753.754 674.034,741.363 680.868,729.026 687.701,716.467 694.535,704.944 701.368,691.843 708.201,681.656 715.035,668.136 721.868,658.087 728.702,645.886 735.535,633.952 742.368,623.819 749.202,611.761 756.035,601.279 762.869,590.122 769.702,579.029 776.535,568.783 783.369,557.694 790.202,547.445 797.036,536.805 803.869,526.168 810.702,516.795 817.536,504.849 824.369,496.793 831.203,485.445 838.036,475.759 844.869,466.174 851.703,455.758 858.536,446.772 865.37,436.514 872.203,427.072 879.036,417.667 885.87,407.87 892.703,399.067 899.537,388.688 906.37,380.757 913.203,370.25 920.037,361.854 926.87,352.502 933.704,343.235 940.537,334.641 947.37,325.309 954.204,316.932 961.037,307.44 967.871,299.32 974.704,290.009 981.537,281.753 988.371,272.919 995.204,264.101 1002.04,255.932 1008.87,247.131 1015.7,238.958 1022.54,230.305 1029.37,222.272 1036.2,213.481 1043.04,205.756 1049.87,197.097 1056.7,189.334 1063.54,180.872 1070.37,173.076 1077.2,164.9 1084.04,157.044 1090.87,149.088 1097.71,141.292 1104.54,133.47 1111.37,125.925 1118.21,118.192 1125.04,110.594 1131.87,103.525 1138.71,96.6269 1145.54,90.3473 1152.37,86.1857 1159.21,93.7451 1166.04,382.158 1172.87,783.959 1179.71,975.225 1186.54,1151.08 1193.37,1221.45 1200.21,1260.36 1207.04,1336.06 1213.87,1325.23 1220.71,1358.84 1227.54,1367.84 1234.37,1355.49 1241.21,1377.81 1248.04,1370.94 1254.87,1366.15 1261.71,1370.44 1268.54,1373.09 1275.37,1372.47 1282.21,1371.67 1289.04,1371.58 1295.87,1371.86 1302.71,1372.23 1309.54,1372.56 1316.37,1372.87 1323.21,1373.17 1330.04,1373.46 1336.87,1373.76 1343.71,1374.04 1350.54,1374.27 1357.37,1374.42 1364.21,1374.59 1371.04,1374.87 1377.87,1375.13 1384.71,1375.24 1391.54,1375.49 1398.37,1375.72 1405.21,1375.84 1412.04,1376.14 1418.87,1376.22 1425.71,1376.52 1432.54,1376.6 1439.38,1376.86 1446.21,1377.02 1453.04,1377.14 1459.88,1377.41 1466.71,1377.55 1473.54,1377.64 1480.38,1377.86 1487.21,1378.09 1494.04,1378.25 1500.88,1378.36 1507.71,1378.48 1514.54,1378.61 1521.38,1378.76 1528.21,1378.91 1535.04,1379.06 1541.88,1379.21 1548.71,1379.37 1555.54,1379.55 1562.38,1379.74 1569.21,1379.9 1576.04,1379.97 1582.88,1380.04 1589.71,1380.23 1596.54,1380.44 1603.38,1380.47 1610.21,1380.6 1617.04,1380.82 1623.88,1380.82 1630.71,1381.06 "/>
<polyline clip-path="url(#clip582)" style="stroke:#ac8d18; stroke-linecap:round; stroke-linejoin:round; stroke-width:4; stroke-opacity:1; fill:none" stroke-dasharray="16, 10" points="1630.71,1381.68 1623.88,1358.94 1617.04,1383.15 1610.21,1378.58 1603.38,1373.91 1596.54,1384.24 1589.71,1381.05 1582.88,1377.8 1576.04,1379.3 1569.21,1380.7 1562.38,1380.43 1555.54,1379.71 1548.71,1379.24 1541.88,1379.03 1535.04,1378.9 1528.21,1378.8 1521.38,1378.69 1514.54,1378.58 1507.71,1378.46 1500.88,1378.36 1494.04,1378.25 1487.21,1378.1 1480.38,1377.87 1473.54,1377.64 1466.71,1377.53 1459.88,1377.42 1453.04,1377.15 1446.21,1377 1439.38,1376.87 1432.54,1376.59 1425.71,1376.52 1418.87,1376.21 1412.04,1376.14 1405.21,1375.83 1398.37,1375.73 1391.54,1375.48 1384.71,1375.24 1377.87,1375.13 1371.04,1374.86 1364.21,1374.59 1357.37,1374.43 1350.54,1374.26 1343.71,1374.02 1336.87,1373.75 1330.04,1373.48 1323.21,1373.23 1316.37,1372.98 1309.54,1372.73 1302.71,1372.49 1295.87,1372.24 1289.04,1372 1282.21,1371.78 1275.37,1371.54 1268.54,1371.24 1261.71,1370.89 1254.87,1370.61 1248.04,1370.41 1241.21,1370.07 1234.37,1369.7 1227.54,1369.5 1220.71,1369.09 1213.87,1368.84 1207.04,1368.46 1200.21,1368.16 1193.37,1367.76 1186.54,1367.5 1179.71,1367.04 1172.87,1366.74 1166.04,1366.39 1159.21,1365.93 1152.37,1365.56 1145.54,1365.22 1138.71,1364.82 1131.87,1364.36 1125.04,1363.9 1118.21,1363.45 1111.37,1363 1104.54,1362.54 1097.71,1362.07 1090.87,1361.58 1084.04,1361.1 1077.2,1360.63 1070.37,1360.15 1063.54,1359.62 1056.7,1359.01 1049.87,1358.42 1043.04,1357.91 1036.2,1357.32 1029.37,1356.63 1022.54,1356.09 1015.7,1355.38 1008.87,1354.75 1002.04,1354.04 995.204,1353.36 988.371,1352.58 981.537,1351.91 974.704,1351.05 967.871,1350.28 961.037,1349.51 954.204,1348.6 947.37,1347.67 940.537,1346.78 933.704,1345.89 926.87,1344.93 920.037,1343.92 913.203,1342.87 906.37,1341.77 899.537,1340.65 892.703,1339.47 885.87,1338.22 879.036,1336.91 872.203,1335.54 865.37,1334.17 858.536,1332.78 851.703,1331.26 844.869,1329.6 838.036,1328.03 831.203,1326.26 824.369,1324.42 817.536,1322.55 810.702,1320.49 803.869,1318.39 797.036,1316.18 790.202,1313.7 783.369,1311.31 776.535,1308.62 769.702,1305.71 762.869,1302.73 756.035,1299.55 749.202,1296.11 742.368,1292.37 735.535,1288.35 728.702,1284 721.868,1279.32 715.035,1274.19 708.201,1268.56 701.368,1262.31 694.535,1255.31 687.701,1247.45 680.868,1238.62 674.034,1228.36 667.201,1216.16 660.368,1201.57 653.534,1182.63 646.701,1157.02 639.867,1115.82 633.034,1025.56 626.201,718.828 619.367,987.775 612.534,778.006 605.7,928.383 598.867,858.522 592.034,909.757 585.2,913.478 578.367,926.009 571.533,946.67 564.7,955.521 557.867,974.677 551.033,987.049 544.2,1003.25 537.366,1017.87 530.533,1032.68 523.7,1047.83 516.866,1062.2 510.033,1076.98 503.199,1091.03 496.366,1104.93 489.533,1118.59 482.699,1131.26 475.866,1144.25 469.032,1156.02 462.199,1167.15 455.366,1178.28 448.532,1188.46 441.699,1197.81 434.865,1206.8 428.032,1215.34 421.199,1223.26 414.365,1230.53 407.532,1237.31 400.698,1243.63 393.865,1249.58 387.032,1255.16 380.198,1260.36 373.365,1265.25 366.531,1269.84 359.698,1274.18 352.865,1278.25 346.031,1282.02 339.198,1285.48 332.364,1288.81 325.531,1292.07 318.698,1295 311.864,1297.78 305.031,1300.54 298.197,1302.97 291.364,1305.47 284.531,1307.65 277.697,1309.9 270.864,1311.95 264.03,1313.86 "/>
<path clip-path="url(#clip580)" d="M1742.7 910.676 L2352.76 910.676 L2352.76 599.636 L1742.7 599.636  Z" fill="#ffffff" fill-rule="evenodd" fill-opacity="1"/>
<polyline clip-path="url(#clip580)" style="stroke:#000000; stroke-linecap:round; stroke-linejoin:round; stroke-width:4; stroke-opacity:1; fill:none" points="1742.7,910.676 2352.76,910.676 2352.76,599.636 1742.7,599.636 1742.7,910.676 "/>
<polyline clip-path="url(#clip580)" style="stroke:#009af9; stroke-linecap:round; stroke-linejoin:round; stroke-width:8; stroke-opacity:1; fill:none" points="1766.37,651.476 1908.35,651.476 "/>
<path clip-path="url(#clip580)" d="M1932.01 639.878 L1932.01 638.297 Q1938.09 638.297 1941.22 635.061 Q1942.09 635.061 1942.24 635.259 Q1942.39 635.456 1942.39 636.37 L1942.39 664.755 Q1942.39 666.261 1943.13 666.731 Q1943.87 667.2 1947.1 667.2 L1948.71 667.2 L1948.71 668.756 Q1946.93 668.608 1940.51 668.608 Q1934.09 668.608 1932.33 668.756 L1932.33 667.2 L1933.94 667.2 Q1937.12 667.2 1937.89 666.756 Q1938.66 666.286 1938.66 664.755 L1938.66 638.544 Q1936.01 639.878 1932.01 639.878 Z" fill="#000000" fill-rule="nonzero" fill-opacity="1" /><polyline clip-path="url(#clip580)" style="stroke:#e26f46; stroke-linecap:round; stroke-linejoin:round; stroke-width:8; stroke-opacity:1; fill:none" points="1766.37,703.316 1908.35,703.316 "/>
<path clip-path="url(#clip580)" d="M1932.01 720.596 Q1932.01 719.682 1932.08 719.411 Q1932.18 719.139 1932.58 718.719 L1942.29 707.899 Q1947.6 701.921 1947.6 696.708 Q1947.6 693.324 1945.82 690.903 Q1944.07 688.482 1940.83 688.482 Q1938.61 688.482 1936.73 689.841 Q1934.85 691.199 1933.99 693.62 Q1934.13 693.571 1934.65 693.571 Q1935.91 693.571 1936.61 694.362 Q1937.32 695.152 1937.32 696.214 Q1937.32 697.573 1936.43 698.24 Q1935.57 698.882 1934.7 698.882 Q1934.36 698.882 1933.89 698.808 Q1933.44 698.734 1932.73 698.042 Q1932.01 697.326 1932.01 696.066 Q1932.01 692.533 1934.68 689.717 Q1937.37 686.901 1941.47 686.901 Q1946.12 686.901 1949.15 689.668 Q1952.22 692.41 1952.22 696.708 Q1952.22 698.215 1951.75 699.599 Q1951.3 700.957 1950.69 702.02 Q1950.09 703.082 1948.46 704.786 Q1946.83 706.491 1945.52 707.701 Q1944.21 708.912 1941.27 711.481 L1935.91 716.693 L1945.03 716.693 Q1949.48 716.693 1949.82 716.298 Q1950.32 715.582 1950.93 711.802 L1952.22 711.802 L1950.79 720.596 L1932.01 720.596 Z" fill="#000000" fill-rule="nonzero" fill-opacity="1" /><polyline clip-path="url(#clip580)" style="stroke:#3da44d; stroke-linecap:round; stroke-linejoin:round; stroke-width:8; stroke-opacity:1; fill:none" stroke-dasharray="32, 20" points="1766.37,755.156 1908.35,755.156 "/>
<path clip-path="url(#clip580)" d="M1932.01 765.618 Q1932.01 764.111 1932.88 763.395 Q1933.74 762.679 1934.85 762.679 Q1936.01 762.679 1936.83 763.444 Q1937.67 764.186 1937.67 765.495 Q1937.67 766.903 1936.68 767.693 Q1935.72 768.484 1934.33 768.286 Q1935.54 770.312 1937.77 771.226 Q1940.01 772.14 1942.09 772.14 Q1944.26 772.14 1946.02 770.263 Q1947.8 768.385 1947.8 763.79 Q1947.8 759.887 1946.26 757.639 Q1944.76 755.391 1941.77 755.391 L1939.55 755.391 Q1938.78 755.391 1938.56 755.317 Q1938.33 755.243 1938.33 754.823 Q1938.33 754.329 1939.1 754.23 Q1939.87 754.23 1941.08 754.082 Q1944.02 753.983 1945.57 751.439 Q1946.98 749.067 1946.98 745.683 Q1946.98 742.595 1945.5 741.31 Q1944.04 740.001 1942.14 740.001 Q1940.36 740.001 1938.41 740.742 Q1936.46 741.483 1935.39 743.138 Q1938.53 743.138 1938.53 745.683 Q1938.53 746.794 1937.82 747.536 Q1937.12 748.252 1935.96 748.252 Q1934.85 748.252 1934.11 747.56 Q1933.37 746.844 1933.37 745.633 Q1933.37 742.743 1935.94 740.742 Q1938.53 738.741 1942.34 738.741 Q1946.09 738.741 1948.86 740.717 Q1951.65 742.694 1951.65 745.732 Q1951.65 748.721 1949.67 751.167 Q1947.7 753.613 1944.56 754.625 Q1948.41 755.391 1950.71 758.01 Q1953.01 760.604 1953.01 763.79 Q1953.01 767.743 1949.9 770.658 Q1946.78 773.548 1942.24 773.548 Q1938.04 773.548 1935.02 771.275 Q1932.01 769.003 1932.01 765.618 Z" fill="#000000" fill-rule="nonzero" fill-opacity="1" /><polyline clip-path="url(#clip580)" style="stroke:#c271d2; stroke-linecap:round; stroke-linejoin:round; stroke-width:4; stroke-opacity:1; fill:none" stroke-dasharray="16, 10" points="1766.37,806.996 1908.35,806.996 "/>
<path clip-path="url(#clip580)" d="M1932.01 824.276 L1932.01 822.72 Q1934.7 822.72 1935.32 822.399 Q1935.94 822.053 1935.94 820.423 L1935.94 794.114 Q1935.94 792.236 1935.27 791.767 Q1934.63 791.298 1932.01 791.298 L1932.01 789.716 L1939.27 789.173 L1939.27 820.423 Q1939.27 822.053 1939.92 822.399 Q1940.56 822.72 1943.23 822.72 L1943.23 824.276 Q1942.61 824.276 1941.32 824.227 Q1940.04 824.178 1939.1 824.153 Q1938.16 824.128 1937.62 824.128 Q1937.03 824.128 1932.01 824.276 Z" fill="#000000" fill-rule="nonzero" fill-opacity="1" /><path clip-path="url(#clip580)" d="M1945.75 813.135 Q1945.75 808.368 1948.81 804.983 Q1951.87 801.599 1956.27 801.599 Q1960.72 801.599 1963.01 804.489 Q1965.34 807.379 1965.34 811.53 Q1965.34 812.295 1965.14 812.444 Q1964.94 812.592 1964.08 812.592 L1949.95 812.592 Q1949.95 817.755 1951.48 820.176 Q1953.6 823.56 1957.18 823.56 Q1957.68 823.56 1958.27 823.461 Q1958.86 823.362 1960.07 822.943 Q1961.28 822.498 1962.35 821.337 Q1963.41 820.176 1964.03 818.348 Q1964.17 817.631 1964.67 817.656 Q1965.34 817.656 1965.34 818.249 Q1965.34 818.694 1964.84 819.706 Q1964.37 820.695 1963.46 821.88 Q1962.54 823.066 1960.77 823.955 Q1959.01 824.845 1956.89 824.845 Q1952.44 824.845 1949.08 821.485 Q1945.75 818.101 1945.75 813.135 M1949.99 811.53 L1962 811.53 Q1962 810.467 1961.8 809.282 Q1961.63 808.096 1961.09 806.465 Q1960.57 804.81 1959.33 803.773 Q1958.1 802.735 1956.27 802.735 Q1955.45 802.735 1954.56 803.081 Q1953.7 803.427 1952.64 804.267 Q1951.58 805.107 1950.83 807.009 Q1950.09 808.911 1949.99 811.53 Z" fill="#000000" fill-rule="nonzero" fill-opacity="1" /><path clip-path="url(#clip580)" d="M1968.47 804.044 L1968.47 802.463 L1972.45 802.463 L1972.45 796.658 Q1972.45 792.903 1974.87 790.754 Q1977.32 788.605 1980.31 788.605 Q1982.28 788.605 1983.57 789.667 Q1984.85 790.729 1984.85 792.162 Q1984.85 793.126 1984.26 793.768 Q1983.69 794.385 1982.63 794.385 Q1981.61 794.385 1981.02 793.743 Q1980.45 793.101 1980.45 792.212 Q1980.45 790.581 1981.96 790.087 Q1981.19 789.741 1980.31 789.716 Q1978.48 789.716 1977.04 791.594 Q1975.64 793.471 1975.64 796.609 L1975.64 802.463 L1981.57 802.463 L1981.57 804.044 L1975.81 804.044 L1975.81 820.324 Q1975.81 821.781 1976.4 822.251 Q1977.02 822.72 1979.64 822.72 L1980.7 822.72 L1980.7 824.276 Q1978.68 824.128 1974.28 824.128 Q1973.66 824.128 1972.7 824.153 Q1971.76 824.178 1970.47 824.227 Q1969.21 824.276 1968.52 824.276 L1968.52 822.72 Q1971.21 822.72 1971.83 822.399 Q1972.45 822.053 1972.45 820.423 L1972.45 804.044 L1968.47 804.044 Z" fill="#000000" fill-rule="nonzero" fill-opacity="1" /><path clip-path="url(#clip580)" d="M1983.17 804.044 L1983.17 802.933 Q1985.49 802.834 1987.02 801.204 Q1988.58 799.548 1989.1 797.523 Q1989.64 795.497 1989.69 793.15 L1990.95 793.15 L1990.95 802.463 L1998.19 802.463 L1998.19 804.044 L1990.95 804.044 L1990.95 818.101 Q1990.95 823.56 1994.36 823.56 Q1995.82 823.56 1996.78 822.078 Q1997.75 820.571 1997.75 817.903 L1997.75 815.112 L1999.01 815.112 L1999.01 818.002 Q1999.01 820.744 1997.75 822.794 Q1996.49 824.845 1993.99 824.845 Q1993.08 824.845 1992.16 824.598 Q1991.27 824.375 1990.09 823.782 Q1988.93 823.165 1988.19 821.683 Q1987.47 820.176 1987.47 818.002 L1987.47 804.044 L1983.17 804.044 Z" fill="#000000" fill-rule="nonzero" fill-opacity="1" /><path clip-path="url(#clip580)" d="M2019.61 804.044 L2019.61 802.933 Q2021.93 802.834 2023.46 801.204 Q2025.02 799.548 2025.54 797.523 Q2026.08 795.497 2026.13 793.15 L2027.39 793.15 L2027.39 802.463 L2034.63 802.463 L2034.63 804.044 L2027.39 804.044 L2027.39 818.101 Q2027.39 823.56 2030.8 823.56 Q2032.26 823.56 2033.22 822.078 Q2034.18 820.571 2034.18 817.903 L2034.18 815.112 L2035.44 815.112 L2035.44 818.002 Q2035.44 820.744 2034.18 822.794 Q2032.92 824.845 2030.43 824.845 Q2029.51 824.845 2028.6 824.598 Q2027.71 824.375 2026.53 823.782 Q2025.36 823.165 2024.62 821.683 Q2023.91 820.176 2023.91 818.002 L2023.91 804.044 L2019.61 804.044 Z" fill="#000000" fill-rule="nonzero" fill-opacity="1" /><path clip-path="url(#clip580)" d="M2043 821.559 Q2039.67 818.249 2039.67 813.456 Q2039.67 808.639 2042.93 805.131 Q2046.21 801.599 2050.91 801.599 Q2055.5 801.599 2058.79 805.107 Q2062.1 808.59 2062.1 813.456 Q2062.1 818.224 2058.76 821.534 Q2055.45 824.845 2050.86 824.845 Q2046.36 824.845 2043 821.559 M2043.87 813.036 Q2043.87 817.952 2045.15 820.176 Q2047.13 823.56 2050.91 823.56 Q2052.79 823.56 2054.34 822.547 Q2055.92 821.534 2056.79 819.83 Q2057.9 817.607 2057.9 813.036 Q2057.9 808.17 2056.56 806.021 Q2054.59 802.735 2050.86 802.735 Q2049.23 802.735 2047.62 803.6 Q2046.04 804.44 2045.08 806.12 Q2043.87 808.343 2043.87 813.036 Z" fill="#000000" fill-rule="nonzero" fill-opacity="1" /><path clip-path="url(#clip580)" d="M2081.79 824.276 L2081.79 822.72 Q2084.48 822.72 2085.1 822.399 Q2085.74 822.053 2085.74 820.423 L2085.74 806.861 Q2085.74 804.983 2085.07 804.514 Q2084.43 804.044 2081.79 804.044 L2081.79 802.463 L2088.83 801.92 L2088.83 807.478 Q2089.54 805.304 2091.05 803.624 Q2092.58 801.92 2095.05 801.92 Q2096.68 801.92 2097.72 802.834 Q2098.78 803.748 2098.78 805.008 Q2098.78 806.12 2098.09 806.688 Q2097.42 807.231 2096.61 807.231 Q2095.69 807.231 2095.05 806.663 Q2094.44 806.07 2094.44 805.057 Q2094.44 804.44 2094.71 803.97 Q2095 803.476 2095.23 803.303 Q2095.45 803.13 2095.6 803.081 Q2095.5 803.032 2095.05 803.032 Q2092.26 803.032 2090.66 805.823 Q2089.07 808.59 2089.07 812.542 L2089.07 820.324 Q2089.07 821.781 2089.67 822.251 Q2090.28 822.72 2092.93 822.72 L2093.99 822.72 L2093.99 824.276 Q2091.96 824.128 2087.57 824.128 Q2086.95 824.128 2085.99 824.153 Q2085.02 824.178 2083.76 824.227 Q2082.5 824.276 2081.79 824.276 Z" fill="#000000" fill-rule="nonzero" fill-opacity="1" /><path clip-path="url(#clip580)" d="M2101.82 824.276 L2101.82 822.72 Q2104.51 822.72 2105.13 822.399 Q2105.75 822.053 2105.75 820.423 L2105.75 806.811 Q2105.75 804.934 2105.11 804.489 Q2104.49 804.044 2102.02 804.044 L2102.02 802.463 L2109.08 801.92 L2109.08 820.472 Q2109.08 821.979 2109.63 822.35 Q2110.17 822.72 2112.64 822.72 L2112.64 824.276 Q2107.48 824.128 2107.38 824.128 Q2106.69 824.128 2101.82 824.276 M2103.95 793.101 Q2103.95 792.088 2104.71 791.273 Q2105.5 790.433 2106.61 790.433 Q2107.73 790.433 2108.52 791.199 Q2109.31 791.94 2109.31 793.126 Q2109.31 794.287 2108.52 795.052 Q2107.73 795.794 2106.61 795.794 Q2105.45 795.794 2104.69 794.978 Q2103.95 794.163 2103.95 793.101 Z" fill="#000000" fill-rule="nonzero" fill-opacity="1" /><path clip-path="url(#clip580)" d="M2115.56 828.278 Q2115.56 826.648 2116.79 825.24 Q2118.05 823.832 2120.23 823.214 Q2118 821.806 2118 818.718 Q2118 816.347 2119.56 814.519 Q2117.19 812.542 2117.19 809.306 Q2117.19 806.317 2119.56 804.119 Q2121.93 801.92 2125.39 801.92 Q2128.43 801.92 2130.75 803.748 Q2133.17 801.376 2136.11 801.352 Q2137.42 801.352 2138.04 802.167 Q2138.68 802.982 2138.68 803.847 Q2138.68 804.613 2138.18 804.983 Q2137.72 805.354 2137.22 805.354 Q2136.6 805.354 2136.16 804.958 Q2135.74 804.539 2135.74 803.896 Q2135.74 802.834 2136.55 802.513 Q2136.41 802.463 2136.06 802.463 Q2133.59 802.463 2131.49 804.44 Q2133.57 806.367 2133.57 809.356 Q2133.57 812.345 2131.19 814.543 Q2128.82 816.742 2125.39 816.742 Q2122.55 816.742 2120.37 815.161 Q2119.51 816.174 2119.51 817.557 Q2119.51 818.817 2120.27 819.805 Q2121.04 820.793 2122.2 820.942 Q2122.55 820.991 2125.98 820.991 Q2128.01 820.991 2129.12 821.04 Q2130.23 821.09 2131.81 821.436 Q2133.42 821.757 2134.68 822.399 Q2137.96 824.227 2137.99 828.18 Q2137.99 831.07 2134.65 832.873 Q2131.34 834.701 2126.75 834.701 Q2122.1 834.701 2118.82 832.849 Q2115.56 831.021 2115.56 828.278 M2118.2 828.278 Q2118.2 830.354 2120.65 831.935 Q2123.09 833.54 2126.8 833.54 Q2130.43 833.54 2132.87 831.959 Q2135.34 830.403 2135.34 828.278 Q2135.34 826.772 2134.48 825.808 Q2133.61 824.845 2131.84 824.449 Q2130.08 824.079 2128.85 824.005 Q2127.61 823.931 2125.34 823.931 L2122.35 823.931 Q2120.62 824.029 2119.41 825.289 Q2118.2 826.549 2118.2 828.278 M2120.97 809.356 Q2120.97 815.581 2125.39 815.581 Q2127.61 815.581 2128.97 813.555 Q2129.79 812.197 2129.79 809.306 Q2129.79 803.081 2125.39 803.081 Q2123.17 803.081 2121.78 805.107 Q2120.97 806.465 2120.97 809.356 Z" fill="#000000" fill-rule="nonzero" fill-opacity="1" /><path clip-path="url(#clip580)" d="M2141.08 824.276 L2141.08 822.72 Q2143.77 822.72 2144.39 822.399 Q2145 822.053 2145 820.423 L2145 794.114 Q2145 792.236 2144.34 791.767 Q2143.69 791.298 2141.08 791.298 L2141.08 789.716 L2148.34 789.173 L2148.34 806.762 L2148.39 806.762 Q2149.2 804.934 2151.03 803.427 Q2152.86 801.92 2155.67 801.92 Q2159.48 801.92 2160.99 803.797 Q2162.1 805.057 2162.32 806.465 Q2162.57 807.873 2162.57 811.53 L2162.57 821.189 Q2162.62 822.251 2163.43 822.498 Q2164.25 822.72 2166.52 822.72 L2166.52 824.276 Q2161.36 824.128 2160.84 824.128 Q2160.44 824.128 2155.13 824.276 L2155.13 822.72 Q2157.82 822.72 2158.44 822.399 Q2159.08 822.053 2159.08 820.423 L2159.08 808.639 Q2159.08 806.07 2158.29 804.563 Q2157.5 803.032 2155.33 803.032 Q2152.71 803.032 2150.61 805.23 Q2148.51 807.429 2148.51 811.134 L2148.51 820.423 Q2148.51 822.053 2149.13 822.399 Q2149.77 822.72 2152.44 822.72 L2152.44 824.276 Q2147.28 824.128 2146.78 824.128 Q2146.39 824.128 2141.08 824.276 Z" fill="#000000" fill-rule="nonzero" fill-opacity="1" /><path clip-path="url(#clip580)" d="M2167.06 804.044 L2167.06 802.933 Q2169.39 802.834 2170.92 801.204 Q2172.47 799.548 2172.99 797.523 Q2173.54 795.497 2173.58 793.15 L2174.84 793.15 L2174.84 802.463 L2182.08 802.463 L2182.08 804.044 L2174.84 804.044 L2174.84 818.101 Q2174.84 823.56 2178.25 823.56 Q2179.71 823.56 2180.67 822.078 Q2181.64 820.571 2181.64 817.903 L2181.64 815.112 L2182.9 815.112 L2182.9 818.002 Q2182.9 820.744 2181.64 822.794 Q2180.38 824.845 2177.88 824.845 Q2176.97 824.845 2176.05 824.598 Q2175.17 824.375 2173.98 823.782 Q2172.82 823.165 2172.08 821.683 Q2171.36 820.176 2171.36 818.002 L2171.36 804.044 L2167.06 804.044 Z" fill="#000000" fill-rule="nonzero" fill-opacity="1" /><path clip-path="url(#clip580)" d="M2204.22 823.61 L2204.22 816.94 Q2204.22 816.371 2204.24 816.174 Q2204.27 815.976 2204.41 815.828 Q2204.56 815.68 2204.86 815.68 Q2205.2 815.68 2205.33 815.828 Q2205.48 815.976 2205.58 816.544 Q2206.34 820.028 2207.97 821.88 Q2209.63 823.708 2212.62 823.708 Q2215.46 823.708 2216.89 822.448 Q2218.32 821.189 2218.32 819.113 Q2218.32 815.408 2213.06 814.469 Q2210.02 813.852 2208.76 813.456 Q2207.5 813.036 2206.39 812.122 Q2204.22 810.344 2204.22 807.824 Q2204.22 805.304 2206.12 803.452 Q2208.05 801.599 2212.29 801.599 Q2215.14 801.599 2217.06 803.032 Q2217.63 802.587 2217.93 802.216 Q2218.59 801.599 2218.94 801.599 Q2219.34 801.599 2219.41 801.871 Q2219.48 802.118 2219.48 802.834 L2219.48 807.923 Q2219.48 808.491 2219.46 808.689 Q2219.43 808.886 2219.29 809.035 Q2219.14 809.158 2218.82 809.158 Q2218.25 809.158 2218.22 808.689 Q2217.83 802.562 2212.29 802.562 Q2209.31 802.562 2207.97 803.723 Q2206.64 804.86 2206.64 806.416 Q2206.64 807.281 2207.03 807.948 Q2207.45 808.59 2207.97 808.985 Q2208.52 809.356 2209.5 809.726 Q2210.49 810.072 2211.08 810.196 Q2211.7 810.319 2212.86 810.566 Q2216.91 811.332 2218.62 812.987 Q2220.74 815.112 2220.74 817.804 Q2220.74 820.793 2218.72 822.819 Q2216.69 824.845 2212.62 824.845 Q2209.33 824.845 2207.03 822.646 Q2206.74 822.943 2206.51 823.214 Q2206.29 823.461 2206.19 823.56 Q2206.12 823.659 2206.09 823.733 Q2206.07 823.782 2206.02 823.832 Q2205.01 824.845 2204.76 824.845 Q2204.37 824.845 2204.29 824.573 Q2204.22 824.326 2204.22 823.61 Z" fill="#000000" fill-rule="nonzero" fill-opacity="1" /><path clip-path="url(#clip580)" d="M2223.36 804.044 L2223.36 802.463 Q2226.1 802.612 2228.06 802.612 Q2229.02 802.612 2233.59 802.463 L2233.59 804.044 Q2230.6 804.044 2230.6 805.403 Q2230.6 805.7 2230.85 806.317 L2235.66 819.83 L2240.01 807.577 Q2239.1 805.107 2238.85 804.81 Q2238.23 804.044 2235.66 804.044 L2235.66 802.463 Q2237.94 802.612 2240.16 802.612 Q2241.02 802.612 2245.42 802.463 L2245.42 804.044 Q2242.43 804.044 2242.43 805.403 Q2242.43 805.601 2242.68 806.367 L2247.69 820.472 L2252.29 807.528 Q2252.54 806.861 2252.56 806.465 Q2252.56 805.354 2251.77 804.736 Q2250.98 804.094 2249.62 804.044 L2249.62 802.463 Q2252.51 802.612 2254.32 802.612 Q2256.34 802.612 2258.02 802.463 L2258.02 804.044 Q2254.88 804.143 2253.77 807.281 L2247.84 823.881 Q2247.27 824.795 2246.83 824.845 Q2246.16 824.845 2245.82 823.881 L2240.65 809.504 L2235.54 823.832 Q2235.34 824.449 2235.17 824.647 Q2235 824.845 2234.53 824.845 Q2234.08 824.845 2233.89 824.573 Q2233.69 824.326 2233.47 823.708 L2227.09 805.798 Q2226.65 804.637 2225.98 804.341 Q2225.34 804.044 2223.36 804.044 Z" fill="#000000" fill-rule="nonzero" fill-opacity="1" /><path clip-path="url(#clip580)" d="M2258.96 813.135 Q2258.96 808.368 2262.02 804.983 Q2265.09 801.599 2269.48 801.599 Q2273.93 801.599 2276.23 804.489 Q2278.55 807.379 2278.55 811.53 Q2278.55 812.295 2278.35 812.444 Q2278.15 812.592 2277.29 812.592 L2263.16 812.592 Q2263.16 817.755 2264.69 820.176 Q2266.82 823.56 2270.4 823.56 Q2270.89 823.56 2271.48 823.461 Q2272.08 823.362 2273.29 822.943 Q2274.5 822.498 2275.56 821.337 Q2276.62 820.176 2277.24 818.348 Q2277.39 817.631 2277.88 817.656 Q2278.55 817.656 2278.55 818.249 Q2278.55 818.694 2278.06 819.706 Q2277.59 820.695 2276.67 821.88 Q2275.76 823.066 2273.98 823.955 Q2272.23 824.845 2270.1 824.845 Q2265.65 824.845 2262.29 821.485 Q2258.96 818.101 2258.96 813.135 M2263.21 811.53 L2275.21 811.53 Q2275.21 810.467 2275.02 809.282 Q2274.84 808.096 2274.3 806.465 Q2273.78 804.81 2272.55 803.773 Q2271.31 802.735 2269.48 802.735 Q2268.67 802.735 2267.78 803.081 Q2266.91 803.427 2265.85 804.267 Q2264.79 805.107 2264.05 807.009 Q2263.31 808.911 2263.21 811.53 Z" fill="#000000" fill-rule="nonzero" fill-opacity="1" /><path clip-path="url(#clip580)" d="M2281.41 813.135 Q2281.41 808.368 2284.48 804.983 Q2287.54 801.599 2291.94 801.599 Q2296.39 801.599 2298.68 804.489 Q2301 807.379 2301 811.53 Q2301 812.295 2300.81 812.444 Q2300.61 812.592 2299.74 812.592 L2285.61 812.592 Q2285.61 817.755 2287.15 820.176 Q2289.27 823.56 2292.85 823.56 Q2293.35 823.56 2293.94 823.461 Q2294.53 823.362 2295.74 822.943 Q2296.95 822.498 2298.02 821.337 Q2299.08 820.176 2299.7 818.348 Q2299.84 817.631 2300.34 817.656 Q2301 817.656 2301 818.249 Q2301 818.694 2300.51 819.706 Q2300.04 820.695 2299.13 821.88 Q2298.21 823.066 2296.43 823.955 Q2294.68 824.845 2292.56 824.845 Q2288.11 824.845 2284.75 821.485 Q2281.41 818.101 2281.41 813.135 M2285.66 811.53 L2297.67 811.53 Q2297.67 810.467 2297.47 809.282 Q2297.3 808.096 2296.76 806.465 Q2296.24 804.81 2295 803.773 Q2293.77 802.735 2291.94 802.735 Q2291.12 802.735 2290.23 803.081 Q2289.37 803.427 2288.31 804.267 Q2287.24 805.107 2286.5 807.009 Q2285.76 808.911 2285.66 811.53 Z" fill="#000000" fill-rule="nonzero" fill-opacity="1" /><path clip-path="url(#clip580)" d="M2303.87 832.527 Q2306.56 832.527 2307.18 832.182 Q2307.82 831.86 2307.82 830.255 L2307.82 806.564 Q2307.82 804.884 2307.18 804.464 Q2306.56 804.044 2303.87 804.044 L2303.87 802.463 L2311.16 801.92 L2311.16 805.255 Q2314.2 801.92 2318.25 801.92 Q2322.55 801.92 2325.68 805.255 Q2328.82 808.59 2328.82 813.358 Q2328.82 818.175 2325.49 821.51 Q2322.15 824.845 2317.53 824.845 Q2315.01 824.845 2313.31 823.56 Q2311.63 822.251 2311.31 821.287 L2311.31 821.757 L2311.31 830.255 Q2311.31 831.885 2311.95 832.206 Q2312.59 832.527 2315.26 832.527 L2315.26 834.084 Q2309.95 833.936 2309.55 833.936 Q2309.06 833.936 2303.87 834.084 L2303.87 832.527 M2311.31 818.521 Q2311.31 819.286 2311.4 819.558 Q2311.53 819.83 2312.02 820.645 Q2314.02 823.708 2317.28 823.708 Q2317.31 823.708 2317.33 823.708 Q2320.22 823.708 2322.42 820.769 Q2324.62 817.804 2324.62 813.358 Q2324.62 809.109 2322.62 806.144 Q2320.62 803.18 2317.85 803.18 Q2315.88 803.18 2314.15 804.242 Q2312.42 805.304 2311.31 807.231 L2311.31 818.521 Z" fill="#000000" fill-rule="nonzero" fill-opacity="1" /><polyline clip-path="url(#clip580)" style="stroke:#ac8d18; stroke-linecap:round; stroke-linejoin:round; stroke-width:4; stroke-opacity:1; fill:none" stroke-dasharray="16, 10" points="1766.37,858.836 1908.35,858.836 "/>
<path clip-path="url(#clip580)" d="M1932.01 876.116 L1932.01 874.56 Q1934.7 874.56 1935.32 874.239 Q1935.96 873.893 1935.96 872.263 L1935.96 858.701 Q1935.96 856.823 1935.3 856.354 Q1934.65 855.884 1932.01 855.884 L1932.01 854.303 L1939.05 853.76 L1939.05 859.318 Q1939.77 857.144 1941.27 855.464 Q1942.81 853.76 1945.28 853.76 Q1946.91 853.76 1947.94 854.674 Q1949.01 855.588 1949.01 856.848 Q1949.01 857.96 1948.31 858.528 Q1947.65 859.071 1946.83 859.071 Q1945.92 859.071 1945.28 858.503 Q1944.66 857.91 1944.66 856.897 Q1944.66 856.28 1944.93 855.81 Q1945.23 855.316 1945.45 855.143 Q1945.67 854.97 1945.82 854.921 Q1945.72 854.872 1945.28 854.872 Q1942.48 854.872 1940.88 857.663 Q1939.3 860.43 1939.3 864.382 L1939.3 872.164 Q1939.3 873.621 1939.89 874.091 Q1940.51 874.56 1943.15 874.56 L1944.21 874.56 L1944.21 876.116 Q1942.19 875.968 1937.79 875.968 Q1937.17 875.968 1936.21 875.993 Q1935.25 876.018 1933.99 876.067 Q1932.73 876.116 1932.01 876.116 Z" fill="#000000" fill-rule="nonzero" fill-opacity="1" /><path clip-path="url(#clip580)" d="M1952.04 876.116 L1952.04 874.56 Q1954.74 874.56 1955.36 874.239 Q1955.97 873.893 1955.97 872.263 L1955.97 858.651 Q1955.97 856.774 1955.33 856.329 Q1954.71 855.884 1952.24 855.884 L1952.24 854.303 L1959.31 853.76 L1959.31 872.312 Q1959.31 873.819 1959.85 874.19 Q1960.39 874.56 1962.86 874.56 L1962.86 876.116 Q1957.7 875.968 1957.6 875.968 Q1956.91 875.968 1952.04 876.116 M1954.17 844.941 Q1954.17 843.928 1954.94 843.113 Q1955.73 842.273 1956.84 842.273 Q1957.95 842.273 1958.74 843.039 Q1959.53 843.78 1959.53 844.966 Q1959.53 846.127 1958.74 846.892 Q1957.95 847.634 1956.84 847.634 Q1955.68 847.634 1954.91 846.818 Q1954.17 846.003 1954.17 844.941 Z" fill="#000000" fill-rule="nonzero" fill-opacity="1" /><path clip-path="url(#clip580)" d="M1965.78 880.118 Q1965.78 878.488 1967.02 877.08 Q1968.28 875.672 1970.45 875.054 Q1968.23 873.646 1968.23 870.558 Q1968.23 868.187 1969.78 866.359 Q1967.41 864.382 1967.41 861.146 Q1967.41 858.157 1969.78 855.959 Q1972.15 853.76 1975.61 853.76 Q1978.65 853.76 1980.97 855.588 Q1983.39 853.216 1986.33 853.192 Q1987.64 853.192 1988.26 854.007 Q1988.9 854.822 1988.9 855.687 Q1988.9 856.453 1988.41 856.823 Q1987.94 857.194 1987.44 857.194 Q1986.83 857.194 1986.38 856.798 Q1985.96 856.379 1985.96 855.736 Q1985.96 854.674 1986.78 854.353 Q1986.63 854.303 1986.28 854.303 Q1983.81 854.303 1981.71 856.28 Q1983.79 858.207 1983.79 861.196 Q1983.79 864.185 1981.42 866.383 Q1979.05 868.582 1975.61 868.582 Q1972.77 868.582 1970.6 867.001 Q1969.73 868.014 1969.73 869.397 Q1969.73 870.657 1970.5 871.645 Q1971.26 872.633 1972.43 872.782 Q1972.77 872.831 1976.2 872.831 Q1978.23 872.831 1979.34 872.88 Q1980.45 872.93 1982.03 873.276 Q1983.64 873.597 1984.9 874.239 Q1988.19 876.067 1988.21 880.02 Q1988.21 882.91 1984.88 884.713 Q1981.57 886.541 1976.97 886.541 Q1972.33 886.541 1969.04 884.689 Q1965.78 882.861 1965.78 880.118 M1968.42 880.118 Q1968.42 882.194 1970.87 883.775 Q1973.31 885.38 1977.02 885.38 Q1980.65 885.38 1983.1 883.799 Q1985.57 882.243 1985.57 880.118 Q1985.57 878.612 1984.7 877.648 Q1983.84 876.685 1982.06 876.289 Q1980.31 875.919 1979.07 875.845 Q1977.84 875.771 1975.56 875.771 L1972.57 875.771 Q1970.84 875.869 1969.63 877.129 Q1968.42 878.389 1968.42 880.118 M1971.19 861.196 Q1971.19 867.421 1975.61 867.421 Q1977.84 867.421 1979.19 865.395 Q1980.01 864.037 1980.01 861.146 Q1980.01 854.921 1975.61 854.921 Q1973.39 854.921 1972.01 856.947 Q1971.19 858.305 1971.19 861.196 Z" fill="#000000" fill-rule="nonzero" fill-opacity="1" /><path clip-path="url(#clip580)" d="M1991.3 876.116 L1991.3 874.56 Q1993.99 874.56 1994.61 874.239 Q1995.23 873.893 1995.23 872.263 L1995.23 845.954 Q1995.23 844.076 1994.56 843.607 Q1993.92 843.138 1991.3 843.138 L1991.3 841.556 L1998.56 841.013 L1998.56 858.602 L1998.61 858.602 Q1999.43 856.774 2001.25 855.267 Q2003.08 853.76 2005.9 853.76 Q2009.7 853.76 2011.21 855.637 Q2012.32 856.897 2012.54 858.305 Q2012.79 859.713 2012.79 863.37 L2012.79 873.029 Q2012.84 874.091 2013.66 874.338 Q2014.47 874.56 2016.74 874.56 L2016.74 876.116 Q2011.58 875.968 2011.06 875.968 Q2010.67 875.968 2005.35 876.116 L2005.35 874.56 Q2008.05 874.56 2008.67 874.239 Q2009.31 873.893 2009.31 872.263 L2009.31 860.479 Q2009.31 857.91 2008.52 856.403 Q2007.73 854.872 2005.55 854.872 Q2002.93 854.872 2000.83 857.07 Q1998.73 859.269 1998.73 862.974 L1998.73 872.263 Q1998.73 873.893 1999.35 874.239 Q1999.99 874.56 2002.66 874.56 L2002.66 876.116 Q1997.5 875.968 1997.01 875.968 Q1996.61 875.968 1991.3 876.116 Z" fill="#000000" fill-rule="nonzero" fill-opacity="1" /><path clip-path="url(#clip580)" d="M2017.29 855.884 L2017.29 854.773 Q2019.61 854.674 2021.14 853.044 Q2022.7 851.388 2023.22 849.363 Q2023.76 847.337 2023.81 844.99 L2025.07 844.99 L2025.07 854.303 L2032.31 854.303 L2032.31 855.884 L2025.07 855.884 L2025.07 869.941 Q2025.07 875.4 2028.48 875.4 Q2029.93 875.4 2030.9 873.918 Q2031.86 872.411 2031.86 869.743 L2031.86 866.952 L2033.12 866.952 L2033.12 869.842 Q2033.12 872.584 2031.86 874.634 Q2030.6 876.685 2028.11 876.685 Q2027.19 876.685 2026.28 876.438 Q2025.39 876.215 2024.2 875.622 Q2023.04 875.005 2022.3 873.523 Q2021.58 872.016 2021.58 869.842 L2021.58 855.884 L2017.29 855.884 Z" fill="#000000" fill-rule="nonzero" fill-opacity="1" /><path clip-path="url(#clip580)" d="M2053.72 855.884 L2053.72 854.773 Q2056.05 854.674 2057.58 853.044 Q2059.13 851.388 2059.65 849.363 Q2060.2 847.337 2060.25 844.99 L2061.51 844.99 L2061.51 854.303 L2068.74 854.303 L2068.74 855.884 L2061.51 855.884 L2061.51 869.941 Q2061.51 875.4 2064.91 875.4 Q2066.37 875.4 2067.34 873.918 Q2068.3 872.411 2068.3 869.743 L2068.3 866.952 L2069.56 866.952 L2069.56 869.842 Q2069.56 872.584 2068.3 874.634 Q2067.04 876.685 2064.54 876.685 Q2063.63 876.685 2062.72 876.438 Q2061.83 876.215 2060.64 875.622 Q2059.48 875.005 2058.74 873.523 Q2058.02 872.016 2058.02 869.842 L2058.02 855.884 L2053.72 855.884 Z" fill="#000000" fill-rule="nonzero" fill-opacity="1" /><path clip-path="url(#clip580)" d="M2077.12 873.399 Q2073.78 870.089 2073.78 865.296 Q2073.78 860.479 2077.04 856.971 Q2080.33 853.439 2085.02 853.439 Q2089.62 853.439 2092.9 856.947 Q2096.21 860.43 2096.21 865.296 Q2096.21 870.064 2092.88 873.374 Q2089.57 876.685 2084.97 876.685 Q2080.48 876.685 2077.12 873.399 M2077.98 864.876 Q2077.98 869.792 2079.27 872.016 Q2081.24 875.4 2085.02 875.4 Q2086.9 875.4 2088.46 874.387 Q2090.04 873.374 2090.9 871.67 Q2092.01 869.447 2092.01 864.876 Q2092.01 860.01 2090.68 857.861 Q2088.7 854.575 2084.97 854.575 Q2083.34 854.575 2081.74 855.44 Q2080.16 856.28 2079.19 857.96 Q2077.98 860.183 2077.98 864.876 Z" fill="#000000" fill-rule="nonzero" fill-opacity="1" /><path clip-path="url(#clip580)" d="M2116.17 876.116 L2116.17 874.56 Q2118.87 874.56 2119.48 874.239 Q2120.1 873.893 2120.1 872.263 L2120.1 845.954 Q2120.1 844.076 2119.43 843.607 Q2118.79 843.138 2116.17 843.138 L2116.17 841.556 L2123.44 841.013 L2123.44 872.263 Q2123.44 873.893 2124.08 874.239 Q2124.72 874.56 2127.39 874.56 L2127.39 876.116 Q2126.77 876.116 2125.49 876.067 Q2124.2 876.018 2123.26 875.993 Q2122.33 875.968 2121.78 875.968 Q2121.19 875.968 2116.17 876.116 Z" fill="#000000" fill-rule="nonzero" fill-opacity="1" /><path clip-path="url(#clip580)" d="M2129.91 864.975 Q2129.91 860.208 2132.97 856.823 Q2136.04 853.439 2140.43 853.439 Q2144.88 853.439 2147.18 856.329 Q2149.5 859.219 2149.5 863.37 Q2149.5 864.135 2149.3 864.284 Q2149.1 864.432 2148.24 864.432 L2134.11 864.432 Q2134.11 869.595 2135.64 872.016 Q2137.76 875.4 2141.35 875.4 Q2141.84 875.4 2142.43 875.301 Q2143.03 875.202 2144.24 874.783 Q2145.45 874.338 2146.51 873.177 Q2147.57 872.016 2148.19 870.188 Q2148.34 869.471 2148.83 869.496 Q2149.5 869.496 2149.5 870.089 Q2149.5 870.534 2149 871.546 Q2148.54 872.535 2147.62 873.72 Q2146.71 874.906 2144.93 875.795 Q2143.17 876.685 2141.05 876.685 Q2136.6 876.685 2133.24 873.325 Q2129.91 869.941 2129.91 864.975 M2134.16 863.37 L2146.16 863.37 Q2146.16 862.307 2145.97 861.122 Q2145.79 859.936 2145.25 858.305 Q2144.73 856.65 2143.5 855.613 Q2142.26 854.575 2140.43 854.575 Q2139.62 854.575 2138.73 854.921 Q2137.86 855.267 2136.8 856.107 Q2135.74 856.947 2135 858.849 Q2134.26 860.751 2134.16 863.37 Z" fill="#000000" fill-rule="nonzero" fill-opacity="1" /><path clip-path="url(#clip580)" d="M2152.64 855.884 L2152.64 854.303 L2156.61 854.303 L2156.61 848.498 Q2156.61 844.743 2159.03 842.594 Q2161.48 840.445 2164.47 840.445 Q2166.45 840.445 2167.73 841.507 Q2169.01 842.569 2169.01 844.002 Q2169.01 844.966 2168.42 845.608 Q2167.85 846.225 2166.79 846.225 Q2165.78 846.225 2165.19 845.583 Q2164.62 844.941 2164.62 844.052 Q2164.62 842.421 2166.12 841.927 Q2165.36 841.581 2164.47 841.556 Q2162.64 841.556 2161.21 843.434 Q2159.8 845.311 2159.8 848.449 L2159.8 854.303 L2165.73 854.303 L2165.73 855.884 L2159.97 855.884 L2159.97 872.164 Q2159.97 873.621 2160.57 874.091 Q2161.18 874.56 2163.8 874.56 L2164.86 874.56 L2164.86 876.116 Q2162.84 875.968 2158.44 875.968 Q2157.82 875.968 2156.86 875.993 Q2155.92 876.018 2154.64 876.067 Q2153.38 876.116 2152.69 876.116 L2152.69 874.56 Q2155.38 874.56 2156 874.239 Q2156.61 873.893 2156.61 872.263 L2156.61 855.884 L2152.64 855.884 Z" fill="#000000" fill-rule="nonzero" fill-opacity="1" /><path clip-path="url(#clip580)" d="M2167.33 855.884 L2167.33 854.773 Q2169.66 854.674 2171.19 853.044 Q2172.74 851.388 2173.26 849.363 Q2173.81 847.337 2173.86 844.99 L2175.12 844.99 L2175.12 854.303 L2182.35 854.303 L2182.35 855.884 L2175.12 855.884 L2175.12 869.941 Q2175.12 875.4 2178.53 875.4 Q2179.98 875.4 2180.95 873.918 Q2181.91 872.411 2181.91 869.743 L2181.91 866.952 L2183.17 866.952 L2183.17 869.842 Q2183.17 872.584 2181.91 874.634 Q2180.65 876.685 2178.15 876.685 Q2177.24 876.685 2176.33 876.438 Q2175.44 876.215 2174.25 875.622 Q2173.09 875.005 2172.35 873.523 Q2171.63 872.016 2171.63 869.842 L2171.63 855.884 L2167.33 855.884 Z" fill="#000000" fill-rule="nonzero" fill-opacity="1" /><path clip-path="url(#clip580)" d="M2204.49 875.45 L2204.49 868.78 Q2204.49 868.211 2204.51 868.014 Q2204.54 867.816 2204.69 867.668 Q2204.83 867.52 2205.13 867.52 Q2205.48 867.52 2205.6 867.668 Q2205.75 867.816 2205.85 868.384 Q2206.61 871.868 2208.24 873.72 Q2209.9 875.548 2212.89 875.548 Q2215.73 875.548 2217.16 874.288 Q2218.59 873.029 2218.59 870.953 Q2218.59 867.248 2213.33 866.309 Q2210.29 865.692 2209.03 865.296 Q2207.77 864.876 2206.66 863.962 Q2204.49 862.184 2204.49 859.664 Q2204.49 857.144 2206.39 855.292 Q2208.32 853.439 2212.57 853.439 Q2215.41 853.439 2217.33 854.872 Q2217.9 854.427 2218.2 854.056 Q2218.87 853.439 2219.21 853.439 Q2219.61 853.439 2219.68 853.711 Q2219.76 853.958 2219.76 854.674 L2219.76 859.763 Q2219.76 860.331 2219.73 860.529 Q2219.71 860.726 2219.56 860.875 Q2219.41 860.998 2219.09 860.998 Q2218.52 860.998 2218.5 860.529 Q2218.1 854.402 2212.57 854.402 Q2209.58 854.402 2208.24 855.563 Q2206.91 856.7 2206.91 858.256 Q2206.91 859.121 2207.3 859.788 Q2207.72 860.43 2208.24 860.825 Q2208.79 861.196 2209.78 861.566 Q2210.76 861.912 2211.36 862.036 Q2211.97 862.159 2213.13 862.406 Q2217.19 863.172 2218.89 864.827 Q2221.02 866.952 2221.02 869.644 Q2221.02 872.633 2218.99 874.659 Q2216.96 876.685 2212.89 876.685 Q2209.6 876.685 2207.3 874.486 Q2207.01 874.783 2206.79 875.054 Q2206.56 875.301 2206.46 875.4 Q2206.39 875.499 2206.37 875.573 Q2206.34 875.622 2206.29 875.672 Q2205.28 876.685 2205.03 876.685 Q2204.64 876.685 2204.56 876.413 Q2204.49 876.166 2204.49 875.45 Z" fill="#000000" fill-rule="nonzero" fill-opacity="1" /><path clip-path="url(#clip580)" d="M2223.63 855.884 L2223.63 854.303 Q2226.38 854.452 2228.33 854.452 Q2229.29 854.452 2233.86 854.303 L2233.86 855.884 Q2230.87 855.884 2230.87 857.243 Q2230.87 857.54 2231.12 858.157 L2235.94 871.67 L2240.28 859.417 Q2239.37 856.947 2239.12 856.65 Q2238.51 855.884 2235.94 855.884 L2235.94 854.303 Q2238.21 854.452 2240.43 854.452 Q2241.3 854.452 2245.69 854.303 L2245.69 855.884 Q2242.7 855.884 2242.7 857.243 Q2242.7 857.441 2242.95 858.207 L2247.97 872.312 L2252.56 859.368 Q2252.81 858.701 2252.83 858.305 Q2252.83 857.194 2252.04 856.576 Q2251.25 855.934 2249.89 855.884 L2249.89 854.303 Q2252.78 854.452 2254.59 854.452 Q2256.61 854.452 2258.29 854.303 L2258.29 855.884 Q2255.16 855.983 2254.04 859.121 L2248.11 875.721 Q2247.55 876.635 2247.1 876.685 Q2246.43 876.685 2246.09 875.721 L2240.93 861.344 L2235.81 875.672 Q2235.61 876.289 2235.44 876.487 Q2235.27 876.685 2234.8 876.685 Q2234.35 876.685 2234.16 876.413 Q2233.96 876.166 2233.74 875.548 L2227.36 857.638 Q2226.92 856.477 2226.25 856.181 Q2225.61 855.884 2223.63 855.884 Z" fill="#000000" fill-rule="nonzero" fill-opacity="1" /><path clip-path="url(#clip580)" d="M2259.23 864.975 Q2259.23 860.208 2262.29 856.823 Q2265.36 853.439 2269.75 853.439 Q2274.2 853.439 2276.5 856.329 Q2278.82 859.219 2278.82 863.37 Q2278.82 864.135 2278.62 864.284 Q2278.43 864.432 2277.56 864.432 L2263.43 864.432 Q2263.43 869.595 2264.96 872.016 Q2267.09 875.4 2270.67 875.4 Q2271.16 875.4 2271.76 875.301 Q2272.35 875.202 2273.56 874.783 Q2274.77 874.338 2275.83 873.177 Q2276.89 872.016 2277.51 870.188 Q2277.66 869.471 2278.15 869.496 Q2278.82 869.496 2278.82 870.089 Q2278.82 870.534 2278.33 871.546 Q2277.86 872.535 2276.94 873.72 Q2276.03 874.906 2274.25 875.795 Q2272.5 876.685 2270.37 876.685 Q2265.93 876.685 2262.57 873.325 Q2259.23 869.941 2259.23 864.975 M2263.48 863.37 L2275.49 863.37 Q2275.49 862.307 2275.29 861.122 Q2275.12 859.936 2274.57 858.305 Q2274.05 856.65 2272.82 855.613 Q2271.58 854.575 2269.75 854.575 Q2268.94 854.575 2268.05 854.921 Q2267.19 855.267 2266.12 856.107 Q2265.06 856.947 2264.32 858.849 Q2263.58 860.751 2263.48 863.37 Z" fill="#000000" fill-rule="nonzero" fill-opacity="1" /><path clip-path="url(#clip580)" d="M2281.69 864.975 Q2281.69 860.208 2284.75 856.823 Q2287.81 853.439 2292.21 853.439 Q2296.66 853.439 2298.95 856.329 Q2301.28 859.219 2301.28 863.37 Q2301.28 864.135 2301.08 864.284 Q2300.88 864.432 2300.02 864.432 L2285.89 864.432 Q2285.89 869.595 2287.42 872.016 Q2289.54 875.4 2293.12 875.4 Q2293.62 875.4 2294.21 875.301 Q2294.8 875.202 2296.01 874.783 Q2297.22 874.338 2298.29 873.177 Q2299.35 872.016 2299.97 870.188 Q2300.12 869.471 2300.61 869.496 Q2301.28 869.496 2301.28 870.089 Q2301.28 870.534 2300.78 871.546 Q2300.31 872.535 2299.4 873.72 Q2298.48 874.906 2296.71 875.795 Q2294.95 876.685 2292.83 876.685 Q2288.38 876.685 2285.02 873.325 Q2281.69 869.941 2281.69 864.975 M2285.94 863.37 L2297.94 863.37 Q2297.94 862.307 2297.74 861.122 Q2297.57 859.936 2297.03 858.305 Q2296.51 856.65 2295.27 855.613 Q2294.04 854.575 2292.21 854.575 Q2291.39 854.575 2290.51 854.921 Q2289.64 855.267 2288.58 856.107 Q2287.52 856.947 2286.78 858.849 Q2286.03 860.751 2285.94 863.37 Z" fill="#000000" fill-rule="nonzero" fill-opacity="1" /><path clip-path="url(#clip580)" d="M2304.14 884.367 Q2306.83 884.367 2307.45 884.022 Q2308.09 883.7 2308.09 882.095 L2308.09 858.404 Q2308.09 856.724 2307.45 856.304 Q2306.83 855.884 2304.14 855.884 L2304.14 854.303 L2311.43 853.76 L2311.43 857.095 Q2314.47 853.76 2318.52 853.76 Q2322.82 853.76 2325.95 857.095 Q2329.09 860.43 2329.09 865.198 Q2329.09 870.015 2325.76 873.35 Q2322.42 876.685 2317.8 876.685 Q2315.28 876.685 2313.58 875.4 Q2311.9 874.091 2311.58 873.127 L2311.58 873.597 L2311.58 882.095 Q2311.58 883.725 2312.22 884.046 Q2312.86 884.367 2315.53 884.367 L2315.53 885.924 Q2310.22 885.776 2309.82 885.776 Q2309.33 885.776 2304.14 885.924 L2304.14 884.367 M2311.58 870.361 Q2311.58 871.126 2311.68 871.398 Q2311.8 871.67 2312.29 872.485 Q2314.29 875.548 2317.56 875.548 Q2317.58 875.548 2317.61 875.548 Q2320.5 875.548 2322.69 872.609 Q2324.89 869.644 2324.89 865.198 Q2324.89 860.949 2322.89 857.984 Q2320.89 855.02 2318.12 855.02 Q2316.15 855.02 2314.42 856.082 Q2312.69 857.144 2311.58 859.071 L2311.58 870.361 Z" fill="#000000" fill-rule="nonzero" fill-opacity="1" /></svg>
