<?xml version="1.0" encoding="utf-8"?>
<svg xmlns="http://www.w3.org/2000/svg" xmlns:xlink="http://www.w3.org/1999/xlink" width="600" height="400" viewBox="0 0 2400 1600">
<defs>
  <clipPath id="clip750">
    <rect x="0" y="0" width="2400" height="1600"/>
  </clipPath>
</defs>
<path clip-path="url(#clip750)" d="M0 1600 L2400 1600 L2400 0 L0 0  Z" fill="#ffffff" fill-rule="evenodd" fill-opacity="1"/>
<defs>
  <clipPath id="clip751">
    <rect x="480" y="0" width="1681" height="1600"/>
  </clipPath>
</defs>
<defs>
  <clipPath id="clip752">
    <rect x="247" y="47" width="1803" height="1377"/>
  </clipPath>
</defs>
<path clip-path="url(#clip750)" d="M247.758 1423.18 L2049.66 1423.18 L2049.66 47.2441 L247.758 47.2441  Z" fill="#ffffff" fill-rule="evenodd" fill-opacity="1"/>
<polyline clip-path="url(#clip752)" style="stroke:#000000; stroke-linecap:round; stroke-linejoin:round; stroke-width:2; stroke-opacity:0.1; fill:none" points="298.755,1423.18 298.755,47.2441 "/>
<polyline clip-path="url(#clip752)" style="stroke:#000000; stroke-linecap:round; stroke-linejoin:round; stroke-width:2; stroke-opacity:0.1; fill:none" points="723.732,1423.18 723.732,47.2441 "/>
<polyline clip-path="url(#clip752)" style="stroke:#000000; stroke-linecap:round; stroke-linejoin:round; stroke-width:2; stroke-opacity:0.1; fill:none" points="1148.71,1423.18 1148.71,47.2441 "/>
<polyline clip-path="url(#clip752)" style="stroke:#000000; stroke-linecap:round; stroke-linejoin:round; stroke-width:2; stroke-opacity:0.1; fill:none" points="1573.69,1423.18 1573.69,47.2441 "/>
<polyline clip-path="url(#clip752)" style="stroke:#000000; stroke-linecap:round; stroke-linejoin:round; stroke-width:2; stroke-opacity:0.1; fill:none" points="1998.66,1423.18 1998.66,47.2441 "/>
<polyline clip-path="url(#clip750)" style="stroke:#000000; stroke-linecap:round; stroke-linejoin:round; stroke-width:4; stroke-opacity:1; fill:none" points="247.758,1423.18 2049.66,1423.18 "/>
<polyline clip-path="url(#clip750)" style="stroke:#000000; stroke-linecap:round; stroke-linejoin:round; stroke-width:4; stroke-opacity:1; fill:none" points="298.755,1423.18 298.755,1404.28 "/>
<polyline clip-path="url(#clip750)" style="stroke:#000000; stroke-linecap:round; stroke-linejoin:round; stroke-width:4; stroke-opacity:1; fill:none" points="723.732,1423.18 723.732,1404.28 "/>
<polyline clip-path="url(#clip750)" style="stroke:#000000; stroke-linecap:round; stroke-linejoin:round; stroke-width:4; stroke-opacity:1; fill:none" points="1148.71,1423.18 1148.71,1404.28 "/>
<polyline clip-path="url(#clip750)" style="stroke:#000000; stroke-linecap:round; stroke-linejoin:round; stroke-width:4; stroke-opacity:1; fill:none" points="1573.69,1423.18 1573.69,1404.28 "/>
<polyline clip-path="url(#clip750)" style="stroke:#000000; stroke-linecap:round; stroke-linejoin:round; stroke-width:4; stroke-opacity:1; fill:none" points="1998.66,1423.18 1998.66,1404.28 "/>
<path clip-path="url(#clip750)" d="M255.858 1469.4 Q255.858 1461.96 257.735 1457.91 Q260.354 1451.88 266.53 1451.88 Q267.839 1451.88 269.198 1452.26 Q270.581 1452.6 272.31 1453.96 Q274.064 1455.32 275.127 1457.54 Q277.152 1461.84 277.152 1469.4 Q277.152 1476.79 275.275 1480.81 Q272.533 1486.69 266.48 1486.69 Q264.208 1486.69 261.886 1485.53 Q259.588 1484.37 258.131 1481.58 Q255.858 1477.4 255.858 1469.4 M260.058 1468.78 Q260.058 1476.41 260.601 1479.45 Q261.219 1482.74 262.898 1484.17 Q264.603 1485.58 266.48 1485.58 Q268.506 1485.58 270.186 1484.07 Q271.89 1482.54 272.409 1479.26 Q272.977 1476.02 272.953 1468.78 Q272.953 1461.74 272.459 1458.92 Q271.792 1455.64 270.013 1454.33 Q268.259 1453 266.48 1453 Q265.813 1453 265.097 1453.19 Q264.405 1453.39 263.392 1453.96 Q262.38 1454.53 261.589 1455.94 Q260.823 1457.34 260.453 1459.47 Q260.058 1462.21 260.058 1468.78 Z" fill="#000000" fill-rule="nonzero" fill-opacity="1" /><path clip-path="url(#clip750)" d="M284.242 1484.76 Q283.476 1483.95 283.476 1482.89 Q283.476 1481.82 284.242 1481.06 Q285.008 1480.27 286.169 1480.27 Q287.281 1480.27 288.022 1481.01 Q288.788 1481.73 288.788 1482.91 Q288.788 1484.07 287.972 1484.84 Q287.182 1485.58 286.169 1485.58 Q285.008 1485.58 284.242 1484.76 Z" fill="#000000" fill-rule="nonzero" fill-opacity="1" /><path clip-path="url(#clip750)" d="M295.359 1463.27 Q295.359 1460.58 296.149 1458.75 Q296.94 1456.9 298.595 1455.07 Q301.633 1451.88 306.03 1451.88 Q307.908 1451.88 309.563 1452.67 Q311.243 1453.47 312.824 1455.27 Q314.43 1457.05 315.393 1460.58 Q316.356 1464.09 316.356 1468.93 Q316.356 1476.76 312.552 1481.73 Q308.773 1486.69 303.659 1486.69 Q300.423 1486.69 298.521 1485.23 Q296.619 1483.75 296.619 1481.23 Q296.619 1479.92 297.36 1479.38 Q298.101 1478.81 298.941 1478.81 Q299.855 1478.81 300.571 1479.43 Q301.287 1480.02 301.287 1481.13 Q301.287 1482.05 300.695 1482.76 Q300.126 1483.46 298.644 1483.46 Q300.102 1485.28 303.61 1485.28 Q304.869 1485.28 306.129 1484.72 Q307.389 1484.12 308.748 1482.71 Q310.131 1481.28 310.971 1478.29 Q311.811 1475.3 311.811 1471.1 L311.811 1469.5 Q309.785 1474.56 305.487 1474.56 Q301.238 1474.56 298.298 1471.3 Q295.359 1468.04 295.359 1463.27 M299.904 1463.32 Q299.904 1468.34 300.818 1470.19 Q302.374 1473.38 305.536 1473.38 Q308.624 1473.38 310.156 1470.63 Q311.712 1467.87 311.712 1464.29 Q311.712 1459.32 310.897 1457.15 Q309.39 1453.14 306.03 1453.14 Q302.696 1453.14 300.966 1456.33 Q299.904 1458.21 299.904 1463.32 Z" fill="#000000" fill-rule="nonzero" fill-opacity="1" /><path clip-path="url(#clip750)" d="M320.655 1477.95 Q320.655 1472.29 327.942 1468.63 Q324.805 1466.51 324.237 1465.89 Q322.014 1463.42 322.014 1460.33 Q322.014 1456.8 324.682 1454.35 Q327.374 1451.88 331.179 1451.88 Q334.81 1451.88 337.552 1453.98 Q340.294 1456.08 340.294 1459.42 Q340.294 1464.11 334.168 1467.27 Q338.219 1469.79 339.182 1470.86 Q341.653 1473.6 341.653 1477.08 Q341.653 1481.13 338.54 1483.92 Q335.427 1486.69 331.129 1486.69 Q326.93 1486.69 323.792 1484.25 Q320.655 1481.8 320.655 1477.95 M323.175 1477.95 Q323.175 1481.08 325.521 1483.18 Q327.893 1485.28 331.179 1485.28 Q334.365 1485.28 336.737 1483.46 Q339.133 1481.63 339.133 1478.91 Q339.133 1477.85 338.762 1476.93 Q338.417 1476.02 337.7 1475.3 Q337.008 1474.56 336.564 1474.24 Q336.144 1473.9 335.329 1473.33 L329.103 1469.4 Q323.175 1472.68 323.175 1477.95 M324.237 1458.36 Q324.237 1460.78 326.781 1462.46 L333.056 1466.51 Q338.071 1463.57 338.071 1459.42 Q338.071 1456.73 336.02 1454.95 Q333.97 1453.14 331.129 1453.14 Q328.338 1453.14 326.287 1454.63 Q324.237 1456.08 324.237 1458.36 Z" fill="#000000" fill-rule="nonzero" fill-opacity="1" /><path clip-path="url(#clip750)" d="M680.835 1469.4 Q680.835 1461.96 682.712 1457.91 Q685.331 1451.88 691.506 1451.88 Q692.816 1451.88 694.174 1452.26 Q695.558 1452.6 697.287 1453.96 Q699.041 1455.32 700.103 1457.54 Q702.129 1461.84 702.129 1469.4 Q702.129 1476.79 700.251 1480.81 Q697.509 1486.69 691.457 1486.69 Q689.184 1486.69 686.862 1485.53 Q684.565 1484.37 683.107 1481.58 Q680.835 1477.4 680.835 1469.4 M685.034 1468.78 Q685.034 1476.41 685.578 1479.45 Q686.195 1482.74 687.875 1484.17 Q689.58 1485.58 691.457 1485.58 Q693.483 1485.58 695.162 1484.07 Q696.867 1482.54 697.386 1479.26 Q697.954 1476.02 697.929 1468.78 Q697.929 1461.74 697.435 1458.92 Q696.768 1455.64 694.99 1454.33 Q693.236 1453 691.457 1453 Q690.79 1453 690.074 1453.19 Q689.382 1453.39 688.369 1453.96 Q687.356 1454.53 686.566 1455.94 Q685.8 1457.34 685.429 1459.47 Q685.034 1462.21 685.034 1468.78 Z" fill="#000000" fill-rule="nonzero" fill-opacity="1" /><path clip-path="url(#clip750)" d="M709.219 1484.76 Q708.453 1483.95 708.453 1482.89 Q708.453 1481.82 709.219 1481.06 Q709.985 1480.27 711.146 1480.27 Q712.257 1480.27 712.998 1481.01 Q713.764 1481.73 713.764 1482.91 Q713.764 1484.07 712.949 1484.84 Q712.158 1485.58 711.146 1485.58 Q709.985 1485.58 709.219 1484.76 Z" fill="#000000" fill-rule="nonzero" fill-opacity="1" /><path clip-path="url(#clip750)" d="M720.335 1463.27 Q720.335 1460.58 721.126 1458.75 Q721.916 1456.9 723.571 1455.07 Q726.61 1451.88 731.007 1451.88 Q732.885 1451.88 734.54 1452.67 Q736.219 1453.47 737.8 1455.27 Q739.406 1457.05 740.37 1460.58 Q741.333 1464.09 741.333 1468.93 Q741.333 1476.76 737.529 1481.73 Q733.749 1486.69 728.636 1486.69 Q725.399 1486.69 723.497 1485.23 Q721.595 1483.75 721.595 1481.23 Q721.595 1479.92 722.336 1479.38 Q723.077 1478.81 723.917 1478.81 Q724.831 1478.81 725.548 1479.43 Q726.264 1480.02 726.264 1481.13 Q726.264 1482.05 725.671 1482.76 Q725.103 1483.46 723.621 1483.46 Q725.078 1485.28 728.586 1485.28 Q729.846 1485.28 731.106 1484.72 Q732.366 1484.12 733.724 1482.71 Q735.108 1481.28 735.948 1478.29 Q736.788 1475.3 736.788 1471.1 L736.788 1469.5 Q734.762 1474.56 730.464 1474.56 Q726.215 1474.56 723.275 1471.3 Q720.335 1468.04 720.335 1463.27 M724.881 1463.32 Q724.881 1468.34 725.795 1470.19 Q727.351 1473.38 730.513 1473.38 Q733.601 1473.38 735.133 1470.63 Q736.689 1467.87 736.689 1464.29 Q736.689 1459.32 735.874 1457.15 Q734.367 1453.14 731.007 1453.14 Q727.672 1453.14 725.943 1456.33 Q724.881 1458.21 724.881 1463.32 Z" fill="#000000" fill-rule="nonzero" fill-opacity="1" /><path clip-path="url(#clip750)" d="M745.631 1463.27 Q745.631 1460.58 746.422 1458.75 Q747.212 1456.9 748.868 1455.07 Q751.906 1451.88 756.303 1451.88 Q758.181 1451.88 759.836 1452.67 Q761.516 1453.47 763.097 1455.27 Q764.702 1457.05 765.666 1460.58 Q766.629 1464.09 766.629 1468.93 Q766.629 1476.76 762.825 1481.73 Q759.045 1486.69 753.932 1486.69 Q750.696 1486.69 748.793 1485.23 Q746.891 1483.75 746.891 1481.23 Q746.891 1479.92 747.632 1479.38 Q748.374 1478.81 749.213 1478.81 Q750.127 1478.81 750.844 1479.43 Q751.56 1480.02 751.56 1481.13 Q751.56 1482.05 750.967 1482.76 Q750.399 1483.46 748.917 1483.46 Q750.375 1485.28 753.882 1485.28 Q755.142 1485.28 756.402 1484.72 Q757.662 1484.12 759.021 1482.71 Q760.404 1481.28 761.244 1478.29 Q762.084 1475.3 762.084 1471.1 L762.084 1469.5 Q760.058 1474.56 755.76 1474.56 Q751.511 1474.56 748.571 1471.3 Q745.631 1468.04 745.631 1463.27 M750.177 1463.32 Q750.177 1468.34 751.091 1470.19 Q752.647 1473.38 755.809 1473.38 Q758.897 1473.38 760.429 1470.63 Q761.985 1467.87 761.985 1464.29 Q761.985 1459.32 761.17 1457.15 Q759.663 1453.14 756.303 1453.14 Q752.968 1453.14 751.239 1456.33 Q750.177 1458.21 750.177 1463.32 Z" fill="#000000" fill-rule="nonzero" fill-opacity="1" /><path clip-path="url(#clip750)" d="M1107 1456.7 L1107 1455.12 Q1113.07 1455.12 1116.21 1451.88 Q1117.08 1451.88 1117.22 1452.08 Q1117.37 1452.28 1117.37 1453.19 L1117.37 1481.58 Q1117.37 1483.08 1118.11 1483.55 Q1118.85 1484.02 1122.09 1484.02 L1123.7 1484.02 L1123.7 1485.58 Q1121.92 1485.43 1115.49 1485.43 Q1109.07 1485.43 1107.32 1485.58 L1107.32 1484.02 L1108.92 1484.02 Q1112.11 1484.02 1112.88 1483.58 Q1113.64 1483.11 1113.64 1481.58 L1113.64 1455.37 Q1111 1456.7 1107 1456.7 Z" fill="#000000" fill-rule="nonzero" fill-opacity="1" /><path clip-path="url(#clip750)" d="M1132.86 1484.76 Q1132.1 1483.95 1132.1 1482.89 Q1132.1 1481.82 1132.86 1481.06 Q1133.63 1480.27 1134.79 1480.27 Q1135.9 1480.27 1136.64 1481.01 Q1137.41 1481.73 1137.41 1482.91 Q1137.41 1484.07 1136.59 1484.84 Q1135.8 1485.58 1134.79 1485.58 Q1133.63 1485.58 1132.86 1484.76 Z" fill="#000000" fill-rule="nonzero" fill-opacity="1" /><path clip-path="url(#clip750)" d="M1143.83 1469.4 Q1143.83 1461.96 1145.71 1457.91 Q1148.33 1451.88 1154.5 1451.88 Q1155.81 1451.88 1157.17 1452.26 Q1158.55 1452.6 1160.28 1453.96 Q1162.04 1455.32 1163.1 1457.54 Q1165.12 1461.84 1165.12 1469.4 Q1165.12 1476.79 1163.25 1480.81 Q1160.5 1486.69 1154.45 1486.69 Q1152.18 1486.69 1149.86 1485.53 Q1147.56 1484.37 1146.1 1481.58 Q1143.83 1477.4 1143.83 1469.4 M1148.03 1468.78 Q1148.03 1476.41 1148.57 1479.45 Q1149.19 1482.74 1150.87 1484.17 Q1152.57 1485.58 1154.45 1485.58 Q1156.48 1485.58 1158.16 1484.07 Q1159.86 1482.54 1160.38 1479.26 Q1160.95 1476.02 1160.92 1468.78 Q1160.92 1461.74 1160.43 1458.92 Q1159.76 1455.64 1157.98 1454.33 Q1156.23 1453 1154.45 1453 Q1153.79 1453 1153.07 1453.19 Q1152.38 1453.39 1151.36 1453.96 Q1150.35 1454.53 1149.56 1455.94 Q1148.79 1457.34 1148.42 1459.47 Q1148.03 1462.21 1148.03 1468.78 Z" fill="#000000" fill-rule="nonzero" fill-opacity="1" /><path clip-path="url(#clip750)" d="M1169.13 1469.4 Q1169.13 1461.96 1171 1457.91 Q1173.62 1451.88 1179.8 1451.88 Q1181.11 1451.88 1182.47 1452.26 Q1183.85 1452.6 1185.58 1453.96 Q1187.33 1455.32 1188.39 1457.54 Q1190.42 1461.84 1190.42 1469.4 Q1190.42 1476.79 1188.54 1480.81 Q1185.8 1486.69 1179.75 1486.69 Q1177.48 1486.69 1175.15 1485.53 Q1172.86 1484.37 1171.4 1481.58 Q1169.13 1477.4 1169.13 1469.4 M1173.33 1468.78 Q1173.33 1476.41 1173.87 1479.45 Q1174.49 1482.74 1176.17 1484.17 Q1177.87 1485.58 1179.75 1485.58 Q1181.77 1485.58 1183.45 1484.07 Q1185.16 1482.54 1185.68 1479.26 Q1186.25 1476.02 1186.22 1468.78 Q1186.22 1461.74 1185.73 1458.92 Q1185.06 1455.64 1183.28 1454.33 Q1181.53 1453 1179.75 1453 Q1179.08 1453 1178.36 1453.19 Q1177.67 1453.39 1176.66 1453.96 Q1175.65 1454.53 1174.86 1455.94 Q1174.09 1457.34 1173.72 1459.47 Q1173.33 1462.21 1173.33 1468.78 Z" fill="#000000" fill-rule="nonzero" fill-opacity="1" /><path clip-path="url(#clip750)" d="M1533.01 1456.7 L1533.01 1455.12 Q1539.09 1455.12 1542.23 1451.88 Q1543.09 1451.88 1543.24 1452.08 Q1543.39 1452.28 1543.39 1453.19 L1543.39 1481.58 Q1543.39 1483.08 1544.13 1483.55 Q1544.87 1484.02 1548.1 1484.02 L1549.71 1484.02 L1549.71 1485.58 Q1547.93 1485.43 1541.51 1485.43 Q1535.09 1485.43 1533.33 1485.58 L1533.33 1484.02 L1534.94 1484.02 Q1538.12 1484.02 1538.89 1483.58 Q1539.66 1483.11 1539.66 1481.58 L1539.66 1455.37 Q1537.01 1456.7 1533.01 1456.7 Z" fill="#000000" fill-rule="nonzero" fill-opacity="1" /><path clip-path="url(#clip750)" d="M1558.88 1484.76 Q1558.11 1483.95 1558.11 1482.89 Q1558.11 1481.82 1558.88 1481.06 Q1559.64 1480.27 1560.8 1480.27 Q1561.91 1480.27 1562.66 1481.01 Q1563.42 1481.73 1563.42 1482.91 Q1563.42 1484.07 1562.61 1484.84 Q1561.82 1485.58 1560.8 1485.58 Q1559.64 1485.58 1558.88 1484.76 Z" fill="#000000" fill-rule="nonzero" fill-opacity="1" /><path clip-path="url(#clip750)" d="M1569.84 1469.4 Q1569.84 1461.96 1571.72 1457.91 Q1574.34 1451.88 1580.52 1451.88 Q1581.82 1451.88 1583.18 1452.26 Q1584.57 1452.6 1586.3 1453.96 Q1588.05 1455.32 1589.11 1457.54 Q1591.14 1461.84 1591.14 1469.4 Q1591.14 1476.79 1589.26 1480.81 Q1586.52 1486.69 1580.47 1486.69 Q1578.19 1486.69 1575.87 1485.53 Q1573.57 1484.37 1572.12 1481.58 Q1569.84 1477.4 1569.84 1469.4 M1574.04 1468.78 Q1574.04 1476.41 1574.59 1479.45 Q1575.2 1482.74 1576.88 1484.17 Q1578.59 1485.58 1580.47 1485.58 Q1582.49 1485.58 1584.17 1484.07 Q1585.88 1482.54 1586.39 1479.26 Q1586.96 1476.02 1586.94 1468.78 Q1586.94 1461.74 1586.44 1458.92 Q1585.78 1455.64 1584 1454.33 Q1582.24 1453 1580.47 1453 Q1579.8 1453 1579.08 1453.19 Q1578.39 1453.39 1577.38 1453.96 Q1576.37 1454.53 1575.57 1455.94 Q1574.81 1457.34 1574.44 1459.47 Q1574.04 1462.21 1574.04 1468.78 Z" fill="#000000" fill-rule="nonzero" fill-opacity="1" /><path clip-path="url(#clip750)" d="M1597.66 1456.7 L1597.66 1455.12 Q1603.74 1455.12 1606.87 1451.88 Q1607.74 1451.88 1607.89 1452.08 Q1608.04 1452.28 1608.04 1453.19 L1608.04 1481.58 Q1608.04 1483.08 1608.78 1483.55 Q1609.52 1484.02 1612.75 1484.02 L1614.36 1484.02 L1614.36 1485.58 Q1612.58 1485.43 1606.16 1485.43 Q1599.73 1485.43 1597.98 1485.58 L1597.98 1484.02 L1599.59 1484.02 Q1602.77 1484.02 1603.54 1483.58 Q1604.3 1483.11 1604.3 1481.58 L1604.3 1455.37 Q1601.66 1456.7 1597.66 1456.7 Z" fill="#000000" fill-rule="nonzero" fill-opacity="1" /><path clip-path="url(#clip750)" d="M1957.22 1456.7 L1957.22 1455.12 Q1963.3 1455.12 1966.44 1451.88 Q1967.3 1451.88 1967.45 1452.08 Q1967.6 1452.28 1967.6 1453.19 L1967.6 1481.58 Q1967.6 1483.08 1968.34 1483.55 Q1969.08 1484.02 1972.32 1484.02 L1973.92 1484.02 L1973.92 1485.58 Q1972.14 1485.43 1965.72 1485.43 Q1959.3 1485.43 1957.54 1485.58 L1957.54 1484.02 L1959.15 1484.02 Q1962.34 1484.02 1963.1 1483.58 Q1963.87 1483.11 1963.87 1481.58 L1963.87 1455.37 Q1961.22 1456.7 1957.22 1456.7 Z" fill="#000000" fill-rule="nonzero" fill-opacity="1" /><path clip-path="url(#clip750)" d="M1983.09 1484.76 Q1982.32 1483.95 1982.32 1482.89 Q1982.32 1481.82 1983.09 1481.06 Q1983.85 1480.27 1985.01 1480.27 Q1986.12 1480.27 1986.87 1481.01 Q1987.63 1481.73 1987.63 1482.91 Q1987.63 1484.07 1986.82 1484.84 Q1986.03 1485.58 1985.01 1485.58 Q1983.85 1485.58 1983.09 1484.76 Z" fill="#000000" fill-rule="nonzero" fill-opacity="1" /><path clip-path="url(#clip750)" d="M1994.05 1469.4 Q1994.05 1461.96 1995.93 1457.91 Q1998.55 1451.88 2004.73 1451.88 Q2006.04 1451.88 2007.39 1452.26 Q2008.78 1452.6 2010.51 1453.96 Q2012.26 1455.32 2013.32 1457.54 Q2015.35 1461.84 2015.35 1469.4 Q2015.35 1476.79 2013.47 1480.81 Q2010.73 1486.69 2004.68 1486.69 Q2002.4 1486.69 2000.08 1485.53 Q1997.78 1484.37 1996.33 1481.58 Q1994.05 1477.4 1994.05 1469.4 M1998.25 1468.78 Q1998.25 1476.41 1998.8 1479.45 Q1999.42 1482.74 2001.09 1484.17 Q2002.8 1485.58 2004.68 1485.58 Q2006.7 1485.58 2008.38 1484.07 Q2010.09 1482.54 2010.61 1479.26 Q2011.17 1476.02 2011.15 1468.78 Q2011.15 1461.74 2010.66 1458.92 Q2009.99 1455.64 2008.21 1454.33 Q2006.46 1453 2004.68 1453 Q2004.01 1453 2003.29 1453.19 Q2002.6 1453.39 2001.59 1453.96 Q2000.58 1454.53 1999.79 1455.94 Q1999.02 1457.34 1998.65 1459.47 Q1998.25 1462.21 1998.25 1468.78 Z" fill="#000000" fill-rule="nonzero" fill-opacity="1" /><path clip-path="url(#clip750)" d="M2019.89 1485.58 Q2019.89 1484.67 2019.97 1484.39 Q2020.07 1484.12 2020.46 1483.7 L2030.17 1472.88 Q2035.48 1466.9 2035.48 1461.69 Q2035.48 1458.31 2033.7 1455.89 Q2031.95 1453.47 2028.71 1453.47 Q2026.49 1453.47 2024.61 1454.82 Q2022.74 1456.18 2021.87 1458.6 Q2022.02 1458.55 2022.54 1458.55 Q2023.8 1458.55 2024.49 1459.34 Q2025.21 1460.14 2025.21 1461.2 Q2025.21 1462.56 2024.32 1463.22 Q2023.45 1463.87 2022.59 1463.87 Q2022.24 1463.87 2021.77 1463.79 Q2021.33 1463.72 2020.61 1463.03 Q2019.89 1462.31 2019.89 1461.05 Q2019.89 1457.52 2022.56 1454.7 Q2025.25 1451.88 2029.36 1451.88 Q2034 1451.88 2037.04 1454.65 Q2040.1 1457.39 2040.1 1461.69 Q2040.1 1463.2 2039.63 1464.58 Q2039.19 1465.94 2038.57 1467 Q2037.98 1468.07 2036.35 1469.77 Q2034.72 1471.47 2033.41 1472.68 Q2032.1 1473.9 2029.16 1476.46 L2023.8 1481.68 L2032.91 1481.68 Q2037.36 1481.68 2037.71 1481.28 Q2038.2 1480.57 2038.82 1476.79 L2040.1 1476.79 L2038.67 1485.58 L2019.89 1485.58 Z" fill="#000000" fill-rule="nonzero" fill-opacity="1" /><path clip-path="url(#clip750)" d="M1167.37 1529.06 Q1167.37 1532.06 1165.86 1537.85 Q1165.25 1540.37 1164.41 1542.65 Q1163.61 1544.91 1162.41 1547.1 Q1161.22 1549.29 1159.84 1550.86 Q1158.45 1552.41 1156.65 1553.38 Q1154.85 1554.34 1152.85 1554.34 Q1149.69 1554.34 1147.83 1552.47 Q1145.99 1550.57 1145.41 1547.32 Q1141.09 1554.34 1135.33 1554.34 Q1131.75 1554.34 1130.08 1551.8 Q1128.41 1549.22 1128.41 1544.91 Q1128.41 1541.27 1129.37 1537.5 Q1131.21 1530.35 1134.78 1525.36 Q1135.26 1524.78 1135.97 1524.78 Q1136.39 1524.78 1136.59 1524.91 Q1137.17 1525.26 1137.17 1525.84 Q1137.17 1526.26 1136.84 1526.68 Q1134.59 1529.8 1133.11 1532.48 Q1131.63 1535.15 1130.95 1537.85 Q1130.43 1540.17 1130.43 1542.14 Q1130.43 1545.45 1131.85 1547.52 Q1133.3 1549.58 1136.17 1549.58 Q1138.81 1549.58 1141.13 1547.93 Q1143.45 1546.26 1145.15 1543.46 Q1145.25 1540.4 1145.99 1537.5 Q1146.67 1534.41 1148.24 1534.41 Q1149.5 1534.41 1149.5 1536.11 Q1149.5 1536.69 1149.24 1537.85 Q1148.53 1540.91 1147.25 1543.65 Q1147.7 1546.32 1149.37 1547.97 Q1151.05 1549.58 1153.72 1549.58 Q1156.2 1549.58 1158.39 1547.77 Q1160.61 1545.97 1162.03 1543.33 Q1163.48 1540.66 1164.28 1537.5 Q1164.54 1536.44 1164.54 1535.08 Q1164.54 1531.48 1162.03 1529.25 Q1161.32 1528.55 1161.32 1527.61 Q1161.32 1526.52 1162.22 1525.52 Q1163.28 1524.46 1164.54 1524.46 Q1165.47 1524.46 1166.05 1525.04 Q1167.37 1526.19 1167.37 1529.06 Z" fill="#000000" fill-rule="nonzero" fill-opacity="1" /><polyline clip-path="url(#clip752)" style="stroke:#000000; stroke-linecap:round; stroke-linejoin:round; stroke-width:2; stroke-opacity:0.1; fill:none" points="247.758,1384.24 2049.66,1384.24 "/>
<polyline clip-path="url(#clip752)" style="stroke:#000000; stroke-linecap:round; stroke-linejoin:round; stroke-width:2; stroke-opacity:0.1; fill:none" points="247.758,1136.31 2049.66,1136.31 "/>
<polyline clip-path="url(#clip752)" style="stroke:#000000; stroke-linecap:round; stroke-linejoin:round; stroke-width:2; stroke-opacity:0.1; fill:none" points="247.758,888.39 2049.66,888.39 "/>
<polyline clip-path="url(#clip752)" style="stroke:#000000; stroke-linecap:round; stroke-linejoin:round; stroke-width:2; stroke-opacity:0.1; fill:none" points="247.758,640.465 2049.66,640.465 "/>
<polyline clip-path="url(#clip752)" style="stroke:#000000; stroke-linecap:round; stroke-linejoin:round; stroke-width:2; stroke-opacity:0.1; fill:none" points="247.758,392.541 2049.66,392.541 "/>
<polyline clip-path="url(#clip752)" style="stroke:#000000; stroke-linecap:round; stroke-linejoin:round; stroke-width:2; stroke-opacity:0.1; fill:none" points="247.758,144.617 2049.66,144.617 "/>
<polyline clip-path="url(#clip750)" style="stroke:#000000; stroke-linecap:round; stroke-linejoin:round; stroke-width:4; stroke-opacity:1; fill:none" points="247.758,1423.18 247.758,47.2441 "/>
<polyline clip-path="url(#clip750)" style="stroke:#000000; stroke-linecap:round; stroke-linejoin:round; stroke-width:4; stroke-opacity:1; fill:none" points="247.758,1384.24 263.935,1384.24 "/>
<polyline clip-path="url(#clip750)" style="stroke:#000000; stroke-linecap:round; stroke-linejoin:round; stroke-width:4; stroke-opacity:1; fill:none" points="247.758,1136.31 263.935,1136.31 "/>
<polyline clip-path="url(#clip750)" style="stroke:#000000; stroke-linecap:round; stroke-linejoin:round; stroke-width:4; stroke-opacity:1; fill:none" points="247.758,888.39 263.935,888.39 "/>
<polyline clip-path="url(#clip750)" style="stroke:#000000; stroke-linecap:round; stroke-linejoin:round; stroke-width:4; stroke-opacity:1; fill:none" points="247.758,640.465 263.935,640.465 "/>
<polyline clip-path="url(#clip750)" style="stroke:#000000; stroke-linecap:round; stroke-linejoin:round; stroke-width:4; stroke-opacity:1; fill:none" points="247.758,392.541 263.935,392.541 "/>
<polyline clip-path="url(#clip750)" style="stroke:#000000; stroke-linecap:round; stroke-linejoin:round; stroke-width:4; stroke-opacity:1; fill:none" points="247.758,144.617 263.935,144.617 "/>
<path clip-path="url(#clip750)" d="M125.815 1385.34 Q125.815 1377.9 127.693 1373.85 Q130.311 1367.82 136.487 1367.82 Q137.796 1367.82 139.155 1368.19 Q140.538 1368.54 142.268 1369.9 Q144.022 1371.26 145.084 1373.48 Q147.109 1377.78 147.109 1385.34 Q147.109 1392.72 145.232 1396.75 Q142.49 1402.63 136.438 1402.63 Q134.165 1402.63 131.843 1401.47 Q129.545 1400.31 128.088 1397.52 Q125.815 1393.34 125.815 1385.34 M130.015 1384.72 Q130.015 1392.35 130.558 1395.39 Q131.176 1398.68 132.856 1400.11 Q134.56 1401.52 136.438 1401.52 Q138.463 1401.52 140.143 1400.01 Q141.848 1398.48 142.366 1395.19 Q142.935 1391.96 142.91 1384.72 Q142.91 1377.68 142.416 1374.86 Q141.749 1371.58 139.97 1370.27 Q138.216 1368.93 136.438 1368.93 Q135.771 1368.93 135.054 1369.13 Q134.363 1369.33 133.35 1369.9 Q132.337 1370.47 131.546 1371.87 Q130.781 1373.28 130.41 1375.41 Q130.015 1378.15 130.015 1384.72 Z" fill="#000000" fill-rule="nonzero" fill-opacity="1" /><path clip-path="url(#clip750)" d="M154.199 1400.7 Q153.434 1399.89 153.434 1398.83 Q153.434 1397.76 154.199 1397 Q154.965 1396.21 156.126 1396.21 Q157.238 1396.21 157.979 1396.95 Q158.745 1397.66 158.745 1398.85 Q158.745 1400.01 157.93 1400.78 Q157.139 1401.52 156.126 1401.52 Q154.965 1401.52 154.199 1400.7 Z" fill="#000000" fill-rule="nonzero" fill-opacity="1" /><path clip-path="url(#clip750)" d="M165.168 1385.34 Q165.168 1377.9 167.045 1373.85 Q169.664 1367.82 175.839 1367.82 Q177.149 1367.82 178.507 1368.19 Q179.891 1368.54 181.62 1369.9 Q183.374 1371.26 184.436 1373.48 Q186.462 1377.78 186.462 1385.34 Q186.462 1392.72 184.584 1396.75 Q181.842 1402.63 175.79 1402.63 Q173.517 1402.63 171.195 1401.47 Q168.898 1400.31 167.44 1397.52 Q165.168 1393.34 165.168 1385.34 M169.367 1384.72 Q169.367 1392.35 169.911 1395.39 Q170.528 1398.68 172.208 1400.11 Q173.913 1401.52 175.79 1401.52 Q177.816 1401.52 179.496 1400.01 Q181.2 1398.48 181.719 1395.19 Q182.287 1391.96 182.262 1384.72 Q182.262 1377.68 181.768 1374.86 Q181.101 1371.58 179.323 1370.27 Q177.569 1368.93 175.79 1368.93 Q175.123 1368.93 174.407 1369.13 Q173.715 1369.33 172.702 1369.9 Q171.689 1370.47 170.899 1371.87 Q170.133 1373.28 169.762 1375.41 Q169.367 1378.15 169.367 1384.72 Z" fill="#000000" fill-rule="nonzero" fill-opacity="1" /><path clip-path="url(#clip750)" d="M190.464 1385.34 Q190.464 1377.9 192.341 1373.85 Q194.96 1367.82 201.136 1367.82 Q202.445 1367.82 203.804 1368.19 Q205.187 1368.54 206.916 1369.9 Q208.67 1371.26 209.732 1373.48 Q211.758 1377.78 211.758 1385.34 Q211.758 1392.72 209.881 1396.75 Q207.139 1402.63 201.086 1402.63 Q198.814 1402.63 196.491 1401.47 Q194.194 1400.31 192.737 1397.52 Q190.464 1393.34 190.464 1385.34 M194.663 1384.72 Q194.663 1392.35 195.207 1395.39 Q195.824 1398.68 197.504 1400.11 Q199.209 1401.52 201.086 1401.52 Q203.112 1401.52 204.792 1400.01 Q206.496 1398.48 207.015 1395.19 Q207.583 1391.96 207.559 1384.72 Q207.559 1377.68 207.065 1374.86 Q206.398 1371.58 204.619 1370.27 Q202.865 1368.93 201.086 1368.93 Q200.419 1368.93 199.703 1369.13 Q199.011 1369.33 197.998 1369.9 Q196.986 1370.47 196.195 1371.87 Q195.429 1373.28 195.059 1375.41 Q194.663 1378.15 194.663 1384.72 Z" fill="#000000" fill-rule="nonzero" fill-opacity="1" /><path clip-path="url(#clip750)" d="M126.359 1137.41 Q126.359 1129.98 128.236 1125.93 Q130.855 1119.9 137.03 1119.9 Q138.34 1119.9 139.698 1120.27 Q141.082 1120.62 142.811 1121.97 Q144.565 1123.33 145.627 1125.56 Q147.653 1129.85 147.653 1137.41 Q147.653 1144.8 145.775 1148.83 Q143.033 1154.71 136.981 1154.71 Q134.708 1154.71 132.386 1153.54 Q130.089 1152.38 128.631 1149.59 Q126.359 1145.42 126.359 1137.41 M130.558 1136.8 Q130.558 1144.43 131.102 1147.47 Q131.719 1150.75 133.399 1152.19 Q135.104 1153.59 136.981 1153.59 Q139.007 1153.59 140.687 1152.09 Q142.391 1150.56 142.91 1147.27 Q143.478 1144.03 143.453 1136.8 Q143.453 1129.76 142.959 1126.94 Q142.292 1123.65 140.514 1122.34 Q138.76 1121.01 136.981 1121.01 Q136.314 1121.01 135.598 1121.21 Q134.906 1121.41 133.893 1121.97 Q132.88 1122.54 132.09 1123.95 Q131.324 1125.36 130.953 1127.48 Q130.558 1130.22 130.558 1136.8 Z" fill="#000000" fill-rule="nonzero" fill-opacity="1" /><path clip-path="url(#clip750)" d="M154.743 1152.78 Q153.977 1151.96 153.977 1150.9 Q153.977 1149.84 154.743 1149.07 Q155.509 1148.28 156.67 1148.28 Q157.781 1148.28 158.522 1149.02 Q159.288 1149.74 159.288 1150.93 Q159.288 1152.09 158.473 1152.85 Q157.682 1153.59 156.67 1153.59 Q155.509 1153.59 154.743 1152.78 Z" fill="#000000" fill-rule="nonzero" fill-opacity="1" /><path clip-path="url(#clip750)" d="M165.711 1137.41 Q165.711 1129.98 167.589 1125.93 Q170.207 1119.9 176.383 1119.9 Q177.692 1119.9 179.051 1120.27 Q180.434 1120.62 182.164 1121.97 Q183.917 1123.33 184.98 1125.56 Q187.005 1129.85 187.005 1137.41 Q187.005 1144.8 185.128 1148.83 Q182.386 1154.71 176.334 1154.71 Q174.061 1154.71 171.739 1153.54 Q169.441 1152.38 167.984 1149.59 Q165.711 1145.42 165.711 1137.41 M169.911 1136.8 Q169.911 1144.43 170.454 1147.47 Q171.072 1150.75 172.752 1152.19 Q174.456 1153.59 176.334 1153.59 Q178.359 1153.59 180.039 1152.09 Q181.744 1150.56 182.262 1147.27 Q182.831 1144.03 182.806 1136.8 Q182.806 1129.76 182.312 1126.94 Q181.645 1123.65 179.866 1122.34 Q178.112 1121.01 176.334 1121.01 Q175.667 1121.01 174.95 1121.21 Q174.258 1121.41 173.246 1121.97 Q172.233 1122.54 171.442 1123.95 Q170.676 1125.36 170.306 1127.48 Q169.911 1130.22 169.911 1136.8 Z" fill="#000000" fill-rule="nonzero" fill-opacity="1" /><path clip-path="url(#clip750)" d="M191.551 1145.44 Q191.551 1143.93 192.366 1143.37 Q193.181 1142.77 194.046 1142.77 Q195.207 1142.77 195.874 1143.52 Q196.566 1144.23 196.566 1145.24 Q196.566 1146.26 195.874 1147 Q195.207 1147.71 194.046 1147.71 Q193.478 1147.71 193.181 1147.62 Q193.848 1149.94 195.874 1151.62 Q197.924 1153.3 200.617 1153.3 Q204.001 1153.3 206.027 1150.01 Q207.237 1147.89 207.237 1143.07 Q207.237 1138.82 206.323 1136.7 Q204.915 1133.46 202.025 1133.46 Q197.924 1133.46 195.503 1136.99 Q195.207 1137.44 194.861 1137.46 Q194.367 1137.46 194.243 1137.19 Q194.145 1136.89 194.145 1136.13 L194.145 1121.16 Q194.145 1119.95 194.639 1119.95 Q194.836 1119.95 195.256 1120.1 Q198.443 1121.5 201.976 1121.53 Q205.607 1121.53 208.868 1120.05 Q209.115 1119.9 209.263 1119.9 Q209.757 1119.9 209.782 1120.47 Q209.782 1120.66 209.362 1121.26 Q208.967 1121.83 208.102 1122.59 Q207.237 1123.33 206.126 1124.05 Q205.014 1124.77 203.384 1125.26 Q201.778 1125.73 199.999 1125.73 Q197.875 1125.73 195.701 1125.06 L195.701 1134.92 Q198.32 1132.35 202.124 1132.35 Q206.175 1132.35 208.967 1135.61 Q211.758 1138.87 211.758 1143.42 Q211.758 1148.18 208.448 1151.44 Q205.162 1154.71 200.716 1154.71 Q196.664 1154.71 194.095 1151.82 Q191.551 1148.93 191.551 1145.44 Z" fill="#000000" fill-rule="nonzero" fill-opacity="1" /><path clip-path="url(#clip750)" d="M125.815 889.489 Q125.815 882.053 127.693 878.002 Q130.311 871.974 136.487 871.974 Q137.796 871.974 139.155 872.345 Q140.538 872.691 142.268 874.049 Q144.022 875.408 145.084 877.631 Q147.109 881.93 147.109 889.489 Q147.109 896.875 145.232 900.902 Q142.49 906.781 136.438 906.781 Q134.165 906.781 131.843 905.62 Q129.545 904.459 128.088 901.668 Q125.815 897.493 125.815 889.489 M130.015 888.871 Q130.015 896.505 130.558 899.543 Q131.176 902.829 132.856 904.262 Q134.56 905.67 136.438 905.67 Q138.463 905.67 140.143 904.163 Q141.848 902.631 142.366 899.346 Q142.935 896.11 142.91 888.871 Q142.91 881.831 142.416 879.015 Q141.749 875.729 139.97 874.42 Q138.216 873.086 136.438 873.086 Q135.771 873.086 135.054 873.284 Q134.363 873.481 133.35 874.049 Q132.337 874.618 131.546 876.026 Q130.781 877.434 130.41 879.558 Q130.015 882.3 130.015 888.871 Z" fill="#000000" fill-rule="nonzero" fill-opacity="1" /><path clip-path="url(#clip750)" d="M154.199 904.855 Q153.434 904.039 153.434 902.977 Q153.434 901.915 154.199 901.149 Q154.965 900.358 156.126 900.358 Q157.238 900.358 157.979 901.1 Q158.745 901.816 158.745 903.002 Q158.745 904.163 157.93 904.929 Q157.139 905.67 156.126 905.67 Q154.965 905.67 154.199 904.855 Z" fill="#000000" fill-rule="nonzero" fill-opacity="1" /><path clip-path="url(#clip750)" d="M167.687 876.791 L167.687 875.21 Q173.764 875.21 176.902 871.974 Q177.766 871.974 177.915 872.172 Q178.063 872.37 178.063 873.284 L178.063 901.668 Q178.063 903.175 178.804 903.644 Q179.545 904.113 182.781 904.113 L184.387 904.113 L184.387 905.67 Q182.608 905.521 176.185 905.521 Q169.762 905.521 168.009 905.67 L168.009 904.113 L169.614 904.113 Q172.801 904.113 173.567 903.669 Q174.333 903.199 174.333 901.668 L174.333 875.458 Q171.689 876.791 167.687 876.791 Z" fill="#000000" fill-rule="nonzero" fill-opacity="1" /><path clip-path="url(#clip750)" d="M190.464 889.489 Q190.464 882.053 192.341 878.002 Q194.96 871.974 201.136 871.974 Q202.445 871.974 203.804 872.345 Q205.187 872.691 206.916 874.049 Q208.67 875.408 209.732 877.631 Q211.758 881.93 211.758 889.489 Q211.758 896.875 209.881 900.902 Q207.139 906.781 201.086 906.781 Q198.814 906.781 196.491 905.62 Q194.194 904.459 192.737 901.668 Q190.464 897.493 190.464 889.489 M194.663 888.871 Q194.663 896.505 195.207 899.543 Q195.824 902.829 197.504 904.262 Q199.209 905.67 201.086 905.67 Q203.112 905.67 204.792 904.163 Q206.496 902.631 207.015 899.346 Q207.583 896.11 207.559 888.871 Q207.559 881.831 207.065 879.015 Q206.398 875.729 204.619 874.42 Q202.865 873.086 201.086 873.086 Q200.419 873.086 199.703 873.284 Q199.011 873.481 197.998 874.049 Q196.986 874.618 196.195 876.026 Q195.429 877.434 195.059 879.558 Q194.663 882.3 194.663 888.871 Z" fill="#000000" fill-rule="nonzero" fill-opacity="1" /><path clip-path="url(#clip750)" d="M126.359 641.565 Q126.359 634.129 128.236 630.078 Q130.855 624.05 137.03 624.05 Q138.34 624.05 139.698 624.421 Q141.082 624.766 142.811 626.125 Q144.565 627.484 145.627 629.707 Q147.653 634.006 147.653 641.565 Q147.653 648.951 145.775 652.978 Q143.033 658.857 136.981 658.857 Q134.708 658.857 132.386 657.696 Q130.089 656.535 128.631 653.744 Q126.359 649.569 126.359 641.565 M130.558 640.947 Q130.558 648.581 131.102 651.619 Q131.719 654.905 133.399 656.337 Q135.104 657.745 136.981 657.745 Q139.007 657.745 140.687 656.239 Q142.391 654.707 142.91 651.421 Q143.478 648.185 143.453 640.947 Q143.453 633.907 142.959 631.091 Q142.292 627.805 140.514 626.496 Q138.76 625.162 136.981 625.162 Q136.314 625.162 135.598 625.359 Q134.906 625.557 133.893 626.125 Q132.88 626.693 132.09 628.101 Q131.324 629.51 130.953 631.634 Q130.558 634.376 130.558 640.947 Z" fill="#000000" fill-rule="nonzero" fill-opacity="1" /><path clip-path="url(#clip750)" d="M154.743 656.93 Q153.977 656.115 153.977 655.053 Q153.977 653.991 154.743 653.225 Q155.509 652.434 156.67 652.434 Q157.781 652.434 158.522 653.175 Q159.288 653.892 159.288 655.077 Q159.288 656.239 158.473 657.004 Q157.682 657.745 156.67 657.745 Q155.509 657.745 154.743 656.93 Z" fill="#000000" fill-rule="nonzero" fill-opacity="1" /><path clip-path="url(#clip750)" d="M168.231 628.867 L168.231 627.286 Q174.308 627.286 177.445 624.05 Q178.31 624.05 178.458 624.248 Q178.606 624.445 178.606 625.359 L178.606 653.744 Q178.606 655.25 179.347 655.72 Q180.088 656.189 183.325 656.189 L184.93 656.189 L184.93 657.745 Q183.152 657.597 176.729 657.597 Q170.306 657.597 168.552 657.745 L168.552 656.189 L170.158 656.189 Q173.344 656.189 174.11 655.744 Q174.876 655.275 174.876 653.744 L174.876 627.533 Q172.233 628.867 168.231 628.867 Z" fill="#000000" fill-rule="nonzero" fill-opacity="1" /><path clip-path="url(#clip750)" d="M191.551 649.593 Q191.551 648.086 192.366 647.518 Q193.181 646.925 194.046 646.925 Q195.207 646.925 195.874 647.666 Q196.566 648.383 196.566 649.396 Q196.566 650.409 195.874 651.15 Q195.207 651.866 194.046 651.866 Q193.478 651.866 193.181 651.767 Q193.848 654.089 195.874 655.769 Q197.924 657.449 200.617 657.449 Q204.001 657.449 206.027 654.163 Q207.237 652.039 207.237 647.222 Q207.237 642.973 206.323 640.848 Q204.915 637.612 202.025 637.612 Q197.924 637.612 195.503 641.145 Q195.207 641.589 194.861 641.614 Q194.367 641.614 194.243 641.342 Q194.145 641.046 194.145 640.28 L194.145 625.31 Q194.145 624.099 194.639 624.099 Q194.836 624.099 195.256 624.248 Q198.443 625.656 201.976 625.68 Q205.607 625.68 208.868 624.198 Q209.115 624.05 209.263 624.05 Q209.757 624.05 209.782 624.618 Q209.782 624.816 209.362 625.409 Q208.967 625.977 208.102 626.743 Q207.237 627.484 206.126 628.2 Q205.014 628.917 203.384 629.411 Q201.778 629.88 199.999 629.88 Q197.875 629.88 195.701 629.213 L195.701 639.07 Q198.32 636.501 202.124 636.501 Q206.175 636.501 208.967 639.761 Q211.758 643.022 211.758 647.568 Q211.758 652.335 208.448 655.596 Q205.162 658.857 200.716 658.857 Q196.664 658.857 194.095 655.967 Q191.551 653.077 191.551 649.593 Z" fill="#000000" fill-rule="nonzero" fill-opacity="1" /><path clip-path="url(#clip750)" d="M125.815 393.64 Q125.815 386.205 127.693 382.153 Q130.311 376.126 136.487 376.126 Q137.796 376.126 139.155 376.496 Q140.538 376.842 142.268 378.201 Q144.022 379.56 145.084 381.783 Q147.109 386.081 147.109 393.64 Q147.109 401.027 145.232 405.053 Q142.49 410.933 136.438 410.933 Q134.165 410.933 131.843 409.772 Q129.545 408.611 128.088 405.819 Q125.815 401.644 125.815 393.64 M130.015 393.023 Q130.015 400.656 130.558 403.695 Q131.176 406.98 132.856 408.413 Q134.56 409.821 136.438 409.821 Q138.463 409.821 140.143 408.314 Q141.848 406.783 142.366 403.497 Q142.935 400.261 142.91 393.023 Q142.91 385.982 142.416 383.166 Q141.749 379.881 139.97 378.571 Q138.216 377.237 136.438 377.237 Q135.771 377.237 135.054 377.435 Q134.363 377.633 133.35 378.201 Q132.337 378.769 131.546 380.177 Q130.781 381.585 130.41 383.71 Q130.015 386.452 130.015 393.023 Z" fill="#000000" fill-rule="nonzero" fill-opacity="1" /><path clip-path="url(#clip750)" d="M154.199 409.006 Q153.434 408.191 153.434 407.129 Q153.434 406.066 154.199 405.3 Q154.965 404.51 156.126 404.51 Q157.238 404.51 157.979 405.251 Q158.745 405.967 158.745 407.153 Q158.745 408.314 157.93 409.08 Q157.139 409.821 156.126 409.821 Q154.965 409.821 154.199 409.006 Z" fill="#000000" fill-rule="nonzero" fill-opacity="1" /><path clip-path="url(#clip750)" d="M165.711 409.821 Q165.711 408.907 165.785 408.635 Q165.884 408.364 166.279 407.944 L175.988 397.124 Q181.299 391.145 181.299 385.933 Q181.299 382.549 179.52 380.128 Q177.766 377.707 174.53 377.707 Q172.307 377.707 170.429 379.065 Q168.552 380.424 167.687 382.845 Q167.836 382.796 168.354 382.796 Q169.614 382.796 170.306 383.586 Q171.022 384.377 171.022 385.439 Q171.022 386.798 170.133 387.465 Q169.268 388.107 168.404 388.107 Q168.058 388.107 167.589 388.033 Q167.144 387.959 166.427 387.267 Q165.711 386.551 165.711 385.291 Q165.711 381.758 168.379 378.942 Q171.072 376.126 175.172 376.126 Q179.817 376.126 182.855 378.893 Q185.918 381.635 185.918 385.933 Q185.918 387.44 185.449 388.823 Q185.004 390.182 184.387 391.244 Q183.794 392.306 182.164 394.011 Q180.533 395.716 179.224 396.926 Q177.915 398.136 174.975 400.706 L169.614 405.918 L178.73 405.918 Q183.176 405.918 183.522 405.523 Q184.016 404.806 184.634 401.027 L185.918 401.027 L184.486 409.821 L165.711 409.821 Z" fill="#000000" fill-rule="nonzero" fill-opacity="1" /><path clip-path="url(#clip750)" d="M190.464 393.64 Q190.464 386.205 192.341 382.153 Q194.96 376.126 201.136 376.126 Q202.445 376.126 203.804 376.496 Q205.187 376.842 206.916 378.201 Q208.67 379.56 209.732 381.783 Q211.758 386.081 211.758 393.64 Q211.758 401.027 209.881 405.053 Q207.139 410.933 201.086 410.933 Q198.814 410.933 196.491 409.772 Q194.194 408.611 192.737 405.819 Q190.464 401.644 190.464 393.64 M194.663 393.023 Q194.663 400.656 195.207 403.695 Q195.824 406.98 197.504 408.413 Q199.209 409.821 201.086 409.821 Q203.112 409.821 204.792 408.314 Q206.496 406.783 207.015 403.497 Q207.583 400.261 207.559 393.023 Q207.559 385.982 207.065 383.166 Q206.398 379.881 204.619 378.571 Q202.865 377.237 201.086 377.237 Q200.419 377.237 199.703 377.435 Q199.011 377.633 197.998 378.201 Q196.986 378.769 196.195 380.177 Q195.429 381.585 195.059 383.71 Q194.663 386.452 194.663 393.023 Z" fill="#000000" fill-rule="nonzero" fill-opacity="1" /><path clip-path="url(#clip750)" d="M126.359 145.716 Q126.359 138.28 128.236 134.229 Q130.855 128.202 137.03 128.202 Q138.34 128.202 139.698 128.572 Q141.082 128.918 142.811 130.277 Q144.565 131.635 145.627 133.859 Q147.653 138.157 147.653 145.716 Q147.653 153.103 145.775 157.129 Q143.033 163.009 136.981 163.009 Q134.708 163.009 132.386 161.847 Q130.089 160.686 128.631 157.895 Q126.359 153.72 126.359 145.716 M130.558 145.099 Q130.558 152.732 131.102 155.77 Q131.719 159.056 133.399 160.489 Q135.104 161.897 136.981 161.897 Q139.007 161.897 140.687 160.39 Q142.391 158.858 142.91 155.573 Q143.478 152.337 143.453 145.099 Q143.453 138.058 142.959 135.242 Q142.292 131.956 140.514 130.647 Q138.76 129.313 136.981 129.313 Q136.314 129.313 135.598 129.511 Q134.906 129.708 133.893 130.277 Q132.88 130.845 132.09 132.253 Q131.324 133.661 130.953 135.785 Q130.558 138.528 130.558 145.099 Z" fill="#000000" fill-rule="nonzero" fill-opacity="1" /><path clip-path="url(#clip750)" d="M154.743 161.082 Q153.977 160.266 153.977 159.204 Q153.977 158.142 154.743 157.376 Q155.509 156.586 156.67 156.586 Q157.781 156.586 158.522 157.327 Q159.288 158.043 159.288 159.229 Q159.288 160.39 158.473 161.156 Q157.682 161.897 156.67 161.897 Q155.509 161.897 154.743 161.082 Z" fill="#000000" fill-rule="nonzero" fill-opacity="1" /><path clip-path="url(#clip750)" d="M166.255 161.897 Q166.255 160.983 166.329 160.711 Q166.427 160.439 166.823 160.019 L176.531 149.199 Q181.842 143.221 181.842 138.009 Q181.842 134.624 180.064 132.203 Q178.31 129.783 175.074 129.783 Q172.85 129.783 170.973 131.141 Q169.095 132.5 168.231 134.921 Q168.379 134.871 168.898 134.871 Q170.158 134.871 170.849 135.662 Q171.566 136.452 171.566 137.515 Q171.566 138.873 170.676 139.54 Q169.812 140.183 168.947 140.183 Q168.601 140.183 168.132 140.109 Q167.687 140.034 166.971 139.343 Q166.255 138.626 166.255 137.366 Q166.255 133.834 168.923 131.018 Q171.615 128.202 175.716 128.202 Q180.36 128.202 183.399 130.968 Q186.462 133.71 186.462 138.009 Q186.462 139.516 185.993 140.899 Q185.548 142.258 184.93 143.32 Q184.337 144.382 182.707 146.087 Q181.077 147.791 179.767 149.002 Q178.458 150.212 175.518 152.781 L170.158 157.994 L179.273 157.994 Q183.72 157.994 184.066 157.599 Q184.56 156.882 185.177 153.103 L186.462 153.103 L185.029 161.897 L166.255 161.897 Z" fill="#000000" fill-rule="nonzero" fill-opacity="1" /><path clip-path="url(#clip750)" d="M191.551 153.745 Q191.551 152.238 192.366 151.67 Q193.181 151.077 194.046 151.077 Q195.207 151.077 195.874 151.818 Q196.566 152.534 196.566 153.547 Q196.566 154.56 195.874 155.301 Q195.207 156.018 194.046 156.018 Q193.478 156.018 193.181 155.919 Q193.848 158.241 195.874 159.921 Q197.924 161.6 200.617 161.6 Q204.001 161.6 206.027 158.315 Q207.237 156.19 207.237 151.373 Q207.237 147.124 206.323 145 Q204.915 141.764 202.025 141.764 Q197.924 141.764 195.503 145.296 Q195.207 145.741 194.861 145.766 Q194.367 145.766 194.243 145.494 Q194.145 145.197 194.145 144.432 L194.145 129.461 Q194.145 128.251 194.639 128.251 Q194.836 128.251 195.256 128.399 Q198.443 129.807 201.976 129.832 Q205.607 129.832 208.868 128.35 Q209.115 128.202 209.263 128.202 Q209.757 128.202 209.782 128.77 Q209.782 128.967 209.362 129.56 Q208.967 130.128 208.102 130.894 Q207.237 131.635 206.126 132.352 Q205.014 133.068 203.384 133.562 Q201.778 134.032 199.999 134.032 Q197.875 134.032 195.701 133.365 L195.701 143.221 Q198.32 140.652 202.124 140.652 Q206.175 140.652 208.967 143.913 Q211.758 147.174 211.758 151.719 Q211.758 156.487 208.448 159.748 Q205.162 163.009 200.716 163.009 Q196.664 163.009 194.095 160.118 Q191.551 157.228 191.551 153.745 Z" fill="#000000" fill-rule="nonzero" fill-opacity="1" /><path clip-path="url(#clip750)" d="M73.3055 903.651 L54.5359 891.481 L79.4417 886.531 L83.9794 885.603 Q82.7934 885.397 80.7824 884.778 Q78.7198 884.108 78.2041 884.004 L15.4498 867.658 Q15.0373 867.555 14.367 867.401 Q13.6451 867.194 13.3873 867.091 Q13.1294 866.988 12.6138 866.833 Q12.0981 866.679 11.9434 866.576 Q11.7372 866.472 11.3762 866.318 Q11.0153 866.163 10.9121 865.957 Q10.809 865.751 10.6028 865.493 Q10.3965 865.235 10.3449 864.926 Q10.2934 864.565 10.2418 864.204 Q10.1902 863.843 10.1902 863.327 L10.1902 854.097 Q10.1902 850.848 12.3044 850.848 Q14.4186 850.848 14.4186 853.994 L14.4186 863.018 L95.8393 884.314 Q97.0253 884.623 97.4893 884.881 Q97.9534 885.087 98.3659 885.809 Q98.7785 886.531 98.7785 887.82 L98.7785 888.852 L65.2098 895.607 L75.0071 901.949 L73.3055 903.651 Z" fill="#000000" fill-rule="nonzero" fill-opacity="1" /><path clip-path="url(#clip750)" d="M14.4507 854.316 L14.4507 566.773 L10.0639 566.773 L10.0639 854.316  Z" fill="#000000" fill-rule="evenodd" fill-opacity="1"/>
<path clip-path="url(#clip750)" d="M83.8526 813.363 Q88.0072 814.2 90.3904 815.328 Q94.0297 817.163 94.0297 820.223 Q94.0297 822.349 92.8381 823.959 Q91.6142 825.537 89.5853 826.084 Q90.3904 826.696 90.9379 827.244 Q91.4854 827.759 92.3228 828.758 Q93.1279 829.756 93.5788 831.109 Q94.0297 832.429 94.0297 833.943 Q94.0297 835.102 93.8042 836.165 Q93.611 837.228 93.0635 838.355 Q92.4838 839.45 91.6142 840.255 Q90.7447 841.028 89.3276 841.543 Q87.9106 842.059 86.107 842.059 Q83.8526 842.059 80.7931 841.189 Q77.7335 840.287 72.2585 838.226 Q69.36 837.099 67.7497 837.099 Q67.009 837.099 66.5259 837.26 Q66.0428 837.421 65.8818 837.743 Q65.6885 838.033 65.6563 838.226 Q65.5919 838.419 65.5919 838.741 Q65.5919 840.738 67.6209 842.477 Q69.6498 844.216 73.7722 845.408 Q74.5773 845.666 74.7706 845.827 Q74.9638 845.988 74.9638 846.471 Q74.9316 847.276 74.2875 847.276 Q74.0298 847.276 73.0315 846.986 Q72.0009 846.696 70.4872 846.02 Q68.9413 845.311 67.5565 844.345 Q66.1394 843.379 65.141 841.865 Q64.1426 840.319 64.1426 838.548 Q64.1426 836.133 65.7207 834.651 Q67.2666 833.137 69.5532 833.137 Q70.9703 833.137 73.7078 834.265 Q83.2085 837.84 87.1698 837.84 Q92.5482 837.84 92.5482 833.749 Q92.5482 832.397 92.0007 831.141 Q91.4532 829.852 90.6803 829.015 Q89.9073 828.178 89.07 827.534 Q88.2326 826.857 87.6851 826.568 Q87.1376 826.245 87.0088 826.213 L67.17 821.286 Q66.3971 821.093 65.8818 820.738 Q65.3343 820.352 65.141 819.901 Q64.9478 819.45 64.9156 819.192 Q64.8512 818.935 64.8512 818.709 Q64.8512 817.904 65.3343 817.357 Q65.8173 816.777 66.6547 816.777 Q66.8157 816.777 67.5887 816.97 Q68.3294 817.131 69.4244 817.389 Q70.4872 817.646 71.0669 817.775 Q75.1248 818.806 75.5435 818.903 L82.661 820.738 Q83.0797 820.835 84.4323 821.157 Q85.785 821.447 86.4935 821.608 Q87.1698 821.769 88.1038 821.93 Q89.0056 822.059 89.5209 822.059 Q91.1312 822.059 91.8397 821.576 Q92.5482 821.093 92.5482 820.03 Q92.5482 819.031 91.8719 818.258 Q91.1634 817.453 89.8107 816.841 Q88.4259 816.229 87.2987 815.875 Q86.1714 815.521 84.4001 815.07 Q83.6272 814.909 83.434 814.78 Q83.2085 814.619 83.2085 814.168 Q83.2085 813.363 83.8526 813.363 Z" fill="#000000" fill-rule="nonzero" fill-opacity="1" /><path clip-path="url(#clip750)" d="M55.6403 809.923 L53.5791 809.923 Q53.5791 802 49.3601 797.91 Q49.3601 796.783 49.6178 796.59 Q49.8754 796.396 51.0671 796.396 L88.0716 796.396 Q90.0362 796.396 90.6481 795.43 Q91.26 794.464 91.26 790.245 L91.26 788.152 L93.2889 788.152 Q93.0957 790.47 93.0957 798.844 Q93.0957 807.217 93.2889 809.504 L91.26 809.504 L91.26 807.411 Q91.26 803.256 90.6803 802.258 Q90.0684 801.259 88.0716 801.259 L53.9012 801.259 Q55.6403 804.705 55.6403 809.923 Z" fill="#000000" fill-rule="nonzero" fill-opacity="1" /><path clip-path="url(#clip750)" d="M58.9116 781.32 Q58.0775 781.32 57.8295 781.253 Q57.5815 781.162 57.1982 780.802 L47.3239 771.942 Q41.8683 767.095 37.1115 767.095 Q34.0229 767.095 31.8136 768.718 Q29.6043 770.319 29.6043 773.272 Q29.6043 775.301 30.8442 777.014 Q32.0841 778.728 34.2934 779.517 Q34.2484 779.381 34.2484 778.908 Q34.2484 777.758 34.9698 777.127 Q35.6912 776.473 36.6606 776.473 Q37.9005 776.473 38.5092 777.285 Q39.0953 778.074 39.0953 778.863 Q39.0953 779.179 39.0277 779.607 Q38.9601 780.013 38.3288 780.666 Q37.6751 781.32 36.5253 781.32 Q33.3015 781.32 30.7315 778.885 Q28.1614 776.428 28.1614 772.686 Q28.1614 768.448 30.6864 765.675 Q33.1888 762.879 37.1115 762.879 Q38.4866 762.879 39.7491 763.307 Q40.989 763.713 41.9584 764.277 Q42.9278 764.818 44.4834 766.306 Q46.0389 767.794 47.1436 768.989 Q48.2482 770.183 50.5928 772.866 L55.3496 777.758 L55.3496 769.439 Q55.3496 765.382 54.9889 765.066 Q54.3351 764.615 50.8859 764.051 L50.8859 762.879 L58.9116 764.187 L58.9116 781.32 Z" fill="#000000" fill-rule="nonzero" fill-opacity="1" /><path clip-path="url(#clip750)" d="M77.6047 731.599 Q77.6047 733.113 76.7995 733.113 Q75.9944 733.113 75.9944 731.535 Q75.9944 731.341 76.0266 731.019 Q76.0588 730.665 76.0588 730.601 L76.0588 712.018 L57.4116 712.018 Q57.3472 712.018 57.0574 712.05 Q56.7353 712.082 56.5421 712.082 Q54.964 712.082 54.964 711.309 Q54.964 710.504 56.5421 710.504 L76.0588 710.504 L76.0588 691.889 Q76.0588 691.825 76.0266 691.503 Q75.9944 691.181 75.9944 690.988 Q75.9944 689.474 76.7995 689.474 Q77.6047 689.442 77.6047 691.052 Q77.6047 691.245 77.5725 691.535 Q77.5403 691.825 77.5403 691.889 L77.5403 710.504 L97.1214 710.504 Q98.6351 710.504 98.6351 711.309 Q98.6351 712.082 97.057 712.082 Q96.8638 712.082 96.5417 712.05 Q96.2519 712.018 96.1875 712.018 L77.5403 712.018 L77.5403 730.601 Q77.5403 730.665 77.5725 731.052 Q77.6047 731.406 77.6047 731.599 Z" fill="#000000" fill-rule="nonzero" fill-opacity="1" /><path clip-path="url(#clip750)" d="M68.7481 635.043 Q69.5854 635.043 71.2279 635.268 Q72.8704 635.494 75.2537 636.041 Q77.6369 636.589 80.149 637.394 Q82.661 638.167 85.1731 639.391 Q87.6529 640.614 89.6175 642.064 Q91.582 643.513 92.8059 645.542 Q94.0297 647.571 94.0297 649.857 Q94.0297 650.92 93.8687 651.951 Q93.7076 652.981 93.1923 654.27 Q92.677 655.558 91.8397 656.492 Q90.9701 657.426 89.4242 658.07 Q87.8784 658.714 85.8494 658.714 Q83.756 658.714 80.9541 657.941 Q78.12 657.136 72.3229 654.946 Q69.3278 653.819 67.6853 653.819 Q66.9446 653.819 66.4937 653.98 Q66.0106 654.141 65.8496 654.463 Q65.6563 654.785 65.6241 654.978 Q65.5919 655.139 65.5919 655.461 Q65.5919 657.233 67.4276 659.036 Q69.2634 660.84 73.7722 662.128 Q74.5773 662.386 74.7706 662.547 Q74.9638 662.708 74.9638 663.191 Q74.9316 663.996 74.2875 663.996 Q74.0943 663.996 73.3535 663.77 Q72.5806 663.545 71.4212 663.126 Q70.2295 662.708 69.0057 661.967 Q67.7497 661.226 66.6547 660.324 Q65.5597 659.39 64.8512 658.07 Q64.1426 656.75 64.1426 655.268 Q64.1426 652.853 65.7207 651.371 Q67.2666 649.857 69.5532 649.857 Q70.8093 649.857 72.8382 650.663 Q76.5097 652.015 78.281 652.627 Q80.0523 653.239 82.5644 653.883 Q85.0765 654.495 86.8156 654.495 Q89.4564 654.495 91.0023 653.271 Q92.5482 652.047 92.5482 649.6 Q92.5482 647.41 90.9701 645.445 Q89.3598 643.449 87.0732 642.128 Q84.7544 640.808 82.1779 639.809 Q79.5692 638.811 77.6047 638.36 Q75.6079 637.877 74.674 637.877 Q71.4212 637.877 69.2956 640.099 Q68.6837 640.711 68.2972 640.936 Q67.9107 641.162 67.2988 641.162 Q66.1716 641.162 65.1732 640.164 Q64.1426 639.133 64.1426 637.941 Q64.1426 636.846 65.2376 635.945 Q66.3326 635.043 68.7481 635.043 Z" fill="#000000" fill-rule="nonzero" fill-opacity="1" /><path clip-path="url(#clip750)" d="M55.6403 632.321 L53.5791 632.321 Q53.5791 624.398 49.3601 620.308 Q49.3601 619.181 49.6178 618.987 Q49.8754 618.794 51.0671 618.794 L88.0716 618.794 Q90.0362 618.794 90.6481 617.828 Q91.26 616.862 91.26 612.643 L91.26 610.55 L93.2889 610.55 Q93.0957 612.868 93.0957 621.242 Q93.0957 629.615 93.2889 631.902 L91.26 631.902 L91.26 629.809 Q91.26 625.654 90.6803 624.656 Q90.0684 623.657 88.0716 623.657 L53.9012 623.657 Q55.6403 627.103 55.6403 632.321 Z" fill="#000000" fill-rule="nonzero" fill-opacity="1" /><path clip-path="url(#clip750)" d="M58.9116 603.718 Q58.0775 603.718 57.8295 603.651 Q57.5815 603.56 57.1982 603.2 L47.3239 594.34 Q41.8683 589.493 37.1115 589.493 Q34.0229 589.493 31.8136 591.116 Q29.6043 592.717 29.6043 595.67 Q29.6043 597.699 30.8442 599.412 Q32.0841 601.126 34.2934 601.915 Q34.2484 601.779 34.2484 601.306 Q34.2484 600.156 34.9698 599.525 Q35.6912 598.871 36.6606 598.871 Q37.9005 598.871 38.5092 599.683 Q39.0953 600.472 39.0953 601.261 Q39.0953 601.576 39.0277 602.005 Q38.9601 602.411 38.3288 603.064 Q37.6751 603.718 36.5253 603.718 Q33.3015 603.718 30.7315 601.283 Q28.1614 598.826 28.1614 595.084 Q28.1614 590.845 30.6864 588.073 Q33.1888 585.277 37.1115 585.277 Q38.4866 585.277 39.7491 585.705 Q40.989 586.111 41.9584 586.675 Q42.9278 587.216 44.4834 588.704 Q46.0389 590.192 47.1436 591.387 Q48.2482 592.581 50.5928 595.264 L55.3496 600.156 L55.3496 591.837 Q55.3496 587.779 54.9889 587.464 Q54.3351 587.013 50.8859 586.449 L50.8859 585.277 L58.9116 586.585 L58.9116 603.718 Z" fill="#000000" fill-rule="nonzero" fill-opacity="1" /><polyline clip-path="url(#clip752)" style="stroke:#009af9; stroke-linecap:round; stroke-linejoin:round; stroke-width:8; stroke-opacity:1; fill:none" points="912.768,1312.52 918.454,1266.65 924.139,1234.2 929.824,1207.6 935.51,1184.52 941.195,1163.84 946.88,1144.94 952.565,1127.42 958.251,1111.02 963.936,1095.55 969.621,1080.86 975.307,1066.85 980.992,1053.44 986.677,1040.54 992.363,1028.11 998.048,1016.1 1003.73,1004.46 1009.42,993.172 1015.1,982.198 1020.79,971.513 1026.47,961.097 1032.16,950.931 1037.85,940.995 1043.53,931.277 1049.22,921.761 1054.9,912.436 1060.59,903.291 1066.27,894.315 1071.96,885.499 1077.64,876.836 1083.33,868.317 1089.01,859.935 1094.7,851.684 1100.38,843.557 1106.07,835.55 1111.75,827.657 1117.44,819.874 1123.12,812.195 1128.81,804.617 1134.5,797.136 1140.18,789.748 1145.87,782.45 1151.55,775.238 1157.24,768.11 1162.92,761.062 1168.61,754.092 1174.29,747.198 1179.98,740.376 1185.66,733.625 1191.35,726.943 1197.03,720.327 1202.72,713.775 1208.4,707.286 1214.09,700.858 1219.77,694.488 1225.46,688.177 1231.15,681.921 1236.83,675.719 1242.52,669.571 1248.2,663.474 1253.89,657.427 1259.57,651.43 1265.26,645.48 1270.94,639.577 1276.63,633.72 1282.31,627.907 1288,622.138 1293.68,616.412 1299.37,610.727 1305.05,605.083 1310.74,599.479 1316.43,593.914 1322.11,588.387 1327.8,582.897 1333.48,577.444 1339.17,572.027 1344.85,566.645 1350.54,561.298 1356.22,555.984 1361.91,550.704 1367.59,545.456 1373.28,540.24 1378.96,535.055 1384.65,529.901 1390.33,524.778 1396.02,519.684 1401.7,514.619 1407.39,509.583 1413.08,504.575 1418.76,499.595 1424.45,494.642 1430.13,489.716 1435.82,484.816 1441.5,479.942 1447.19,475.094 1452.87,470.27 1458.56,465.471 1464.24,460.697 1469.93,455.947 1475.61,451.22 1481.3,446.516 1486.98,441.835 1492.67,437.177 1498.35,432.541 1504.04,427.926 1509.73,423.334 1515.41,418.762 1521.1,414.212 1526.78,409.682 1532.47,405.172 1538.15,400.683 1543.84,396.213 1549.52,391.763 1555.21,387.332 1560.89,382.921 1566.58,378.528 1572.26,374.153 1577.95,369.797 1583.63,365.459 1589.32,361.139 1595.01,356.836 1600.69,352.551 1606.38,348.282 1612.06,344.031 1617.75,339.797 1623.43,335.579 1629.12,331.377 1634.8,327.192 1640.49,323.022 1646.17,318.869 1651.86,314.731 1657.54,310.608 1663.23,306.501 1668.91,302.408 1674.6,298.331 1680.28,294.268 1685.97,290.22 1691.66,286.186 1697.34,282.166 1703.03,278.161 1708.71,274.169 1714.4,270.191 1720.08,266.227 1725.77,262.276 1731.45,258.339 1737.14,254.415 1742.82,250.504 1748.51,246.606 1754.19,242.72 1759.88,238.848 1765.56,234.987 1771.25,231.14 1776.93,227.304 1782.62,223.481 1788.31,219.67 1793.99,215.871 1799.68,212.083 1805.36,208.308 1811.05,204.543 1816.73,200.791 1822.42,197.049 1828.1,193.319 1833.79,189.601 1839.47,185.893 1845.16,182.196 1850.84,178.51 1856.53,174.835 1862.21,171.17 1867.9,167.516 1873.58,163.872 1879.27,160.239 1884.96,156.616 1890.64,153.004 1896.33,149.401 1902.01,145.808 1907.7,142.226 1913.38,138.653 1919.07,135.09 1924.75,131.536 1930.44,127.992 1936.12,124.458 1941.81,120.933 1947.49,117.418 1953.18,113.911 1958.86,110.414 1964.55,106.926 1970.24,103.447 1975.92,99.9773 1981.61,96.5162 1987.29,93.064 1992.98,89.6205 1998.66,86.1857 "/>
<polyline clip-path="url(#clip752)" style="stroke:#e26f46; stroke-linecap:round; stroke-linejoin:round; stroke-width:8; stroke-opacity:1; fill:none" points="912.768,1312.52 918.454,1266.65 924.139,1234.2 929.824,1207.6 935.51,1184.52 941.195,1163.84 946.88,1144.94 952.565,1127.42 958.251,1111.02 963.936,1095.55 969.621,1080.86 975.307,1066.85 980.992,1053.44 986.677,1040.54 992.363,1028.11 998.048,1016.1 1003.73,1004.46 1009.42,993.172 1015.1,982.198 1020.79,971.513 1026.47,961.097 1032.16,950.931 1037.85,940.995 1043.53,931.277 1049.22,921.761 1054.9,912.436 1060.59,903.291 1066.27,894.315 1071.96,885.499 1077.64,876.836 1083.33,868.317 1089.01,859.935 1094.7,851.684 1100.38,843.557 1106.07,835.55 1111.75,827.657 1117.44,819.874 1123.12,812.195 1128.81,804.617 1134.5,797.136 1140.18,789.748 1145.87,782.45 1151.55,775.238 1157.24,768.11 1162.92,761.062 1168.61,754.092 1174.29,747.198 1179.98,740.376 1185.66,733.625 1191.35,726.943 1197.03,720.327 1202.72,713.775 1208.4,707.286 1214.09,700.858 1219.77,694.488 1225.46,688.177 1231.15,681.921 1236.83,675.719 1242.52,669.571 1248.2,663.474 1253.89,657.427 1259.57,651.43 1265.26,645.48 1270.94,639.577 1276.63,633.72 1282.31,627.907 1288,622.138 1293.68,616.412 1299.37,610.727 1305.05,605.083 1310.74,599.479 1316.43,593.914 1322.11,588.387 1327.8,582.897 1333.48,577.444 1339.17,572.027 1344.85,566.645 1350.54,561.298 1356.22,555.984 1361.91,550.704 1367.59,545.456 1373.28,540.24 1378.96,535.055 1384.65,529.901 1390.33,524.778 1396.02,519.684 1401.7,514.619 1407.39,509.583 1413.08,504.575 1418.76,499.595 1424.45,494.642 1430.13,489.716 1435.82,484.816 1441.5,479.942 1447.19,475.094 1452.87,470.27 1458.56,465.471 1464.24,460.697 1469.93,455.947 1475.61,451.22 1481.3,446.516 1486.98,441.835 1492.67,437.177 1498.35,432.541 1504.04,427.926 1509.73,423.334 1515.41,418.762 1521.1,414.212 1526.78,409.682 1532.47,405.172 1538.15,400.683 1543.84,396.213 1549.52,391.763 1555.21,387.332 1560.89,382.921 1566.58,378.528 1572.26,374.153 1577.95,369.797 1583.63,365.459 1589.32,361.139 1595.01,356.836 1600.69,352.551 1606.38,348.282 1612.06,344.031 1617.75,339.797 1623.43,335.579 1629.12,331.377 1634.8,327.192 1640.49,323.022 1646.17,318.869 1651.86,314.731 1657.54,310.608 1663.23,306.501 1668.91,302.408 1674.6,298.331 1680.28,294.268 1685.97,290.22 1691.66,286.186 1697.34,282.166 1703.03,278.161 1708.71,274.169 1714.4,270.191 1720.08,266.227 1725.77,262.276 1731.45,258.339 1737.14,254.415 1742.82,250.504 1748.51,246.606 1754.19,242.72 1759.88,238.848 1765.56,234.987 1771.25,231.14 1776.93,227.304 1782.62,223.481 1788.31,219.67 1793.99,215.871 1799.68,212.083 1805.36,208.308 1811.05,204.543 1816.73,200.791 1822.42,197.049 1828.1,193.319 1833.79,189.601 1839.47,185.893 1845.16,182.196 1850.84,178.51 1856.53,174.835 1862.21,171.17 1867.9,167.516 1873.58,163.872 1879.27,160.239 1884.96,156.616 1890.64,153.004 1896.33,149.401 1902.01,145.808 1907.7,142.226 1913.38,138.653 1919.07,135.09 1924.75,131.536 1930.44,127.992 1936.12,124.458 1941.81,120.933 1947.49,117.418 1953.18,113.911 1958.86,110.414 1964.55,106.926 1970.24,103.447 1975.92,99.9773 1981.61,96.5162 1987.29,93.064 1992.98,89.6205 1998.66,86.1857 "/>
<polyline clip-path="url(#clip752)" style="stroke:#3da44d; stroke-linecap:round; stroke-linejoin:round; stroke-width:8; stroke-opacity:1; fill:none" stroke-dasharray="32, 20" points="1384.65,1372.69 1390.33,1289.4 1396.02,1250.62 1401.7,1220.78 1407.39,1195.61 1413.08,1173.42 1418.76,1153.35 1424.45,1134.88 1430.13,1117.69 1435.82,1101.54 1441.5,1086.27 1447.19,1071.73 1452.87,1057.85 1458.56,1044.52 1464.24,1031.7 1469.93,1019.33 1475.61,1007.36 1481.3,995.761 1486.98,984.495 1492.67,973.536 1498.35,962.861 1504.04,952.448 1509.73,942.28 1515.41,932.338 1521.1,922.61 1526.78,913.081 1532.47,903.74 1538.15,894.575 1543.84,885.578 1549.52,876.74 1555.21,868.051 1560.89,859.505 1566.58,851.095 1572.26,842.815 1577.95,834.658 1583.63,826.62 1589.32,818.694 1595.01,810.877 1600.69,803.165 1606.38,795.552 1612.06,788.036 1617.75,780.612 1623.43,773.277 1629.12,766.028 1634.8,758.863 1640.49,751.778 1646.17,744.77 1651.86,737.837 1657.54,730.977 1663.23,724.188 1668.91,717.467 1674.6,710.811 1680.28,704.221 1685.97,697.692 1691.66,691.224 1697.34,684.815 1703.03,678.464 1708.71,672.168 1714.4,665.927 1720.08,659.739 1725.77,653.602 1731.45,647.515 1737.14,641.478 1742.82,635.488 1748.51,629.546 1754.19,623.649 1759.88,617.796 1765.56,611.987 1771.25,606.221 1776.93,600.496 1782.62,594.812 1788.31,589.168 1793.99,583.564 1799.68,577.997 1805.36,572.468 1811.05,566.975 1816.73,561.518 1822.42,556.097 1828.1,550.71 1833.79,545.357 1839.47,540.037 1845.16,534.75 1850.84,529.495 1856.53,524.272 1862.21,519.079 1867.9,513.916 1873.58,508.784 1879.27,503.68 1884.96,498.605 1890.64,493.559 1896.33,488.54 1902.01,483.549 1907.7,478.584 1913.38,473.646 1919.07,468.734 1924.75,463.847 1930.44,458.986 1936.12,454.149 1941.81,449.337 1947.49,444.549 1953.18,439.784 1958.86,435.043 1964.55,430.325 1970.24,425.629 1975.92,420.955 1981.61,416.304 1987.29,411.674 1992.98,407.065 1998.66,402.478 "/>
<polyline clip-path="url(#clip752)" style="stroke:#c271d2; stroke-linecap:round; stroke-linejoin:round; stroke-width:8; stroke-opacity:1; fill:none" stroke-dasharray="32, 20" points="1384.65,1372.69 1390.33,1289.4 1396.02,1250.62 1401.7,1220.78 1407.39,1195.61 1413.08,1173.42 1418.76,1153.35 1424.45,1134.88 1430.13,1117.69 1435.82,1101.54 1441.5,1086.27 1447.19,1071.73 1452.87,1057.85 1458.56,1044.52 1464.24,1031.7 1469.93,1019.33 1475.61,1007.36 1481.3,995.761 1486.98,984.495 1492.67,973.536 1498.35,962.861 1504.04,952.448 1509.73,942.28 1515.41,932.338 1521.1,922.61 1526.78,913.081 1532.47,903.74 1538.15,894.575 1543.84,885.578 1549.52,876.74 1555.21,868.051 1560.89,859.505 1566.58,851.095 1572.26,842.815 1577.95,834.658 1583.63,826.62 1589.32,818.694 1595.01,810.877 1600.69,803.165 1606.38,795.552 1612.06,788.036 1617.75,780.612 1623.43,773.277 1629.12,766.028 1634.8,758.863 1640.49,751.778 1646.17,744.77 1651.86,737.837 1657.54,730.977 1663.23,724.188 1668.91,717.467 1674.6,710.811 1680.28,704.221 1685.97,697.692 1691.66,691.224 1697.34,684.815 1703.03,678.464 1708.71,672.168 1714.4,665.927 1720.08,659.739 1725.77,653.602 1731.45,647.515 1737.14,641.478 1742.82,635.488 1748.51,629.546 1754.19,623.649 1759.88,617.796 1765.56,611.987 1771.25,606.221 1776.93,600.496 1782.62,594.812 1788.31,589.168 1793.99,583.564 1799.68,577.997 1805.36,572.468 1811.05,566.975 1816.73,561.518 1822.42,556.097 1828.1,550.71 1833.79,545.357 1839.47,540.037 1845.16,534.75 1850.84,529.495 1856.53,524.272 1862.21,519.079 1867.9,513.916 1873.58,508.784 1879.27,503.68 1884.96,498.605 1890.64,493.559 1896.33,488.54 1902.01,483.549 1907.7,478.584 1913.38,473.646 1919.07,468.734 1924.75,463.847 1930.44,458.986 1936.12,454.149 1941.81,449.337 1947.49,444.549 1953.18,439.784 1958.86,435.043 1964.55,430.325 1970.24,425.629 1975.92,420.955 1981.61,416.304 1987.29,411.674 1992.98,407.065 1998.66,402.478 "/>
<polyline clip-path="url(#clip752)" style="stroke:#009af9; stroke-linecap:round; stroke-linejoin:round; stroke-width:8; stroke-opacity:1; fill:none" points="298.755,1384.24 304.441,1384.24 310.126,1384.24 315.811,1384.24 321.497,1384.24 327.182,1384.24 332.867,1384.24 338.552,1384.24 344.238,1384.24 349.923,1384.24 355.608,1384.24 361.294,1384.24 366.979,1384.24 372.664,1384.24 378.35,1384.24 384.035,1384.24 389.72,1384.24 395.406,1384.24 401.091,1384.24 406.776,1384.24 412.461,1384.24 418.147,1384.24 423.832,1384.24 429.517,1384.24 435.203,1384.24 440.888,1384.24 446.573,1384.24 452.259,1384.24 457.944,1384.24 463.629,1384.24 469.315,1384.24 475,1384.24 480.685,1384.24 486.37,1384.24 492.056,1384.24 497.741,1384.24 503.426,1384.24 509.112,1384.24 514.797,1384.24 520.482,1384.24 526.168,1384.24 531.853,1384.24 537.538,1384.24 543.223,1384.24 548.909,1384.24 554.594,1384.24 560.279,1384.24 565.965,1384.24 571.65,1384.24 577.335,1384.24 583.021,1384.24 588.706,1384.24 594.391,1384.24 600.077,1384.24 605.762,1384.24 611.447,1384.24 617.132,1384.24 622.818,1384.24 628.503,1384.24 634.188,1384.24 639.874,1384.24 645.559,1384.24 651.244,1384.24 656.93,1384.24 662.615,1384.24 668.3,1384.24 673.986,1384.24 679.671,1384.24 685.356,1384.24 691.041,1384.24 696.727,1384.24 702.412,1384.24 708.097,1384.24 713.783,1384.24 719.468,1384.24 725.153,1384.24 730.839,1384.24 736.524,1384.24 742.209,1384.24 747.894,1384.24 753.58,1384.24 759.265,1384.24 764.95,1384.24 770.636,1384.24 776.321,1384.24 782.006,1384.24 787.692,1384.24 793.377,1384.24 799.062,1384.24 804.748,1384.24 810.433,1384.24 816.118,1384.24 821.803,1384.24 827.489,1384.24 833.174,1384.24 838.859,1384.24 844.545,1384.24 850.23,1384.24 855.915,1384.24 861.601,1384.24 867.286,1384.24 872.971,1384.24 878.657,1384.24 884.342,1384.24 890.027,1384.24 895.712,1384.24 901.398,1384.24 907.083,1384.24 "/>
<polyline clip-path="url(#clip752)" style="stroke:#009af9; stroke-linecap:round; stroke-linejoin:round; stroke-width:8; stroke-opacity:1; fill:none" points="1384.65,1384.24 1390.33,1384.24 1396.02,1384.24 1401.7,1384.24 1407.39,1384.24 1413.08,1384.24 1418.76,1384.24 1424.45,1384.24 1430.13,1384.24 1435.82,1384.24 1441.5,1384.24 1447.19,1384.24 1452.87,1384.24 1458.56,1384.24 1464.24,1384.24 1469.93,1384.24 1475.61,1384.24 1481.3,1384.24 1486.98,1384.24 1492.67,1384.24 1498.35,1384.24 1504.04,1384.24 1509.73,1384.24 1515.41,1384.24 1521.1,1384.24 1526.78,1384.24 1532.47,1384.24 1538.15,1384.24 1543.84,1384.24 1549.52,1384.24 1555.21,1384.24 1560.89,1384.24 1566.58,1384.24 1572.26,1384.24 1577.95,1384.24 1583.63,1384.24 1589.32,1384.24 1595.01,1384.24 1600.69,1384.24 1606.38,1384.24 1612.06,1384.24 1617.75,1384.24 1623.43,1384.24 1629.12,1384.24 1634.8,1384.24 1640.49,1384.24 1646.17,1384.24 1651.86,1384.24 1657.54,1384.24 1663.23,1384.24 1668.91,1384.24 1674.6,1384.24 1680.28,1384.24 1685.97,1384.24 1691.66,1384.24 1697.34,1384.24 1703.03,1384.24 1708.71,1384.24 1714.4,1384.24 1720.08,1384.24 1725.77,1384.24 1731.45,1384.24 1737.14,1384.24 1742.82,1384.24 1748.51,1384.24 1754.19,1384.24 1759.88,1384.24 1765.56,1384.24 1771.25,1384.24 1776.93,1384.24 1782.62,1384.24 1788.31,1384.24 1793.99,1384.24 1799.68,1384.24 1805.36,1384.24 1811.05,1384.24 1816.73,1384.24 1822.42,1384.24 1828.1,1384.24 1833.79,1384.24 1839.47,1384.24 1845.16,1384.24 1850.84,1384.24 1856.53,1384.24 1862.21,1384.24 1867.9,1384.24 1873.58,1384.24 1879.27,1384.24 1884.96,1384.24 1890.64,1384.24 1896.33,1384.24 1902.01,1384.24 1907.7,1384.24 1913.38,1384.24 1919.07,1384.24 1924.75,1384.24 1930.44,1384.24 1936.12,1384.24 1941.81,1384.24 1947.49,1384.24 1953.18,1384.24 1958.86,1384.24 1964.55,1384.24 1970.24,1384.24 1975.92,1384.24 1981.61,1384.24 1987.29,1384.24 1992.98,1384.24 1998.66,1384.24 "/>
<polyline clip-path="url(#clip752)" style="stroke:#e26f46; stroke-linecap:round; stroke-linejoin:round; stroke-width:8; stroke-opacity:1; fill:none" points="912.768,1317.28 918.454,1274.47 924.139,1244.21 929.824,1219.44 935.51,1197.95 941.195,1178.71 946.88,1161.14 952.565,1144.86 958.251,1129.64 963.936,1115.3 969.621,1101.69 975.307,1088.72 980.992,1076.3 986.677,1064.38 992.363,1052.9 998.048,1041.82 1003.73,1031.09 1009.42,1020.69 1015.1,1010.59 1020.79,1000.76 1026.47,991.192 1032.16,981.859 1037.85,972.747 1043.53,963.842 1049.22,955.13 1054.9,946.602 1060.59,938.245 1066.27,930.051 1071.96,922.012 1077.64,914.119 1083.33,906.365 1089.01,898.743 1094.7,891.248 1100.38,883.875 1106.07,876.617 1111.75,869.47 1117.44,862.43 1123.12,855.492 1128.81,848.652 1134.5,841.908 1140.18,835.255 1145.87,828.69 1151.55,822.211 1157.24,815.814 1162.92,809.497 1168.61,803.257 1174.29,797.093 1179.98,791.001 1185.66,784.98 1191.35,779.028 1197.03,773.142 1202.72,767.321 1208.4,761.564 1214.09,755.869 1219.77,750.233 1225.46,744.656 1231.15,739.137 1236.83,733.673 1242.52,728.264 1248.2,722.909 1253.89,717.606 1259.57,712.354 1265.26,707.152 1270.94,701.999 1276.63,696.895 1282.31,691.838 1288,686.827 1293.68,681.862 1299.37,676.942 1305.05,672.065 1310.74,667.232 1316.43,662.442 1322.11,657.693 1327.8,652.986 1333.48,648.319 1339.17,643.692 1344.85,639.105 1350.54,634.557 1356.22,630.048 1361.91,625.576 1367.59,621.142 1373.28,616.745 1378.96,612.385 1384.65,608.061 1390.33,603.773 1396.02,599.52 1401.7,595.303 1407.39,591.121 1413.08,586.974 1418.76,582.861 1424.45,578.782 1430.13,574.737 1435.82,570.726 1441.5,566.748 1447.19,562.804 1452.87,558.894 1458.56,555.016 1464.24,551.172 1469.93,547.36 1475.61,543.582 1481.3,539.836 1486.98,536.124 1492.67,532.444 1498.35,528.797 1504.04,525.184 1509.73,521.604 1515.41,518.056 1521.1,514.543 1526.78,511.063 1532.47,507.617 1538.15,504.205 1543.84,500.827 1549.52,497.485 1555.21,494.177 1560.89,490.905 1566.58,487.67 1572.26,484.47 1577.95,481.308 1583.63,478.184 1589.32,475.099 1595.01,472.052 1600.69,469.047 1606.38,466.082 1612.06,463.16 1617.75,460.282 1623.43,457.448 1629.12,454.661 1634.8,451.922 1640.49,449.233 1646.17,446.596 1651.86,444.013 1657.54,441.487 1663.23,439.021 1668.91,436.619 1674.6,434.283 1680.28,432.019 1685.97,429.831 1691.66,427.726 1697.34,425.71 1703.03,423.79 1708.71,421.978 1714.4,420.285 1720.08,418.724 1725.77,417.314 1731.45,416.078 1737.14,415.046 1742.82,414.257 1748.51,413.77 1754.19,413.667 1759.88,414.082 1765.56,415.255 1771.25,417.696 1776.93,423.066 "/>
<polyline clip-path="url(#clip752)" style="stroke:#3da44d; stroke-linecap:round; stroke-linejoin:round; stroke-width:8; stroke-opacity:1; fill:none" points="912.768,1317.28 918.454,1274.47 924.139,1244.21 929.824,1219.44 935.51,1197.95 941.195,1178.71 946.88,1161.14 952.565,1144.86 958.251,1129.64 963.936,1115.3 969.621,1101.69 975.307,1088.72 980.992,1076.3 986.677,1064.38 992.363,1052.9 998.048,1041.82 1003.73,1031.09 1009.42,1020.69 1015.1,1010.59 1020.79,1000.76 1026.47,991.192 1032.16,981.859 1037.85,972.747 1043.53,963.842 1049.22,955.13 1054.9,946.602 1060.59,938.245 1066.27,930.051 1071.96,922.012 1077.64,914.119 1083.33,906.365 1089.01,898.743 1094.7,891.248 1100.38,883.875 1106.07,876.617 1111.75,869.47 1117.44,862.43 1123.12,855.492 1128.81,848.652 1134.5,841.908 1140.18,835.255 1145.87,828.69 1151.55,822.211 1157.24,815.814 1162.92,809.497 1168.61,803.257 1174.29,797.093 1179.98,791.001 1185.66,784.98 1191.35,779.028 1197.03,773.142 1202.72,767.321 1208.4,761.564 1214.09,755.869 1219.77,750.233 1225.46,744.656 1231.15,739.137 1236.83,733.673 1242.52,728.264 1248.2,722.909 1253.89,717.606 1259.57,712.354 1265.26,707.152 1270.94,701.999 1276.63,696.895 1282.31,691.838 1288,686.827 1293.68,681.862 1299.37,676.942 1305.05,672.065 1310.74,667.232 1316.43,662.442 1322.11,657.693 1327.8,652.986 1333.48,648.319 1339.17,643.692 1344.85,639.105 1350.54,634.557 1356.22,630.048 1361.91,625.576 1367.59,621.142 1373.28,616.745 1378.96,612.385 1384.65,608.061 1390.33,603.773 1396.02,599.52 1401.7,595.303 1407.39,591.121 1413.08,586.974 1418.76,582.861 1424.45,578.782 1430.13,574.737 1435.82,570.726 1441.5,566.748 1447.19,562.804 1452.87,558.894 1458.56,555.016 1464.24,551.172 1469.93,547.36 1475.61,543.582 1481.3,539.836 1486.98,536.124 1492.67,532.444 1498.35,528.797 1504.04,525.184 1509.73,521.604 1515.41,518.056 1521.1,514.543 1526.78,511.063 1532.47,507.617 1538.15,504.205 1543.84,500.827 1549.52,497.485 1555.21,494.177 1560.89,490.905 1566.58,487.67 1572.26,484.47 1577.95,481.308 1583.63,478.184 1589.32,475.099 1595.01,472.052 1600.69,469.047 1606.38,466.082 1612.06,463.16 1617.75,460.282 1623.43,457.448 1629.12,454.661 1634.8,451.922 1640.49,449.233 1646.17,446.596 1651.86,444.013 1657.54,441.487 1663.23,439.021 1668.91,436.619 1674.6,434.283 1680.28,432.019 1685.97,429.831 1691.66,427.726 1697.34,425.71 1703.03,423.79 1708.71,421.978 1714.4,420.285 1720.08,418.724 1725.77,417.314 1731.45,416.078 1737.14,415.046 1742.82,414.257 1748.51,413.77 1754.19,413.667 1759.88,414.082 1765.56,415.255 1771.25,417.696 1776.93,423.066 "/>
<polyline clip-path="url(#clip752)" style="stroke:#009af9; stroke-linecap:round; stroke-linejoin:round; stroke-width:8; stroke-opacity:1; fill:none" stroke-dasharray="32, 20" points="912.768,1384.24 918.454,1384.24 924.139,1384.24 929.824,1384.24 935.51,1384.24 941.195,1384.24 946.88,1384.24 952.565,1384.24 958.251,1384.24 963.936,1384.24 969.621,1384.24 975.307,1384.24 980.992,1384.24 986.677,1384.24 992.363,1384.24 998.048,1384.24 1003.73,1384.24 1009.42,1384.24 1015.1,1384.24 1020.79,1384.24 1026.47,1384.24 1032.16,1384.24 1037.85,1384.24 1043.53,1384.24 1049.22,1384.24 1054.9,1384.24 1060.59,1384.24 1066.27,1384.24 1071.96,1384.24 1077.64,1384.24 1083.33,1384.24 1089.01,1384.24 1094.7,1384.24 1100.38,1384.24 1106.07,1384.24 1111.75,1384.24 1117.44,1384.24 1123.12,1384.24 1128.81,1384.24 1134.5,1384.24 1140.18,1384.24 1145.87,1384.24 1151.55,1384.24 1157.24,1384.24 1162.92,1384.24 1168.61,1384.24 1174.29,1384.24 1179.98,1384.24 1185.66,1384.24 1191.35,1384.24 1197.03,1384.24 1202.72,1384.24 1208.4,1384.24 1214.09,1384.24 1219.77,1384.24 1225.46,1384.24 1231.15,1384.24 1236.83,1384.24 1242.52,1384.24 1248.2,1384.24 1253.89,1384.24 1259.57,1384.24 1265.26,1384.24 1270.94,1384.24 1276.63,1384.24 1282.31,1384.24 1288,1384.24 1293.68,1384.24 1299.37,1384.24 1305.05,1384.24 1310.74,1384.24 1316.43,1384.24 1322.11,1384.24 1327.8,1384.24 1333.48,1384.24 1339.17,1384.24 1344.85,1384.24 1350.54,1384.24 1356.22,1384.24 1361.91,1384.24 1367.59,1384.24 1373.28,1384.24 1378.96,1384.24 "/>
<polyline clip-path="url(#clip752)" style="stroke:#c271d2; stroke-linecap:round; stroke-linejoin:round; stroke-width:8; stroke-opacity:1; fill:none" stroke-dasharray="32, 20" points="1384.65,1371.7 1390.33,1281.24 1396.02,1239.05 1401.7,1206.55 1407.39,1179.08 1413.08,1154.83 1418.76,1132.87 1424.45,1112.63 1430.13,1093.76 1435.82,1076 1441.5,1059.17 1447.19,1043.14 1452.87,1027.79 1458.56,1013.03 1464.24,998.811 1469.93,985.059 1475.61,971.732 1481.3,958.788 1486.98,946.191 1492.67,933.914 1498.35,921.928 1504.04,910.211 1509.73,898.743 1515.41,887.505 1521.1,876.481 1526.78,865.657 1532.47,855.019 1538.15,844.555 1543.84,834.254 1549.52,824.106 1555.21,814.101 1560.89,804.232 1566.58,794.489 1572.26,784.865 1577.95,775.353 1583.63,765.947 1589.32,756.64 1595.01,747.425 1600.69,738.298 1606.38,729.252 1612.06,720.283 1617.75,711.384 1623.43,702.551 1629.12,693.779 1634.8,685.062 1640.49,676.395 1646.17,667.775 1651.86,659.194 1657.54,650.648 1663.23,642.132 1668.91,633.639 1674.6,625.163 1680.28,616.699 1685.97,608.238 1691.66,599.772 1697.34,591.294 1703.03,582.793 1708.71,574.257 1714.4,565.673 1720.08,557.025 1725.77,548.295 1731.45,539.456 1737.14,530.478 1742.82,521.319 1748.51,511.921 1754.19,502.199 1759.88,492.018 1765.56,481.138 1771.25,469.047 1776.93,454.082 "/>
<polyline clip-path="url(#clip752)" style="stroke:#ac8d18; stroke-linecap:round; stroke-linejoin:round; stroke-width:8; stroke-opacity:1; fill:none" stroke-dasharray="32, 20" points="1384.65,1371.7 1390.33,1281.24 1396.02,1239.05 1401.7,1206.55 1407.39,1179.08 1413.08,1154.83 1418.76,1132.87 1424.45,1112.63 1430.13,1093.76 1435.82,1076 1441.5,1059.17 1447.19,1043.14 1452.87,1027.79 1458.56,1013.03 1464.24,998.811 1469.93,985.059 1475.61,971.732 1481.3,958.788 1486.98,946.191 1492.67,933.914 1498.35,921.928 1504.04,910.211 1509.73,898.743 1515.41,887.505 1521.1,876.481 1526.78,865.657 1532.47,855.019 1538.15,844.555 1543.84,834.254 1549.52,824.106 1555.21,814.101 1560.89,804.232 1566.58,794.489 1572.26,784.865 1577.95,775.353 1583.63,765.947 1589.32,756.64 1595.01,747.425 1600.69,738.298 1606.38,729.252 1612.06,720.283 1617.75,711.384 1623.43,702.551 1629.12,693.779 1634.8,685.062 1640.49,676.395 1646.17,667.775 1651.86,659.194 1657.54,650.648 1663.23,642.132 1668.91,633.639 1674.6,625.163 1680.28,616.699 1685.97,608.238 1691.66,599.772 1697.34,591.294 1703.03,582.793 1708.71,574.257 1714.4,565.673 1720.08,557.025 1725.77,548.295 1731.45,539.456 1737.14,530.478 1742.82,521.319 1748.51,511.921 1754.19,502.199 1759.88,492.018 1765.56,481.138 1771.25,469.047 1776.93,454.082 "/>
<path clip-path="url(#clip750)" d="M2119.83 910.676 L2352.76 910.676 L2352.76 599.636 L2119.83 599.636  Z" fill="#ffffff" fill-rule="evenodd" fill-opacity="1"/>
<polyline clip-path="url(#clip750)" style="stroke:#000000; stroke-linecap:round; stroke-linejoin:round; stroke-width:4; stroke-opacity:1; fill:none" points="2119.83,910.676 2352.76,910.676 2352.76,599.636 2119.83,599.636 2119.83,910.676 "/>
<polyline clip-path="url(#clip750)" style="stroke:#009af9; stroke-linecap:round; stroke-linejoin:round; stroke-width:8; stroke-opacity:1; fill:none" points="2143.21,651.476 2283.55,651.476 "/>
<path clip-path="url(#clip750)" d="M2306.94 639.878 L2306.94 638.297 Q2313.01 638.297 2316.15 635.061 Q2317.02 635.061 2317.16 635.259 Q2317.31 635.456 2317.31 636.37 L2317.31 664.755 Q2317.31 666.261 2318.05 666.731 Q2318.79 667.2 2322.03 667.2 L2323.64 667.2 L2323.64 668.756 Q2321.86 668.608 2315.43 668.608 Q2309.01 668.608 2307.26 668.756 L2307.26 667.2 L2308.86 667.2 Q2312.05 667.2 2312.82 666.756 Q2313.58 666.286 2313.58 664.755 L2313.58 638.544 Q2310.94 639.878 2306.94 639.878 Z" fill="#000000" fill-rule="nonzero" fill-opacity="1" /><polyline clip-path="url(#clip750)" style="stroke:#e26f46; stroke-linecap:round; stroke-linejoin:round; stroke-width:8; stroke-opacity:1; fill:none" points="2143.21,703.316 2283.55,703.316 "/>
<path clip-path="url(#clip750)" d="M2306.94 720.596 Q2306.94 719.682 2307.01 719.411 Q2307.11 719.139 2307.5 718.719 L2317.21 707.899 Q2322.52 701.921 2322.52 696.708 Q2322.52 693.324 2320.75 690.903 Q2318.99 688.482 2315.76 688.482 Q2313.53 688.482 2311.65 689.841 Q2309.78 691.199 2308.91 693.62 Q2309.06 693.571 2309.58 693.571 Q2310.84 693.571 2311.53 694.362 Q2312.25 695.152 2312.25 696.214 Q2312.25 697.573 2311.36 698.24 Q2310.49 698.882 2309.63 698.882 Q2309.28 698.882 2308.81 698.808 Q2308.37 698.734 2307.65 698.042 Q2306.94 697.326 2306.94 696.066 Q2306.94 692.533 2309.6 689.717 Q2312.3 686.901 2316.4 686.901 Q2321.04 686.901 2324.08 689.668 Q2327.14 692.41 2327.14 696.708 Q2327.14 698.215 2326.67 699.599 Q2326.23 700.957 2325.61 702.02 Q2325.02 703.082 2323.39 704.786 Q2321.76 706.491 2320.45 707.701 Q2319.14 708.912 2316.2 711.481 L2310.84 716.693 L2319.96 716.693 Q2324.4 716.693 2324.75 716.298 Q2325.24 715.582 2325.86 711.802 L2327.14 711.802 L2325.71 720.596 L2306.94 720.596 Z" fill="#000000" fill-rule="nonzero" fill-opacity="1" /><polyline clip-path="url(#clip750)" style="stroke:#3da44d; stroke-linecap:round; stroke-linejoin:round; stroke-width:8; stroke-opacity:1; fill:none" stroke-dasharray="32, 20" points="2143.21,755.156 2283.55,755.156 "/>
<path clip-path="url(#clip750)" d="M2306.94 765.618 Q2306.94 764.111 2307.8 763.395 Q2308.67 762.679 2309.78 762.679 Q2310.94 762.679 2311.75 763.444 Q2312.59 764.186 2312.59 765.495 Q2312.59 766.903 2311.61 767.693 Q2310.64 768.484 2309.26 768.286 Q2310.47 770.312 2312.69 771.226 Q2314.94 772.14 2317.02 772.14 Q2319.19 772.14 2320.94 770.263 Q2322.72 768.385 2322.72 763.79 Q2322.72 759.887 2321.19 757.639 Q2319.68 755.391 2316.69 755.391 L2314.47 755.391 Q2313.71 755.391 2313.48 755.317 Q2313.26 755.243 2313.26 754.823 Q2313.26 754.329 2314.03 754.23 Q2314.79 754.23 2316 754.082 Q2318.94 753.983 2320.5 751.439 Q2321.91 749.067 2321.91 745.683 Q2321.91 742.595 2320.42 741.31 Q2318.97 740.001 2317.06 740.001 Q2315.29 740.001 2313.33 740.742 Q2311.38 741.483 2310.32 743.138 Q2313.46 743.138 2313.46 745.683 Q2313.46 746.794 2312.74 747.536 Q2312.05 748.252 2310.89 748.252 Q2309.78 748.252 2309.04 747.56 Q2308.3 746.844 2308.3 745.633 Q2308.3 742.743 2310.86 740.742 Q2313.46 738.741 2317.26 738.741 Q2321.02 738.741 2323.78 740.717 Q2326.58 742.694 2326.58 745.732 Q2326.58 748.721 2324.6 751.167 Q2322.62 753.613 2319.49 754.625 Q2323.34 755.391 2325.64 758.01 Q2327.93 760.604 2327.93 763.79 Q2327.93 767.743 2324.82 770.658 Q2321.71 773.548 2317.16 773.548 Q2312.96 773.548 2309.95 771.275 Q2306.94 769.003 2306.94 765.618 Z" fill="#000000" fill-rule="nonzero" fill-opacity="1" /><polyline clip-path="url(#clip750)" style="stroke:#c271d2; stroke-linecap:round; stroke-linejoin:round; stroke-width:8; stroke-opacity:1; fill:none" stroke-dasharray="32, 20" points="2143.21,806.996 2283.55,806.996 "/>
<path clip-path="url(#clip750)" d="M2306.94 815.927 L2306.94 814.37 L2322.47 790.631 Q2322.87 790.013 2323.49 790.038 Q2324.06 790.038 2324.18 790.26 Q2324.3 790.482 2324.3 791.347 L2324.3 814.37 L2329.37 814.37 L2329.37 815.927 L2324.3 815.927 L2324.3 820.324 Q2324.3 821.781 2324.9 822.251 Q2325.51 822.72 2328.13 822.72 L2329.19 822.72 L2329.19 824.276 Q2327.12 824.128 2322.33 824.128 Q2317.56 824.128 2315.48 824.276 L2315.48 822.72 L2316.55 822.72 Q2319.16 822.72 2319.78 822.276 Q2320.4 821.806 2320.4 820.324 L2320.4 815.927 L2306.94 815.927 M2308.37 814.37 L2320.7 814.37 L2320.7 795.497 L2308.37 814.37 Z" fill="#000000" fill-rule="nonzero" fill-opacity="1" /><polyline clip-path="url(#clip750)" style="stroke:#ac8d18; stroke-linecap:round; stroke-linejoin:round; stroke-width:8; stroke-opacity:1; fill:none" stroke-dasharray="32, 20" points="2143.21,858.836 2283.55,858.836 "/>
<path clip-path="url(#clip750)" d="M2306.94 867.964 Q2306.94 866.457 2307.75 865.889 Q2308.57 865.296 2309.43 865.296 Q2310.59 865.296 2311.26 866.038 Q2311.95 866.754 2311.95 867.767 Q2311.95 868.78 2311.26 869.521 Q2310.59 870.237 2309.43 870.237 Q2308.86 870.237 2308.57 870.138 Q2309.23 872.46 2311.26 874.14 Q2313.31 875.82 2316 875.82 Q2319.39 875.82 2321.41 872.535 Q2322.62 870.41 2322.62 865.593 Q2322.62 861.344 2321.71 859.219 Q2320.3 855.983 2317.41 855.983 Q2313.31 855.983 2310.89 859.516 Q2310.59 859.96 2310.25 859.985 Q2309.75 859.985 2309.63 859.713 Q2309.53 859.417 2309.53 858.651 L2309.53 843.681 Q2309.53 842.471 2310.02 842.471 Q2310.22 842.471 2310.64 842.619 Q2313.83 844.027 2317.36 844.052 Q2320.99 844.052 2324.25 842.569 Q2324.5 842.421 2324.65 842.421 Q2325.14 842.421 2325.17 842.989 Q2325.17 843.187 2324.75 843.78 Q2324.35 844.348 2323.49 845.114 Q2322.62 845.855 2321.51 846.571 Q2320.4 847.288 2318.77 847.782 Q2317.16 848.251 2315.38 848.251 Q2313.26 848.251 2311.09 847.584 L2311.09 857.441 Q2313.71 854.872 2317.51 854.872 Q2321.56 854.872 2324.35 858.132 Q2327.14 861.393 2327.14 865.939 Q2327.14 870.706 2323.83 873.967 Q2320.55 877.228 2316.1 877.228 Q2312.05 877.228 2309.48 874.338 Q2306.94 871.448 2306.94 867.964 Z" fill="#000000" fill-rule="nonzero" fill-opacity="1" /></svg>
