<?xml version="1.0" encoding="utf-8"?>
<svg xmlns="http://www.w3.org/2000/svg" xmlns:xlink="http://www.w3.org/1999/xlink" width="600" height="400" viewBox="0 0 2400 1600">
<defs>
  <clipPath id="clip870">
    <rect x="0" y="0" width="2400" height="1600"/>
  </clipPath>
</defs>
<path clip-path="url(#clip870)" d="M0 1600 L2400 1600 L2400 0 L0 0  Z" fill="#ffffff" fill-rule="evenodd" fill-opacity="1"/>
<defs>
  <clipPath id="clip871">
    <rect x="480" y="0" width="1681" height="1600"/>
  </clipPath>
</defs>
<path clip-path="url(#clip870)" d="M198.231 1486.45 L2352.76 1486.45 L2352.76 47.2441 L198.231 47.2441  Z" fill="#ffffff" fill-rule="evenodd" fill-opacity="1"/>
<defs>
  <clipPath id="clip872">
    <rect x="198" y="47" width="2156" height="1440"/>
  </clipPath>
</defs>
<polyline clip-path="url(#clip872)" style="stroke:#000000; stroke-linecap:round; stroke-linejoin:round; stroke-width:2; stroke-opacity:0.1; fill:none" points="238.677,1486.45 238.677,47.2441 "/>
<polyline clip-path="url(#clip872)" style="stroke:#000000; stroke-linecap:round; stroke-linejoin:round; stroke-width:2; stroke-opacity:0.1; fill:none" points="751.953,1486.45 751.953,47.2441 "/>
<polyline clip-path="url(#clip872)" style="stroke:#000000; stroke-linecap:round; stroke-linejoin:round; stroke-width:2; stroke-opacity:0.1; fill:none" points="1265.23,1486.45 1265.23,47.2441 "/>
<polyline clip-path="url(#clip872)" style="stroke:#000000; stroke-linecap:round; stroke-linejoin:round; stroke-width:2; stroke-opacity:0.1; fill:none" points="1778.5,1486.45 1778.5,47.2441 "/>
<polyline clip-path="url(#clip872)" style="stroke:#000000; stroke-linecap:round; stroke-linejoin:round; stroke-width:2; stroke-opacity:0.1; fill:none" points="2291.78,1486.45 2291.78,47.2441 "/>
<polyline clip-path="url(#clip870)" style="stroke:#000000; stroke-linecap:round; stroke-linejoin:round; stroke-width:4; stroke-opacity:1; fill:none" points="198.231,1486.45 2352.76,1486.45 "/>
<polyline clip-path="url(#clip870)" style="stroke:#000000; stroke-linecap:round; stroke-linejoin:round; stroke-width:4; stroke-opacity:1; fill:none" points="238.677,1486.45 238.677,1467.55 "/>
<polyline clip-path="url(#clip870)" style="stroke:#000000; stroke-linecap:round; stroke-linejoin:round; stroke-width:4; stroke-opacity:1; fill:none" points="751.953,1486.45 751.953,1467.55 "/>
<polyline clip-path="url(#clip870)" style="stroke:#000000; stroke-linecap:round; stroke-linejoin:round; stroke-width:4; stroke-opacity:1; fill:none" points="1265.23,1486.45 1265.23,1467.55 "/>
<polyline clip-path="url(#clip870)" style="stroke:#000000; stroke-linecap:round; stroke-linejoin:round; stroke-width:4; stroke-opacity:1; fill:none" points="1778.5,1486.45 1778.5,1467.55 "/>
<polyline clip-path="url(#clip870)" style="stroke:#000000; stroke-linecap:round; stroke-linejoin:round; stroke-width:4; stroke-opacity:1; fill:none" points="2291.78,1486.45 2291.78,1467.55 "/>
<path clip-path="url(#clip870)" d="M228.03 1532.67 Q228.03 1525.23 229.908 1521.18 Q232.526 1515.15 238.702 1515.15 Q240.011 1515.15 241.37 1515.52 Q242.754 1515.87 244.483 1517.23 Q246.237 1518.59 247.299 1520.81 Q249.325 1525.11 249.325 1532.67 Q249.325 1540.05 247.447 1544.08 Q244.705 1549.96 238.653 1549.96 Q236.38 1549.96 234.058 1548.8 Q231.761 1547.64 230.303 1544.85 Q228.03 1540.67 228.03 1532.67 M232.23 1532.05 Q232.23 1539.68 232.773 1542.72 Q233.391 1546.01 235.071 1547.44 Q236.775 1548.85 238.653 1548.85 Q240.678 1548.85 242.358 1547.34 Q244.063 1545.81 244.582 1542.52 Q245.15 1539.29 245.125 1532.05 Q245.125 1525.01 244.631 1522.19 Q243.964 1518.91 242.185 1517.6 Q240.431 1516.26 238.653 1516.26 Q237.986 1516.26 237.269 1516.46 Q236.578 1516.66 235.565 1517.23 Q234.552 1517.8 233.761 1519.2 Q232.996 1520.61 232.625 1522.74 Q232.23 1525.48 232.23 1532.05 Z" fill="#000000" fill-rule="nonzero" fill-opacity="1" /><path clip-path="url(#clip870)" d="M729.201 1548.85 Q729.201 1547.93 729.275 1547.66 Q729.374 1547.39 729.769 1546.97 L739.478 1536.15 Q744.789 1530.17 744.789 1524.96 Q744.789 1521.58 743.01 1519.15 Q741.256 1516.73 738.02 1516.73 Q735.797 1516.73 733.919 1518.09 Q732.042 1519.45 731.177 1521.87 Q731.325 1521.82 731.844 1521.82 Q733.104 1521.82 733.796 1522.61 Q734.512 1523.4 734.512 1524.47 Q734.512 1525.82 733.623 1526.49 Q732.758 1527.13 731.894 1527.13 Q731.548 1527.13 731.078 1527.06 Q730.634 1526.99 729.917 1526.29 Q729.201 1525.58 729.201 1524.32 Q729.201 1520.78 731.869 1517.97 Q734.562 1515.15 738.662 1515.15 Q743.307 1515.15 746.345 1517.92 Q749.408 1520.66 749.408 1524.96 Q749.408 1526.47 748.939 1527.85 Q748.494 1529.21 747.877 1530.27 Q747.284 1531.33 745.653 1533.04 Q744.023 1534.74 742.714 1535.95 Q741.404 1537.16 738.465 1539.73 L733.104 1544.94 L742.22 1544.94 Q746.666 1544.94 747.012 1544.55 Q747.506 1543.83 748.124 1540.05 L749.408 1540.05 L747.976 1548.85 L729.201 1548.85 Z" fill="#000000" fill-rule="nonzero" fill-opacity="1" /><path clip-path="url(#clip870)" d="M754.497 1540.7 Q754.497 1539.19 755.312 1538.62 Q756.128 1538.03 756.992 1538.03 Q758.153 1538.03 758.82 1538.77 Q759.512 1539.49 759.512 1540.5 Q759.512 1541.51 758.82 1542.25 Q758.153 1542.97 756.992 1542.97 Q756.424 1542.97 756.128 1542.87 Q756.795 1545.19 758.82 1546.87 Q760.871 1548.55 763.563 1548.55 Q766.948 1548.55 768.973 1545.27 Q770.184 1543.14 770.184 1538.32 Q770.184 1534.08 769.27 1531.95 Q767.862 1528.71 764.971 1528.71 Q760.871 1528.71 758.45 1532.25 Q758.153 1532.69 757.807 1532.72 Q757.313 1532.72 757.19 1532.44 Q757.091 1532.15 757.091 1531.38 L757.091 1516.41 Q757.091 1515.2 757.585 1515.2 Q757.783 1515.2 758.203 1515.35 Q761.389 1516.76 764.922 1516.78 Q768.553 1516.78 771.814 1515.3 Q772.061 1515.15 772.21 1515.15 Q772.704 1515.15 772.728 1515.72 Q772.728 1515.92 772.308 1516.51 Q771.913 1517.08 771.048 1517.85 Q770.184 1518.59 769.072 1519.3 Q767.961 1520.02 766.33 1520.51 Q764.724 1520.98 762.946 1520.98 Q760.821 1520.98 758.647 1520.32 L758.647 1530.17 Q761.266 1527.6 765.07 1527.6 Q769.122 1527.6 771.913 1530.86 Q774.705 1534.12 774.705 1538.67 Q774.705 1543.44 771.394 1546.7 Q768.109 1549.96 763.662 1549.96 Q759.611 1549.96 757.042 1547.07 Q754.497 1544.18 754.497 1540.7 Z" fill="#000000" fill-rule="nonzero" fill-opacity="1" /><path clip-path="url(#clip870)" d="M1242.2 1540.7 Q1242.2 1539.19 1243.02 1538.62 Q1243.84 1538.03 1244.7 1538.03 Q1245.86 1538.03 1246.53 1538.77 Q1247.22 1539.49 1247.22 1540.5 Q1247.22 1541.51 1246.53 1542.25 Q1245.86 1542.97 1244.7 1542.97 Q1244.13 1542.97 1243.84 1542.87 Q1244.5 1545.19 1246.53 1546.87 Q1248.58 1548.55 1251.27 1548.55 Q1254.66 1548.55 1256.68 1545.27 Q1257.89 1543.14 1257.89 1538.32 Q1257.89 1534.08 1256.98 1531.95 Q1255.57 1528.71 1252.68 1528.71 Q1248.58 1528.71 1246.16 1532.25 Q1245.86 1532.69 1245.51 1532.72 Q1245.02 1532.72 1244.9 1532.44 Q1244.8 1532.15 1244.8 1531.38 L1244.8 1516.41 Q1244.8 1515.2 1245.29 1515.2 Q1245.49 1515.2 1245.91 1515.35 Q1249.1 1516.76 1252.63 1516.78 Q1256.26 1516.78 1259.52 1515.3 Q1259.77 1515.15 1259.92 1515.15 Q1260.41 1515.15 1260.44 1515.72 Q1260.44 1515.92 1260.02 1516.51 Q1259.62 1517.08 1258.76 1517.85 Q1257.89 1518.59 1256.78 1519.3 Q1255.67 1520.02 1254.04 1520.51 Q1252.43 1520.98 1250.65 1520.98 Q1248.53 1520.98 1246.35 1520.32 L1246.35 1530.17 Q1248.97 1527.6 1252.78 1527.6 Q1256.83 1527.6 1259.62 1530.86 Q1262.41 1534.12 1262.41 1538.67 Q1262.41 1543.44 1259.1 1546.7 Q1255.82 1549.96 1251.37 1549.96 Q1247.32 1549.96 1244.75 1547.07 Q1242.2 1544.18 1242.2 1540.7 Z" fill="#000000" fill-rule="nonzero" fill-opacity="1" /><path clip-path="url(#clip870)" d="M1266.96 1532.67 Q1266.96 1525.23 1268.83 1521.18 Q1271.45 1515.15 1277.63 1515.15 Q1278.94 1515.15 1280.3 1515.52 Q1281.68 1515.87 1283.41 1517.23 Q1285.16 1518.59 1286.23 1520.81 Q1288.25 1525.11 1288.25 1532.67 Q1288.25 1540.05 1286.37 1544.08 Q1283.63 1549.96 1277.58 1549.96 Q1275.31 1549.96 1272.98 1548.8 Q1270.69 1547.64 1269.23 1544.85 Q1266.96 1540.67 1266.96 1532.67 M1271.16 1532.05 Q1271.16 1539.68 1271.7 1542.72 Q1272.32 1546.01 1274 1547.44 Q1275.7 1548.85 1277.58 1548.85 Q1279.61 1548.85 1281.29 1547.34 Q1282.99 1545.81 1283.51 1542.52 Q1284.08 1539.29 1284.05 1532.05 Q1284.05 1525.01 1283.56 1522.19 Q1282.89 1518.91 1281.11 1517.6 Q1279.36 1516.26 1277.58 1516.26 Q1276.91 1516.26 1276.2 1516.46 Q1275.5 1516.66 1274.49 1517.23 Q1273.48 1517.8 1272.69 1519.2 Q1271.92 1520.61 1271.55 1522.74 Q1271.16 1525.48 1271.16 1532.05 Z" fill="#000000" fill-rule="nonzero" fill-opacity="1" /><path clip-path="url(#clip870)" d="M1755.91 1525.06 L1757.57 1514.66 L1758.83 1514.66 Q1758.98 1515.28 1759.22 1515.55 Q1759.49 1515.82 1760.93 1516.04 Q1762.38 1516.26 1765.32 1516.26 L1777.6 1516.26 Q1777.6 1517.43 1777.16 1518.04 L1770.31 1527.65 Q1768.14 1530.69 1767.18 1536.3 Q1766.61 1540.05 1766.63 1544.6 L1766.63 1547.17 Q1766.63 1549.96 1764.29 1549.96 Q1761.96 1549.96 1761.96 1547.17 Q1761.96 1537.51 1768.19 1528.15 Q1768.86 1527.18 1771.3 1523.75 Q1773.77 1520.32 1773.87 1520.17 L1763.4 1520.17 Q1758.8 1520.17 1758.43 1520.46 Q1757.94 1520.91 1757.17 1525.06 L1755.91 1525.06 Z" fill="#000000" fill-rule="nonzero" fill-opacity="1" /><path clip-path="url(#clip870)" d="M1780.89 1540.7 Q1780.89 1539.19 1781.7 1538.62 Q1782.52 1538.03 1783.38 1538.03 Q1784.54 1538.03 1785.21 1538.77 Q1785.9 1539.49 1785.9 1540.5 Q1785.9 1541.51 1785.21 1542.25 Q1784.54 1542.97 1783.38 1542.97 Q1782.81 1542.97 1782.52 1542.87 Q1783.18 1545.19 1785.21 1546.87 Q1787.26 1548.55 1789.95 1548.55 Q1793.34 1548.55 1795.36 1545.27 Q1796.57 1543.14 1796.57 1538.32 Q1796.57 1534.08 1795.66 1531.95 Q1794.25 1528.71 1791.36 1528.71 Q1787.26 1528.71 1784.84 1532.25 Q1784.54 1532.69 1784.2 1532.72 Q1783.7 1532.72 1783.58 1532.44 Q1783.48 1532.15 1783.48 1531.38 L1783.48 1516.41 Q1783.48 1515.2 1783.98 1515.2 Q1784.17 1515.2 1784.59 1515.35 Q1787.78 1516.76 1791.31 1516.78 Q1794.94 1516.78 1798.2 1515.3 Q1798.45 1515.15 1798.6 1515.15 Q1799.09 1515.15 1799.12 1515.72 Q1799.12 1515.92 1798.7 1516.51 Q1798.3 1517.08 1797.44 1517.85 Q1796.57 1518.59 1795.46 1519.3 Q1794.35 1520.02 1792.72 1520.51 Q1791.11 1520.98 1789.34 1520.98 Q1787.21 1520.98 1785.04 1520.32 L1785.04 1530.17 Q1787.66 1527.6 1791.46 1527.6 Q1795.51 1527.6 1798.3 1530.86 Q1801.09 1534.12 1801.09 1538.67 Q1801.09 1543.44 1797.78 1546.7 Q1794.5 1549.96 1790.05 1549.96 Q1786 1549.96 1783.43 1547.07 Q1780.89 1544.18 1780.89 1540.7 Z" fill="#000000" fill-rule="nonzero" fill-opacity="1" /><path clip-path="url(#clip870)" d="M2257.1 1519.97 L2257.1 1518.39 Q2263.17 1518.39 2266.31 1515.15 Q2267.17 1515.15 2267.32 1515.35 Q2267.47 1515.55 2267.47 1516.46 L2267.47 1544.85 Q2267.47 1546.35 2268.21 1546.82 Q2268.95 1547.29 2272.19 1547.29 L2273.79 1547.29 L2273.79 1548.85 Q2272.02 1548.7 2265.59 1548.7 Q2259.17 1548.7 2257.42 1548.85 L2257.42 1547.29 L2259.02 1547.29 Q2262.21 1547.29 2262.97 1546.85 Q2263.74 1546.38 2263.74 1544.85 L2263.74 1518.64 Q2261.1 1519.97 2257.1 1519.97 Z" fill="#000000" fill-rule="nonzero" fill-opacity="1" /><path clip-path="url(#clip870)" d="M2279.87 1532.67 Q2279.87 1525.23 2281.75 1521.18 Q2284.37 1515.15 2290.54 1515.15 Q2291.85 1515.15 2293.21 1515.52 Q2294.59 1515.87 2296.32 1517.23 Q2298.08 1518.59 2299.14 1520.81 Q2301.17 1525.11 2301.17 1532.67 Q2301.17 1540.05 2299.29 1544.08 Q2296.55 1549.96 2290.49 1549.96 Q2288.22 1549.96 2285.9 1548.8 Q2283.6 1547.64 2282.14 1544.85 Q2279.87 1540.67 2279.87 1532.67 M2284.07 1532.05 Q2284.07 1539.68 2284.61 1542.72 Q2285.23 1546.01 2286.91 1547.44 Q2288.62 1548.85 2290.49 1548.85 Q2292.52 1548.85 2294.2 1547.34 Q2295.9 1545.81 2296.42 1542.52 Q2296.99 1539.29 2296.97 1532.05 Q2296.97 1525.01 2296.47 1522.19 Q2295.81 1518.91 2294.03 1517.6 Q2292.27 1516.26 2290.49 1516.26 Q2289.83 1516.26 2289.11 1516.46 Q2288.42 1516.66 2287.41 1517.23 Q2286.39 1517.8 2285.6 1519.2 Q2284.84 1520.61 2284.47 1522.74 Q2284.07 1525.48 2284.07 1532.05 Z" fill="#000000" fill-rule="nonzero" fill-opacity="1" /><path clip-path="url(#clip870)" d="M2305.17 1532.67 Q2305.17 1525.23 2307.05 1521.18 Q2309.66 1515.15 2315.84 1515.15 Q2317.15 1515.15 2318.51 1515.52 Q2319.89 1515.87 2321.62 1517.23 Q2323.37 1518.59 2324.44 1520.81 Q2326.46 1525.11 2326.46 1532.67 Q2326.46 1540.05 2324.58 1544.08 Q2321.84 1549.96 2315.79 1549.96 Q2313.52 1549.96 2311.2 1548.8 Q2308.9 1547.64 2307.44 1544.85 Q2305.17 1540.67 2305.17 1532.67 M2309.37 1532.05 Q2309.37 1539.68 2309.91 1542.72 Q2310.53 1546.01 2312.21 1547.44 Q2313.91 1548.85 2315.79 1548.85 Q2317.82 1548.85 2319.5 1547.34 Q2321.2 1545.81 2321.72 1542.52 Q2322.29 1539.29 2322.26 1532.05 Q2322.26 1525.01 2321.77 1522.19 Q2321.1 1518.91 2319.32 1517.6 Q2317.57 1516.26 2315.79 1516.26 Q2315.12 1516.26 2314.41 1516.46 Q2313.72 1516.66 2312.7 1517.23 Q2311.69 1517.8 2310.9 1519.2 Q2310.13 1520.61 2309.76 1522.74 Q2309.37 1525.48 2309.37 1532.05 Z" fill="#000000" fill-rule="nonzero" fill-opacity="1" /><polyline clip-path="url(#clip872)" style="stroke:#000000; stroke-linecap:round; stroke-linejoin:round; stroke-width:2; stroke-opacity:0.1; fill:none" points="198.231,1445.72 2352.76,1445.72 "/>
<polyline clip-path="url(#clip872)" style="stroke:#000000; stroke-linecap:round; stroke-linejoin:round; stroke-width:2; stroke-opacity:0.1; fill:none" points="198.231,1144.9 2352.76,1144.9 "/>
<polyline clip-path="url(#clip872)" style="stroke:#000000; stroke-linecap:round; stroke-linejoin:round; stroke-width:2; stroke-opacity:0.1; fill:none" points="198.231,844.083 2352.76,844.083 "/>
<polyline clip-path="url(#clip872)" style="stroke:#000000; stroke-linecap:round; stroke-linejoin:round; stroke-width:2; stroke-opacity:0.1; fill:none" points="198.231,543.267 2352.76,543.267 "/>
<polyline clip-path="url(#clip872)" style="stroke:#000000; stroke-linecap:round; stroke-linejoin:round; stroke-width:2; stroke-opacity:0.1; fill:none" points="198.231,242.45 2352.76,242.45 "/>
<polyline clip-path="url(#clip870)" style="stroke:#000000; stroke-linecap:round; stroke-linejoin:round; stroke-width:4; stroke-opacity:1; fill:none" points="198.231,1486.45 198.231,47.2441 "/>
<polyline clip-path="url(#clip870)" style="stroke:#000000; stroke-linecap:round; stroke-linejoin:round; stroke-width:4; stroke-opacity:1; fill:none" points="198.231,1445.72 217.129,1445.72 "/>
<polyline clip-path="url(#clip870)" style="stroke:#000000; stroke-linecap:round; stroke-linejoin:round; stroke-width:4; stroke-opacity:1; fill:none" points="198.231,1144.9 217.129,1144.9 "/>
<polyline clip-path="url(#clip870)" style="stroke:#000000; stroke-linecap:round; stroke-linejoin:round; stroke-width:4; stroke-opacity:1; fill:none" points="198.231,844.083 217.129,844.083 "/>
<polyline clip-path="url(#clip870)" style="stroke:#000000; stroke-linecap:round; stroke-linejoin:round; stroke-width:4; stroke-opacity:1; fill:none" points="198.231,543.267 217.129,543.267 "/>
<polyline clip-path="url(#clip870)" style="stroke:#000000; stroke-linecap:round; stroke-linejoin:round; stroke-width:4; stroke-opacity:1; fill:none" points="198.231,242.45 217.129,242.45 "/>
<path clip-path="url(#clip870)" d="M50.9921 1446.81 Q50.9921 1439.38 52.8696 1435.33 Q55.4881 1429.3 61.664 1429.3 Q62.9733 1429.3 64.3319 1429.67 Q65.7153 1430.02 67.4446 1431.38 Q69.1985 1432.73 70.2607 1434.96 Q72.2864 1439.26 72.2864 1446.81 Q72.2864 1454.2 70.409 1458.23 Q67.6669 1464.11 61.6146 1464.11 Q59.3419 1464.11 57.0197 1462.95 Q54.7223 1461.79 53.2648 1458.99 Q50.9921 1454.82 50.9921 1446.81 M55.1917 1446.2 Q55.1917 1453.83 55.7352 1456.87 Q56.3528 1460.15 58.0326 1461.59 Q59.7371 1463 61.6146 1463 Q63.6402 1463 65.3201 1461.49 Q67.0246 1459.96 67.5434 1456.67 Q68.1116 1453.44 68.0869 1446.2 Q68.0869 1439.16 67.5928 1436.34 Q66.9258 1433.06 65.1472 1431.75 Q63.3932 1430.41 61.6146 1430.41 Q60.9476 1430.41 60.2312 1430.61 Q59.5395 1430.81 58.5267 1431.38 Q57.5138 1431.94 56.7233 1433.35 Q55.9575 1434.76 55.587 1436.88 Q55.1917 1439.63 55.1917 1446.2 Z" fill="#000000" fill-rule="nonzero" fill-opacity="1" /><path clip-path="url(#clip870)" d="M79.3763 1462.18 Q78.6105 1461.37 78.6105 1460.3 Q78.6105 1459.24 79.3763 1458.47 Q80.1421 1457.68 81.3031 1457.68 Q82.4148 1457.68 83.1559 1458.43 Q83.9217 1459.14 83.9217 1460.33 Q83.9217 1461.49 83.1065 1462.25 Q82.316 1463 81.3031 1463 Q80.1421 1463 79.3763 1462.18 Z" fill="#000000" fill-rule="nonzero" fill-opacity="1" /><path clip-path="url(#clip870)" d="M90.3446 1446.81 Q90.3446 1439.38 92.222 1435.33 Q94.8406 1429.3 101.016 1429.3 Q102.326 1429.3 103.684 1429.67 Q105.068 1430.02 106.797 1431.38 Q108.551 1432.73 109.613 1434.96 Q111.639 1439.26 111.639 1446.81 Q111.639 1454.2 109.761 1458.23 Q107.019 1464.11 100.967 1464.11 Q98.6943 1464.11 96.3722 1462.95 Q94.0748 1461.79 92.6173 1458.99 Q90.3446 1454.82 90.3446 1446.81 M94.5441 1446.2 Q94.5441 1453.83 95.0876 1456.87 Q95.7052 1460.15 97.385 1461.59 Q99.0896 1463 100.967 1463 Q102.993 1463 104.673 1461.49 Q106.377 1459.96 106.896 1456.67 Q107.464 1453.44 107.439 1446.2 Q107.439 1439.16 106.945 1436.34 Q106.278 1433.06 104.5 1431.75 Q102.746 1430.41 100.967 1430.41 Q100.3 1430.41 99.5836 1430.61 Q98.8919 1430.81 97.8791 1431.38 Q96.8663 1431.94 96.0758 1433.35 Q95.31 1434.76 94.9394 1436.88 Q94.5441 1439.63 94.5441 1446.2 Z" fill="#000000" fill-rule="nonzero" fill-opacity="1" /><path clip-path="url(#clip870)" d="M115.641 1446.81 Q115.641 1439.38 117.518 1435.33 Q120.137 1429.3 126.313 1429.3 Q127.622 1429.3 128.981 1429.67 Q130.364 1430.02 132.093 1431.38 Q133.847 1432.73 134.909 1434.96 Q136.935 1439.26 136.935 1446.81 Q136.935 1454.2 135.058 1458.23 Q132.316 1464.11 126.263 1464.11 Q123.991 1464.11 121.668 1462.95 Q119.371 1461.79 117.914 1458.99 Q115.641 1454.82 115.641 1446.81 M119.84 1446.2 Q119.84 1453.83 120.384 1456.87 Q121.001 1460.15 122.681 1461.59 Q124.386 1463 126.263 1463 Q128.289 1463 129.969 1461.49 Q131.673 1459.96 132.192 1456.67 Q132.76 1453.44 132.736 1446.2 Q132.736 1439.16 132.241 1436.34 Q131.574 1433.06 129.796 1431.75 Q128.042 1430.41 126.263 1430.41 Q125.596 1430.41 124.88 1430.61 Q124.188 1430.81 123.175 1431.38 Q122.163 1431.94 121.372 1433.35 Q120.606 1434.76 120.236 1436.88 Q119.84 1439.63 119.84 1446.2 Z" fill="#000000" fill-rule="nonzero" fill-opacity="1" /><path clip-path="url(#clip870)" d="M140.937 1446.81 Q140.937 1439.38 142.815 1435.33 Q145.433 1429.3 151.609 1429.3 Q152.918 1429.3 154.277 1429.67 Q155.66 1430.02 157.389 1431.38 Q159.143 1432.73 160.206 1434.96 Q162.231 1439.26 162.231 1446.81 Q162.231 1454.2 160.354 1458.23 Q157.612 1464.11 151.56 1464.11 Q149.287 1464.11 146.965 1462.95 Q144.667 1461.79 143.21 1458.99 Q140.937 1454.82 140.937 1446.81 M145.137 1446.2 Q145.137 1453.83 145.68 1456.87 Q146.298 1460.15 147.978 1461.59 Q149.682 1463 151.56 1463 Q153.585 1463 155.265 1461.49 Q156.97 1459.96 157.488 1456.67 Q158.056 1453.44 158.032 1446.2 Q158.032 1439.16 157.538 1436.34 Q156.871 1433.06 155.092 1431.75 Q153.338 1430.41 151.56 1430.41 Q150.893 1430.41 150.176 1430.61 Q149.484 1430.81 148.472 1431.38 Q147.459 1431.94 146.668 1433.35 Q145.902 1434.76 145.532 1436.88 Q145.137 1439.63 145.137 1446.2 Z" fill="#000000" fill-rule="nonzero" fill-opacity="1" /><path clip-path="url(#clip870)" d="M51.5356 1146 Q51.5356 1138.56 53.4131 1134.51 Q56.0316 1128.48 62.2075 1128.48 Q63.5167 1128.48 64.8754 1128.85 Q66.2588 1129.2 67.988 1130.56 Q69.742 1131.92 70.8042 1134.14 Q72.8299 1138.44 72.8299 1146 Q72.8299 1153.38 70.9524 1157.41 Q68.2104 1163.29 62.158 1163.29 Q59.8853 1163.29 57.5632 1162.13 Q55.2658 1160.97 53.8083 1158.18 Q51.5356 1154 51.5356 1146 M55.7352 1145.38 Q55.7352 1153.01 56.2786 1156.05 Q56.8962 1159.34 58.5761 1160.77 Q60.2806 1162.18 62.158 1162.18 Q64.1837 1162.18 65.8635 1160.67 Q67.5681 1159.14 68.0869 1155.86 Q68.655 1152.62 68.6303 1145.38 Q68.6303 1138.34 68.1363 1135.52 Q67.4693 1132.24 65.6906 1130.93 Q63.9367 1129.6 62.158 1129.6 Q61.4911 1129.6 60.7747 1129.79 Q60.083 1129.99 59.0701 1130.56 Q58.0573 1131.13 57.2668 1132.54 Q56.501 1133.94 56.1304 1136.07 Q55.7352 1138.81 55.7352 1145.38 Z" fill="#000000" fill-rule="nonzero" fill-opacity="1" /><path clip-path="url(#clip870)" d="M79.9198 1161.36 Q79.154 1160.55 79.154 1159.49 Q79.154 1158.42 79.9198 1157.66 Q80.6856 1156.87 81.8466 1156.87 Q82.9583 1156.87 83.6994 1157.61 Q84.4652 1158.33 84.4652 1159.51 Q84.4652 1160.67 83.65 1161.44 Q82.8595 1162.18 81.8466 1162.18 Q80.6856 1162.18 79.9198 1161.36 Z" fill="#000000" fill-rule="nonzero" fill-opacity="1" /><path clip-path="url(#clip870)" d="M90.8881 1146 Q90.8881 1138.56 92.7655 1134.51 Q95.3841 1128.48 101.56 1128.48 Q102.869 1128.48 104.228 1128.85 Q105.611 1129.2 107.34 1130.56 Q109.094 1131.92 110.157 1134.14 Q112.182 1138.44 112.182 1146 Q112.182 1153.38 110.305 1157.41 Q107.563 1163.29 101.51 1163.29 Q99.2378 1163.29 96.9157 1162.13 Q94.6183 1160.97 93.1608 1158.18 Q90.8881 1154 90.8881 1146 M95.0876 1145.38 Q95.0876 1153.01 95.6311 1156.05 Q96.2487 1159.34 97.9285 1160.77 Q99.633 1162.18 101.51 1162.18 Q103.536 1162.18 105.216 1160.67 Q106.921 1159.14 107.439 1155.86 Q108.007 1152.62 107.983 1145.38 Q107.983 1138.34 107.489 1135.52 Q106.822 1132.24 105.043 1130.93 Q103.289 1129.6 101.51 1129.6 Q100.844 1129.6 100.127 1129.79 Q99.4354 1129.99 98.4226 1130.56 Q97.4097 1131.13 96.6192 1132.54 Q95.8534 1133.94 95.4829 1136.07 Q95.0876 1138.81 95.0876 1145.38 Z" fill="#000000" fill-rule="nonzero" fill-opacity="1" /><path clip-path="url(#clip870)" d="M116.728 1162.18 Q116.728 1161.27 116.802 1160.99 Q116.901 1160.72 117.296 1160.3 L127.004 1149.48 Q132.316 1143.5 132.316 1138.29 Q132.316 1134.91 130.537 1132.49 Q128.783 1130.07 125.547 1130.07 Q123.324 1130.07 121.446 1131.42 Q119.569 1132.78 118.704 1135.2 Q118.852 1135.15 119.371 1135.15 Q120.631 1135.15 121.323 1135.94 Q122.039 1136.73 122.039 1137.8 Q122.039 1139.16 121.15 1139.82 Q120.285 1140.47 119.42 1140.47 Q119.075 1140.47 118.605 1140.39 Q118.161 1140.32 117.444 1139.63 Q116.728 1138.91 116.728 1137.65 Q116.728 1134.12 119.396 1131.3 Q122.088 1128.48 126.189 1128.48 Q130.833 1128.48 133.872 1131.25 Q136.935 1133.99 136.935 1138.29 Q136.935 1139.8 136.466 1141.18 Q136.021 1142.54 135.404 1143.6 Q134.811 1144.66 133.18 1146.37 Q131.55 1148.07 130.241 1149.28 Q128.931 1150.49 125.992 1153.06 L120.631 1158.28 L129.746 1158.28 Q134.193 1158.28 134.539 1157.88 Q135.033 1157.16 135.651 1153.38 L136.935 1153.38 L135.502 1162.18 L116.728 1162.18 Z" fill="#000000" fill-rule="nonzero" fill-opacity="1" /><path clip-path="url(#clip870)" d="M142.024 1154.03 Q142.024 1152.52 142.839 1151.95 Q143.654 1151.36 144.519 1151.36 Q145.68 1151.36 146.347 1152.1 Q147.039 1152.82 147.039 1153.83 Q147.039 1154.84 146.347 1155.58 Q145.68 1156.3 144.519 1156.3 Q143.951 1156.3 143.654 1156.2 Q144.321 1158.52 146.347 1160.2 Q148.397 1161.88 151.09 1161.88 Q154.474 1161.88 156.5 1158.6 Q157.711 1156.47 157.711 1151.66 Q157.711 1147.41 156.797 1145.28 Q155.389 1142.05 152.498 1142.05 Q148.397 1142.05 145.977 1145.58 Q145.68 1146.02 145.334 1146.05 Q144.84 1146.05 144.717 1145.78 Q144.618 1145.48 144.618 1144.71 L144.618 1129.74 Q144.618 1128.53 145.112 1128.53 Q145.31 1128.53 145.73 1128.68 Q148.916 1130.09 152.449 1130.11 Q156.08 1130.11 159.341 1128.63 Q159.588 1128.48 159.736 1128.48 Q160.23 1128.48 160.255 1129.05 Q160.255 1129.25 159.835 1129.84 Q159.44 1130.41 158.575 1131.18 Q157.711 1131.92 156.599 1132.63 Q155.487 1133.35 153.857 1133.84 Q152.251 1134.31 150.473 1134.31 Q148.348 1134.31 146.174 1133.65 L146.174 1143.5 Q148.793 1140.93 152.597 1140.93 Q156.648 1140.93 159.44 1144.2 Q162.231 1147.46 162.231 1152 Q162.231 1156.77 158.921 1160.03 Q155.636 1163.29 151.189 1163.29 Q147.138 1163.29 144.568 1160.4 Q142.024 1157.51 142.024 1154.03 Z" fill="#000000" fill-rule="nonzero" fill-opacity="1" /><path clip-path="url(#clip870)" d="M50.9921 845.182 Q50.9921 837.747 52.8696 833.695 Q55.4881 827.668 61.664 827.668 Q62.9733 827.668 64.3319 828.038 Q65.7153 828.384 67.4446 829.743 Q69.1985 831.101 70.2607 833.325 Q72.2864 837.623 72.2864 845.182 Q72.2864 852.569 70.409 856.595 Q67.6669 862.475 61.6146 862.475 Q59.3419 862.475 57.0197 861.314 Q54.7223 860.153 53.2648 857.361 Q50.9921 853.186 50.9921 845.182 M55.1917 844.565 Q55.1917 852.198 55.7352 855.237 Q56.3528 858.522 58.0326 859.955 Q59.7371 861.363 61.6146 861.363 Q63.6402 861.363 65.3201 859.856 Q67.0246 858.325 67.5434 855.039 Q68.1116 851.803 68.0869 844.565 Q68.0869 837.524 67.5928 834.708 Q66.9258 831.423 65.1472 830.113 Q63.3932 828.779 61.6146 828.779 Q60.9476 828.779 60.2312 828.977 Q59.5395 829.175 58.5267 829.743 Q57.5138 830.311 56.7233 831.719 Q55.9575 833.127 55.587 835.252 Q55.1917 837.994 55.1917 844.565 Z" fill="#000000" fill-rule="nonzero" fill-opacity="1" /><path clip-path="url(#clip870)" d="M79.3763 860.548 Q78.6105 859.733 78.6105 858.67 Q78.6105 857.608 79.3763 856.842 Q80.1421 856.052 81.3031 856.052 Q82.4148 856.052 83.1559 856.793 Q83.9217 857.509 83.9217 858.695 Q83.9217 859.856 83.1065 860.622 Q82.316 861.363 81.3031 861.363 Q80.1421 861.363 79.3763 860.548 Z" fill="#000000" fill-rule="nonzero" fill-opacity="1" /><path clip-path="url(#clip870)" d="M90.3446 845.182 Q90.3446 837.747 92.222 833.695 Q94.8406 827.668 101.016 827.668 Q102.326 827.668 103.684 828.038 Q105.068 828.384 106.797 829.743 Q108.551 831.101 109.613 833.325 Q111.639 837.623 111.639 845.182 Q111.639 852.569 109.761 856.595 Q107.019 862.475 100.967 862.475 Q98.6943 862.475 96.3722 861.314 Q94.0748 860.153 92.6173 857.361 Q90.3446 853.186 90.3446 845.182 M94.5441 844.565 Q94.5441 852.198 95.0876 855.237 Q95.7052 858.522 97.385 859.955 Q99.0896 861.363 100.967 861.363 Q102.993 861.363 104.673 859.856 Q106.377 858.325 106.896 855.039 Q107.464 851.803 107.439 844.565 Q107.439 837.524 106.945 834.708 Q106.278 831.423 104.5 830.113 Q102.746 828.779 100.967 828.779 Q100.3 828.779 99.5836 828.977 Q98.8919 829.175 97.8791 829.743 Q96.8663 830.311 96.0758 831.719 Q95.31 833.127 94.9394 835.252 Q94.5441 837.994 94.5441 844.565 Z" fill="#000000" fill-rule="nonzero" fill-opacity="1" /><path clip-path="url(#clip870)" d="M116.184 853.211 Q116.184 851.704 117 851.136 Q117.815 850.543 118.679 850.543 Q119.84 850.543 120.507 851.284 Q121.199 852.001 121.199 853.013 Q121.199 854.026 120.507 854.767 Q119.84 855.484 118.679 855.484 Q118.111 855.484 117.815 855.385 Q118.482 857.707 120.507 859.387 Q122.558 861.067 125.25 861.067 Q128.635 861.067 130.66 857.781 Q131.871 855.657 131.871 850.839 Q131.871 846.59 130.957 844.466 Q129.549 841.23 126.659 841.23 Q122.558 841.23 120.137 844.762 Q119.84 845.207 119.495 845.232 Q119 845.232 118.877 844.96 Q118.778 844.664 118.778 843.898 L118.778 828.928 Q118.778 827.717 119.272 827.717 Q119.47 827.717 119.89 827.865 Q123.077 829.273 126.609 829.298 Q130.241 829.298 133.501 827.816 Q133.748 827.668 133.897 827.668 Q134.391 827.668 134.415 828.236 Q134.415 828.433 133.995 829.026 Q133.6 829.595 132.736 830.36 Q131.871 831.101 130.759 831.818 Q129.648 832.534 128.017 833.028 Q126.411 833.498 124.633 833.498 Q122.508 833.498 120.334 832.831 L120.334 842.687 Q122.953 840.118 126.757 840.118 Q130.809 840.118 133.6 843.379 Q136.392 846.64 136.392 851.185 Q136.392 855.953 133.081 859.214 Q129.796 862.475 125.349 862.475 Q121.298 862.475 118.729 859.584 Q116.184 856.694 116.184 853.211 Z" fill="#000000" fill-rule="nonzero" fill-opacity="1" /><path clip-path="url(#clip870)" d="M140.937 845.182 Q140.937 837.747 142.815 833.695 Q145.433 827.668 151.609 827.668 Q152.918 827.668 154.277 828.038 Q155.66 828.384 157.389 829.743 Q159.143 831.101 160.206 833.325 Q162.231 837.623 162.231 845.182 Q162.231 852.569 160.354 856.595 Q157.612 862.475 151.56 862.475 Q149.287 862.475 146.965 861.314 Q144.667 860.153 143.21 857.361 Q140.937 853.186 140.937 845.182 M145.137 844.565 Q145.137 852.198 145.68 855.237 Q146.298 858.522 147.978 859.955 Q149.682 861.363 151.56 861.363 Q153.585 861.363 155.265 859.856 Q156.97 858.325 157.488 855.039 Q158.056 851.803 158.032 844.565 Q158.032 837.524 157.538 834.708 Q156.871 831.423 155.092 830.113 Q153.338 828.779 151.56 828.779 Q150.893 828.779 150.176 828.977 Q149.484 829.175 148.472 829.743 Q147.459 830.311 146.668 831.719 Q145.902 833.127 145.532 835.252 Q145.137 837.994 145.137 844.565 Z" fill="#000000" fill-rule="nonzero" fill-opacity="1" /><path clip-path="url(#clip870)" d="M51.5356 544.366 Q51.5356 536.93 53.4131 532.879 Q56.0316 526.851 62.2075 526.851 Q63.5167 526.851 64.8754 527.222 Q66.2588 527.568 67.988 528.926 Q69.742 530.285 70.8042 532.508 Q72.8299 536.807 72.8299 544.366 Q72.8299 551.752 70.9524 555.779 Q68.2104 561.658 62.158 561.658 Q59.8853 561.658 57.5632 560.497 Q55.2658 559.336 53.8083 556.545 Q51.5356 552.37 51.5356 544.366 M55.7352 543.748 Q55.7352 551.382 56.2786 554.42 Q56.8962 557.706 58.5761 559.139 Q60.2806 560.547 62.158 560.547 Q64.1837 560.547 65.8635 559.04 Q67.5681 557.508 68.0869 554.223 Q68.655 550.987 68.6303 543.748 Q68.6303 536.708 68.1363 533.892 Q67.4693 530.606 65.6906 529.297 Q63.9367 527.963 62.158 527.963 Q61.4911 527.963 60.7747 528.161 Q60.083 528.358 59.0701 528.926 Q58.0573 529.495 57.2668 530.903 Q56.501 532.311 56.1304 534.435 Q55.7352 537.177 55.7352 543.748 Z" fill="#000000" fill-rule="nonzero" fill-opacity="1" /><path clip-path="url(#clip870)" d="M79.9198 559.732 Q79.154 558.916 79.154 557.854 Q79.154 556.792 79.9198 556.026 Q80.6856 555.236 81.8466 555.236 Q82.9583 555.236 83.6994 555.977 Q84.4652 556.693 84.4652 557.879 Q84.4652 559.04 83.65 559.806 Q82.8595 560.547 81.8466 560.547 Q80.6856 560.547 79.9198 559.732 Z" fill="#000000" fill-rule="nonzero" fill-opacity="1" /><path clip-path="url(#clip870)" d="M90.8881 544.366 Q90.8881 536.93 92.7655 532.879 Q95.3841 526.851 101.56 526.851 Q102.869 526.851 104.228 527.222 Q105.611 527.568 107.34 528.926 Q109.094 530.285 110.157 532.508 Q112.182 536.807 112.182 544.366 Q112.182 551.752 110.305 555.779 Q107.563 561.658 101.51 561.658 Q99.2378 561.658 96.9157 560.497 Q94.6183 559.336 93.1608 556.545 Q90.8881 552.37 90.8881 544.366 M95.0876 543.748 Q95.0876 551.382 95.6311 554.42 Q96.2487 557.706 97.9285 559.139 Q99.633 560.547 101.51 560.547 Q103.536 560.547 105.216 559.04 Q106.921 557.508 107.439 554.223 Q108.007 550.987 107.983 543.748 Q107.983 536.708 107.489 533.892 Q106.822 530.606 105.043 529.297 Q103.289 527.963 101.51 527.963 Q100.844 527.963 100.127 528.161 Q99.4354 528.358 98.4226 528.926 Q97.4097 529.495 96.6192 530.903 Q95.8534 532.311 95.4829 534.435 Q95.0876 537.177 95.0876 543.748 Z" fill="#000000" fill-rule="nonzero" fill-opacity="1" /><path clip-path="url(#clip870)" d="M117.049 536.757 L118.704 526.357 L119.964 526.357 Q120.112 526.975 120.359 527.247 Q120.631 527.518 122.064 527.741 Q123.521 527.963 126.461 527.963 L138.738 527.963 Q138.738 529.124 138.294 529.742 L131.451 539.351 Q129.277 542.39 128.314 547.997 Q127.745 551.752 127.77 556.298 L127.77 558.867 Q127.77 561.658 125.423 561.658 Q123.101 561.658 123.101 558.867 Q123.101 549.208 129.326 539.845 Q129.993 538.882 132.439 535.448 Q134.909 532.014 135.008 531.866 L124.534 531.866 Q119.939 531.866 119.569 532.163 Q119.075 532.607 118.309 536.757 L117.049 536.757 Z" fill="#000000" fill-rule="nonzero" fill-opacity="1" /><path clip-path="url(#clip870)" d="M142.024 552.395 Q142.024 550.888 142.839 550.32 Q143.654 549.727 144.519 549.727 Q145.68 549.727 146.347 550.468 Q147.039 551.184 147.039 552.197 Q147.039 553.21 146.347 553.951 Q145.68 554.667 144.519 554.667 Q143.951 554.667 143.654 554.569 Q144.321 556.891 146.347 558.571 Q148.397 560.25 151.09 560.25 Q154.474 560.25 156.5 556.965 Q157.711 554.84 157.711 550.023 Q157.711 545.774 156.797 543.65 Q155.389 540.414 152.498 540.414 Q148.397 540.414 145.977 543.946 Q145.68 544.391 145.334 544.415 Q144.84 544.415 144.717 544.144 Q144.618 543.847 144.618 543.081 L144.618 528.111 Q144.618 526.901 145.112 526.901 Q145.31 526.901 145.73 527.049 Q148.916 528.457 152.449 528.482 Q156.08 528.482 159.341 527 Q159.588 526.851 159.736 526.851 Q160.23 526.851 160.255 527.42 Q160.255 527.617 159.835 528.21 Q159.44 528.778 158.575 529.544 Q157.711 530.285 156.599 531.002 Q155.487 531.718 153.857 532.212 Q152.251 532.681 150.473 532.681 Q148.348 532.681 146.174 532.014 L146.174 541.871 Q148.793 539.302 152.597 539.302 Q156.648 539.302 159.44 542.563 Q162.231 545.824 162.231 550.369 Q162.231 555.137 158.921 558.398 Q155.636 561.658 151.189 561.658 Q147.138 561.658 144.568 558.768 Q142.024 555.878 142.024 552.395 Z" fill="#000000" fill-rule="nonzero" fill-opacity="1" /><path clip-path="url(#clip870)" d="M50.9921 243.55 Q50.9921 236.114 52.8696 232.063 Q55.4881 226.035 61.664 226.035 Q62.9733 226.035 64.3319 226.406 Q65.7153 226.751 67.4446 228.11 Q69.1985 229.469 70.2607 231.692 Q72.2864 235.991 72.2864 243.55 Q72.2864 250.936 70.409 254.963 Q67.6669 260.842 61.6146 260.842 Q59.3419 260.842 57.0197 259.681 Q54.7223 258.52 53.2648 255.729 Q50.9921 251.554 50.9921 243.55 M55.1917 242.932 Q55.1917 250.566 55.7352 253.604 Q56.3528 256.89 58.0326 258.322 Q59.7371 259.73 61.6146 259.73 Q63.6402 259.73 65.3201 258.224 Q67.0246 256.692 67.5434 253.406 Q68.1116 250.17 68.0869 242.932 Q68.0869 235.892 67.5928 233.076 Q66.9258 229.79 65.1472 228.481 Q63.3932 227.147 61.6146 227.147 Q60.9476 227.147 60.2312 227.344 Q59.5395 227.542 58.5267 228.11 Q57.5138 228.678 56.7233 230.086 Q55.9575 231.495 55.587 233.619 Q55.1917 236.361 55.1917 242.932 Z" fill="#000000" fill-rule="nonzero" fill-opacity="1" /><path clip-path="url(#clip870)" d="M79.3763 258.915 Q78.6105 258.1 78.6105 257.038 Q78.6105 255.976 79.3763 255.21 Q80.1421 254.419 81.3031 254.419 Q82.4148 254.419 83.1559 255.16 Q83.9217 255.877 83.9217 257.063 Q83.9217 258.224 83.1065 258.989 Q82.316 259.73 81.3031 259.73 Q80.1421 259.73 79.3763 258.915 Z" fill="#000000" fill-rule="nonzero" fill-opacity="1" /><path clip-path="url(#clip870)" d="M92.8643 230.852 L92.8643 229.271 Q98.9413 229.271 102.079 226.035 Q102.943 226.035 103.092 226.233 Q103.24 226.43 103.24 227.344 L103.24 255.729 Q103.24 257.235 103.981 257.705 Q104.722 258.174 107.958 258.174 L109.564 258.174 L109.564 259.73 Q107.785 259.582 101.362 259.582 Q94.9394 259.582 93.1855 259.73 L93.1855 258.174 L94.7912 258.174 Q97.9779 258.174 98.7437 257.729 Q99.5095 257.26 99.5095 255.729 L99.5095 229.518 Q96.8663 230.852 92.8643 230.852 Z" fill="#000000" fill-rule="nonzero" fill-opacity="1" /><path clip-path="url(#clip870)" d="M115.641 243.55 Q115.641 236.114 117.518 232.063 Q120.137 226.035 126.313 226.035 Q127.622 226.035 128.981 226.406 Q130.364 226.751 132.093 228.11 Q133.847 229.469 134.909 231.692 Q136.935 235.991 136.935 243.55 Q136.935 250.936 135.058 254.963 Q132.316 260.842 126.263 260.842 Q123.991 260.842 121.668 259.681 Q119.371 258.52 117.914 255.729 Q115.641 251.554 115.641 243.55 M119.84 242.932 Q119.84 250.566 120.384 253.604 Q121.001 256.89 122.681 258.322 Q124.386 259.73 126.263 259.73 Q128.289 259.73 129.969 258.224 Q131.673 256.692 132.192 253.406 Q132.76 250.17 132.736 242.932 Q132.736 235.892 132.241 233.076 Q131.574 229.79 129.796 228.481 Q128.042 227.147 126.263 227.147 Q125.596 227.147 124.88 227.344 Q124.188 227.542 123.175 228.11 Q122.163 228.678 121.372 230.086 Q120.606 231.495 120.236 233.619 Q119.84 236.361 119.84 242.932 Z" fill="#000000" fill-rule="nonzero" fill-opacity="1" /><path clip-path="url(#clip870)" d="M140.937 243.55 Q140.937 236.114 142.815 232.063 Q145.433 226.035 151.609 226.035 Q152.918 226.035 154.277 226.406 Q155.66 226.751 157.389 228.11 Q159.143 229.469 160.206 231.692 Q162.231 235.991 162.231 243.55 Q162.231 250.936 160.354 254.963 Q157.612 260.842 151.56 260.842 Q149.287 260.842 146.965 259.681 Q144.667 258.52 143.21 255.729 Q140.937 251.554 140.937 243.55 M145.137 242.932 Q145.137 250.566 145.68 253.604 Q146.298 256.89 147.978 258.322 Q149.682 259.73 151.56 259.73 Q153.585 259.73 155.265 258.224 Q156.97 256.692 157.488 253.406 Q158.056 250.17 158.032 242.932 Q158.032 235.892 157.538 233.076 Q156.871 229.79 155.092 228.481 Q153.338 227.147 151.56 227.147 Q150.893 227.147 150.176 227.344 Q149.484 227.542 148.472 228.11 Q147.459 228.678 146.668 230.086 Q145.902 231.495 145.532 233.619 Q145.137 236.361 145.137 242.932 Z" fill="#000000" fill-rule="nonzero" fill-opacity="1" /><polyline clip-path="url(#clip872)" style="stroke:#009af9; stroke-linecap:round; stroke-linejoin:round; stroke-width:8; stroke-opacity:1; fill:none" points="259.208,1445.72 279.739,1445.72 300.27,1445.72 320.802,1445.72 341.333,1445.72 361.864,1445.72 382.395,1445.72 402.926,1445.72 423.457,1445.72 443.988,1445.72 464.519,1445.72 485.05,1445.72 505.581,1445.72 526.112,1445.72 546.643,1445.71 567.174,1445.71 587.705,1445.7 608.236,1445.67 628.767,1445.55 649.298,1445.18 669.829,1444.14 690.36,1441.44 710.891,1434.98 731.422,1420.85 751.953,1392.54 772.484,1340.76 793.015,1254.47 813.546,1124.03 834.077,946.231 854.608,729.79 875.139,498.453 895.67,288.726 916.201,141.214 936.732,87.9763 957.263,141.214 977.794,288.726 998.325,498.453 1018.86,729.79 1039.39,946.231 1059.92,1124.03 1080.45,1254.47 1100.98,1340.76 1121.51,1392.54 1142.04,1420.85 1162.57,1434.98 1183.1,1441.44 1203.64,1444.14 1224.17,1445.18 1244.7,1445.55 1265.23,1445.67 1285.76,1445.7 1306.29,1445.71 1326.82,1445.71 1347.35,1445.72 1367.88,1445.72 1388.41,1445.72 1408.95,1445.72 1429.48,1445.72 1450.01,1445.72 1470.54,1445.72 1491.07,1445.72 1511.6,1445.72 1532.13,1445.72 1552.66,1445.72 1573.19,1445.72 1593.72,1445.72 1614.26,1445.72 1634.79,1445.72 1655.32,1445.72 1675.85,1445.72 1696.38,1445.72 1716.91,1445.72 1737.44,1445.72 1757.97,1445.72 1778.5,1445.72 1799.03,1445.72 1819.57,1445.72 1840.1,1445.72 1860.63,1445.72 1881.16,1445.72 1901.69,1445.72 1922.22,1445.72 1942.75,1445.72 1963.28,1445.72 1983.81,1445.72 2004.34,1445.72 2024.88,1445.72 2045.41,1445.72 2065.94,1445.72 2086.47,1445.72 2107,1445.72 2127.53,1445.72 2148.06,1445.72 2168.59,1445.72 2189.12,1445.72 2209.65,1445.72 2230.19,1445.72 2250.72,1445.72 2271.25,1445.72 2291.78,1445.72 "/>
<path clip-path="url(#clip870)" d="M2018.6 198.898 L2280.94 198.898 L2280.94 95.2176 L2018.6 95.2176  Z" fill="#ffffff" fill-rule="evenodd" fill-opacity="1"/>
<polyline clip-path="url(#clip870)" style="stroke:#000000; stroke-linecap:round; stroke-linejoin:round; stroke-width:4; stroke-opacity:1; fill:none" points="2018.6,198.898 2280.94,198.898 2280.94,95.2176 2018.6,95.2176 2018.6,198.898 "/>
<polyline clip-path="url(#clip870)" style="stroke:#009af9; stroke-linecap:round; stroke-linejoin:round; stroke-width:8; stroke-opacity:1; fill:none" points="2042.54,147.058 2186.17,147.058 "/>
<path clip-path="url(#clip870)" d="M2210.11 170.612 Q2210.11 169.55 2210.73 168.982 Q2211.37 168.438 2212.24 168.438 Q2213.15 168.438 2213.74 169.006 Q2214.36 169.599 2214.36 170.563 Q2214.36 172.44 2212.38 172.687 Q2213.35 173.601 2214.76 173.601 Q2216.26 173.601 2217.47 172.49 Q2218.71 171.378 2219.23 170.316 Q2219.77 169.254 2220.54 167.327 Q2221.25 165.82 2221.8 164.338 L2214.21 145.859 Q2213.72 144.649 2212.95 144.377 Q2212.19 144.106 2210.11 144.106 L2210.11 142.524 Q2212.38 142.673 2215.03 142.673 Q2216.58 142.673 2220.54 142.524 L2220.54 144.106 Q2217.7 144.106 2217.7 145.415 Q2217.7 145.563 2217.99 146.329 L2223.63 159.94 L2228.74 147.49 Q2229.04 146.773 2229.04 146.279 Q2229.04 144.204 2226.66 144.106 L2226.66 142.524 Q2230 142.673 2231.06 142.673 Q2233.14 142.673 2234.84 142.524 L2234.84 144.106 Q2231.46 144.106 2230.15 147.342 L2221.23 168.932 Q2218.81 174.688 2214.76 174.713 Q2212.83 174.713 2211.47 173.527 Q2210.11 172.341 2210.11 170.612 Z" fill="#000000" fill-rule="nonzero" fill-opacity="1" /><path clip-path="url(#clip870)" d="M2240.3 135.459 L2240.3 133.878 Q2246.38 133.878 2249.51 130.642 Q2250.38 130.642 2250.53 130.84 Q2250.68 131.037 2250.68 131.951 L2250.68 160.336 Q2250.68 161.843 2251.42 162.312 Q2252.16 162.781 2255.39 162.781 L2257 162.781 L2257 164.338 Q2255.22 164.189 2248.8 164.189 Q2242.37 164.189 2240.62 164.338 L2240.62 162.781 L2242.23 162.781 Q2245.41 162.781 2246.18 162.337 Q2246.94 161.867 2246.94 160.336 L2246.94 134.125 Q2244.3 135.459 2240.3 135.459 Z" fill="#000000" fill-rule="nonzero" fill-opacity="1" /></svg>
