<?xml version="1.0" encoding="utf-8"?>
<svg xmlns="http://www.w3.org/2000/svg" xmlns:xlink="http://www.w3.org/1999/xlink" width="600" height="400" viewBox="0 0 2400 1600">
<defs>
  <clipPath id="clip340">
    <rect x="0" y="0" width="2400" height="1600"/>
  </clipPath>
</defs>
<path clip-path="url(#clip340)" d="
M0 1600 L2400 1600 L2400 0 L0 0  Z
  " fill="#ffffff" fill-rule="evenodd" fill-opacity="1"/>
<defs>
  <clipPath id="clip341">
    <rect x="480" y="0" width="1681" height="1600"/>
  </clipPath>
</defs>
<defs>
  <clipPath id="clip342">
    <rect x="223" y="47" width="1426" height="1377"/>
  </clipPath>
</defs>
<path clip-path="url(#clip340)" d="
M223.03 1423.18 L1648.05 1423.18 L1648.05 47.2441 L223.03 47.2441  Z
  " fill="#ffffff" fill-rule="evenodd" fill-opacity="1"/>
<polyline clip-path="url(#clip342)" style="stroke:#000000; stroke-linecap:round; stroke-linejoin:round; stroke-width:2; stroke-opacity:0.1; fill:none" points="
  263.361,1423.18 263.361,47.2441 
  "/>
<polyline clip-path="url(#clip342)" style="stroke:#000000; stroke-linecap:round; stroke-linejoin:round; stroke-width:2; stroke-opacity:0.1; fill:none" points="
  532.232,1423.18 532.232,47.2441 
  "/>
<polyline clip-path="url(#clip342)" style="stroke:#000000; stroke-linecap:round; stroke-linejoin:round; stroke-width:2; stroke-opacity:0.1; fill:none" points="
  801.103,1423.18 801.103,47.2441 
  "/>
<polyline clip-path="url(#clip342)" style="stroke:#000000; stroke-linecap:round; stroke-linejoin:round; stroke-width:2; stroke-opacity:0.1; fill:none" points="
  1069.97,1423.18 1069.97,47.2441 
  "/>
<polyline clip-path="url(#clip342)" style="stroke:#000000; stroke-linecap:round; stroke-linejoin:round; stroke-width:2; stroke-opacity:0.1; fill:none" points="
  1338.85,1423.18 1338.85,47.2441 
  "/>
<polyline clip-path="url(#clip342)" style="stroke:#000000; stroke-linecap:round; stroke-linejoin:round; stroke-width:2; stroke-opacity:0.1; fill:none" points="
  1607.72,1423.18 1607.72,47.2441 
  "/>
<polyline clip-path="url(#clip340)" style="stroke:#000000; stroke-linecap:round; stroke-linejoin:round; stroke-width:4; stroke-opacity:1; fill:none" points="
  223.03,1423.18 1648.05,1423.18 
  "/>
<polyline clip-path="url(#clip340)" style="stroke:#000000; stroke-linecap:round; stroke-linejoin:round; stroke-width:4; stroke-opacity:1; fill:none" points="
  263.361,1423.18 263.361,1404.28 
  "/>
<polyline clip-path="url(#clip340)" style="stroke:#000000; stroke-linecap:round; stroke-linejoin:round; stroke-width:4; stroke-opacity:1; fill:none" points="
  532.232,1423.18 532.232,1404.28 
  "/>
<polyline clip-path="url(#clip340)" style="stroke:#000000; stroke-linecap:round; stroke-linejoin:round; stroke-width:4; stroke-opacity:1; fill:none" points="
  801.103,1423.18 801.103,1404.28 
  "/>
<polyline clip-path="url(#clip340)" style="stroke:#000000; stroke-linecap:round; stroke-linejoin:round; stroke-width:4; stroke-opacity:1; fill:none" points="
  1069.97,1423.18 1069.97,1404.28 
  "/>
<polyline clip-path="url(#clip340)" style="stroke:#000000; stroke-linecap:round; stroke-linejoin:round; stroke-width:4; stroke-opacity:1; fill:none" points="
  1338.85,1423.18 1338.85,1404.28 
  "/>
<polyline clip-path="url(#clip340)" style="stroke:#000000; stroke-linecap:round; stroke-linejoin:round; stroke-width:4; stroke-opacity:1; fill:none" points="
  1607.72,1423.18 1607.72,1404.28 
  "/>
<path clip-path="url(#clip340)" d="M233.111 1469.4 Q233.111 1461.96 234.989 1457.91 Q237.608 1451.88 243.783 1451.88 Q245.093 1451.88 246.451 1452.26 Q247.835 1452.6 249.564 1453.96 Q251.318 1455.32 252.38 1457.54 Q254.406 1461.84 254.406 1469.4 Q254.406 1476.79 252.528 1480.81 Q249.786 1486.69 243.734 1486.69 Q241.461 1486.69 239.139 1485.53 Q236.842 1484.37 235.384 1481.58 Q233.111 1477.4 233.111 1469.4 M237.311 1468.78 Q237.311 1476.41 237.855 1479.45 Q238.472 1482.74 240.152 1484.17 Q241.856 1485.58 243.734 1485.58 Q245.76 1485.58 247.439 1484.07 Q249.144 1482.54 249.663 1479.26 Q250.231 1476.02 250.206 1468.78 Q250.206 1461.74 249.712 1458.92 Q249.045 1455.64 247.267 1454.33 Q245.513 1453 243.734 1453 Q243.067 1453 242.351 1453.19 Q241.659 1453.39 240.646 1453.96 Q239.633 1454.53 238.843 1455.94 Q238.077 1457.34 237.706 1459.47 Q237.311 1462.21 237.311 1468.78 Z" fill="#000000" fill-rule="evenodd" fill-opacity="1" /><path clip-path="url(#clip340)" d="M261.496 1484.76 Q260.73 1483.95 260.73 1482.89 Q260.73 1481.82 261.496 1481.06 Q262.261 1480.27 263.423 1480.27 Q264.534 1480.27 265.275 1481.01 Q266.041 1481.73 266.041 1482.91 Q266.041 1484.07 265.226 1484.84 Q264.435 1485.58 263.423 1485.58 Q262.261 1485.58 261.496 1484.76 Z" fill="#000000" fill-rule="evenodd" fill-opacity="1" /><path clip-path="url(#clip340)" d="M272.612 1463.27 Q272.612 1460.58 273.403 1458.75 Q274.193 1456.9 275.848 1455.07 Q278.887 1451.88 283.284 1451.88 Q285.161 1451.88 286.817 1452.67 Q288.496 1453.47 290.077 1455.27 Q291.683 1457.05 292.647 1460.58 Q293.61 1464.09 293.61 1468.93 Q293.61 1476.76 289.806 1481.73 Q286.026 1486.69 280.912 1486.69 Q277.676 1486.69 275.774 1485.23 Q273.872 1483.75 273.872 1481.23 Q273.872 1479.92 274.613 1479.38 Q275.354 1478.81 276.194 1478.81 Q277.108 1478.81 277.825 1479.43 Q278.541 1480.02 278.541 1481.13 Q278.541 1482.05 277.948 1482.76 Q277.38 1483.46 275.898 1483.46 Q277.355 1485.28 280.863 1485.28 Q282.123 1485.28 283.383 1484.72 Q284.643 1484.12 286.001 1482.71 Q287.385 1481.28 288.225 1478.29 Q289.065 1475.3 289.065 1471.1 L289.065 1469.5 Q287.039 1474.56 282.741 1474.56 Q278.492 1474.56 275.552 1471.3 Q272.612 1468.04 272.612 1463.27 M277.158 1463.32 Q277.158 1468.34 278.072 1470.19 Q279.628 1473.38 282.79 1473.38 Q285.878 1473.38 287.409 1470.63 Q288.966 1467.87 288.966 1464.29 Q288.966 1459.32 288.151 1457.15 Q286.644 1453.14 283.284 1453.14 Q279.949 1453.14 278.22 1456.33 Q277.158 1458.21 277.158 1463.32 Z" fill="#000000" fill-rule="evenodd" fill-opacity="1" /><path clip-path="url(#clip340)" d="M503.168 1456.7 L503.168 1455.12 Q509.245 1455.12 512.383 1451.88 Q513.247 1451.88 513.396 1452.08 Q513.544 1452.28 513.544 1453.19 L513.544 1481.58 Q513.544 1483.08 514.285 1483.55 Q515.026 1484.02 518.262 1484.02 L519.868 1484.02 L519.868 1485.58 Q518.089 1485.43 511.666 1485.43 Q505.243 1485.43 503.49 1485.58 L503.49 1484.02 L505.095 1484.02 Q508.282 1484.02 509.048 1483.58 Q509.814 1483.11 509.814 1481.58 L509.814 1455.37 Q507.17 1456.7 503.168 1456.7 Z" fill="#000000" fill-rule="evenodd" fill-opacity="1" /><path clip-path="url(#clip340)" d="M529.033 1484.76 Q528.267 1483.95 528.267 1482.89 Q528.267 1481.82 529.033 1481.06 Q529.799 1480.27 530.96 1480.27 Q532.071 1480.27 532.812 1481.01 Q533.578 1481.73 533.578 1482.91 Q533.578 1484.07 532.763 1484.84 Q531.972 1485.58 530.96 1485.58 Q529.799 1485.58 529.033 1484.76 Z" fill="#000000" fill-rule="evenodd" fill-opacity="1" /><path clip-path="url(#clip340)" d="M540.001 1469.4 Q540.001 1461.96 541.879 1457.91 Q544.497 1451.88 550.673 1451.88 Q551.982 1451.88 553.341 1452.26 Q554.724 1452.6 556.454 1453.96 Q558.207 1455.32 559.27 1457.54 Q561.295 1461.84 561.295 1469.4 Q561.295 1476.79 559.418 1480.81 Q556.676 1486.69 550.624 1486.69 Q548.351 1486.69 546.029 1485.53 Q543.731 1484.37 542.274 1481.58 Q540.001 1477.4 540.001 1469.4 M544.201 1468.78 Q544.201 1476.41 544.744 1479.45 Q545.362 1482.74 547.042 1484.17 Q548.746 1485.58 550.624 1485.58 Q552.649 1485.58 554.329 1484.07 Q556.034 1482.54 556.552 1479.26 Q557.121 1476.02 557.096 1468.78 Q557.096 1461.74 556.602 1458.92 Q555.935 1455.64 554.156 1454.33 Q552.402 1453 550.624 1453 Q549.957 1453 549.24 1453.19 Q548.548 1453.39 547.536 1453.96 Q546.523 1454.53 545.732 1455.94 Q544.966 1457.34 544.596 1459.47 Q544.201 1462.21 544.201 1468.78 Z" fill="#000000" fill-rule="evenodd" fill-opacity="1" /><path clip-path="url(#clip340)" d="M773.077 1456.7 L773.077 1455.12 Q779.154 1455.12 782.291 1451.88 Q783.156 1451.88 783.304 1452.08 Q783.452 1452.28 783.452 1453.19 L783.452 1481.58 Q783.452 1483.08 784.194 1483.55 Q784.935 1484.02 788.171 1484.02 L789.777 1484.02 L789.777 1485.58 Q787.998 1485.43 781.575 1485.43 Q775.152 1485.43 773.398 1485.58 L773.398 1484.02 L775.004 1484.02 Q778.191 1484.02 778.956 1483.58 Q779.722 1483.11 779.722 1481.58 L779.722 1455.37 Q777.079 1456.7 773.077 1456.7 Z" fill="#000000" fill-rule="evenodd" fill-opacity="1" /><path clip-path="url(#clip340)" d="M798.941 1484.76 Q798.176 1483.95 798.176 1482.89 Q798.176 1481.82 798.941 1481.06 Q799.707 1480.27 800.868 1480.27 Q801.98 1480.27 802.721 1481.01 Q803.487 1481.73 803.487 1482.91 Q803.487 1484.07 802.672 1484.84 Q801.881 1485.58 800.868 1485.58 Q799.707 1485.58 798.941 1484.76 Z" fill="#000000" fill-rule="evenodd" fill-opacity="1" /><path clip-path="url(#clip340)" d="M812.429 1456.7 L812.429 1455.12 Q818.507 1455.12 821.644 1451.88 Q822.508 1451.88 822.657 1452.08 Q822.805 1452.28 822.805 1453.19 L822.805 1481.58 Q822.805 1483.08 823.546 1483.55 Q824.287 1484.02 827.523 1484.02 L829.129 1484.02 L829.129 1485.58 Q827.35 1485.43 820.927 1485.43 Q814.505 1485.43 812.751 1485.58 L812.751 1484.02 L814.356 1484.02 Q817.543 1484.02 818.309 1483.58 Q819.075 1483.11 819.075 1481.58 L819.075 1455.37 Q816.431 1456.7 812.429 1456.7 Z" fill="#000000" fill-rule="evenodd" fill-opacity="1" /><path clip-path="url(#clip340)" d="M1041.18 1456.7 L1041.18 1455.12 Q1047.26 1455.12 1050.4 1451.88 Q1051.26 1451.88 1051.41 1452.08 Q1051.56 1452.28 1051.56 1453.19 L1051.56 1481.58 Q1051.56 1483.08 1052.3 1483.55 Q1053.04 1484.02 1056.28 1484.02 L1057.88 1484.02 L1057.88 1485.58 Q1056.1 1485.43 1049.68 1485.43 Q1043.26 1485.43 1041.5 1485.58 L1041.5 1484.02 L1043.11 1484.02 Q1046.3 1484.02 1047.06 1483.58 Q1047.83 1483.11 1047.83 1481.58 L1047.83 1455.37 Q1045.18 1456.7 1041.18 1456.7 Z" fill="#000000" fill-rule="evenodd" fill-opacity="1" /><path clip-path="url(#clip340)" d="M1067.05 1484.76 Q1066.28 1483.95 1066.28 1482.89 Q1066.28 1481.82 1067.05 1481.06 Q1067.81 1480.27 1068.97 1480.27 Q1070.09 1480.27 1070.83 1481.01 Q1071.59 1481.73 1071.59 1482.91 Q1071.59 1484.07 1070.78 1484.84 Q1069.99 1485.58 1068.97 1485.58 Q1067.81 1485.58 1067.05 1484.76 Z" fill="#000000" fill-rule="evenodd" fill-opacity="1" /><path clip-path="url(#clip340)" d="M1078.56 1485.58 Q1078.56 1484.67 1078.63 1484.39 Q1078.73 1484.12 1079.13 1483.7 L1088.84 1472.88 Q1094.15 1466.9 1094.15 1461.69 Q1094.15 1458.31 1092.37 1455.89 Q1090.61 1453.47 1087.38 1453.47 Q1085.15 1453.47 1083.28 1454.82 Q1081.4 1456.18 1080.53 1458.6 Q1080.68 1458.55 1081.2 1458.55 Q1082.46 1458.55 1083.15 1459.34 Q1083.87 1460.14 1083.87 1461.2 Q1083.87 1462.56 1082.98 1463.22 Q1082.12 1463.87 1081.25 1463.87 Q1080.91 1463.87 1080.44 1463.79 Q1079.99 1463.72 1079.27 1463.03 Q1078.56 1462.31 1078.56 1461.05 Q1078.56 1457.52 1081.23 1454.7 Q1083.92 1451.88 1088.02 1451.88 Q1092.66 1451.88 1095.7 1454.65 Q1098.77 1457.39 1098.77 1461.69 Q1098.77 1463.2 1098.3 1464.58 Q1097.85 1465.94 1097.23 1467 Q1096.64 1468.07 1095.01 1469.77 Q1093.38 1471.47 1092.07 1472.68 Q1090.76 1473.9 1087.82 1476.46 L1082.46 1481.68 L1091.58 1481.68 Q1096.02 1481.68 1096.37 1481.28 Q1096.86 1480.57 1097.48 1476.79 L1098.77 1476.79 L1097.33 1485.58 L1078.56 1485.58 Z" fill="#000000" fill-rule="evenodd" fill-opacity="1" /><path clip-path="url(#clip340)" d="M1309.86 1456.7 L1309.86 1455.12 Q1315.93 1455.12 1319.07 1451.88 Q1319.93 1451.88 1320.08 1452.08 Q1320.23 1452.28 1320.23 1453.19 L1320.23 1481.58 Q1320.23 1483.08 1320.97 1483.55 Q1321.71 1484.02 1324.95 1484.02 L1326.56 1484.02 L1326.56 1485.58 Q1324.78 1485.43 1318.35 1485.43 Q1311.93 1485.43 1310.18 1485.58 L1310.18 1484.02 L1311.78 1484.02 Q1314.97 1484.02 1315.74 1483.58 Q1316.5 1483.11 1316.5 1481.58 L1316.5 1455.37 Q1313.86 1456.7 1309.86 1456.7 Z" fill="#000000" fill-rule="evenodd" fill-opacity="1" /><path clip-path="url(#clip340)" d="M1335.72 1484.76 Q1334.95 1483.95 1334.95 1482.89 Q1334.95 1481.82 1335.72 1481.06 Q1336.49 1480.27 1337.65 1480.27 Q1338.76 1480.27 1339.5 1481.01 Q1340.27 1481.73 1340.27 1482.91 Q1340.27 1484.07 1339.45 1484.84 Q1338.66 1485.58 1337.65 1485.58 Q1336.49 1485.58 1335.72 1484.76 Z" fill="#000000" fill-rule="evenodd" fill-opacity="1" /><path clip-path="url(#clip340)" d="M1346.84 1478.76 Q1346.84 1477.25 1347.7 1476.54 Q1348.57 1475.82 1349.68 1475.82 Q1350.84 1475.82 1351.65 1476.59 Q1352.49 1477.33 1352.49 1478.64 Q1352.49 1480.05 1351.51 1480.84 Q1350.54 1481.63 1349.16 1481.43 Q1350.37 1483.46 1352.59 1484.37 Q1354.84 1485.28 1356.92 1485.28 Q1359.09 1485.28 1360.84 1483.41 Q1362.62 1481.53 1362.62 1476.93 Q1362.62 1473.03 1361.09 1470.78 Q1359.58 1468.53 1356.59 1468.53 L1354.37 1468.53 Q1353.61 1468.53 1353.38 1468.46 Q1353.16 1468.39 1353.16 1467.97 Q1353.16 1467.47 1353.93 1467.37 Q1354.69 1467.37 1355.9 1467.23 Q1358.84 1467.13 1360.4 1464.58 Q1361.81 1462.21 1361.81 1458.83 Q1361.81 1455.74 1360.32 1454.45 Q1358.87 1453.14 1356.97 1453.14 Q1355.19 1453.14 1353.23 1453.89 Q1351.28 1454.63 1350.22 1456.28 Q1353.36 1456.28 1353.36 1458.83 Q1353.36 1459.94 1352.64 1460.68 Q1351.95 1461.4 1350.79 1461.4 Q1349.68 1461.4 1348.94 1460.7 Q1348.2 1459.99 1348.2 1458.78 Q1348.2 1455.89 1350.76 1453.89 Q1353.36 1451.88 1357.16 1451.88 Q1360.92 1451.88 1363.68 1453.86 Q1366.48 1455.84 1366.48 1458.88 Q1366.48 1461.86 1364.5 1464.31 Q1362.52 1466.76 1359.39 1467.77 Q1363.24 1468.53 1365.54 1471.15 Q1367.83 1473.75 1367.83 1476.93 Q1367.83 1480.89 1364.72 1483.8 Q1361.61 1486.69 1357.06 1486.69 Q1352.86 1486.69 1349.85 1484.42 Q1346.84 1482.15 1346.84 1478.76 Z" fill="#000000" fill-rule="evenodd" fill-opacity="1" /><path clip-path="url(#clip340)" d="M1578.37 1456.7 L1578.37 1455.12 Q1584.45 1455.12 1587.58 1451.88 Q1588.45 1451.88 1588.6 1452.08 Q1588.74 1452.28 1588.74 1453.19 L1588.74 1481.58 Q1588.74 1483.08 1589.49 1483.55 Q1590.23 1484.02 1593.46 1484.02 L1595.07 1484.02 L1595.07 1485.58 Q1593.29 1485.43 1586.87 1485.43 Q1580.44 1485.43 1578.69 1485.58 L1578.69 1484.02 L1580.3 1484.02 Q1583.48 1484.02 1584.25 1483.58 Q1585.01 1483.11 1585.01 1481.58 L1585.01 1455.37 Q1582.37 1456.7 1578.37 1456.7 Z" fill="#000000" fill-rule="evenodd" fill-opacity="1" /><path clip-path="url(#clip340)" d="M1604.23 1484.76 Q1603.47 1483.95 1603.47 1482.89 Q1603.47 1481.82 1604.23 1481.06 Q1605 1480.27 1606.16 1480.27 Q1607.27 1480.27 1608.01 1481.01 Q1608.78 1481.73 1608.78 1482.91 Q1608.78 1484.07 1607.96 1484.84 Q1607.17 1485.58 1606.16 1485.58 Q1605 1485.58 1604.23 1484.76 Z" fill="#000000" fill-rule="evenodd" fill-opacity="1" /><path clip-path="url(#clip340)" d="M1614.63 1477.23 L1614.63 1475.67 L1630.17 1451.93 Q1630.57 1451.32 1631.18 1451.34 Q1631.75 1451.34 1631.88 1451.56 Q1632 1451.79 1632 1452.65 L1632 1475.67 L1637.06 1475.67 L1637.06 1477.23 L1632 1477.23 L1632 1481.63 Q1632 1483.08 1632.59 1483.55 Q1633.21 1484.02 1635.83 1484.02 L1636.89 1484.02 L1636.89 1485.58 Q1634.82 1485.43 1630.02 1485.43 Q1625.26 1485.43 1623.18 1485.58 L1623.18 1484.02 L1624.24 1484.02 Q1626.86 1484.02 1627.48 1483.58 Q1628.1 1483.11 1628.1 1481.63 L1628.1 1477.23 L1614.63 1477.23 M1616.07 1475.67 L1628.39 1475.67 L1628.39 1456.8 L1616.07 1475.67 Z" fill="#000000" fill-rule="evenodd" fill-opacity="1" /><path clip-path="url(#clip340)" d="M954.204 1529.06 Q954.204 1532.06 952.691 1537.85 Q952.079 1540.37 951.241 1542.65 Q950.436 1544.91 949.245 1547.1 Q948.053 1549.29 946.668 1550.86 Q945.283 1552.41 943.48 1553.38 Q941.676 1554.34 939.679 1554.34 Q936.523 1554.34 934.655 1552.47 Q932.82 1550.57 932.24 1547.32 Q927.924 1554.34 922.159 1554.34 Q918.585 1554.34 916.91 1551.8 Q915.235 1549.22 915.235 1544.91 Q915.235 1541.27 916.201 1537.5 Q918.037 1530.35 921.612 1525.36 Q922.095 1524.78 922.804 1524.78 Q923.222 1524.78 923.415 1524.91 Q923.995 1525.26 923.995 1525.84 Q923.995 1526.26 923.673 1526.68 Q921.419 1529.8 919.937 1532.48 Q918.456 1535.15 917.779 1537.85 Q917.264 1540.17 917.264 1542.14 Q917.264 1545.45 918.681 1547.52 Q920.13 1549.58 922.997 1549.58 Q925.638 1549.58 927.956 1547.93 Q930.275 1546.26 931.982 1543.46 Q932.079 1540.4 932.82 1537.5 Q933.496 1534.41 935.074 1534.41 Q936.33 1534.41 936.33 1536.11 Q936.33 1536.69 936.072 1537.85 Q935.364 1540.91 934.076 1543.65 Q934.526 1546.32 936.201 1547.97 Q937.876 1549.58 940.549 1549.58 Q943.029 1549.58 945.219 1547.77 Q947.441 1545.97 948.858 1543.33 Q950.307 1540.66 951.113 1537.5 Q951.37 1536.44 951.37 1535.08 Q951.37 1531.48 948.858 1529.25 Q948.15 1528.55 948.15 1527.61 Q948.15 1526.52 949.051 1525.52 Q950.114 1524.46 951.37 1524.46 Q952.304 1524.46 952.884 1525.04 Q954.204 1526.19 954.204 1529.06 Z" fill="#000000" fill-rule="evenodd" fill-opacity="1" /><polyline clip-path="url(#clip342)" style="stroke:#000000; stroke-linecap:round; stroke-linejoin:round; stroke-width:2; stroke-opacity:0.1; fill:none" points="
  223.03,1397.8 1648.05,1397.8 
  "/>
<polyline clip-path="url(#clip342)" style="stroke:#000000; stroke-linecap:round; stroke-linejoin:round; stroke-width:2; stroke-opacity:0.1; fill:none" points="
  223.03,1075.3 1648.05,1075.3 
  "/>
<polyline clip-path="url(#clip342)" style="stroke:#000000; stroke-linecap:round; stroke-linejoin:round; stroke-width:2; stroke-opacity:0.1; fill:none" points="
  223.03,752.803 1648.05,752.803 
  "/>
<polyline clip-path="url(#clip342)" style="stroke:#000000; stroke-linecap:round; stroke-linejoin:round; stroke-width:2; stroke-opacity:0.1; fill:none" points="
  223.03,430.303 1648.05,430.303 
  "/>
<polyline clip-path="url(#clip342)" style="stroke:#000000; stroke-linecap:round; stroke-linejoin:round; stroke-width:2; stroke-opacity:0.1; fill:none" points="
  223.03,107.804 1648.05,107.804 
  "/>
<polyline clip-path="url(#clip340)" style="stroke:#000000; stroke-linecap:round; stroke-linejoin:round; stroke-width:4; stroke-opacity:1; fill:none" points="
  223.03,1423.18 223.03,47.2441 
  "/>
<polyline clip-path="url(#clip340)" style="stroke:#000000; stroke-linecap:round; stroke-linejoin:round; stroke-width:4; stroke-opacity:1; fill:none" points="
  223.03,1397.8 235.675,1397.8 
  "/>
<polyline clip-path="url(#clip340)" style="stroke:#000000; stroke-linecap:round; stroke-linejoin:round; stroke-width:4; stroke-opacity:1; fill:none" points="
  223.03,1075.3 235.675,1075.3 
  "/>
<polyline clip-path="url(#clip340)" style="stroke:#000000; stroke-linecap:round; stroke-linejoin:round; stroke-width:4; stroke-opacity:1; fill:none" points="
  223.03,752.803 235.675,752.803 
  "/>
<polyline clip-path="url(#clip340)" style="stroke:#000000; stroke-linecap:round; stroke-linejoin:round; stroke-width:4; stroke-opacity:1; fill:none" points="
  223.03,430.303 235.675,430.303 
  "/>
<polyline clip-path="url(#clip340)" style="stroke:#000000; stroke-linecap:round; stroke-linejoin:round; stroke-width:4; stroke-opacity:1; fill:none" points="
  223.03,107.804 235.675,107.804 
  "/>
<path clip-path="url(#clip340)" d="M126.383 1398.9 Q126.383 1391.46 128.261 1387.41 Q130.879 1381.39 137.055 1381.39 Q138.364 1381.39 139.723 1381.76 Q141.107 1382.1 142.836 1383.46 Q144.59 1384.82 145.652 1387.04 Q147.678 1391.34 147.678 1398.9 Q147.678 1406.29 145.8 1410.31 Q143.058 1416.19 137.006 1416.19 Q134.733 1416.19 132.411 1415.03 Q130.114 1413.87 128.656 1411.08 Q126.383 1406.9 126.383 1398.9 M130.583 1398.28 Q130.583 1405.92 131.126 1408.95 Q131.744 1412.24 133.424 1413.67 Q135.128 1415.08 137.006 1415.08 Q139.031 1415.08 140.711 1413.57 Q142.416 1412.04 142.935 1408.76 Q143.503 1405.52 143.478 1398.28 Q143.478 1391.24 142.984 1388.43 Q142.317 1385.14 140.538 1383.83 Q138.784 1382.5 137.006 1382.5 Q136.339 1382.5 135.622 1382.69 Q134.931 1382.89 133.918 1383.46 Q132.905 1384.03 132.115 1385.44 Q131.349 1386.85 130.978 1388.97 Q130.583 1391.71 130.583 1398.28 Z" fill="#000000" fill-rule="evenodd" fill-opacity="1" /><path clip-path="url(#clip340)" d="M154.768 1414.27 Q154.002 1413.45 154.002 1412.39 Q154.002 1411.33 154.768 1410.56 Q155.533 1409.77 156.694 1409.77 Q157.806 1409.77 158.547 1410.51 Q159.313 1411.23 159.313 1412.41 Q159.313 1413.57 158.498 1414.34 Q157.707 1415.08 156.694 1415.08 Q155.533 1415.08 154.768 1414.27 Z" fill="#000000" fill-rule="evenodd" fill-opacity="1" /><path clip-path="url(#clip340)" d="M165.736 1398.9 Q165.736 1391.46 167.613 1387.41 Q170.232 1381.39 176.408 1381.39 Q177.717 1381.39 179.076 1381.76 Q180.459 1382.1 182.188 1383.46 Q183.942 1384.82 185.004 1387.04 Q187.03 1391.34 187.03 1398.9 Q187.03 1406.29 185.153 1410.31 Q182.411 1416.19 176.358 1416.19 Q174.086 1416.19 171.763 1415.03 Q169.466 1413.87 168.009 1411.08 Q165.736 1406.9 165.736 1398.9 M169.935 1398.28 Q169.935 1405.92 170.479 1408.95 Q171.096 1412.24 172.776 1413.67 Q174.481 1415.08 176.358 1415.08 Q178.384 1415.08 180.064 1413.57 Q181.768 1412.04 182.287 1408.76 Q182.855 1405.52 182.831 1398.28 Q182.831 1391.24 182.336 1388.43 Q181.669 1385.14 179.891 1383.83 Q178.137 1382.5 176.358 1382.5 Q175.691 1382.5 174.975 1382.69 Q174.283 1382.89 173.27 1383.46 Q172.257 1384.03 171.467 1385.44 Q170.701 1386.85 170.331 1388.97 Q169.935 1391.71 169.935 1398.28 Z" fill="#000000" fill-rule="evenodd" fill-opacity="1" /><path clip-path="url(#clip340)" d="M126.927 1076.4 Q126.927 1068.97 128.804 1064.91 Q131.423 1058.89 137.599 1058.89 Q138.908 1058.89 140.267 1059.26 Q141.65 1059.6 143.379 1060.96 Q145.133 1062.32 146.195 1064.54 Q148.221 1068.84 148.221 1076.4 Q148.221 1083.79 146.344 1087.81 Q143.602 1093.69 137.549 1093.69 Q135.277 1093.69 132.954 1092.53 Q130.657 1091.37 129.2 1088.58 Q126.927 1084.4 126.927 1076.4 M131.126 1075.78 Q131.126 1083.42 131.67 1086.46 Q132.287 1089.74 133.967 1091.17 Q135.672 1092.58 137.549 1092.58 Q139.575 1092.58 141.255 1091.07 Q142.959 1089.54 143.478 1086.26 Q144.046 1083.02 144.022 1075.78 Q144.022 1068.74 143.527 1065.93 Q142.86 1062.64 141.082 1061.33 Q139.328 1060 137.549 1060 Q136.882 1060 136.166 1060.2 Q135.474 1060.39 134.461 1060.96 Q133.449 1061.53 132.658 1062.94 Q131.892 1064.35 131.522 1066.47 Q131.126 1069.21 131.126 1075.78 Z" fill="#000000" fill-rule="evenodd" fill-opacity="1" /><path clip-path="url(#clip340)" d="M155.311 1091.77 Q154.545 1090.95 154.545 1089.89 Q154.545 1088.83 155.311 1088.06 Q156.077 1087.27 157.238 1087.27 Q158.349 1087.27 159.091 1088.01 Q159.856 1088.73 159.856 1089.91 Q159.856 1091.07 159.041 1091.84 Q158.251 1092.58 157.238 1092.58 Q156.077 1092.58 155.311 1091.77 Z" fill="#000000" fill-rule="evenodd" fill-opacity="1" /><path clip-path="url(#clip340)" d="M166.823 1092.58 Q166.823 1091.67 166.897 1091.4 Q166.996 1091.12 167.391 1090.7 L177.099 1079.88 Q182.411 1073.91 182.411 1068.69 Q182.411 1065.31 180.632 1062.89 Q178.878 1060.47 175.642 1060.47 Q173.419 1060.47 171.541 1061.83 Q169.664 1063.18 168.799 1065.61 Q168.947 1065.56 169.466 1065.56 Q170.726 1065.56 171.418 1066.35 Q172.134 1067.14 172.134 1068.2 Q172.134 1069.56 171.245 1070.23 Q170.38 1070.87 169.515 1070.87 Q169.17 1070.87 168.7 1070.79 Q168.256 1070.72 167.539 1070.03 Q166.823 1069.31 166.823 1068.05 Q166.823 1064.52 169.491 1061.7 Q172.183 1058.89 176.284 1058.89 Q180.928 1058.89 183.967 1061.65 Q187.03 1064.4 187.03 1068.69 Q187.03 1070.2 186.561 1071.58 Q186.116 1072.94 185.498 1074 Q184.906 1075.07 183.275 1076.77 Q181.645 1078.48 180.335 1079.69 Q179.026 1080.9 176.086 1083.47 L170.726 1088.68 L179.841 1088.68 Q184.288 1088.68 184.634 1088.28 Q185.128 1087.57 185.746 1083.79 L187.03 1083.79 L185.597 1092.58 L166.823 1092.58 Z" fill="#000000" fill-rule="evenodd" fill-opacity="1" /><path clip-path="url(#clip340)" d="M125.815 753.902 Q125.815 746.466 127.693 742.415 Q130.311 736.387 136.487 736.387 Q137.796 736.387 139.155 736.758 Q140.538 737.104 142.268 738.462 Q144.022 739.821 145.084 742.044 Q147.109 746.343 147.109 753.902 Q147.109 761.288 145.232 765.315 Q142.49 771.194 136.438 771.194 Q134.165 771.194 131.843 770.033 Q129.545 768.872 128.088 766.081 Q125.815 761.906 125.815 753.902 M130.015 753.284 Q130.015 760.918 130.558 763.956 Q131.176 767.242 132.856 768.674 Q134.56 770.083 136.438 770.083 Q138.463 770.083 140.143 768.576 Q141.848 767.044 142.366 763.759 Q142.935 760.522 142.91 753.284 Q142.91 746.244 142.416 743.428 Q141.749 740.142 139.97 738.833 Q138.216 737.499 136.438 737.499 Q135.771 737.499 135.054 737.696 Q134.363 737.894 133.35 738.462 Q132.337 739.03 131.546 740.439 Q130.781 741.847 130.41 743.971 Q130.015 746.713 130.015 753.284 Z" fill="#000000" fill-rule="evenodd" fill-opacity="1" /><path clip-path="url(#clip340)" d="M154.199 769.267 Q153.434 768.452 153.434 767.39 Q153.434 766.328 154.199 765.562 Q154.965 764.771 156.126 764.771 Q157.238 764.771 157.979 765.512 Q158.745 766.229 158.745 767.415 Q158.745 768.576 157.93 769.341 Q157.139 770.083 156.126 770.083 Q154.965 770.083 154.199 769.267 Z" fill="#000000" fill-rule="evenodd" fill-opacity="1" /><path clip-path="url(#clip340)" d="M164.599 761.733 L164.599 760.177 L180.138 736.437 Q180.533 735.819 181.151 735.844 Q181.719 735.844 181.842 736.066 Q181.966 736.288 181.966 737.153 L181.966 760.177 L187.03 760.177 L187.03 761.733 L181.966 761.733 L181.966 766.13 Q181.966 767.588 182.559 768.057 Q183.176 768.526 185.795 768.526 L186.857 768.526 L186.857 770.083 Q184.782 769.934 179.99 769.934 Q175.222 769.934 173.147 770.083 L173.147 768.526 L174.209 768.526 Q176.828 768.526 177.445 768.082 Q178.063 767.612 178.063 766.13 L178.063 761.733 L164.599 761.733 M166.032 760.177 L178.359 760.177 L178.359 741.303 L166.032 760.177 Z" fill="#000000" fill-rule="evenodd" fill-opacity="1" /><path clip-path="url(#clip340)" d="M126.532 431.403 Q126.532 423.967 128.409 419.916 Q131.028 413.888 137.203 413.888 Q138.513 413.888 139.871 414.259 Q141.255 414.604 142.984 415.963 Q144.738 417.322 145.8 419.545 Q147.826 423.843 147.826 431.403 Q147.826 438.789 145.948 442.816 Q143.206 448.695 137.154 448.695 Q134.881 448.695 132.559 447.534 Q130.262 446.373 128.804 443.581 Q126.532 439.407 126.532 431.403 M130.731 430.785 Q130.731 438.418 131.275 441.457 Q131.892 444.742 133.572 446.175 Q135.277 447.583 137.154 447.583 Q139.18 447.583 140.86 446.076 Q142.564 444.545 143.083 441.259 Q143.651 438.023 143.626 430.785 Q143.626 423.745 143.132 420.928 Q142.465 417.643 140.687 416.334 Q138.933 415 137.154 415 Q136.487 415 135.771 415.197 Q135.079 415.395 134.066 415.963 Q133.053 416.531 132.263 417.939 Q131.497 419.347 131.126 421.472 Q130.731 424.214 130.731 430.785 Z" fill="#000000" fill-rule="evenodd" fill-opacity="1" /><path clip-path="url(#clip340)" d="M154.916 446.768 Q154.15 445.953 154.15 444.891 Q154.15 443.828 154.916 443.063 Q155.682 442.272 156.843 442.272 Q157.954 442.272 158.695 443.013 Q159.461 443.73 159.461 444.915 Q159.461 446.076 158.646 446.842 Q157.855 447.583 156.843 447.583 Q155.682 447.583 154.916 446.768 Z" fill="#000000" fill-rule="evenodd" fill-opacity="1" /><path clip-path="url(#clip340)" d="M166.032 431.6 Q166.032 423.646 170.084 418.779 Q174.135 413.888 179.347 413.888 Q182.386 413.888 184.066 415.444 Q185.77 416.976 185.77 419.347 Q185.77 420.657 185.004 421.225 Q184.239 421.793 183.448 421.793 Q182.534 421.793 181.818 421.175 Q181.101 420.558 181.101 419.446 Q181.101 417.174 183.893 417.174 Q182.583 415.148 179.446 415.148 Q178.483 415.148 177.495 415.444 Q176.506 415.716 175.222 416.655 Q173.937 417.593 172.949 419.076 Q171.961 420.558 171.269 423.349 Q170.578 426.141 170.578 429.772 L170.578 430.983 Q172.653 425.968 176.902 425.993 Q181.151 425.993 184.09 429.229 Q187.03 432.465 187.03 437.257 Q187.03 442.173 183.967 445.434 Q180.904 448.695 176.605 448.695 Q174.678 448.695 172.924 447.88 Q171.195 447.089 169.565 445.261 Q167.959 443.433 166.996 439.925 Q166.032 436.417 166.032 431.6 M170.676 436.146 Q170.676 441.111 171.59 443.483 Q171.739 443.878 172.06 444.421 Q172.406 444.965 172.974 445.681 Q173.567 446.373 174.53 446.842 Q175.494 447.287 176.605 447.287 Q179.99 447.287 181.62 444.001 Q182.485 442.173 182.485 437.208 Q182.485 432.144 181.571 430.291 Q180.014 427.154 176.852 427.154 Q174.728 427.154 173.246 428.611 Q171.788 430.069 171.22 432.02 Q170.676 433.972 170.676 436.146 Z" fill="#000000" fill-rule="evenodd" fill-opacity="1" /><path clip-path="url(#clip340)" d="M126.532 108.903 Q126.532 101.468 128.409 97.4164 Q131.028 91.3887 137.203 91.3887 Q138.513 91.3887 139.871 91.7593 Q141.255 92.1051 142.984 93.4638 Q144.738 94.8225 145.8 97.0458 Q147.826 101.344 147.826 108.903 Q147.826 116.29 145.948 120.316 Q143.206 126.196 137.154 126.196 Q134.881 126.196 132.559 125.035 Q130.262 123.874 128.804 121.082 Q126.532 116.907 126.532 108.903 M130.731 108.286 Q130.731 115.919 131.275 118.958 Q131.892 122.243 133.572 123.676 Q135.277 125.084 137.154 125.084 Q139.18 125.084 140.86 123.577 Q142.564 122.046 143.083 118.76 Q143.651 115.524 143.626 108.286 Q143.626 101.245 143.132 98.4292 Q142.465 95.1436 140.687 93.8344 Q138.933 92.5004 137.154 92.5004 Q136.487 92.5004 135.771 92.698 Q135.079 92.8956 134.066 93.4638 Q133.053 94.032 132.263 95.4401 Q131.497 96.8482 131.126 98.9727 Q130.731 101.715 130.731 108.286 Z" fill="#000000" fill-rule="evenodd" fill-opacity="1" /><path clip-path="url(#clip340)" d="M154.916 124.269 Q154.15 123.454 154.15 122.391 Q154.15 121.329 154.916 120.563 Q155.682 119.773 156.843 119.773 Q157.954 119.773 158.695 120.514 Q159.461 121.23 159.461 122.416 Q159.461 123.577 158.646 124.343 Q157.855 125.084 156.843 125.084 Q155.682 125.084 154.916 124.269 Z" fill="#000000" fill-rule="evenodd" fill-opacity="1" /><path clip-path="url(#clip340)" d="M166.032 117.451 Q166.032 111.794 173.32 108.138 Q170.182 106.013 169.614 105.396 Q167.391 102.925 167.391 99.8373 Q167.391 96.3047 170.059 93.8591 Q172.752 91.3887 176.556 91.3887 Q180.187 91.3887 182.929 93.4885 Q185.671 95.5883 185.671 98.9233 Q185.671 103.617 179.545 106.779 Q183.596 109.299 184.56 110.361 Q187.03 113.103 187.03 116.586 Q187.03 120.638 183.917 123.429 Q180.805 126.196 176.506 126.196 Q172.307 126.196 169.17 123.75 Q166.032 121.305 166.032 117.451 M168.552 117.451 Q168.552 120.588 170.899 122.688 Q173.27 124.788 176.556 124.788 Q179.743 124.788 182.114 122.96 Q184.51 121.132 184.51 118.414 Q184.51 117.352 184.14 116.438 Q183.794 115.524 183.078 114.808 Q182.386 114.066 181.941 113.745 Q181.521 113.399 180.706 112.831 L174.481 108.903 Q168.552 112.189 168.552 117.451 M169.614 97.861 Q169.614 100.282 172.159 101.962 L178.433 106.013 Q183.448 103.073 183.448 98.9233 Q183.448 96.2306 181.398 94.452 Q179.347 92.6486 176.506 92.6486 Q173.715 92.6486 171.665 94.1308 Q169.614 95.5883 169.614 97.861 Z" fill="#000000" fill-rule="evenodd" fill-opacity="1" /><path clip-path="url(#clip340)" d="M73.3055 903.651 L54.5359 891.481 L79.4417 886.531 L83.9794 885.603 Q82.7934 885.397 80.7824 884.778 Q78.7198 884.108 78.2041 884.004 L15.4498 867.658 Q15.0373 867.555 14.367 867.401 Q13.6451 867.194 13.3873 867.091 Q13.1294 866.988 12.6138 866.833 Q12.0981 866.679 11.9434 866.576 Q11.7372 866.472 11.3762 866.318 Q11.0153 866.163 10.9121 865.957 Q10.809 865.751 10.6028 865.493 Q10.3965 865.235 10.3449 864.926 Q10.2934 864.565 10.2418 864.204 Q10.1902 863.843 10.1902 863.327 L10.1902 854.097 Q10.1902 850.848 12.3044 850.848 Q14.4186 850.848 14.4186 853.994 L14.4186 863.018 L95.8393 884.314 Q97.0253 884.623 97.4893 884.881 Q97.9534 885.087 98.3659 885.809 Q98.7785 886.531 98.7785 887.82 L98.7785 888.852 L65.2098 895.607 L75.0071 901.949 L73.3055 903.651 Z" fill="#000000" fill-rule="evenodd" fill-opacity="1" /><path clip-path="url(#clip340)" d="
M14.4507 854.316 L14.4507 566.773 L10.0639 566.773 L10.0639 854.316  Z
  " fill="#000000" fill-rule="evenodd" fill-opacity="1"/>
<path clip-path="url(#clip340)" d="M83.8526 813.363 Q88.0072 814.2 90.3904 815.328 Q94.0297 817.163 94.0297 820.223 Q94.0297 822.349 92.8381 823.959 Q91.6142 825.537 89.5853 826.084 Q90.3904 826.696 90.9379 827.244 Q91.4854 827.759 92.3228 828.758 Q93.1279 829.756 93.5788 831.109 Q94.0297 832.429 94.0297 833.943 Q94.0297 835.102 93.8042 836.165 Q93.611 837.228 93.0635 838.355 Q92.4838 839.45 91.6142 840.255 Q90.7447 841.028 89.3276 841.543 Q87.9106 842.059 86.107 842.059 Q83.8526 842.059 80.7931 841.189 Q77.7335 840.287 72.2585 838.226 Q69.36 837.099 67.7497 837.099 Q67.009 837.099 66.5259 837.26 Q66.0428 837.421 65.8818 837.743 Q65.6885 838.033 65.6563 838.226 Q65.5919 838.419 65.5919 838.741 Q65.5919 840.738 67.6209 842.477 Q69.6498 844.216 73.7722 845.408 Q74.5773 845.666 74.7706 845.827 Q74.9638 845.988 74.9638 846.471 Q74.9316 847.276 74.2875 847.276 Q74.0298 847.276 73.0315 846.986 Q72.0009 846.696 70.4872 846.02 Q68.9413 845.311 67.5565 844.345 Q66.1394 843.379 65.141 841.865 Q64.1426 840.319 64.1426 838.548 Q64.1426 836.133 65.7207 834.651 Q67.2666 833.137 69.5532 833.137 Q70.9703 833.137 73.7078 834.265 Q83.2085 837.84 87.1698 837.84 Q92.5482 837.84 92.5482 833.749 Q92.5482 832.397 92.0007 831.141 Q91.4532 829.852 90.6803 829.015 Q89.9073 828.178 89.07 827.534 Q88.2326 826.857 87.6851 826.568 Q87.1376 826.245 87.0088 826.213 L67.17 821.286 Q66.3971 821.093 65.8818 820.738 Q65.3343 820.352 65.141 819.901 Q64.9478 819.45 64.9156 819.192 Q64.8512 818.935 64.8512 818.709 Q64.8512 817.904 65.3343 817.357 Q65.8173 816.777 66.6547 816.777 Q66.8157 816.777 67.5887 816.97 Q68.3294 817.131 69.4244 817.389 Q70.4872 817.646 71.0669 817.775 Q75.1248 818.806 75.5435 818.903 L82.661 820.738 Q83.0797 820.835 84.4323 821.157 Q85.785 821.447 86.4935 821.608 Q87.1698 821.769 88.1038 821.93 Q89.0056 822.059 89.5209 822.059 Q91.1312 822.059 91.8397 821.576 Q92.5482 821.093 92.5482 820.03 Q92.5482 819.031 91.8719 818.258 Q91.1634 817.453 89.8107 816.841 Q88.4259 816.229 87.2987 815.875 Q86.1714 815.521 84.4001 815.07 Q83.6272 814.909 83.434 814.78 Q83.2085 814.619 83.2085 814.168 Q83.2085 813.363 83.8526 813.363 Z" fill="#000000" fill-rule="evenodd" fill-opacity="1" /><path clip-path="url(#clip340)" d="M55.6403 809.923 L53.5791 809.923 Q53.5791 802 49.3601 797.91 Q49.3601 796.783 49.6178 796.59 Q49.8754 796.396 51.0671 796.396 L88.0716 796.396 Q90.0362 796.396 90.6481 795.43 Q91.26 794.464 91.26 790.245 L91.26 788.152 L93.2889 788.152 Q93.0957 790.47 93.0957 798.844 Q93.0957 807.217 93.2889 809.504 L91.26 809.504 L91.26 807.411 Q91.26 803.256 90.6803 802.258 Q90.0684 801.259 88.0716 801.259 L53.9012 801.259 Q55.6403 804.705 55.6403 809.923 Z" fill="#000000" fill-rule="evenodd" fill-opacity="1" /><path clip-path="url(#clip340)" d="M58.9116 781.32 Q58.0775 781.32 57.8295 781.253 Q57.5815 781.162 57.1982 780.802 L47.3239 771.942 Q41.8683 767.095 37.1115 767.095 Q34.0229 767.095 31.8136 768.718 Q29.6043 770.319 29.6043 773.272 Q29.6043 775.301 30.8442 777.014 Q32.0841 778.728 34.2934 779.517 Q34.2484 779.381 34.2484 778.908 Q34.2484 777.758 34.9698 777.127 Q35.6912 776.473 36.6606 776.473 Q37.9005 776.473 38.5092 777.285 Q39.0953 778.074 39.0953 778.863 Q39.0953 779.179 39.0277 779.607 Q38.9601 780.013 38.3288 780.666 Q37.6751 781.32 36.5253 781.32 Q33.3015 781.32 30.7315 778.885 Q28.1614 776.428 28.1614 772.686 Q28.1614 768.448 30.6864 765.675 Q33.1888 762.879 37.1115 762.879 Q38.4866 762.879 39.7491 763.307 Q40.989 763.713 41.9584 764.277 Q42.9278 764.818 44.4834 766.306 Q46.0389 767.794 47.1436 768.989 Q48.2482 770.183 50.5928 772.866 L55.3496 777.758 L55.3496 769.439 Q55.3496 765.382 54.9889 765.066 Q54.3351 764.615 50.8859 764.051 L50.8859 762.879 L58.9116 764.187 L58.9116 781.32 Z" fill="#000000" fill-rule="evenodd" fill-opacity="1" /><path clip-path="url(#clip340)" d="M77.6047 731.599 Q77.6047 733.113 76.7995 733.113 Q75.9944 733.113 75.9944 731.535 Q75.9944 731.341 76.0266 731.019 Q76.0588 730.665 76.0588 730.601 L76.0588 712.018 L57.4116 712.018 Q57.3472 712.018 57.0574 712.05 Q56.7353 712.082 56.5421 712.082 Q54.964 712.082 54.964 711.309 Q54.964 710.504 56.5421 710.504 L76.0588 710.504 L76.0588 691.889 Q76.0588 691.825 76.0266 691.503 Q75.9944 691.181 75.9944 690.988 Q75.9944 689.474 76.7995 689.474 Q77.6047 689.442 77.6047 691.052 Q77.6047 691.245 77.5725 691.535 Q77.5403 691.825 77.5403 691.889 L77.5403 710.504 L97.1214 710.504 Q98.6351 710.504 98.6351 711.309 Q98.6351 712.082 97.057 712.082 Q96.8638 712.082 96.5417 712.05 Q96.2519 712.018 96.1875 712.018 L77.5403 712.018 L77.5403 730.601 Q77.5403 730.665 77.5725 731.052 Q77.6047 731.406 77.6047 731.599 Z" fill="#000000" fill-rule="evenodd" fill-opacity="1" /><path clip-path="url(#clip340)" d="M68.7481 635.043 Q69.5854 635.043 71.2279 635.268 Q72.8704 635.494 75.2537 636.041 Q77.6369 636.589 80.149 637.394 Q82.661 638.167 85.1731 639.391 Q87.6529 640.614 89.6175 642.064 Q91.582 643.513 92.8059 645.542 Q94.0297 647.571 94.0297 649.857 Q94.0297 650.92 93.8687 651.951 Q93.7076 652.981 93.1923 654.27 Q92.677 655.558 91.8397 656.492 Q90.9701 657.426 89.4242 658.07 Q87.8784 658.714 85.8494 658.714 Q83.756 658.714 80.9541 657.941 Q78.12 657.136 72.3229 654.946 Q69.3278 653.819 67.6853 653.819 Q66.9446 653.819 66.4937 653.98 Q66.0106 654.141 65.8496 654.463 Q65.6563 654.785 65.6241 654.978 Q65.5919 655.139 65.5919 655.461 Q65.5919 657.233 67.4276 659.036 Q69.2634 660.84 73.7722 662.128 Q74.5773 662.386 74.7706 662.547 Q74.9638 662.708 74.9638 663.191 Q74.9316 663.996 74.2875 663.996 Q74.0943 663.996 73.3535 663.77 Q72.5806 663.545 71.4212 663.126 Q70.2295 662.708 69.0057 661.967 Q67.7497 661.226 66.6547 660.324 Q65.5597 659.39 64.8512 658.07 Q64.1426 656.75 64.1426 655.268 Q64.1426 652.853 65.7207 651.371 Q67.2666 649.857 69.5532 649.857 Q70.8093 649.857 72.8382 650.663 Q76.5097 652.015 78.281 652.627 Q80.0523 653.239 82.5644 653.883 Q85.0765 654.495 86.8156 654.495 Q89.4564 654.495 91.0023 653.271 Q92.5482 652.047 92.5482 649.6 Q92.5482 647.41 90.9701 645.445 Q89.3598 643.449 87.0732 642.128 Q84.7544 640.808 82.1779 639.809 Q79.5692 638.811 77.6047 638.36 Q75.6079 637.877 74.674 637.877 Q71.4212 637.877 69.2956 640.099 Q68.6837 640.711 68.2972 640.936 Q67.9107 641.162 67.2988 641.162 Q66.1716 641.162 65.1732 640.164 Q64.1426 639.133 64.1426 637.941 Q64.1426 636.846 65.2376 635.945 Q66.3326 635.043 68.7481 635.043 Z" fill="#000000" fill-rule="evenodd" fill-opacity="1" /><path clip-path="url(#clip340)" d="M55.6403 632.321 L53.5791 632.321 Q53.5791 624.398 49.3601 620.308 Q49.3601 619.181 49.6178 618.987 Q49.8754 618.794 51.0671 618.794 L88.0716 618.794 Q90.0362 618.794 90.6481 617.828 Q91.26 616.862 91.26 612.643 L91.26 610.55 L93.2889 610.55 Q93.0957 612.868 93.0957 621.242 Q93.0957 629.615 93.2889 631.902 L91.26 631.902 L91.26 629.809 Q91.26 625.654 90.6803 624.656 Q90.0684 623.657 88.0716 623.657 L53.9012 623.657 Q55.6403 627.103 55.6403 632.321 Z" fill="#000000" fill-rule="evenodd" fill-opacity="1" /><path clip-path="url(#clip340)" d="M58.9116 603.718 Q58.0775 603.718 57.8295 603.651 Q57.5815 603.56 57.1982 603.2 L47.3239 594.34 Q41.8683 589.493 37.1115 589.493 Q34.0229 589.493 31.8136 591.116 Q29.6043 592.717 29.6043 595.67 Q29.6043 597.699 30.8442 599.412 Q32.0841 601.126 34.2934 601.915 Q34.2484 601.779 34.2484 601.306 Q34.2484 600.156 34.9698 599.525 Q35.6912 598.871 36.6606 598.871 Q37.9005 598.871 38.5092 599.683 Q39.0953 600.472 39.0953 601.261 Q39.0953 601.576 39.0277 602.005 Q38.9601 602.411 38.3288 603.064 Q37.6751 603.718 36.5253 603.718 Q33.3015 603.718 30.7315 601.283 Q28.1614 598.826 28.1614 595.084 Q28.1614 590.845 30.6864 588.073 Q33.1888 585.277 37.1115 585.277 Q38.4866 585.277 39.7491 585.705 Q40.989 586.111 41.9584 586.675 Q42.9278 587.216 44.4834 588.704 Q46.0389 590.192 47.1436 591.387 Q48.2482 592.581 50.5928 595.264 L55.3496 600.156 L55.3496 591.837 Q55.3496 587.779 54.9889 587.464 Q54.3351 587.013 50.8859 586.449 L50.8859 585.277 L58.9116 586.585 L58.9116 603.718 Z" fill="#000000" fill-rule="evenodd" fill-opacity="1" /><polyline clip-path="url(#clip342)" style="stroke:#009af9; stroke-linecap:round; stroke-linejoin:round; stroke-width:8; stroke-opacity:1; fill:none" points="
  263.361,1313.92 272.383,1311.26 281.406,1308.42 290.428,1305.38 299.451,1302.13 308.473,1298.64 317.496,1294.88 326.518,1290.84 335.541,1286.46 344.563,1281.73 
  353.586,1276.59 362.608,1271.01 371.631,1264.92 380.654,1258.28 389.676,1251.01 398.699,1243.06 407.721,1234.33 416.744,1224.77 425.766,1214.29 434.789,1202.82 
  443.811,1190.31 452.834,1176.72 461.856,1162.04 470.879,1146.29 479.901,1129.54 488.924,1111.89 497.946,1093.47 506.969,1074.41 515.991,1054.89 525.014,1035.05 
  534.036,1015.02 543.059,994.933 552.081,974.879 561.104,954.94 570.126,935.175 579.149,915.629 588.172,896.332 597.194,877.306 606.217,858.564 615.239,840.111 
  624.262,821.95 633.284,804.078 642.307,786.491 651.329,769.183 660.352,752.148 669.374,735.377 678.397,718.861 687.419,702.593 696.442,686.563 705.464,670.763 
  714.487,655.184 723.509,639.818 732.532,624.658 741.554,609.695 750.577,594.922 759.599,580.333 768.622,565.921 777.644,551.678 786.667,537.6 795.689,523.679 
  804.712,509.912 813.735,496.292 822.757,482.814 831.78,469.474 840.802,456.268 849.825,443.19 858.847,430.237 867.87,417.405 876.892,404.69 885.915,392.089 
  894.937,379.599 903.96,367.216 912.982,354.937 922.005,342.76 931.027,330.682 940.05,318.7 949.072,306.812 958.095,295.016 967.117,283.31 976.14,271.692 
  985.162,260.161 994.185,248.714 1003.21,237.35 1012.23,226.069 1021.25,214.869 1030.28,203.749 1039.3,192.71 1048.32,181.752 1057.34,170.875 1066.37,160.081 
  1075.39,149.373 1084.41,138.755 1093.43,128.234 1102.46,117.823 1111.48,107.544 1120.5,97.4456 1129.52,87.6696 
  "/>
<polyline clip-path="url(#clip342)" style="stroke:#e26f46; stroke-linecap:round; stroke-linejoin:round; stroke-width:8; stroke-opacity:1; fill:none" points="
  642.307,1161.55 651.329,1194.52 660.352,1215.91 669.374,1232 678.397,1244.91 687.419,1255.65 696.442,1264.8 705.464,1272.74 714.487,1279.72 723.509,1285.92 
  732.532,1291.48 741.554,1296.49 750.577,1301.05 759.599,1305.21 768.622,1309.02 777.644,1312.53 786.667,1315.77 795.689,1318.78 804.712,1321.58 813.735,1324.2 
  822.757,1326.64 831.78,1328.93 840.802,1331.08 849.825,1333.1 858.847,1335.01 867.87,1336.82 876.892,1338.52 885.915,1340.14 894.937,1341.68 903.96,1343.14 
  912.982,1344.53 922.005,1345.85 931.027,1347.11 940.05,1348.32 949.072,1349.47 958.095,1350.57 967.117,1351.63 976.14,1352.64 985.162,1353.61 994.185,1354.55 
  1003.21,1355.44 1012.23,1356.31 1021.25,1357.14 1030.28,1357.94 1039.3,1358.71 1048.32,1359.45 1057.34,1360.17 1066.37,1360.86 1075.39,1361.53 1084.41,1362.18 
  1093.43,1362.81 1102.46,1363.42 1111.48,1364 1120.5,1364.57 1129.52,1365.13 1138.55,1365.66 1147.57,1366.18 1156.59,1366.68 1165.61,1367.17 1174.64,1367.65 
  1183.66,1368.11 1192.68,1368.56 1201.7,1369 1210.73,1369.43 1219.75,1369.84 1228.77,1370.24 1237.79,1370.64 1246.82,1371.02 1255.84,1371.39 1264.86,1371.76 
  1273.88,1372.11 1282.91,1372.46 1291.93,1372.8 1300.95,1373.13 1309.97,1373.45 1319,1373.76 1328.02,1374.07 1337.04,1374.37 1346.06,1374.66 1355.09,1374.95 
  1364.11,1375.23 1373.13,1375.51 1382.15,1375.78 1391.18,1376.04 1400.2,1376.3 1409.22,1376.55 1418.24,1376.8 1427.27,1377.04 1436.29,1377.27 1445.31,1377.51 
  1454.33,1377.73 1463.36,1377.96 1472.38,1378.17 1481.4,1378.39 1490.42,1378.6 1499.45,1378.81 1508.47,1379.01 1517.49,1379.21 1526.51,1379.4 1535.54,1379.59 
  1544.56,1379.78 1553.58,1379.96 1562.6,1380.15 1571.63,1380.32 1580.65,1380.5 1589.67,1380.67 1598.69,1380.84 1607.72,1381 
  "/>
<polyline clip-path="url(#clip342)" style="stroke:#3da44d; stroke-linecap:round; stroke-linejoin:round; stroke-width:8; stroke-opacity:1; fill:none" stroke-dasharray="32, 20" points="
  642.307,1010.71 651.329,960.327 660.352,921.788 669.374,888.806 678.397,859.263 687.419,832.134 696.442,806.826 705.464,782.959 714.487,760.272 723.509,738.575 
  732.532,717.725 741.554,697.613 750.577,678.15 759.599,659.263 768.622,640.895 777.644,622.996 786.667,605.523 795.689,588.441 804.712,571.719 813.735,555.328 
  822.757,539.245 831.78,523.45 840.802,507.922 849.825,492.645 858.847,477.604 867.87,462.785 876.892,448.175 885.915,433.762 894.937,419.537 903.96,405.489 
  912.982,391.61 922.005,377.892 931.027,364.325 940.05,350.904 949.072,337.622 958.095,324.472 967.117,311.448 976.14,298.545 985.162,285.757 994.185,273.079 
  1003.21,260.506 1012.23,248.033 1021.25,235.655 1030.28,223.368 1039.3,211.166 1048.32,199.044 1057.34,186.997 1066.37,175.019 1075.39,163.102 1084.41,151.239 
  1093.43,139.418 1102.46,127.623 1111.48,115.828 1120.5,103.981 1129.52,91.9367 
  "/>
<polyline clip-path="url(#clip342)" style="stroke:#c271d2; stroke-linecap:round; stroke-linejoin:round; stroke-width:4; stroke-opacity:1; fill:none" stroke-dasharray="16, 10" points="
  263.361,1381.68 270.083,1293.56 276.804,1295.31 283.526,1319.99 290.248,1298.34 296.97,1307.01 303.691,1298.21 310.413,1299.29 317.135,1294.46 323.857,1292.11 
  330.579,1289.23 337.3,1285.52 344.022,1282 350.744,1278.37 357.466,1274.4 364.187,1270.13 370.909,1265.57 377.631,1260.72 384.353,1255.55 391.075,1250.03 
  397.796,1244.14 404.518,1237.82 411.24,1231.02 417.962,1223.71 424.683,1215.84 431.405,1207.65 438.127,1198.87 444.849,1189.33 451.571,1179.17 458.292,1168.71 
  465.014,1157.4 471.736,1145.47 478.458,1133.23 485.179,1120.25 491.901,1106.87 498.623,1093.25 505.345,1078.74 512.067,1064.89 518.788,1049.68 525.51,1035.3 
  532.232,1020.24 538.954,1005.21 545.675,990.473 552.397,975.256 559.119,960.727 565.841,945.485 572.563,931.418 579.284,916.172 586.006,902.301 592.728,887.906 
  599.45,873.134 606.171,860.477 612.893,845.407 619.615,832.632 626.337,818.746 633.059,805.554 639.78,792.469 646.502,779.31 653.224,766.702 659.946,753.784 
  666.667,741.414 673.389,728.932 680.111,716.602 686.833,704.732 693.555,692.387 700.276,680.907 706.998,668.883 713.72,657.311 720.442,646.102 727.163,634.124 
  733.885,623.763 740.607,611.603 747.329,601.446 754.051,589.825 760.772,578.703 767.494,569.432 774.216,557.138 780.938,547.686 787.659,536.829 794.381,526.295 
  801.103,516.533 807.825,505.689 814.547,496.029 821.268,485.807 827.99,475.708 834.712,466.191 841.434,455.476 848.155,447.179 854.877,436.103 861.599,427.376 
  868.321,417.583 875.043,407.954 881.764,398.771 888.486,389.23 895.208,380.061 901.93,370.765 908.651,361.623 915.373,352.499 922.095,343.443 928.817,334.443 
  935.539,325.493 942.26,316.601 948.982,307.758 955.704,298.97 962.426,290.231 969.147,281.543 975.869,272.904 982.591,264.314 989.313,255.772 996.035,247.279 
  1002.76,238.833 1009.48,230.434 1016.2,222.083 1022.92,213.778 1029.64,205.521 1036.37,197.311 1043.09,189.149 1049.81,181.036 1056.53,172.973 1063.25,164.962 
  1069.97,157.005 1076.7,149.106 1083.42,141.27 1090.14,133.504 1096.86,125.82 1103.58,118.235 1110.3,110.783 1117.03,103.524 1123.75,96.5911 1130.47,90.3492 
  1137.19,86.1857 1143.91,93.8599 1150.64,380.438 1157.36,783.488 1164.08,974.679 1170.8,1150.69 1177.52,1221.85 1184.24,1260.03 1190.97,1336.44 1197.69,1324.96 
  1204.41,1359.2 1211.13,1367.54 1217.85,1355.56 1224.58,1377.92 1231.3,1370.84 1238.02,1366.14 1244.74,1370.49 1251.46,1373.1 1258.18,1372.46 1264.91,1371.66 
  1271.63,1371.57 1278.35,1371.86 1285.07,1372.23 1291.79,1372.56 1298.51,1372.87 1305.24,1373.16 1311.96,1373.46 1318.68,1373.76 1325.4,1374.04 1332.12,1374.27 
  1338.85,1374.42 1345.57,1374.59 1352.29,1374.87 1359.01,1375.13 1365.73,1375.24 1372.45,1375.49 1379.18,1375.72 1385.9,1375.84 1392.62,1376.13 1399.34,1376.21 
  1406.06,1376.52 1412.78,1376.59 1419.51,1376.86 1426.23,1377.01 1432.95,1377.14 1439.67,1377.41 1446.39,1377.55 1453.12,1377.64 1459.84,1377.86 1466.56,1378.09 
  1473.28,1378.25 1480,1378.36 1486.72,1378.48 1493.45,1378.61 1500.17,1378.76 1506.89,1378.91 1513.61,1379.05 1520.33,1379.21 1527.06,1379.37 1533.78,1379.55 
  1540.5,1379.74 1547.22,1379.9 1553.94,1379.98 1560.66,1380.05 1567.39,1380.23 1574.11,1380.43 1580.83,1380.47 1587.55,1380.6 1594.27,1380.81 1600.99,1380.82 
  1607.72,1381.06 
  "/>
<polyline clip-path="url(#clip342)" style="stroke:#ac8d18; stroke-linecap:round; stroke-linejoin:round; stroke-width:4; stroke-opacity:1; fill:none" stroke-dasharray="16, 10" points="
  1607.72,1381.68 1600.99,1358.94 1594.27,1383.15 1587.55,1378.58 1580.83,1373.91 1574.11,1384.24 1567.39,1381.05 1560.66,1377.8 1553.94,1379.3 1547.22,1380.7 
  1540.5,1380.43 1533.78,1379.71 1527.06,1379.24 1520.33,1379.03 1513.61,1378.9 1506.89,1378.8 1500.17,1378.69 1493.45,1378.58 1486.72,1378.46 1480,1378.36 
  1473.28,1378.25 1466.56,1378.1 1459.84,1377.87 1453.12,1377.64 1446.39,1377.53 1439.67,1377.42 1432.95,1377.15 1426.23,1377 1419.51,1376.87 1412.78,1376.59 
  1406.06,1376.52 1399.34,1376.21 1392.62,1376.14 1385.9,1375.83 1379.18,1375.73 1372.45,1375.48 1365.73,1375.24 1359.01,1375.13 1352.29,1374.86 1345.57,1374.59 
  1338.85,1374.43 1332.12,1374.26 1325.4,1374.02 1318.68,1373.75 1311.96,1373.48 1305.24,1373.23 1298.51,1372.98 1291.79,1372.73 1285.07,1372.49 1278.35,1372.24 
  1271.63,1372 1264.91,1371.78 1258.18,1371.54 1251.46,1371.24 1244.74,1370.89 1238.02,1370.61 1231.3,1370.4 1224.58,1370.07 1217.85,1369.71 1211.13,1369.5 
  1204.41,1369.08 1197.69,1368.83 1190.97,1368.46 1184.24,1368.17 1177.52,1367.76 1170.8,1367.5 1164.08,1367.05 1157.36,1366.74 1150.64,1366.39 1143.91,1365.93 
  1137.19,1365.55 1130.47,1365.23 1123.75,1364.83 1117.03,1364.37 1110.3,1363.9 1103.58,1363.44 1096.86,1362.98 1090.14,1362.52 1083.42,1362.06 1076.7,1361.58 
  1069.97,1361.11 1063.25,1360.63 1056.53,1360.15 1049.81,1359.61 1043.09,1359.01 1036.37,1358.42 1029.64,1357.91 1022.92,1357.31 1016.2,1356.63 1009.48,1356.09 
  1002.76,1355.38 996.035,1354.74 989.313,1354.03 982.591,1353.37 975.869,1352.57 969.147,1351.91 962.426,1351.06 955.704,1350.27 948.982,1349.51 942.26,1348.61 
  935.539,1347.68 928.817,1346.78 922.095,1345.88 915.373,1344.93 908.651,1343.92 901.93,1342.87 895.208,1341.78 888.486,1340.64 881.764,1339.46 875.043,1338.22 
  868.321,1336.91 861.599,1335.54 854.877,1334.17 848.155,1332.79 841.434,1331.25 834.712,1329.61 827.99,1328.03 821.268,1326.26 814.547,1324.42 807.825,1322.55 
  801.103,1320.48 794.381,1318.4 787.659,1316.17 780.938,1313.72 774.216,1311.3 767.494,1308.62 760.772,1305.71 754.051,1302.73 747.329,1299.56 740.607,1296.11 
  733.885,1292.38 727.163,1288.35 720.442,1284.01 713.72,1279.3 706.998,1274.17 700.276,1268.55 693.555,1262.31 686.833,1255.32 680.111,1247.45 673.389,1238.62 
  666.667,1228.37 659.946,1216.16 653.224,1201.57 646.502,1182.64 639.78,1157.03 633.059,1115.82 626.337,1025.52 619.615,718.773 612.893,987.874 606.171,777.836 
  599.45,927.261 592.728,859.231 586.006,909.355 579.284,913.667 572.563,925.963 565.841,946.656 559.119,955.568 552.397,974.618 545.675,987.102 538.954,1003.21 
  532.232,1017.84 525.51,1032.68 518.788,1047.83 512.067,1062.21 505.345,1076.95 498.623,1091.05 491.901,1104.93 485.179,1118.57 478.458,1131.39 471.736,1144.08 
  465.014,1156.07 458.292,1167.26 451.571,1178.29 444.849,1188.52 438.127,1197.65 431.405,1206.74 424.683,1215.4 417.962,1223.31 411.24,1230.54 404.518,1237.25 
  397.796,1243.6 391.075,1249.57 384.353,1255.14 377.631,1260.37 370.909,1265.25 364.187,1269.85 357.466,1274.17 350.744,1278.24 344.022,1282.05 337.3,1285.5 
  330.579,1288.79 323.857,1292.07 317.135,1295.01 310.413,1297.78 303.691,1300.54 296.97,1302.97 290.248,1305.48 283.526,1307.64 276.804,1309.91 270.083,1311.94 
  263.361,1313.86 
  "/>
<path clip-path="url(#clip340)" d="
M1719.04 864.812 L2352.76 864.812 L2352.76 553.772 L1719.04 553.772  Z
  " fill="#ffffff" fill-rule="evenodd" fill-opacity="1"/>
<polyline clip-path="url(#clip340)" style="stroke:#000000; stroke-linecap:round; stroke-linejoin:round; stroke-width:4; stroke-opacity:1; fill:none" points="
  1719.04,864.812 2352.76,864.812 2352.76,553.772 1719.04,553.772 1719.04,864.812 
  "/>
<polyline clip-path="url(#clip340)" style="stroke:#009af9; stroke-linecap:round; stroke-linejoin:round; stroke-width:4; stroke-opacity:1; fill:none" points="
  1742.7,605.612 1884.68,605.612 
  "/>
<path clip-path="url(#clip340)" d="M1908.35 594.014 L1908.35 592.433 Q1914.42 592.433 1917.56 589.197 Q1918.43 589.197 1918.57 589.394 Q1918.72 589.592 1918.72 590.506 L1918.72 618.89 Q1918.72 620.397 1919.46 620.866 Q1920.2 621.336 1923.44 621.336 L1925.05 621.336 L1925.05 622.892 Q1923.27 622.744 1916.84 622.744 Q1910.42 622.744 1908.67 622.892 L1908.67 621.336 L1910.27 621.336 Q1913.46 621.336 1914.23 620.891 Q1914.99 620.422 1914.99 618.89 L1914.99 592.68 Q1912.35 594.014 1908.35 594.014 Z" fill="#000000" fill-rule="evenodd" fill-opacity="1" /><polyline clip-path="url(#clip340)" style="stroke:#e26f46; stroke-linecap:round; stroke-linejoin:round; stroke-width:4; stroke-opacity:1; fill:none" points="
  1742.7,657.452 1884.68,657.452 
  "/>
<path clip-path="url(#clip340)" d="M1908.35 674.732 Q1908.35 673.818 1908.42 673.546 Q1908.52 673.274 1908.92 672.855 L1918.62 662.034 Q1923.93 656.056 1923.93 650.844 Q1923.93 647.459 1922.16 645.039 Q1920.4 642.618 1917.17 642.618 Q1914.94 642.618 1913.07 643.976 Q1911.19 645.335 1910.32 647.756 Q1910.47 647.706 1910.99 647.706 Q1912.25 647.706 1912.94 648.497 Q1913.66 649.288 1913.66 650.35 Q1913.66 651.708 1912.77 652.375 Q1911.9 653.018 1911.04 653.018 Q1910.69 653.018 1910.22 652.944 Q1909.78 652.869 1909.06 652.178 Q1908.35 651.461 1908.35 650.202 Q1908.35 646.669 1911.01 643.853 Q1913.71 641.037 1917.81 641.037 Q1922.45 641.037 1925.49 643.803 Q1928.55 646.545 1928.55 650.844 Q1928.55 652.351 1928.08 653.734 Q1927.64 655.093 1927.02 656.155 Q1926.43 657.217 1924.8 658.922 Q1923.17 660.626 1921.86 661.837 Q1920.55 663.047 1917.61 665.616 L1912.25 670.829 L1921.37 670.829 Q1925.81 670.829 1926.16 670.434 Q1926.65 669.717 1927.27 665.938 L1928.55 665.938 L1927.12 674.732 L1908.35 674.732 Z" fill="#000000" fill-rule="evenodd" fill-opacity="1" /><polyline clip-path="url(#clip340)" style="stroke:#3da44d; stroke-linecap:round; stroke-linejoin:round; stroke-width:4; stroke-opacity:1; fill:none" stroke-dasharray="16, 10" points="
  1742.7,709.292 1884.68,709.292 
  "/>
<path clip-path="url(#clip340)" d="M1908.35 719.754 Q1908.35 718.247 1909.21 717.531 Q1910.08 716.814 1911.19 716.814 Q1912.35 716.814 1913.16 717.58 Q1914 718.321 1914 719.63 Q1914 721.038 1913.02 721.829 Q1912.05 722.619 1910.67 722.422 Q1911.88 724.447 1914.1 725.362 Q1916.35 726.276 1918.43 726.276 Q1920.6 726.276 1922.35 724.398 Q1924.13 722.521 1924.13 717.926 Q1924.13 714.023 1922.6 711.775 Q1921.09 709.527 1918.1 709.527 L1915.88 709.527 Q1915.12 709.527 1914.89 709.453 Q1914.67 709.378 1914.67 708.958 Q1914.67 708.464 1915.44 708.366 Q1916.2 708.366 1917.41 708.217 Q1920.35 708.119 1921.91 705.574 Q1923.32 703.203 1923.32 699.818 Q1923.32 696.73 1921.83 695.446 Q1920.38 694.136 1918.48 694.136 Q1916.7 694.136 1914.75 694.878 Q1912.79 695.619 1911.73 697.274 Q1914.87 697.274 1914.87 699.818 Q1914.87 700.93 1914.15 701.671 Q1913.46 702.387 1912.3 702.387 Q1911.19 702.387 1910.45 701.696 Q1909.71 700.979 1909.71 699.769 Q1909.71 696.879 1912.27 694.878 Q1914.87 692.877 1918.67 692.877 Q1922.43 692.877 1925.19 694.853 Q1927.99 696.829 1927.99 699.868 Q1927.99 702.857 1926.01 705.302 Q1924.03 707.748 1920.9 708.761 Q1924.75 709.527 1927.05 712.145 Q1929.34 714.739 1929.34 717.926 Q1929.34 721.878 1926.23 724.793 Q1923.12 727.684 1918.57 727.684 Q1914.37 727.684 1911.36 725.411 Q1908.35 723.138 1908.35 719.754 Z" fill="#000000" fill-rule="evenodd" fill-opacity="1" /><polyline clip-path="url(#clip340)" style="stroke:#c271d2; stroke-linecap:round; stroke-linejoin:round; stroke-width:4; stroke-opacity:1; fill:none" stroke-dasharray="16, 10" points="
  1742.7,761.132 1884.68,761.132 
  "/>
<path clip-path="url(#clip340)" d="M1908.35 778.412 L1908.35 776.856 Q1911.04 776.856 1911.66 776.535 Q1912.27 776.189 1912.27 774.558 L1912.27 748.249 Q1912.27 746.372 1911.61 745.902 Q1910.97 745.433 1908.35 745.433 L1908.35 743.852 L1915.61 743.308 L1915.61 774.558 Q1915.61 776.189 1916.25 776.535 Q1916.89 776.856 1919.56 776.856 L1919.56 778.412 Q1918.94 778.412 1917.66 778.363 Q1916.38 778.313 1915.44 778.288 Q1914.5 778.264 1913.95 778.264 Q1913.36 778.264 1908.35 778.412 Z" fill="#000000" fill-rule="evenodd" fill-opacity="1" /><path clip-path="url(#clip340)" d="M1922.08 767.271 Q1922.08 762.503 1925.15 759.119 Q1928.21 755.734 1932.61 755.734 Q1937.05 755.734 1939.35 758.625 Q1941.67 761.515 1941.67 765.665 Q1941.67 766.431 1941.47 766.579 Q1941.28 766.727 1940.41 766.727 L1926.28 766.727 Q1926.28 771.89 1927.81 774.311 Q1929.94 777.696 1933.52 777.696 Q1934.01 777.696 1934.61 777.597 Q1935.2 777.498 1936.41 777.078 Q1937.62 776.633 1938.68 775.472 Q1939.74 774.311 1940.36 772.483 Q1940.51 771.767 1941 771.791 Q1941.67 771.791 1941.67 772.384 Q1941.67 772.829 1941.18 773.842 Q1940.71 774.83 1939.79 776.016 Q1938.88 777.202 1937.1 778.091 Q1935.35 778.98 1933.22 778.98 Q1928.78 778.98 1925.42 775.62 Q1922.08 772.236 1922.08 767.271 M1926.33 765.665 L1938.34 765.665 Q1938.34 764.603 1938.14 763.417 Q1937.97 762.231 1937.42 760.601 Q1936.9 758.946 1935.67 757.908 Q1934.43 756.871 1932.61 756.871 Q1931.79 756.871 1930.9 757.216 Q1930.04 757.562 1928.97 758.402 Q1927.91 759.242 1927.17 761.144 Q1926.43 763.046 1926.33 765.665 Z" fill="#000000" fill-rule="evenodd" fill-opacity="1" /><path clip-path="url(#clip340)" d="M1944.81 758.18 L1944.81 756.599 L1948.79 756.599 L1948.79 750.794 Q1948.79 747.039 1951.21 744.89 Q1953.65 742.74 1956.64 742.74 Q1958.62 742.74 1959.9 743.803 Q1961.19 744.865 1961.19 746.298 Q1961.19 747.261 1960.59 747.903 Q1960.03 748.521 1958.96 748.521 Q1957.95 748.521 1957.36 747.879 Q1956.79 747.236 1956.79 746.347 Q1956.79 744.717 1958.3 744.223 Q1957.53 743.877 1956.64 743.852 Q1954.81 743.852 1953.38 745.729 Q1951.97 747.607 1951.97 750.744 L1951.97 756.599 L1957.9 756.599 L1957.9 758.18 L1952.15 758.18 L1952.15 774.459 Q1952.15 775.917 1952.74 776.386 Q1953.36 776.856 1955.97 776.856 L1957.04 776.856 L1957.04 778.412 Q1955.01 778.264 1950.61 778.264 Q1950 778.264 1949.03 778.288 Q1948.09 778.313 1946.81 778.363 Q1945.55 778.412 1944.86 778.412 L1944.86 776.856 Q1947.55 776.856 1948.17 776.535 Q1948.79 776.189 1948.79 774.558 L1948.79 758.18 L1944.81 758.18 Z" fill="#000000" fill-rule="evenodd" fill-opacity="1" /><path clip-path="url(#clip340)" d="M1959.51 758.18 L1959.51 757.068 Q1961.83 756.969 1963.36 755.339 Q1964.92 753.684 1965.44 751.658 Q1965.98 749.633 1966.03 747.286 L1967.29 747.286 L1967.29 756.599 L1974.53 756.599 L1974.53 758.18 L1967.29 758.18 L1967.29 772.236 Q1967.29 777.696 1970.7 777.696 Q1972.16 777.696 1973.12 776.213 Q1974.08 774.706 1974.08 772.039 L1974.08 769.247 L1975.34 769.247 L1975.34 772.137 Q1975.34 774.879 1974.08 776.93 Q1972.82 778.98 1970.33 778.98 Q1969.41 778.98 1968.5 778.733 Q1967.61 778.511 1966.42 777.918 Q1965.26 777.3 1964.52 775.818 Q1963.81 774.311 1963.81 772.137 L1963.81 758.18 L1959.51 758.18 Z" fill="#000000" fill-rule="evenodd" fill-opacity="1" /><path clip-path="url(#clip340)" d="M1995.94 758.18 L1995.94 757.068 Q1998.27 756.969 1999.8 755.339 Q2001.36 753.684 2001.87 751.658 Q2002.42 749.633 2002.47 747.286 L2003.73 747.286 L2003.73 756.599 L2010.96 756.599 L2010.96 758.18 L2003.73 758.18 L2003.73 772.236 Q2003.73 777.696 2007.14 777.696 Q2008.59 777.696 2009.56 776.213 Q2010.52 774.706 2010.52 772.039 L2010.52 769.247 L2011.78 769.247 L2011.78 772.137 Q2011.78 774.879 2010.52 776.93 Q2009.26 778.98 2006.77 778.98 Q2005.85 778.98 2004.94 778.733 Q2004.05 778.511 2002.86 777.918 Q2001.7 777.3 2000.96 775.818 Q2000.24 774.311 2000.24 772.137 L2000.24 758.18 L1995.94 758.18 Z" fill="#000000" fill-rule="evenodd" fill-opacity="1" /><path clip-path="url(#clip340)" d="M2019.34 775.695 Q2016 772.384 2016 767.592 Q2016 762.775 2019.26 759.267 Q2022.55 755.734 2027.24 755.734 Q2031.84 755.734 2035.12 759.242 Q2038.43 762.725 2038.43 767.592 Q2038.43 772.36 2035.1 775.67 Q2031.79 778.98 2027.19 778.98 Q2022.7 778.98 2019.34 775.695 M2020.2 767.172 Q2020.2 772.088 2021.49 774.311 Q2023.46 777.696 2027.24 777.696 Q2029.12 777.696 2030.68 776.683 Q2032.26 775.67 2033.12 773.965 Q2034.24 771.742 2034.24 767.172 Q2034.24 762.305 2032.9 760.156 Q2030.92 756.871 2027.19 756.871 Q2025.56 756.871 2023.96 757.735 Q2022.38 758.575 2021.41 760.255 Q2020.2 762.478 2020.2 767.172 Z" fill="#000000" fill-rule="evenodd" fill-opacity="1" /><path clip-path="url(#clip340)" d="M2058.12 778.412 L2058.12 776.856 Q2060.82 776.856 2061.43 776.535 Q2062.08 776.189 2062.08 774.558 L2062.08 760.996 Q2062.08 759.119 2061.41 758.649 Q2060.77 758.18 2058.12 758.18 L2058.12 756.599 L2065.16 756.055 L2065.16 761.614 Q2065.88 759.44 2067.39 757.76 Q2068.92 756.055 2071.39 756.055 Q2073.02 756.055 2074.06 756.969 Q2075.12 757.883 2075.12 759.143 Q2075.12 760.255 2074.43 760.823 Q2073.76 761.367 2072.95 761.367 Q2072.03 761.367 2071.39 760.798 Q2070.77 760.206 2070.77 759.193 Q2070.77 758.575 2071.04 758.106 Q2071.34 757.612 2071.56 757.439 Q2071.78 757.266 2071.93 757.216 Q2071.83 757.167 2071.39 757.167 Q2068.6 757.167 2066.99 759.959 Q2065.41 762.725 2065.41 766.678 L2065.41 774.459 Q2065.41 775.917 2066 776.386 Q2066.62 776.856 2069.26 776.856 L2070.33 776.856 L2070.33 778.412 Q2068.3 778.264 2063.9 778.264 Q2063.29 778.264 2062.32 778.288 Q2061.36 778.313 2060.1 778.363 Q2058.84 778.412 2058.12 778.412 Z" fill="#000000" fill-rule="evenodd" fill-opacity="1" /><path clip-path="url(#clip340)" d="M2078.16 778.412 L2078.16 776.856 Q2080.85 776.856 2081.47 776.535 Q2082.09 776.189 2082.09 774.558 L2082.09 760.947 Q2082.09 759.069 2081.44 758.625 Q2080.83 758.18 2078.36 758.18 L2078.36 756.599 L2085.42 756.055 L2085.42 774.608 Q2085.42 776.115 2085.96 776.485 Q2086.51 776.856 2088.98 776.856 L2088.98 778.412 Q2083.81 778.264 2083.72 778.264 Q2083.02 778.264 2078.16 778.412 M2080.28 747.236 Q2080.28 746.223 2081.05 745.408 Q2081.84 744.568 2082.95 744.568 Q2084.06 744.568 2084.85 745.334 Q2085.64 746.075 2085.64 747.261 Q2085.64 748.422 2084.85 749.188 Q2084.06 749.929 2082.95 749.929 Q2081.79 749.929 2081.02 749.114 Q2080.28 748.299 2080.28 747.236 Z" fill="#000000" fill-rule="evenodd" fill-opacity="1" /><path clip-path="url(#clip340)" d="M2091.89 782.414 Q2091.89 780.783 2093.13 779.375 Q2094.39 777.967 2096.56 777.35 Q2094.34 775.942 2094.34 772.854 Q2094.34 770.482 2095.89 768.654 Q2093.52 766.678 2093.52 763.442 Q2093.52 760.453 2095.89 758.254 Q2098.27 756.055 2101.72 756.055 Q2104.76 756.055 2107.09 757.883 Q2109.51 755.512 2112.45 755.487 Q2113.76 755.487 2114.37 756.302 Q2115.02 757.118 2115.02 757.982 Q2115.02 758.748 2114.52 759.119 Q2114.05 759.489 2113.56 759.489 Q2112.94 759.489 2112.5 759.094 Q2112.08 758.674 2112.08 758.032 Q2112.08 756.969 2112.89 756.648 Q2112.74 756.599 2112.4 756.599 Q2109.93 756.599 2107.83 758.575 Q2109.9 760.502 2109.9 763.491 Q2109.9 766.48 2107.53 768.679 Q2105.16 770.877 2101.72 770.877 Q2098.88 770.877 2096.71 769.296 Q2095.85 770.309 2095.85 771.693 Q2095.85 772.953 2096.61 773.941 Q2097.38 774.929 2098.54 775.077 Q2098.88 775.126 2102.32 775.126 Q2104.34 775.126 2105.45 775.176 Q2106.57 775.225 2108.15 775.571 Q2109.75 775.892 2111.01 776.535 Q2114.3 778.363 2114.32 782.315 Q2114.32 785.205 2110.99 787.009 Q2107.68 788.837 2103.08 788.837 Q2098.44 788.837 2095.15 786.984 Q2091.89 785.156 2091.89 782.414 M2094.54 782.414 Q2094.54 784.489 2096.98 786.07 Q2099.43 787.676 2103.13 787.676 Q2106.76 787.676 2109.21 786.095 Q2111.68 784.538 2111.68 782.414 Q2111.68 780.907 2110.82 779.944 Q2109.95 778.98 2108.17 778.585 Q2106.42 778.214 2105.18 778.14 Q2103.95 778.066 2101.68 778.066 L2098.69 778.066 Q2096.96 778.165 2095.75 779.425 Q2094.54 780.685 2094.54 782.414 M2097.3 763.491 Q2097.3 769.716 2101.72 769.716 Q2103.95 769.716 2105.31 767.691 Q2106.12 766.332 2106.12 763.442 Q2106.12 757.216 2101.72 757.216 Q2099.5 757.216 2098.12 759.242 Q2097.3 760.601 2097.3 763.491 Z" fill="#000000" fill-rule="evenodd" fill-opacity="1" /><path clip-path="url(#clip340)" d="M2117.41 778.412 L2117.41 776.856 Q2120.1 776.856 2120.72 776.535 Q2121.34 776.189 2121.34 774.558 L2121.34 748.249 Q2121.34 746.372 2120.67 745.902 Q2120.03 745.433 2117.41 745.433 L2117.41 743.852 L2124.67 743.308 L2124.67 760.897 L2124.72 760.897 Q2125.54 759.069 2127.37 757.562 Q2129.19 756.055 2132.01 756.055 Q2135.82 756.055 2137.32 757.933 Q2138.43 759.193 2138.66 760.601 Q2138.9 762.009 2138.9 765.665 L2138.9 775.324 Q2138.95 776.386 2139.77 776.633 Q2140.58 776.856 2142.86 776.856 L2142.86 778.412 Q2137.69 778.264 2137.17 778.264 Q2136.78 778.264 2131.47 778.412 L2131.47 776.856 Q2134.16 776.856 2134.78 776.535 Q2135.42 776.189 2135.42 774.558 L2135.42 762.775 Q2135.42 760.206 2134.63 758.699 Q2133.84 757.167 2131.67 757.167 Q2129.05 757.167 2126.95 759.366 Q2124.85 761.564 2124.85 765.27 L2124.85 774.558 Q2124.85 776.189 2125.46 776.535 Q2126.11 776.856 2128.77 776.856 L2128.77 778.412 Q2123.61 778.264 2123.12 778.264 Q2122.72 778.264 2117.41 778.412 Z" fill="#000000" fill-rule="evenodd" fill-opacity="1" /><path clip-path="url(#clip340)" d="M2143.4 758.18 L2143.4 757.068 Q2145.72 756.969 2147.25 755.339 Q2148.81 753.684 2149.33 751.658 Q2149.87 749.633 2149.92 747.286 L2151.18 747.286 L2151.18 756.599 L2158.42 756.599 L2158.42 758.18 L2151.18 758.18 L2151.18 772.236 Q2151.18 777.696 2154.59 777.696 Q2156.05 777.696 2157.01 776.213 Q2157.97 774.706 2157.97 772.039 L2157.97 769.247 L2159.23 769.247 L2159.23 772.137 Q2159.23 774.879 2157.97 776.93 Q2156.71 778.98 2154.22 778.98 Q2153.31 778.98 2152.39 778.733 Q2151.5 778.511 2150.32 777.918 Q2149.16 777.3 2148.41 775.818 Q2147.7 774.311 2147.7 772.137 L2147.7 758.18 L2143.4 758.18 Z" fill="#000000" fill-rule="evenodd" fill-opacity="1" /><path clip-path="url(#clip340)" d="M2180.55 777.745 L2180.55 771.075 Q2180.55 770.507 2180.58 770.309 Q2180.6 770.112 2180.75 769.963 Q2180.9 769.815 2181.2 769.815 Q2181.54 769.815 2181.66 769.963 Q2181.81 770.112 2181.91 770.68 Q2182.68 774.163 2184.31 776.016 Q2185.96 777.844 2188.95 777.844 Q2191.79 777.844 2193.23 776.584 Q2194.66 775.324 2194.66 773.249 Q2194.66 769.543 2189.4 768.605 Q2186.36 767.987 2185.1 767.592 Q2183.84 767.172 2182.73 766.258 Q2180.55 764.479 2180.55 761.96 Q2180.55 759.44 2182.46 757.587 Q2184.38 755.734 2188.63 755.734 Q2191.47 755.734 2193.4 757.167 Q2193.97 756.722 2194.26 756.352 Q2194.93 755.734 2195.28 755.734 Q2195.67 755.734 2195.75 756.006 Q2195.82 756.253 2195.82 756.969 L2195.82 762.058 Q2195.82 762.627 2195.8 762.824 Q2195.77 763.022 2195.62 763.17 Q2195.47 763.294 2195.15 763.294 Q2194.58 763.294 2194.56 762.824 Q2194.16 756.698 2188.63 756.698 Q2185.64 756.698 2184.31 757.859 Q2182.97 758.995 2182.97 760.551 Q2182.97 761.416 2183.37 762.083 Q2183.79 762.725 2184.31 763.121 Q2184.85 763.491 2185.84 763.862 Q2186.83 764.208 2187.42 764.331 Q2188.04 764.455 2189.2 764.702 Q2193.25 765.467 2194.96 767.123 Q2197.08 769.247 2197.08 771.94 Q2197.08 774.929 2195.05 776.954 Q2193.03 778.98 2188.95 778.98 Q2185.67 778.98 2183.37 776.782 Q2183.07 777.078 2182.85 777.35 Q2182.63 777.597 2182.53 777.696 Q2182.46 777.794 2182.43 777.868 Q2182.41 777.918 2182.36 777.967 Q2181.34 778.98 2181.1 778.98 Q2180.7 778.98 2180.63 778.708 Q2180.55 778.461 2180.55 777.745 Z" fill="#000000" fill-rule="evenodd" fill-opacity="1" /><path clip-path="url(#clip340)" d="M2199.7 758.18 L2199.7 756.599 Q2202.44 756.747 2204.39 756.747 Q2205.36 756.747 2209.93 756.599 L2209.93 758.18 Q2206.94 758.18 2206.94 759.539 Q2206.94 759.835 2207.18 760.453 L2212 773.965 L2216.35 761.712 Q2215.43 759.242 2215.19 758.946 Q2214.57 758.18 2212 758.18 L2212 756.599 Q2214.27 756.747 2216.5 756.747 Q2217.36 756.747 2221.76 756.599 L2221.76 758.18 Q2218.77 758.18 2218.77 759.539 Q2218.77 759.736 2219.02 760.502 L2224.03 774.608 L2228.63 761.663 Q2228.87 760.996 2228.9 760.601 Q2228.9 759.489 2228.11 758.872 Q2227.32 758.229 2225.96 758.18 L2225.96 756.599 Q2228.85 756.747 2230.65 756.747 Q2232.68 756.747 2234.36 756.599 L2234.36 758.18 Q2231.22 758.279 2230.11 761.416 L2224.18 778.017 Q2223.61 778.931 2223.17 778.98 Q2222.5 778.98 2222.15 778.017 L2216.99 763.639 L2211.88 777.967 Q2211.68 778.585 2211.51 778.783 Q2211.33 778.98 2210.86 778.98 Q2210.42 778.98 2210.22 778.708 Q2210.02 778.461 2209.8 777.844 L2203.43 759.934 Q2202.98 758.773 2202.32 758.476 Q2201.67 758.18 2199.7 758.18 Z" fill="#000000" fill-rule="evenodd" fill-opacity="1" /><path clip-path="url(#clip340)" d="M2235.3 767.271 Q2235.3 762.503 2238.36 759.119 Q2241.42 755.734 2245.82 755.734 Q2250.27 755.734 2252.56 758.625 Q2254.89 761.515 2254.89 765.665 Q2254.89 766.431 2254.69 766.579 Q2254.49 766.727 2253.63 766.727 L2239.5 766.727 Q2239.5 771.89 2241.03 774.311 Q2243.15 777.696 2246.73 777.696 Q2247.23 777.696 2247.82 777.597 Q2248.41 777.498 2249.62 777.078 Q2250.83 776.633 2251.9 775.472 Q2252.96 774.311 2253.58 772.483 Q2253.72 771.767 2254.22 771.791 Q2254.89 771.791 2254.89 772.384 Q2254.89 772.829 2254.39 773.842 Q2253.92 774.83 2253.01 776.016 Q2252.09 777.202 2250.32 778.091 Q2248.56 778.98 2246.44 778.98 Q2241.99 778.98 2238.63 775.62 Q2235.3 772.236 2235.3 767.271 M2239.54 765.665 L2251.55 765.665 Q2251.55 764.603 2251.35 763.417 Q2251.18 762.231 2250.64 760.601 Q2250.12 758.946 2248.88 757.908 Q2247.65 756.871 2245.82 756.871 Q2245 756.871 2244.11 757.216 Q2243.25 757.562 2242.19 758.402 Q2241.13 759.242 2240.38 761.144 Q2239.64 763.046 2239.54 765.665 Z" fill="#000000" fill-rule="evenodd" fill-opacity="1" /><path clip-path="url(#clip340)" d="M2257.75 767.271 Q2257.75 762.503 2260.81 759.119 Q2263.88 755.734 2268.27 755.734 Q2272.72 755.734 2275.02 758.625 Q2277.34 761.515 2277.34 765.665 Q2277.34 766.431 2277.14 766.579 Q2276.95 766.727 2276.08 766.727 L2261.95 766.727 Q2261.95 771.89 2263.48 774.311 Q2265.61 777.696 2269.19 777.696 Q2269.68 777.696 2270.28 777.597 Q2270.87 777.498 2272.08 777.078 Q2273.29 776.633 2274.35 775.472 Q2275.41 774.311 2276.03 772.483 Q2276.18 771.767 2276.67 771.791 Q2277.34 771.791 2277.34 772.384 Q2277.34 772.829 2276.85 773.842 Q2276.38 774.83 2275.46 776.016 Q2274.55 777.202 2272.77 778.091 Q2271.02 778.98 2268.89 778.98 Q2264.45 778.98 2261.09 775.62 Q2257.75 772.236 2257.75 767.271 M2262 765.665 L2274.01 765.665 Q2274.01 764.603 2273.81 763.417 Q2273.64 762.231 2273.09 760.601 Q2272.57 758.946 2271.34 757.908 Q2270.1 756.871 2268.27 756.871 Q2267.46 756.871 2266.57 757.216 Q2265.71 757.562 2264.64 758.402 Q2263.58 759.242 2262.84 761.144 Q2262.1 763.046 2262 765.665 Z" fill="#000000" fill-rule="evenodd" fill-opacity="1" /><path clip-path="url(#clip340)" d="M2280.21 786.663 Q2282.9 786.663 2283.52 786.317 Q2284.16 785.996 2284.16 784.39 L2284.16 760.7 Q2284.16 759.02 2283.52 758.6 Q2282.9 758.18 2280.21 758.18 L2280.21 756.599 L2287.49 756.055 L2287.49 759.39 Q2290.53 756.055 2294.58 756.055 Q2298.88 756.055 2302.02 759.39 Q2305.16 762.725 2305.16 767.493 Q2305.16 772.31 2301.82 775.645 Q2298.49 778.98 2293.87 778.98 Q2291.35 778.98 2289.64 777.696 Q2287.96 776.386 2287.64 775.423 L2287.64 775.892 L2287.64 784.39 Q2287.64 786.021 2288.28 786.342 Q2288.93 786.663 2291.59 786.663 L2291.59 788.219 Q2286.28 788.071 2285.89 788.071 Q2285.39 788.071 2280.21 788.219 L2280.21 786.663 M2287.64 772.656 Q2287.64 773.422 2287.74 773.694 Q2287.86 773.965 2288.36 774.781 Q2290.36 777.844 2293.62 777.844 Q2293.65 777.844 2293.67 777.844 Q2296.56 777.844 2298.76 774.904 Q2300.96 771.94 2300.96 767.493 Q2300.96 763.244 2298.96 760.28 Q2296.96 757.315 2294.19 757.315 Q2292.21 757.315 2290.48 758.378 Q2288.75 759.44 2287.64 761.367 L2287.64 772.656 Z" fill="#000000" fill-rule="evenodd" fill-opacity="1" /><polyline clip-path="url(#clip340)" style="stroke:#ac8d18; stroke-linecap:round; stroke-linejoin:round; stroke-width:4; stroke-opacity:1; fill:none" stroke-dasharray="16, 10" points="
  1742.7,812.972 1884.68,812.972 
  "/>
<path clip-path="url(#clip340)" d="M1908.35 830.252 L1908.35 828.696 Q1911.04 828.696 1911.66 828.375 Q1912.3 828.029 1912.3 826.398 L1912.3 812.836 Q1912.3 810.959 1911.63 810.489 Q1910.99 810.02 1908.35 810.02 L1908.35 808.439 L1915.39 807.895 L1915.39 813.454 Q1916.1 811.28 1917.61 809.6 Q1919.14 807.895 1921.61 807.895 Q1923.24 807.895 1924.28 808.809 Q1925.34 809.723 1925.34 810.983 Q1925.34 812.095 1924.65 812.663 Q1923.98 813.207 1923.17 813.207 Q1922.25 813.207 1921.61 812.638 Q1920.99 812.046 1920.99 811.033 Q1920.99 810.415 1921.27 809.946 Q1921.56 809.452 1921.79 809.279 Q1922.01 809.106 1922.16 809.056 Q1922.06 809.007 1921.61 809.007 Q1918.82 809.007 1917.22 811.799 Q1915.63 814.565 1915.63 818.518 L1915.63 826.299 Q1915.63 827.757 1916.23 828.226 Q1916.84 828.696 1919.49 828.696 L1920.55 828.696 L1920.55 830.252 Q1918.52 830.104 1914.13 830.104 Q1913.51 830.104 1912.55 830.128 Q1911.58 830.153 1910.32 830.203 Q1909.06 830.252 1908.35 830.252 Z" fill="#000000" fill-rule="evenodd" fill-opacity="1" /><path clip-path="url(#clip340)" d="M1928.38 830.252 L1928.38 828.696 Q1931.07 828.696 1931.69 828.375 Q1932.31 828.029 1932.31 826.398 L1932.31 812.787 Q1932.31 810.909 1931.67 810.465 Q1931.05 810.02 1928.58 810.02 L1928.58 808.439 L1935.64 807.895 L1935.64 826.448 Q1935.64 827.955 1936.19 828.325 Q1936.73 828.696 1939.2 828.696 L1939.2 830.252 Q1934.04 830.104 1933.94 830.104 Q1933.25 830.104 1928.38 830.252 M1930.51 799.076 Q1930.51 798.063 1931.27 797.248 Q1932.06 796.408 1933.17 796.408 Q1934.29 796.408 1935.08 797.174 Q1935.87 797.915 1935.87 799.101 Q1935.87 800.262 1935.08 801.028 Q1934.29 801.769 1933.17 801.769 Q1932.01 801.769 1931.25 800.954 Q1930.51 800.139 1930.51 799.076 Z" fill="#000000" fill-rule="evenodd" fill-opacity="1" /><path clip-path="url(#clip340)" d="M1942.12 834.254 Q1942.12 832.623 1943.35 831.215 Q1944.61 829.807 1946.79 829.19 Q1944.56 827.782 1944.56 824.694 Q1944.56 822.322 1946.12 820.494 Q1943.75 818.518 1943.75 815.282 Q1943.75 812.293 1946.12 810.094 Q1948.49 807.895 1951.95 807.895 Q1954.99 807.895 1957.31 809.723 Q1959.73 807.352 1962.67 807.327 Q1963.98 807.327 1964.6 808.142 Q1965.24 808.958 1965.24 809.822 Q1965.24 810.588 1964.74 810.959 Q1964.28 811.329 1963.78 811.329 Q1963.16 811.329 1962.72 810.934 Q1962.3 810.514 1962.3 809.872 Q1962.3 808.809 1963.11 808.488 Q1962.97 808.439 1962.62 808.439 Q1960.15 808.439 1958.05 810.415 Q1960.13 812.342 1960.13 815.331 Q1960.13 818.32 1957.75 820.519 Q1955.38 822.717 1951.95 822.717 Q1949.11 822.717 1946.93 821.136 Q1946.07 822.149 1946.07 823.533 Q1946.07 824.793 1946.83 825.781 Q1947.6 826.769 1948.76 826.917 Q1949.11 826.966 1952.54 826.966 Q1954.57 826.966 1955.68 827.016 Q1956.79 827.065 1958.37 827.411 Q1959.98 827.732 1961.24 828.375 Q1964.52 830.203 1964.55 834.155 Q1964.55 837.045 1961.21 838.849 Q1957.9 840.677 1953.31 840.677 Q1948.66 840.677 1945.38 838.824 Q1942.12 836.996 1942.12 834.254 M1944.76 834.254 Q1944.76 836.329 1947.21 837.91 Q1949.65 839.516 1953.36 839.516 Q1956.99 839.516 1959.43 837.935 Q1961.9 836.378 1961.9 834.254 Q1961.9 832.747 1961.04 831.784 Q1960.17 830.82 1958.4 830.425 Q1956.64 830.054 1955.41 829.98 Q1954.17 829.906 1951.9 829.906 L1948.91 829.906 Q1947.18 830.005 1945.97 831.265 Q1944.76 832.525 1944.76 834.254 M1947.53 815.331 Q1947.53 821.556 1951.95 821.556 Q1954.17 821.556 1955.53 819.531 Q1956.35 818.172 1956.35 815.282 Q1956.35 809.056 1951.95 809.056 Q1949.72 809.056 1948.34 811.082 Q1947.53 812.441 1947.53 815.331 Z" fill="#000000" fill-rule="evenodd" fill-opacity="1" /><path clip-path="url(#clip340)" d="M1967.63 830.252 L1967.63 828.696 Q1970.33 828.696 1970.95 828.375 Q1971.56 828.029 1971.56 826.398 L1971.56 800.089 Q1971.56 798.212 1970.9 797.742 Q1970.25 797.273 1967.63 797.273 L1967.63 795.692 L1974.9 795.148 L1974.9 812.737 L1974.95 812.737 Q1975.76 810.909 1977.59 809.402 Q1979.42 807.895 1982.23 807.895 Q1986.04 807.895 1987.55 809.773 Q1988.66 811.033 1988.88 812.441 Q1989.13 813.849 1989.13 817.505 L1989.13 827.164 Q1989.18 828.226 1989.99 828.473 Q1990.81 828.696 1993.08 828.696 L1993.08 830.252 Q1987.92 830.104 1987.4 830.104 Q1987 830.104 1981.69 830.252 L1981.69 828.696 Q1984.38 828.696 1985 828.375 Q1985.64 828.029 1985.64 826.398 L1985.64 814.615 Q1985.64 812.046 1984.85 810.539 Q1984.06 809.007 1981.89 809.007 Q1979.27 809.007 1977.17 811.206 Q1975.07 813.404 1975.07 817.11 L1975.07 826.398 Q1975.07 828.029 1975.69 828.375 Q1976.33 828.696 1979 828.696 L1979 830.252 Q1973.84 830.104 1973.34 830.104 Q1972.95 830.104 1967.63 830.252 Z" fill="#000000" fill-rule="evenodd" fill-opacity="1" /><path clip-path="url(#clip340)" d="M1993.62 810.02 L1993.62 808.908 Q1995.94 808.809 1997.48 807.179 Q1999.03 805.524 1999.55 803.498 Q2000.1 801.473 2000.14 799.126 L2001.4 799.126 L2001.4 808.439 L2008.64 808.439 L2008.64 810.02 L2001.4 810.02 L2001.4 824.076 Q2001.4 829.536 2004.81 829.536 Q2006.27 829.536 2007.23 828.053 Q2008.2 826.546 2008.2 823.879 L2008.2 821.087 L2009.46 821.087 L2009.46 823.977 Q2009.46 826.719 2008.2 828.77 Q2006.94 830.82 2004.44 830.82 Q2003.53 830.82 2002.61 830.573 Q2001.73 830.351 2000.54 829.758 Q1999.38 829.14 1998.64 827.658 Q1997.92 826.151 1997.92 823.977 L1997.92 810.02 L1993.62 810.02 Z" fill="#000000" fill-rule="evenodd" fill-opacity="1" /><path clip-path="url(#clip340)" d="M2030.06 810.02 L2030.06 808.908 Q2032.38 808.809 2033.91 807.179 Q2035.47 805.524 2035.99 803.498 Q2036.53 801.473 2036.58 799.126 L2037.84 799.126 L2037.84 808.439 L2045.08 808.439 L2045.08 810.02 L2037.84 810.02 L2037.84 824.076 Q2037.84 829.536 2041.25 829.536 Q2042.71 829.536 2043.67 828.053 Q2044.64 826.546 2044.64 823.879 L2044.64 821.087 L2045.9 821.087 L2045.9 823.977 Q2045.9 826.719 2044.64 828.77 Q2043.38 830.82 2040.88 830.82 Q2039.97 830.82 2039.05 830.573 Q2038.16 830.351 2036.98 829.758 Q2035.82 829.14 2035.08 827.658 Q2034.36 826.151 2034.36 823.977 L2034.36 810.02 L2030.06 810.02 Z" fill="#000000" fill-rule="evenodd" fill-opacity="1" /><path clip-path="url(#clip340)" d="M2053.45 827.535 Q2050.12 824.224 2050.12 819.432 Q2050.12 814.615 2053.38 811.107 Q2056.67 807.574 2061.36 807.574 Q2065.95 807.574 2069.24 811.082 Q2072.55 814.565 2072.55 819.432 Q2072.55 824.2 2069.22 827.51 Q2065.9 830.82 2061.31 830.82 Q2056.81 830.82 2053.45 827.535 M2054.32 819.012 Q2054.32 823.928 2055.6 826.151 Q2057.58 829.536 2061.36 829.536 Q2063.24 829.536 2064.79 828.523 Q2066.37 827.51 2067.24 825.805 Q2068.35 823.582 2068.35 819.012 Q2068.35 814.145 2067.02 811.996 Q2065.04 808.711 2061.31 808.711 Q2059.68 808.711 2058.07 809.575 Q2056.49 810.415 2055.53 812.095 Q2054.32 814.318 2054.32 819.012 Z" fill="#000000" fill-rule="evenodd" fill-opacity="1" /><path clip-path="url(#clip340)" d="M2092.51 830.252 L2092.51 828.696 Q2095.2 828.696 2095.82 828.375 Q2096.44 828.029 2096.44 826.398 L2096.44 800.089 Q2096.44 798.212 2095.77 797.742 Q2095.13 797.273 2092.51 797.273 L2092.51 795.692 L2099.77 795.148 L2099.77 826.398 Q2099.77 828.029 2100.42 828.375 Q2101.06 828.696 2103.73 828.696 L2103.73 830.252 Q2103.11 830.252 2101.82 830.203 Q2100.54 830.153 2099.6 830.128 Q2098.66 830.104 2098.12 830.104 Q2097.53 830.104 2092.51 830.252 Z" fill="#000000" fill-rule="evenodd" fill-opacity="1" /><path clip-path="url(#clip340)" d="M2106.25 819.111 Q2106.25 814.343 2109.31 810.959 Q2112.37 807.574 2116.77 807.574 Q2121.22 807.574 2123.51 810.465 Q2125.84 813.355 2125.84 817.505 Q2125.84 818.271 2125.64 818.419 Q2125.44 818.567 2124.58 818.567 L2110.45 818.567 Q2110.45 823.73 2111.98 826.151 Q2114.1 829.536 2117.68 829.536 Q2118.18 829.536 2118.77 829.437 Q2119.36 829.338 2120.57 828.918 Q2121.78 828.473 2122.85 827.312 Q2123.91 826.151 2124.53 824.323 Q2124.67 823.607 2125.17 823.631 Q2125.84 823.631 2125.84 824.224 Q2125.84 824.669 2125.34 825.682 Q2124.87 826.67 2123.96 827.856 Q2123.04 829.042 2121.27 829.931 Q2119.51 830.82 2117.39 830.82 Q2112.94 830.82 2109.58 827.46 Q2106.25 824.076 2106.25 819.111 M2110.49 817.505 L2122.5 817.505 Q2122.5 816.443 2122.3 815.257 Q2122.13 814.071 2121.59 812.441 Q2121.07 810.786 2119.83 809.748 Q2118.6 808.711 2116.77 808.711 Q2115.95 808.711 2115.06 809.056 Q2114.2 809.402 2113.14 810.242 Q2112.08 811.082 2111.33 812.984 Q2110.59 814.886 2110.49 817.505 Z" fill="#000000" fill-rule="evenodd" fill-opacity="1" /><path clip-path="url(#clip340)" d="M2128.97 810.02 L2128.97 808.439 L2132.95 808.439 L2132.95 802.634 Q2132.95 798.879 2135.37 796.73 Q2137.82 794.58 2140.81 794.58 Q2142.78 794.58 2144.07 795.643 Q2145.35 796.705 2145.35 798.138 Q2145.35 799.101 2144.76 799.743 Q2144.19 800.361 2143.13 800.361 Q2142.11 800.361 2141.52 799.719 Q2140.95 799.076 2140.95 798.187 Q2140.95 796.557 2142.46 796.063 Q2141.69 795.717 2140.81 795.692 Q2138.98 795.692 2137.54 797.569 Q2136.14 799.447 2136.14 802.584 L2136.14 808.439 L2142.07 808.439 L2142.07 810.02 L2136.31 810.02 L2136.31 826.299 Q2136.31 827.757 2136.9 828.226 Q2137.52 828.696 2140.14 828.696 L2141.2 828.696 L2141.2 830.252 Q2139.18 830.104 2134.78 830.104 Q2134.16 830.104 2133.2 830.128 Q2132.26 830.153 2130.97 830.203 Q2129.71 830.252 2129.02 830.252 L2129.02 828.696 Q2131.71 828.696 2132.33 828.375 Q2132.95 828.029 2132.95 826.398 L2132.95 810.02 L2128.97 810.02 Z" fill="#000000" fill-rule="evenodd" fill-opacity="1" /><path clip-path="url(#clip340)" d="M2143.67 810.02 L2143.67 808.908 Q2145.99 808.809 2147.52 807.179 Q2149.08 805.524 2149.6 803.498 Q2150.14 801.473 2150.19 799.126 L2151.45 799.126 L2151.45 808.439 L2158.69 808.439 L2158.69 810.02 L2151.45 810.02 L2151.45 824.076 Q2151.45 829.536 2154.86 829.536 Q2156.32 829.536 2157.28 828.053 Q2158.25 826.546 2158.25 823.879 L2158.25 821.087 L2159.51 821.087 L2159.51 823.977 Q2159.51 826.719 2158.25 828.77 Q2156.99 830.82 2154.49 830.82 Q2153.58 830.82 2152.66 830.573 Q2151.77 830.351 2150.59 829.758 Q2149.43 829.14 2148.69 827.658 Q2147.97 826.151 2147.97 823.977 L2147.97 810.02 L2143.67 810.02 Z" fill="#000000" fill-rule="evenodd" fill-opacity="1" /><path clip-path="url(#clip340)" d="M2180.82 829.585 L2180.82 822.915 Q2180.82 822.347 2180.85 822.149 Q2180.87 821.952 2181.02 821.803 Q2181.17 821.655 2181.47 821.655 Q2181.81 821.655 2181.94 821.803 Q2182.08 821.952 2182.18 822.52 Q2182.95 826.003 2184.58 827.856 Q2186.23 829.684 2189.22 829.684 Q2192.06 829.684 2193.5 828.424 Q2194.93 827.164 2194.93 825.089 Q2194.93 821.383 2189.67 820.445 Q2186.63 819.827 2185.37 819.432 Q2184.11 819.012 2183 818.098 Q2180.82 816.319 2180.82 813.8 Q2180.82 811.28 2182.73 809.427 Q2184.65 807.574 2188.9 807.574 Q2191.74 807.574 2193.67 809.007 Q2194.24 808.562 2194.54 808.192 Q2195.2 807.574 2195.55 807.574 Q2195.94 807.574 2196.02 807.846 Q2196.09 808.093 2196.09 808.809 L2196.09 813.898 Q2196.09 814.467 2196.07 814.664 Q2196.04 814.862 2195.89 815.01 Q2195.75 815.134 2195.42 815.134 Q2194.86 815.134 2194.83 814.664 Q2194.44 808.538 2188.9 808.538 Q2185.91 808.538 2184.58 809.699 Q2183.25 810.835 2183.25 812.391 Q2183.25 813.256 2183.64 813.923 Q2184.06 814.565 2184.58 814.961 Q2185.12 815.331 2186.11 815.702 Q2187.1 816.048 2187.69 816.171 Q2188.31 816.295 2189.47 816.542 Q2193.52 817.307 2195.23 818.963 Q2197.35 821.087 2197.35 823.78 Q2197.35 826.769 2195.33 828.794 Q2193.3 830.82 2189.22 830.82 Q2185.94 830.82 2183.64 828.622 Q2183.34 828.918 2183.12 829.19 Q2182.9 829.437 2182.8 829.536 Q2182.73 829.634 2182.7 829.708 Q2182.68 829.758 2182.63 829.807 Q2181.62 830.82 2181.37 830.82 Q2180.97 830.82 2180.9 830.548 Q2180.82 830.301 2180.82 829.585 Z" fill="#000000" fill-rule="evenodd" fill-opacity="1" /><path clip-path="url(#clip340)" d="M2199.97 810.02 L2199.97 808.439 Q2202.71 808.587 2204.66 808.587 Q2205.63 808.587 2210.2 808.439 L2210.2 810.02 Q2207.21 810.02 2207.21 811.379 Q2207.21 811.675 2207.46 812.293 L2212.27 825.805 L2216.62 813.552 Q2215.71 811.082 2215.46 810.786 Q2214.84 810.02 2212.27 810.02 L2212.27 808.439 Q2214.55 808.587 2216.77 808.587 Q2217.63 808.587 2222.03 808.439 L2222.03 810.02 Q2219.04 810.02 2219.04 811.379 Q2219.04 811.576 2219.29 812.342 L2224.3 826.448 L2228.9 813.503 Q2229.14 812.836 2229.17 812.441 Q2229.17 811.329 2228.38 810.712 Q2227.59 810.069 2226.23 810.02 L2226.23 808.439 Q2229.12 808.587 2230.92 808.587 Q2232.95 808.587 2234.63 808.439 L2234.63 810.02 Q2231.49 810.119 2230.38 813.256 L2224.45 829.857 Q2223.88 830.771 2223.44 830.82 Q2222.77 830.82 2222.43 829.857 L2217.26 815.479 L2212.15 829.807 Q2211.95 830.425 2211.78 830.623 Q2211.61 830.82 2211.14 830.82 Q2210.69 830.82 2210.49 830.548 Q2210.3 830.301 2210.07 829.684 L2203.7 811.774 Q2203.26 810.613 2202.59 810.316 Q2201.95 810.02 2199.97 810.02 Z" fill="#000000" fill-rule="evenodd" fill-opacity="1" /><path clip-path="url(#clip340)" d="M2235.57 819.111 Q2235.57 814.343 2238.63 810.959 Q2241.69 807.574 2246.09 807.574 Q2250.54 807.574 2252.84 810.465 Q2255.16 813.355 2255.16 817.505 Q2255.16 818.271 2254.96 818.419 Q2254.76 818.567 2253.9 818.567 L2239.77 818.567 Q2239.77 823.73 2241.3 826.151 Q2243.42 829.536 2247.01 829.536 Q2247.5 829.536 2248.09 829.437 Q2248.69 829.338 2249.9 828.918 Q2251.11 828.473 2252.17 827.312 Q2253.23 826.151 2253.85 824.323 Q2254 823.607 2254.49 823.631 Q2255.16 823.631 2255.16 824.224 Q2255.16 824.669 2254.66 825.682 Q2254.19 826.67 2253.28 827.856 Q2252.37 829.042 2250.59 829.931 Q2248.83 830.82 2246.71 830.82 Q2242.26 830.82 2238.9 827.46 Q2235.57 824.076 2235.57 819.111 M2239.82 817.505 L2251.82 817.505 Q2251.82 816.443 2251.62 815.257 Q2251.45 814.071 2250.91 812.441 Q2250.39 810.786 2249.15 809.748 Q2247.92 808.711 2246.09 808.711 Q2245.28 808.711 2244.39 809.056 Q2243.52 809.402 2242.46 810.242 Q2241.4 811.082 2240.66 812.984 Q2239.92 814.886 2239.82 817.505 Z" fill="#000000" fill-rule="evenodd" fill-opacity="1" /><path clip-path="url(#clip340)" d="M2258.02 819.111 Q2258.02 814.343 2261.09 810.959 Q2264.15 807.574 2268.55 807.574 Q2272.99 807.574 2275.29 810.465 Q2277.61 813.355 2277.61 817.505 Q2277.61 818.271 2277.42 818.419 Q2277.22 818.567 2276.35 818.567 L2262.22 818.567 Q2262.22 823.73 2263.75 826.151 Q2265.88 829.536 2269.46 829.536 Q2269.95 829.536 2270.55 829.437 Q2271.14 829.338 2272.35 828.918 Q2273.56 828.473 2274.62 827.312 Q2275.69 826.151 2276.3 824.323 Q2276.45 823.607 2276.95 823.631 Q2277.61 823.631 2277.61 824.224 Q2277.61 824.669 2277.12 825.682 Q2276.65 826.67 2275.74 827.856 Q2274.82 829.042 2273.04 829.931 Q2271.29 830.82 2269.16 830.82 Q2264.72 830.82 2261.36 827.46 Q2258.02 824.076 2258.02 819.111 M2262.27 817.505 L2274.28 817.505 Q2274.28 816.443 2274.08 815.257 Q2273.91 814.071 2273.36 812.441 Q2272.84 810.786 2271.61 809.748 Q2270.37 808.711 2268.55 808.711 Q2267.73 808.711 2266.84 809.056 Q2265.98 809.402 2264.92 810.242 Q2263.85 811.082 2263.11 812.984 Q2262.37 814.886 2262.27 817.505 Z" fill="#000000" fill-rule="evenodd" fill-opacity="1" /><path clip-path="url(#clip340)" d="M2280.48 838.503 Q2283.17 838.503 2283.79 838.157 Q2284.43 837.836 2284.43 836.23 L2284.43 812.54 Q2284.43 810.86 2283.79 810.44 Q2283.17 810.02 2280.48 810.02 L2280.48 808.439 L2287.77 807.895 L2287.77 811.23 Q2290.8 807.895 2294.86 807.895 Q2299.15 807.895 2302.29 811.23 Q2305.43 814.565 2305.43 819.333 Q2305.43 824.15 2302.09 827.485 Q2298.76 830.82 2294.14 830.82 Q2291.62 830.82 2289.91 829.536 Q2288.24 828.226 2287.91 827.263 L2287.91 827.732 L2287.91 836.23 Q2287.91 837.861 2288.56 838.182 Q2289.2 838.503 2291.87 838.503 L2291.87 840.059 Q2286.56 839.911 2286.16 839.911 Q2285.67 839.911 2280.48 840.059 L2280.48 838.503 M2287.91 824.496 Q2287.91 825.262 2288.01 825.534 Q2288.14 825.805 2288.63 826.621 Q2290.63 829.684 2293.89 829.684 Q2293.92 829.684 2293.94 829.684 Q2296.83 829.684 2299.03 826.744 Q2301.23 823.78 2301.23 819.333 Q2301.23 815.084 2299.23 812.12 Q2297.23 809.155 2294.46 809.155 Q2292.48 809.155 2290.75 810.218 Q2289.03 811.28 2287.91 813.207 L2287.91 824.496 Z" fill="#000000" fill-rule="evenodd" fill-opacity="1" /></svg>
